999
dxflib 2.0.4.8
  0
SECTION
  2
HEADER
  9
$ACADVER
  1
AC1015
  9
$HANDSEED
  5
FFFF
  9
$DIMASZ
 40
2.5
  9
$DIMGAP
 40
0.625
  9
$INSUNITS
 70
4
  9
$DIMEXO
 40
0.625
  9
$DIMTXT
 40
2.5
  9
$DIMSTYLE
  2
Standard
  9
$PLIMMIN
 10
0.0
 20
0.0
  9
$PLIMMAX
 10
210.0
 20
297.0
  9
$DIMEXE
 40
1.25
  0
ENDSEC
  0
SECTION
  2
TABLES
  0
TABLE
  2
VPORT
  5
8
100
AcDbSymbolTable
 70
1
  0
VPORT
  5
30
100
AcDbSymbolTableRecord
100
AcDbViewportTableRecord
  2
*Active
 70
0
 10
0.0
 20
0.0
 11
1.0
 21
1.0
 12
286.3055555555554861
 22
148.5
 13
0.0
 23
0.0
 14
10.0
 24
10.0
 15
10.0
 25
10.0
 16
0.0
 26
0.0
 36
1.0
 17
0.0
 27
0.0
 37
0.0
 40
297.0
 41
1.92798353909465
 42
50.0
 43
0.0
 44
0.0
 50
0.0
 51
0.0
 71
0
 72
100
 73
1
 74
3
 75
1
 76
1
 77
0
 78
0
281
0
 65
1
110
0.0
120
0.0
130
0.0
111
1.0
121
0.0
131
0.0
112
0.0
122
1.0
132
0.0
 79
0
146
0.0
  0
ENDTAB
  0
TABLE
  2
LTYPE
  5
5
100
AcDbSymbolTable
 70
21
  0
LTYPE
  5
14
100
AcDbSymbolTableRecord
100
AcDbLinetypeTableRecord
  2
ByBlock
 70
0
  3

 72
65
 73
0
 40
0.0
  0
LTYPE
  5
15
100
AcDbSymbolTableRecord
100
AcDbLinetypeTableRecord
  2
ByLayer
 70
0
  3

 72
65
 73
0
 40
0.0
  0
LTYPE
  5
16
100
AcDbSymbolTableRecord
100
AcDbLinetypeTableRecord
  2
CONTINUOUS
 70
0
  3
Solid line
 72
65
 73
0
 40
0.0
  0
LTYPE
  5
31
100
AcDbSymbolTableRecord
100
AcDbLinetypeTableRecord
  2
DOT
 70
0
  3
Dot . . . . . . . . . . . . . . . . . . . . . .
 72
65
 73
2
 40
6.3499999999999996
 49
0.0
 74
0
 49
-6.3499999999999996
 74
0
  0
LTYPE
  5
32
100
AcDbSymbolTableRecord
100
AcDbLinetypeTableRecord
  2
DOT2
 70
0
  3
Dot (.5x) .....................................
 72
65
 73
2
 40
3.1749999999999998
 49
0.0
 74
0
 49
-3.1749999999999998
 74
0
  0
LTYPE
  5
33
100
AcDbSymbolTableRecord
100
AcDbLinetypeTableRecord
  2
DOTX2
 70
0
  3
Dot (2x) .  .  .  .  .  .  .  .  .  .  .  .  .
 72
65
 73
2
 40
12.6999999999999993
 49
0.0
 74
0
 49
-12.6999999999999993
 74
0
  0
LTYPE
  5
34
100
AcDbSymbolTableRecord
100
AcDbLinetypeTableRecord
  2
DASHED
 70
0
  3
Dashed __ __ __ __ __ __ __ __ __ __ __ __ __ _
 72
65
 73
2
 40
19.0500000000000007
 49
12.6999999999999993
 74
0
 49
-6.3499999999999996
 74
0
  0
LTYPE
  5
35
100
AcDbSymbolTableRecord
100
AcDbLinetypeTableRecord
  2
DASHED2
 70
0
  3
Dashed (.5x) _ _ _ _ _ _ _ _ _ _ _ _ _ _ _ _ _
 72
65
 73
2
 40
9.5250000000000004
 49
6.3499999999999996
 74
0
 49
-3.1749999999999998
 74
0
  0
LTYPE
  5
36
100
AcDbSymbolTableRecord
100
AcDbLinetypeTableRecord
  2
DASHEDX2
 70
0
  3
Dashed (2x) ____  ____  ____  ____  ____  ___
 72
65
 73
2
 40
38.1000000000000014
 49
25.3999999999999986
 74
0
 49
-12.6999999999999993
 74
0
  0
LTYPE
  5
37
100
AcDbSymbolTableRecord
100
AcDbLinetypeTableRecord
  2
DASHDOT
 70
0
  3
Dash dot __ . __ . __ . __ . __ . __ . __ . __
 72
65
 73
4
 40
25.3999999999999986
 49
12.6999999999999993
 74
0
 49
-6.3499999999999996
 74
0
 49
0.0
 74
0
 49
-6.3499999999999996
 74
0
  0
LTYPE
  5
38
100
AcDbSymbolTableRecord
100
AcDbLinetypeTableRecord
  2
DASHDOT2
 70
0
  3
Dash dot (.5x) _._._._._._._._._._._._._._._.
 72
65
 73
4
 40
12.6999999999999993
 49
6.3499999999999996
 74
0
 49
-3.1749999999999998
 74
0
 49
0.0
 74
0
 49
-3.1749999999999998
 74
0
  0
LTYPE
  5
39
100
AcDbSymbolTableRecord
100
AcDbLinetypeTableRecord
  2
DASHDOTX2
 70
0
  3
Dash dot (2x) ____  .  ____  .  ____  .  ___
 72
65
 73
4
 40
50.7999999999999972
 49
25.3999999999999986
 74
0
 49
-12.6999999999999993
 74
0
 49
0.0
 74
0
 49
-12.6999999999999993
 74
0
  0
LTYPE
  5
3A
100
AcDbSymbolTableRecord
100
AcDbLinetypeTableRecord
  2
DIVIDE
 70
0
  3
Divide ____ . . ____ . . ____ . . ____ . . ____
 72
65
 73
6
 40
31.75
 49
12.6999999999999993
 74
0
 49
-6.3499999999999996
 74
0
 49
0.0
 74
0
 49
-6.3499999999999996
 74
0
 49
0.0
 74
0
 49
-6.3499999999999996
 74
0
  0
LTYPE
  5
3B
100
AcDbSymbolTableRecord
100
AcDbLinetypeTableRecord
  2
DIVIDE2
 70
0
  3
Divide (.5x) __..__..__..__..__..__..__..__.._
 72
65
 73
6
 40
15.875
 49
6.3499999999999996
 74
0
 49
-3.1749999999999998
 74
0
 49
0.0
 74
0
 49
-3.1749999999999998
 74
0
 49
0.0
 74
0
 49
-3.1749999999999998
 74
0
  0
LTYPE
  5
3C
100
AcDbSymbolTableRecord
100
AcDbLinetypeTableRecord
  2
DIVIDEX2
 70
0
  3
Divide (2x) ________  .  .  ________  .  .  _
 72
65
 73
6
 40
63.5
 49
25.3999999999999986
 74
0
 49
-12.6999999999999993
 74
0
 49
0.0
 74
0
 49
-12.6999999999999993
 74
0
 49
0.0
 74
0
 49
-12.6999999999999993
 74
0
  0
LTYPE
  5
3D
100
AcDbSymbolTableRecord
100
AcDbLinetypeTableRecord
  2
CENTER
 70
0
  3
Center ____ _ ____ _ ____ _ ____ _ ____ _ ____
 72
65
 73
4
 40
50.7999999999999972
 49
31.75
 74
0
 49
-6.3499999999999996
 74
0
 49
6.3499999999999996
 74
0
 49
-6.3499999999999996
 74
0
  0
LTYPE
  5
3E
100
AcDbSymbolTableRecord
100
AcDbLinetypeTableRecord
  2
CENTER2
 70
0
  3
Center (.5x) ___ _ ___ _ ___ _ ___ _ ___ _ ___
 72
65
 73
4
 40
28.5749999999999993
 49
19.0500000000000007
 74
0
 49
-3.1749999999999998
 74
0
 49
3.1749999999999998
 74
0
 49
-3.1749999999999998
 74
0
  0
LTYPE
  5
3F
100
AcDbSymbolTableRecord
100
AcDbLinetypeTableRecord
  2
CENTERX2
 70
0
  3
Center (2x) ________  __  ________  __  _____
 72
65
 73
4
 40
101.5999999999999943
 49
63.5
 74
0
 49
-12.6999999999999993
 74
0
 49
12.6999999999999993
 74
0
 49
-12.6999999999999993
 74
0
  0
LTYPE
  5
40
100
AcDbSymbolTableRecord
100
AcDbLinetypeTableRecord
  2
BORDER
 70
0
  3
Border __ __ . __ __ . __ __ . __ __ . __ __ .
 72
65
 73
6
 40
44.4500000000000028
 49
12.6999999999999993
 74
0
 49
-6.3499999999999996
 74
0
 49
12.6999999999999993
 74
0
 49
-6.3499999999999996
 74
0
 49
0.0
 74
0
 49
-6.3499999999999996
 74
0
  0
LTYPE
  5
41
100
AcDbSymbolTableRecord
100
AcDbLinetypeTableRecord
  2
BORDER2
 70
0
  3
Border (.5x) __.__.__.__.__.__.__.__.__.__.__.
 72
65
 73
6
 40
22.2250000000000014
 49
6.3499999999999996
 74
0
 49
-3.1749999999999998
 74
0
 49
6.3499999999999996
 74
0
 49
-3.1749999999999998
 74
0
 49
0.0
 74
0
 49
-3.1749999999999998
 74
0
  0
LTYPE
  5
42
100
AcDbSymbolTableRecord
100
AcDbLinetypeTableRecord
  2
BORDERX2
 70
0
  3
Border (2x) ____  ____  .  ____  ____  .  ___
 72
65
 73
6
 40
88.9000000000000057
 49
25.3999999999999986
 74
0
 49
-12.6999999999999993
 74
0
 49
25.3999999999999986
 74
0
 49
-12.6999999999999993
 74
0
 49
0.0
 74
0
 49
-12.6999999999999993
 74
0
  0
ENDTAB
  0
TABLE
  2
LAYER
  5
2
100
AcDbSymbolTable
 70
1
  0
LAYER
  5
10
100
AcDbSymbolTableRecord
100
AcDbLayerTableRecord
  2
0
 70
0
 62
7
  6
CONTINUOUS
370
0
390
F
  0
ENDTAB
  0
TABLE
  2
STYLE
  5
3
100
AcDbSymbolTable
 70
1
  0
STYLE
  5
11
100
AcDbSymbolTableRecord
100
AcDbTextStyleTableRecord
  2
Standard
 70
0
 40
0.0
 41
0.75
 50
0.0
 71
0
 42
2.5
  3
txt
  4

  0
ENDTAB
  0
TABLE
  2
VIEW
  5
6
100
AcDbSymbolTable
 70
0
  0
ENDTAB
  0
TABLE
  2
UCS
  5
7
100
AcDbSymbolTable
 70
0
  0
ENDTAB
  0
TABLE
  2
APPID
  5
9
100
AcDbSymbolTable
 70
1
  0
APPID
  5
12
100
AcDbSymbolTableRecord
100
AcDbRegAppTableRecord
  2
ACAD
 70
0
  0
ENDTAB
  0
TABLE
  2
DIMSTYLE
  5
A
100
AcDbSymbolTable
 70
1
100
AcDbDimStyleTable
 71
0
  0
DIMSTYLE
105
27
100
AcDbSymbolTableRecord
100
AcDbDimStyleTableRecord
  2
Standard
 41
2.5
 42
0.625
 43
3.75
 44
1.25
 70
0
 73
0
 74
0
 77
1
 78
8
140
2.5
141
2.5
143
0.03937007874016
147
0.625
171
3
172
1
271
2
272
2
274
3
278
44
283
0
284
8
340
11
  0
ENDTAB
  0
TABLE
  2
BLOCK_RECORD
  5
1
100
AcDbSymbolTable
 70
1
  0
BLOCK_RECORD
  5
1F
100
AcDbSymbolTableRecord
100
AcDbBlockTableRecord
  2
*Model_Space
340
22
  0
BLOCK_RECORD
  5
1B
100
AcDbSymbolTableRecord
100
AcDbBlockTableRecord
  2
*Paper_Space
340
1E
  0
BLOCK_RECORD
  5
23
100
AcDbSymbolTableRecord
100
AcDbBlockTableRecord
  2
*Paper_Space0
340
26
  0
ENDTAB
  0
ENDSEC
  0
SECTION
  2
BLOCKS
  0
BLOCK
  5
20
100
AcDbEntity
  8
0
100
AcDbBlockBegin
  2
*Model_Space
 70
0
 10
0.0
 20
0.0
 30
0.0
  3
*Model_Space
  1

  0
ENDBLK
  5
21
100
AcDbEntity
  8
0
100
AcDbBlockEnd
  0
BLOCK
  5
1C
100
AcDbEntity
 67
1
  8
0
100
AcDbBlockBegin
  2
*Paper_Space
 70
0
 10
0.0
 20
0.0
 30
0.0
  3
*Paper_Space
  1

  0
ENDBLK
  5
1D
100
AcDbEntity
 67
1
  8
0
100
AcDbBlockEnd
  0
BLOCK
  5
24
100
AcDbEntity
  8
0
100
AcDbBlockBegin
  2
*Paper_Space0
 70
0
 10
0.0
 20
0.0
 30
0.0
  3
*Paper_Space0
  1

  0
ENDBLK
  5
25
100
AcDbEntity
  8
0
100
AcDbBlockEnd
  0
ENDSEC
  0
SECTION
  2
ENTITIES
  0
LINE
  5
43
100
AcDbEntity
100
AcDbLine
  8
0
 62
256
370
-1
  6
ByLayer
 10
0.0
 20
0.0
 30
0.0
 11
600.0
 21
0.0
 31
0.0
  0
LINE
  5
44
100
AcDbEntity
100
AcDbLine
  8
0
 62
256
370
-1
  6
ByLayer
 10
600.0
 20
0.0
 30
0.0
 11
600.0
 21
300.0
 31
0.0
  0
LINE
  5
45
100
AcDbEntity
100
AcDbLine
  8
0
 62
256
370
-1
  6
ByLayer
 10
600.0
 20
300.0
 30
0.0
 11
0.0
 21
300.0
 31
0.0
  0
LINE
  5
46
100
AcDbEntity
100
AcDbLine
  8
0
 62
256
370
-1
  6
ByLayer
 10
0.0
 20
300.0
 30
0.0
 11
0.0
 21
0.0
 31
0.0
  0
LINE
  5
47
100
AcDbEntity
100
AcDbLine
  8
0
 62
256
370
-1
  6
ByLayer
 10
70.5
 20
282.0
 30
0.0
 11
70.5
 21
273.0
 31
0.0
  0
LINE
  5
48
100
AcDbEntity
100
AcDbLine
  8
0
 62
256
370
-1
  6
ByLayer
 10
84.5
 20
282.0
 30
0.0
 11
84.5
 21
273.0
 31
0.0
  0
LINE
  5
49
100
AcDbEntity
100
AcDbLine
  8
0
 62
256
370
-1
  6
ByLayer
 10
72.5000000000000142
 20
273.0
 30
0.0
 11
70.5000000000000142
 21
273.0
 31
0.0
  0
LINE
  5
4A
100
AcDbEntity
100
AcDbLine
  8
0
 62
256
370
-1
  6
ByLayer
 10
82.5
 20
273.0
 30
0.0
 11
84.5
 21
273.0
 31
0.0
  0
LINE
  5
4B
100
AcDbEntity
100
AcDbLine
  8
0
 62
256
370
-1
  6
ByLayer
 10
70.5
 20
282.0
 30
0.0
 11
84.5
 21
282.0
 31
0.0
  0
LINE
  5
4C
100
AcDbEntity
100
AcDbLine
  8
0
 62
256
370
-1
  6
ByLayer
 10
72.5
 20
250.0
 30
0.0
 11
72.5000000000000142
 21
273.0
 31
0.0
  0
LINE
  5
4D
100
AcDbEntity
100
AcDbLine
  8
0
 62
256
370
-1
  6
ByLayer
 10
82.5
 20
273.0
 30
0.0
 11
82.5
 21
250.0
 31
0.0
  0
LINE
  5
4E
100
AcDbEntity
100
AcDbLine
  8
0
 62
256
370
-1
  6
ByLayer
 10
82.5
 20
250.0
 30
0.0
 11
72.5
 21
250.0
 31
0.0
  0
LINE
  5
4F
100
AcDbEntity
100
AcDbLine
  8
0
 62
256
370
-1
  6
ByLayer
 10
87.5000000000000142
 20
264.5
 30
0.0
 11
89.1000000000000085
 21
264.5
 31
0.0
  0
LINE
  5
50
100
AcDbEntity
100
AcDbLine
  8
0
 62
256
370
-1
  6
ByLayer
 10
89.1000000000000085
 20
264.5
 30
0.0
 11
89.1000000000000085
 21
255.3000000000000114
 31
0.0
  0
LINE
  5
51
100
AcDbEntity
100
AcDbLine
  8
0
 62
256
370
-1
  6
ByLayer
 10
89.1000000000000085
 20
255.3000000000000114
 30
0.0
 11
87.5000000000000142
 21
255.3000000000000114
 31
0.0
  0
LINE
  5
52
100
AcDbEntity
100
AcDbLine
  8
0
 62
256
370
-1
  6
ByLayer
 10
87.5000000000000142
 20
255.3000000000000114
 30
0.0
 11
87.5000000000000142
 21
264.5
 31
0.0
  0
LINE
  5
53
100
AcDbEntity
100
AcDbLine
  8
0
 62
256
370
-1
  6
ByLayer
 10
97.1000000000000085
 20
264.1000000000000227
 30
0.0
 11
97.1000000000000085
 21
255.6999999999999886
 31
0.0
  0
LINE
  5
54
100
AcDbEntity
100
AcDbLine
  8
0
 62
256
370
-1
  6
ByLayer
 10
97.1000000000000085
 20
264.1000000000000227
 30
0.0
 11
100.6000000000000085
 21
264.1000000000000227
 31
0.0
  0
LINE
  5
55
100
AcDbEntity
100
AcDbLine
  8
0
 62
256
370
-1
  6
ByLayer
 10
100.6000000000000085
 20
264.1000000000000227
 30
0.0
 11
100.6000000000000085
 21
255.6999999999999886
 31
0.0
  0
LINE
  5
56
100
AcDbEntity
100
AcDbLine
  8
0
 62
256
370
-1
  6
ByLayer
 10
100.6000000000000085
 20
255.6999999999999886
 30
0.0
 11
97.1000000000000085
 21
255.6999999999999886
 31
0.0
  0
LINE
  5
57
100
AcDbEntity
100
AcDbLine
  8
0
 62
256
370
-1
  6
ByLayer
 10
23.0000000000000036
 20
227.5
 30
0.0
 11
23.0000000000000036
 21
227.5
 31
0.0
  0
LINE
  5
58
100
AcDbEntity
100
AcDbLine
  8
0
 62
256
370
-1
  6
ByLayer
 10
32.0
 20
227.5
 30
0.0
 11
32.0
 21
227.5
 31
0.0
  0
LINE
  5
59
100
AcDbEntity
100
AcDbLine
  8
0
 62
256
370
-1
  6
ByLayer
 10
23.0000000000000036
 20
220.5
 30
0.0
 11
32.0
 21
220.5
 31
0.0
  0
LINE
  5
5A
100
AcDbEntity
100
AcDbLine
  8
0
 62
256
370
-1
  6
ByLayer
 10
23.0000000000000036
 20
234.5
 30
0.0
 11
32.0
 21
234.5
 31
0.0
  0
LINE
  5
5B
100
AcDbEntity
100
AcDbLine
  8
0
 62
256
370
-1
  6
ByLayer
 10
32.0
 20
222.5
 30
0.0
 11
31.9999999999999964
 21
220.5
 31
0.0
  0
LINE
  5
5C
100
AcDbEntity
100
AcDbLine
  8
0
 62
256
370
-1
  6
ByLayer
 10
32.0
 20
232.5
 30
0.0
 11
32.0
 21
234.5
 31
0.0
  0
LINE
  5
5D
100
AcDbEntity
100
AcDbLine
  8
0
 62
256
370
-1
  6
ByLayer
 10
23.0000000000000036
 20
220.5
 30
0.0
 11
23.0000000000000036
 21
234.5
 31
0.0
  0
LINE
  5
5E
100
AcDbEntity
100
AcDbLine
  8
0
 62
256
370
-1
  6
ByLayer
 10
55.0
 20
222.5
 30
0.0
 11
32.0
 21
222.5
 31
0.0
  0
LINE
  5
5F
100
AcDbEntity
100
AcDbLine
  8
0
 62
256
370
-1
  6
ByLayer
 10
32.0
 20
232.5
 30
0.0
 11
55.0
 21
232.5
 31
0.0
  0
LINE
  5
60
100
AcDbEntity
100
AcDbLine
  8
0
 62
256
370
-1
  6
ByLayer
 10
55.0
 20
232.5
 30
0.0
 11
55.0
 21
222.5
 31
0.0
  0
LINE
  5
61
100
AcDbEntity
100
AcDbLine
  8
0
 62
256
370
-1
  6
ByLayer
 10
40.5
 20
237.5
 30
0.0
 11
40.5
 21
239.0999999999999943
 31
0.0
  0
LINE
  5
62
100
AcDbEntity
100
AcDbLine
  8
0
 62
256
370
-1
  6
ByLayer
 10
40.5
 20
239.0999999999999943
 30
0.0
 11
49.6999999999999886
 21
239.0999999999999943
 31
0.0
  0
LINE
  5
63
100
AcDbEntity
100
AcDbLine
  8
0
 62
256
370
-1
  6
ByLayer
 10
49.6999999999999886
 20
239.0999999999999943
 30
0.0
 11
49.7000000000000028
 21
237.5
 31
0.0
  0
LINE
  5
64
100
AcDbEntity
100
AcDbLine
  8
0
 62
256
370
-1
  6
ByLayer
 10
49.7000000000000028
 20
237.5
 30
0.0
 11
40.5
 21
237.5
 31
0.0
  0
LINE
  5
65
100
AcDbEntity
100
AcDbLine
  8
0
 62
256
370
-1
  6
ByLayer
 10
40.9000000000000199
 20
247.0999999999999943
 30
0.0
 11
49.3000000000000114
 21
247.0999999999999943
 31
0.0
  0
LINE
  5
66
100
AcDbEntity
100
AcDbLine
  8
0
 62
256
370
-1
  6
ByLayer
 10
40.9000000000000199
 20
247.0999999999999943
 30
0.0
 11
40.9000000000000199
 21
250.5999999999999943
 31
0.0
  0
LINE
  5
67
100
AcDbEntity
100
AcDbLine
  8
0
 62
256
370
-1
  6
ByLayer
 10
40.9000000000000199
 20
250.5999999999999943
 30
0.0
 11
49.3000000000000256
 21
250.5999999999999943
 31
0.0
  0
LINE
  5
68
100
AcDbEntity
100
AcDbLine
  8
0
 62
256
370
-1
  6
ByLayer
 10
49.3000000000000256
 20
250.5999999999999943
 30
0.0
 11
49.3000000000000114
 21
247.0999999999999943
 31
0.0
  0
LINE
  5
69
100
AcDbEntity
100
AcDbLine
  8
0
 62
256
370
-1
  6
ByLayer
 10
132.0
 20
227.5
 30
0.0
 11
132.0
 21
227.5
 31
0.0
  0
LINE
  5
6A
100
AcDbEntity
100
AcDbLine
  8
0
 62
256
370
-1
  6
ByLayer
 10
123.0
 20
227.5
 30
0.0
 11
123.0
 21
227.5
 31
0.0
  0
LINE
  5
6B
100
AcDbEntity
100
AcDbLine
  8
0
 62
256
370
-1
  6
ByLayer
 10
132.0
 20
234.5
 30
0.0
 11
123.0
 21
234.5
 31
0.0
  0
LINE
  5
6C
100
AcDbEntity
100
AcDbLine
  8
0
 62
256
370
-1
  6
ByLayer
 10
132.0
 20
220.5
 30
0.0
 11
123.0
 21
220.5
 31
0.0
  0
LINE
  5
6D
100
AcDbEntity
100
AcDbLine
  8
0
 62
256
370
-1
  6
ByLayer
 10
123.0
 20
232.5
 30
0.0
 11
123.0000000000000142
 21
234.5
 31
0.0
  0
LINE
  5
6E
100
AcDbEntity
100
AcDbLine
  8
0
 62
256
370
-1
  6
ByLayer
 10
123.0
 20
222.5
 30
0.0
 11
123.0
 21
220.5
 31
0.0
  0
LINE
  5
6F
100
AcDbEntity
100
AcDbLine
  8
0
 62
256
370
-1
  6
ByLayer
 10
132.0
 20
234.5
 30
0.0
 11
132.0
 21
220.5
 31
0.0
  0
LINE
  5
70
100
AcDbEntity
100
AcDbLine
  8
0
 62
256
370
-1
  6
ByLayer
 10
100.0
 20
232.5000000000000284
 30
0.0
 11
123.0
 21
232.5
 31
0.0
  0
LINE
  5
71
100
AcDbEntity
100
AcDbLine
  8
0
 62
256
370
-1
  6
ByLayer
 10
123.0
 20
222.5
 30
0.0
 11
100.0
 21
222.5
 31
0.0
  0
LINE
  5
72
100
AcDbEntity
100
AcDbLine
  8
0
 62
256
370
-1
  6
ByLayer
 10
100.0
 20
222.5
 30
0.0
 11
100.0
 21
232.5000000000000284
 31
0.0
  0
LINE
  5
73
100
AcDbEntity
100
AcDbLine
  8
0
 62
256
370
-1
  6
ByLayer
 10
114.5
 20
217.5
 30
0.0
 11
114.5
 21
215.9000000000000057
 31
0.0
  0
LINE
  5
74
100
AcDbEntity
100
AcDbLine
  8
0
 62
256
370
-1
  6
ByLayer
 10
114.5
 20
215.9000000000000057
 30
0.0
 11
105.3000000000000114
 21
215.9000000000000057
 31
0.0
  0
LINE
  5
75
100
AcDbEntity
100
AcDbLine
  8
0
 62
256
370
-1
  6
ByLayer
 10
105.3000000000000114
 20
215.9000000000000057
 30
0.0
 11
105.3000000000000114
 21
217.5
 31
0.0
  0
LINE
  5
76
100
AcDbEntity
100
AcDbLine
  8
0
 62
256
370
-1
  6
ByLayer
 10
105.3000000000000114
 20
217.5
 30
0.0
 11
114.5
 21
217.5
 31
0.0
  0
LINE
  5
77
100
AcDbEntity
100
AcDbLine
  8
0
 62
256
370
-1
  6
ByLayer
 10
114.0999999999999943
 20
207.9000000000000057
 30
0.0
 11
105.6999999999999886
 21
207.9000000000000057
 31
0.0
  0
LINE
  5
78
100
AcDbEntity
100
AcDbLine
  8
0
 62
256
370
-1
  6
ByLayer
 10
114.0999999999999943
 20
207.9000000000000057
 30
0.0
 11
114.0999999999999943
 21
204.4000000000000057
 31
0.0
  0
LINE
  5
79
100
AcDbEntity
100
AcDbLine
  8
0
 62
256
370
-1
  6
ByLayer
 10
114.0999999999999943
 20
204.4000000000000057
 30
0.0
 11
105.6999999999999602
 21
204.4000000000000057
 31
0.0
  0
LINE
  5
7A
100
AcDbEntity
100
AcDbLine
  8
0
 62
256
370
-1
  6
ByLayer
 10
105.6999999999999602
 20
204.4000000000000057
 30
0.0
 11
105.6999999999999886
 21
207.9000000000000057
 31
0.0
  0
LINE
  5
7B
100
AcDbEntity
100
AcDbLine
  8
0
 62
256
370
-1
  6
ByLayer
 10
77.5
 20
173.0
 30
0.0
 11
77.5
 21
173.0
 31
0.0
  0
LINE
  5
7C
100
AcDbEntity
100
AcDbLine
  8
0
 62
256
370
-1
  6
ByLayer
 10
77.5
 20
182.0
 30
0.0
 11
77.5
 21
182.0
 31
0.0
  0
LINE
  5
7D
100
AcDbEntity
100
AcDbLine
  8
0
 62
256
370
-1
  6
ByLayer
 10
84.5
 20
173.0
 30
0.0
 11
84.5
 21
182.0
 31
0.0
  0
LINE
  5
7E
100
AcDbEntity
100
AcDbLine
  8
0
 62
256
370
-1
  6
ByLayer
 10
70.5
 20
173.0
 30
0.0
 11
70.5
 21
182.0
 31
0.0
  0
LINE
  5
7F
100
AcDbEntity
100
AcDbLine
  8
0
 62
256
370
-1
  6
ByLayer
 10
82.5
 20
182.0
 30
0.0
 11
84.5
 21
181.9999999999999716
 31
0.0
  0
LINE
  5
80
100
AcDbEntity
100
AcDbLine
  8
0
 62
256
370
-1
  6
ByLayer
 10
72.5
 20
182.0
 30
0.0
 11
70.5
 21
182.0
 31
0.0
  0
LINE
  5
81
100
AcDbEntity
100
AcDbLine
  8
0
 62
256
370
-1
  6
ByLayer
 10
84.5
 20
173.0
 30
0.0
 11
70.5
 21
173.0
 31
0.0
  0
LINE
  5
82
100
AcDbEntity
100
AcDbLine
  8
0
 62
256
370
-1
  6
ByLayer
 10
82.5000000000000284
 20
205.0
 30
0.0
 11
82.5
 21
182.0
 31
0.0
  0
LINE
  5
83
100
AcDbEntity
100
AcDbLine
  8
0
 62
256
370
-1
  6
ByLayer
 10
72.5
 20
182.0
 30
0.0
 11
72.4999999999999858
 21
205.0
 31
0.0
  0
LINE
  5
84
100
AcDbEntity
100
AcDbLine
  8
0
 62
256
370
-1
  6
ByLayer
 10
72.4999999999999858
 20
205.0
 30
0.0
 11
82.5000000000000284
 21
205.0
 31
0.0
  0
LINE
  5
85
100
AcDbEntity
100
AcDbLine
  8
0
 62
256
370
-1
  6
ByLayer
 10
67.5
 20
190.5
 30
0.0
 11
65.9000000000000057
 21
190.5
 31
0.0
  0
LINE
  5
86
100
AcDbEntity
100
AcDbLine
  8
0
 62
256
370
-1
  6
ByLayer
 10
65.9000000000000057
 20
190.5
 30
0.0
 11
65.9000000000000341
 21
199.7000000000000171
 31
0.0
  0
LINE
  5
87
100
AcDbEntity
100
AcDbLine
  8
0
 62
256
370
-1
  6
ByLayer
 10
65.9000000000000341
 20
199.7000000000000171
 30
0.0
 11
67.5000000000000284
 21
199.6999999999999886
 31
0.0
  0
LINE
  5
88
100
AcDbEntity
100
AcDbLine
  8
0
 62
256
370
-1
  6
ByLayer
 10
67.5000000000000284
 20
199.6999999999999886
 30
0.0
 11
67.5
 21
190.5
 31
0.0
  0
LINE
  5
89
100
AcDbEntity
100
AcDbLine
  8
0
 62
256
370
-1
  6
ByLayer
 10
57.9000000000000199
 20
190.9000000000000341
 30
0.0
 11
57.9000000000000199
 21
199.3000000000000398
 31
0.0
  0
LINE
  5
8A
100
AcDbEntity
100
AcDbLine
  8
0
 62
256
370
-1
  6
ByLayer
 10
57.9000000000000199
 20
190.9000000000000341
 30
0.0
 11
54.4000000000000057
 21
190.9000000000000057
 31
0.0
  0
LINE
  5
8B
100
AcDbEntity
100
AcDbLine
  8
0
 62
256
370
-1
  6
ByLayer
 10
54.4000000000000057
 20
190.9000000000000057
 30
0.0
 11
54.4000000000000199
 21
199.3000000000000398
 31
0.0
  0
LINE
  5
8C
100
AcDbEntity
100
AcDbLine
  8
0
 62
256
370
-1
  6
ByLayer
 10
54.4000000000000199
 20
199.3000000000000398
 30
0.0
 11
57.9000000000000199
 21
199.3000000000000398
 31
0.0
  0
LINE
  5
8D
100
AcDbEntity
100
AcDbLine
  8
0
 62
256
370
-1
  6
ByLayer
 10
23.0000000000000036
 20
127.5
 30
0.0
 11
23.0000000000000036
 21
127.5
 31
0.0
  0
LINE
  5
8E
100
AcDbEntity
100
AcDbLine
  8
0
 62
256
370
-1
  6
ByLayer
 10
32.0
 20
127.5
 30
0.0
 11
32.0
 21
127.5
 31
0.0
  0
LINE
  5
8F
100
AcDbEntity
100
AcDbLine
  8
0
 62
256
370
-1
  6
ByLayer
 10
23.0000000000000036
 20
120.5
 30
0.0
 11
32.0
 21
120.5
 31
0.0
  0
LINE
  5
90
100
AcDbEntity
100
AcDbLine
  8
0
 62
256
370
-1
  6
ByLayer
 10
23.0000000000000036
 20
134.5
 30
0.0
 11
32.0
 21
134.5
 31
0.0
  0
LINE
  5
91
100
AcDbEntity
100
AcDbLine
  8
0
 62
256
370
-1
  6
ByLayer
 10
32.0
 20
122.5
 30
0.0
 11
31.9999999999999964
 21
120.5
 31
0.0
  0
LINE
  5
92
100
AcDbEntity
100
AcDbLine
  8
0
 62
256
370
-1
  6
ByLayer
 10
32.0
 20
132.5
 30
0.0
 11
32.0
 21
134.5
 31
0.0
  0
LINE
  5
93
100
AcDbEntity
100
AcDbLine
  8
0
 62
256
370
-1
  6
ByLayer
 10
23.0000000000000036
 20
120.5
 30
0.0
 11
23.0000000000000036
 21
134.5
 31
0.0
  0
LINE
  5
94
100
AcDbEntity
100
AcDbLine
  8
0
 62
256
370
-1
  6
ByLayer
 10
55.0
 20
122.5
 30
0.0
 11
32.0
 21
122.5
 31
0.0
  0
LINE
  5
95
100
AcDbEntity
100
AcDbLine
  8
0
 62
256
370
-1
  6
ByLayer
 10
32.0
 20
132.5
 30
0.0
 11
55.0
 21
132.5
 31
0.0
  0
LINE
  5
96
100
AcDbEntity
100
AcDbLine
  8
0
 62
256
370
-1
  6
ByLayer
 10
55.0
 20
132.5
 30
0.0
 11
55.0
 21
122.5
 31
0.0
  0
LINE
  5
97
100
AcDbEntity
100
AcDbLine
  8
0
 62
256
370
-1
  6
ByLayer
 10
40.5
 20
137.5
 30
0.0
 11
40.5
 21
139.0999999999999943
 31
0.0
  0
LINE
  5
98
100
AcDbEntity
100
AcDbLine
  8
0
 62
256
370
-1
  6
ByLayer
 10
40.5
 20
139.0999999999999943
 30
0.0
 11
49.6999999999999886
 21
139.0999999999999943
 31
0.0
  0
LINE
  5
99
100
AcDbEntity
100
AcDbLine
  8
0
 62
256
370
-1
  6
ByLayer
 10
49.6999999999999886
 20
139.0999999999999943
 30
0.0
 11
49.7000000000000028
 21
137.5
 31
0.0
  0
LINE
  5
9A
100
AcDbEntity
100
AcDbLine
  8
0
 62
256
370
-1
  6
ByLayer
 10
49.7000000000000028
 20
137.5
 30
0.0
 11
40.5
 21
137.5
 31
0.0
  0
LINE
  5
9B
100
AcDbEntity
100
AcDbLine
  8
0
 62
256
370
-1
  6
ByLayer
 10
40.9000000000000199
 20
147.0999999999999943
 30
0.0
 11
49.3000000000000114
 21
147.0999999999999943
 31
0.0
  0
LINE
  5
9C
100
AcDbEntity
100
AcDbLine
  8
0
 62
256
370
-1
  6
ByLayer
 10
40.9000000000000199
 20
147.0999999999999943
 30
0.0
 11
40.9000000000000199
 21
150.5999999999999943
 31
0.0
  0
LINE
  5
9D
100
AcDbEntity
100
AcDbLine
  8
0
 62
256
370
-1
  6
ByLayer
 10
40.9000000000000199
 20
150.5999999999999943
 30
0.0
 11
49.3000000000000256
 21
150.5999999999999943
 31
0.0
  0
LINE
  5
9E
100
AcDbEntity
100
AcDbLine
  8
0
 62
256
370
-1
  6
ByLayer
 10
49.3000000000000256
 20
150.5999999999999943
 30
0.0
 11
49.3000000000000114
 21
147.0999999999999943
 31
0.0
  0
LINE
  5
9F
100
AcDbEntity
100
AcDbLine
  8
0
 62
256
370
-1
  6
ByLayer
 10
132.0
 20
127.5
 30
0.0
 11
132.0
 21
127.5
 31
0.0
  0
LINE
  5
A0
100
AcDbEntity
100
AcDbLine
  8
0
 62
256
370
-1
  6
ByLayer
 10
123.0
 20
127.5
 30
0.0
 11
123.0
 21
127.5
 31
0.0
  0
LINE
  5
A1
100
AcDbEntity
100
AcDbLine
  8
0
 62
256
370
-1
  6
ByLayer
 10
132.0
 20
134.5
 30
0.0
 11
123.0
 21
134.5
 31
0.0
  0
LINE
  5
A2
100
AcDbEntity
100
AcDbLine
  8
0
 62
256
370
-1
  6
ByLayer
 10
132.0
 20
120.5
 30
0.0
 11
123.0
 21
120.5
 31
0.0
  0
LINE
  5
A3
100
AcDbEntity
100
AcDbLine
  8
0
 62
256
370
-1
  6
ByLayer
 10
123.0
 20
132.5
 30
0.0
 11
123.0000000000000142
 21
134.5
 31
0.0
  0
LINE
  5
A4
100
AcDbEntity
100
AcDbLine
  8
0
 62
256
370
-1
  6
ByLayer
 10
123.0
 20
122.5
 30
0.0
 11
123.0
 21
120.5
 31
0.0
  0
LINE
  5
A5
100
AcDbEntity
100
AcDbLine
  8
0
 62
256
370
-1
  6
ByLayer
 10
132.0
 20
134.5
 30
0.0
 11
132.0
 21
120.5
 31
0.0
  0
LINE
  5
A6
100
AcDbEntity
100
AcDbLine
  8
0
 62
256
370
-1
  6
ByLayer
 10
100.0
 20
132.5000000000000284
 30
0.0
 11
123.0
 21
132.5
 31
0.0
  0
LINE
  5
A7
100
AcDbEntity
100
AcDbLine
  8
0
 62
256
370
-1
  6
ByLayer
 10
123.0
 20
122.5
 30
0.0
 11
100.0
 21
122.5
 31
0.0
  0
LINE
  5
A8
100
AcDbEntity
100
AcDbLine
  8
0
 62
256
370
-1
  6
ByLayer
 10
100.0
 20
122.5
 30
0.0
 11
100.0
 21
132.5000000000000284
 31
0.0
  0
LINE
  5
A9
100
AcDbEntity
100
AcDbLine
  8
0
 62
256
370
-1
  6
ByLayer
 10
114.5
 20
117.5
 30
0.0
 11
114.5
 21
115.9000000000000057
 31
0.0
  0
LINE
  5
AA
100
AcDbEntity
100
AcDbLine
  8
0
 62
256
370
-1
  6
ByLayer
 10
114.5
 20
115.9000000000000057
 30
0.0
 11
105.3000000000000114
 21
115.9000000000000057
 31
0.0
  0
LINE
  5
AB
100
AcDbEntity
100
AcDbLine
  8
0
 62
256
370
-1
  6
ByLayer
 10
105.3000000000000114
 20
115.9000000000000057
 30
0.0
 11
105.3000000000000114
 21
117.5
 31
0.0
  0
LINE
  5
AC
100
AcDbEntity
100
AcDbLine
  8
0
 62
256
370
-1
  6
ByLayer
 10
105.3000000000000114
 20
117.5
 30
0.0
 11
114.5
 21
117.5
 31
0.0
  0
LINE
  5
AD
100
AcDbEntity
100
AcDbLine
  8
0
 62
256
370
-1
  6
ByLayer
 10
114.0999999999999943
 20
107.9000000000000057
 30
0.0
 11
105.6999999999999886
 21
107.9000000000000057
 31
0.0
  0
LINE
  5
AE
100
AcDbEntity
100
AcDbLine
  8
0
 62
256
370
-1
  6
ByLayer
 10
114.0999999999999943
 20
107.9000000000000057
 30
0.0
 11
114.0999999999999943
 21
104.4000000000000057
 31
0.0
  0
LINE
  5
AF
100
AcDbEntity
100
AcDbLine
  8
0
 62
256
370
-1
  6
ByLayer
 10
114.0999999999999943
 20
104.4000000000000057
 30
0.0
 11
105.6999999999999602
 21
104.4000000000000057
 31
0.0
  0
LINE
  5
B0
100
AcDbEntity
100
AcDbLine
  8
0
 62
256
370
-1
  6
ByLayer
 10
105.6999999999999602
 20
104.4000000000000057
 30
0.0
 11
105.6999999999999886
 21
107.9000000000000057
 31
0.0
  0
LINE
  5
B1
100
AcDbEntity
100
AcDbLine
  8
0
 62
256
370
-1
  6
ByLayer
 10
77.5
 20
73.0
 30
0.0
 11
77.5
 21
73.0
 31
0.0
  0
LINE
  5
B2
100
AcDbEntity
100
AcDbLine
  8
0
 62
256
370
-1
  6
ByLayer
 10
84.5
 20
73.0
 30
0.0
 11
84.5
 21
82.0
 31
0.0
  0
LINE
  5
B3
100
AcDbEntity
100
AcDbLine
  8
0
 62
256
370
-1
  6
ByLayer
 10
70.5
 20
73.0
 30
0.0
 11
70.5
 21
82.0
 31
0.0
  0
LINE
  5
B4
100
AcDbEntity
100
AcDbLine
  8
0
 62
256
370
-1
  6
ByLayer
 10
82.5
 20
82.0
 30
0.0
 11
84.5
 21
81.9999999999999716
 31
0.0
  0
LINE
  5
B5
100
AcDbEntity
100
AcDbLine
  8
0
 62
256
370
-1
  6
ByLayer
 10
72.5
 20
82.0
 30
0.0
 11
70.5
 21
82.0
 31
0.0
  0
LINE
  5
B6
100
AcDbEntity
100
AcDbLine
  8
0
 62
256
370
-1
  6
ByLayer
 10
84.5
 20
73.0
 30
0.0
 11
70.5
 21
73.0
 31
0.0
  0
LINE
  5
B7
100
AcDbEntity
100
AcDbLine
  8
0
 62
256
370
-1
  6
ByLayer
 10
82.5000000000000284
 20
105.0
 30
0.0
 11
82.5
 21
82.0
 31
0.0
  0
LINE
  5
B8
100
AcDbEntity
100
AcDbLine
  8
0
 62
256
370
-1
  6
ByLayer
 10
72.5
 20
82.0
 30
0.0
 11
72.4999999999999858
 21
105.0
 31
0.0
  0
LINE
  5
B9
100
AcDbEntity
100
AcDbLine
  8
0
 62
256
370
-1
  6
ByLayer
 10
72.4999999999999858
 20
105.0
 30
0.0
 11
82.5000000000000284
 21
105.0
 31
0.0
  0
LINE
  5
BA
100
AcDbEntity
100
AcDbLine
  8
0
 62
256
370
-1
  6
ByLayer
 10
67.5
 20
90.5
 30
0.0
 11
65.9000000000000057
 21
90.5
 31
0.0
  0
LINE
  5
BB
100
AcDbEntity
100
AcDbLine
  8
0
 62
256
370
-1
  6
ByLayer
 10
65.9000000000000057
 20
90.5
 30
0.0
 11
65.9000000000000341
 21
99.7000000000000171
 31
0.0
  0
LINE
  5
BC
100
AcDbEntity
100
AcDbLine
  8
0
 62
256
370
-1
  6
ByLayer
 10
65.9000000000000341
 20
99.7000000000000171
 30
0.0
 11
67.5000000000000284
 21
99.6999999999999886
 31
0.0
  0
LINE
  5
BD
100
AcDbEntity
100
AcDbLine
  8
0
 62
256
370
-1
  6
ByLayer
 10
67.5000000000000284
 20
99.6999999999999886
 30
0.0
 11
67.5
 21
90.5
 31
0.0
  0
LINE
  5
BE
100
AcDbEntity
100
AcDbLine
  8
0
 62
256
370
-1
  6
ByLayer
 10
57.9000000000000199
 20
90.9000000000000341
 30
0.0
 11
57.9000000000000199
 21
99.3000000000000398
 31
0.0
  0
LINE
  5
BF
100
AcDbEntity
100
AcDbLine
  8
0
 62
256
370
-1
  6
ByLayer
 10
57.9000000000000199
 20
90.9000000000000341
 30
0.0
 11
54.4000000000000057
 21
90.9000000000000057
 31
0.0
  0
LINE
  5
C0
100
AcDbEntity
100
AcDbLine
  8
0
 62
256
370
-1
  6
ByLayer
 10
54.4000000000000057
 20
90.9000000000000057
 30
0.0
 11
54.4000000000000199
 21
99.3000000000000398
 31
0.0
  0
LINE
  5
C1
100
AcDbEntity
100
AcDbLine
  8
0
 62
256
370
-1
  6
ByLayer
 10
54.4000000000000199
 20
99.3000000000000398
 30
0.0
 11
57.9000000000000199
 21
99.3000000000000398
 31
0.0
  0
LINE
  5
C2
100
AcDbEntity
100
AcDbLine
  8
0
 62
256
370
-1
  6
ByLayer
 10
200.5
 20
282.0
 30
0.0
 11
200.5
 21
273.0
 31
0.0
  0
LINE
  5
C3
100
AcDbEntity
100
AcDbLine
  8
0
 62
256
370
-1
  6
ByLayer
 10
214.5
 20
282.0
 30
0.0
 11
214.5
 21
273.0
 31
0.0
  0
LINE
  5
C4
100
AcDbEntity
100
AcDbLine
  8
0
 62
256
370
-1
  6
ByLayer
 10
202.5
 20
273.0
 30
0.0
 11
200.5
 21
273.0
 31
0.0
  0
LINE
  5
C5
100
AcDbEntity
100
AcDbLine
  8
0
 62
256
370
-1
  6
ByLayer
 10
212.5
 20
273.0
 30
0.0
 11
214.5
 21
273.0
 31
0.0
  0
LINE
  5
C6
100
AcDbEntity
100
AcDbLine
  8
0
 62
256
370
-1
  6
ByLayer
 10
200.5
 20
282.0
 30
0.0
 11
214.5
 21
282.0
 31
0.0
  0
LINE
  5
C7
100
AcDbEntity
100
AcDbLine
  8
0
 62
256
370
-1
  6
ByLayer
 10
202.5
 20
250.0
 30
0.0
 11
202.5
 21
273.0
 31
0.0
  0
LINE
  5
C8
100
AcDbEntity
100
AcDbLine
  8
0
 62
256
370
-1
  6
ByLayer
 10
212.5
 20
273.0
 30
0.0
 11
212.5
 21
250.0
 31
0.0
  0
LINE
  5
C9
100
AcDbEntity
100
AcDbLine
  8
0
 62
256
370
-1
  6
ByLayer
 10
212.5
 20
250.0
 30
0.0
 11
202.5
 21
250.0
 31
0.0
  0
LINE
  5
CA
100
AcDbEntity
100
AcDbLine
  8
0
 62
256
370
-1
  6
ByLayer
 10
217.5
 20
264.5
 30
0.0
 11
219.1000000000000227
 21
264.5
 31
0.0
  0
LINE
  5
CB
100
AcDbEntity
100
AcDbLine
  8
0
 62
256
370
-1
  6
ByLayer
 10
219.1000000000000227
 20
264.5
 30
0.0
 11
219.1000000000000227
 21
255.3000000000000114
 31
0.0
  0
LINE
  5
CC
100
AcDbEntity
100
AcDbLine
  8
0
 62
256
370
-1
  6
ByLayer
 10
219.1000000000000227
 20
255.3000000000000114
 30
0.0
 11
217.5
 21
255.3000000000000114
 31
0.0
  0
LINE
  5
CD
100
AcDbEntity
100
AcDbLine
  8
0
 62
256
370
-1
  6
ByLayer
 10
217.5
 20
255.3000000000000114
 30
0.0
 11
217.5
 21
264.5
 31
0.0
  0
LINE
  5
CE
100
AcDbEntity
100
AcDbLine
  8
0
 62
256
370
-1
  6
ByLayer
 10
227.1000000000000227
 20
264.1000000000000227
 30
0.0
 11
227.1000000000000227
 21
255.6999999999999886
 31
0.0
  0
LINE
  5
CF
100
AcDbEntity
100
AcDbLine
  8
0
 62
256
370
-1
  6
ByLayer
 10
227.1000000000000227
 20
264.1000000000000227
 30
0.0
 11
230.6000000000000227
 21
264.1000000000000227
 31
0.0
  0
LINE
  5
D0
100
AcDbEntity
100
AcDbLine
  8
0
 62
256
370
-1
  6
ByLayer
 10
230.6000000000000227
 20
264.1000000000000227
 30
0.0
 11
230.6000000000000227
 21
255.6999999999999886
 31
0.0
  0
LINE
  5
D1
100
AcDbEntity
100
AcDbLine
  8
0
 62
256
370
-1
  6
ByLayer
 10
230.6000000000000227
 20
255.6999999999999886
 30
0.0
 11
227.1000000000000227
 21
255.6999999999999886
 31
0.0
  0
LINE
  5
D2
100
AcDbEntity
100
AcDbLine
  8
0
 62
256
370
-1
  6
ByLayer
 10
153.0
 20
227.5
 30
0.0
 11
153.0
 21
227.5
 31
0.0
  0
LINE
  5
D3
100
AcDbEntity
100
AcDbLine
  8
0
 62
256
370
-1
  6
ByLayer
 10
162.0
 20
227.5
 30
0.0
 11
162.0
 21
227.5
 31
0.0
  0
LINE
  5
D4
100
AcDbEntity
100
AcDbLine
  8
0
 62
256
370
-1
  6
ByLayer
 10
153.0
 20
220.5
 30
0.0
 11
162.0
 21
220.5
 31
0.0
  0
LINE
  5
D5
100
AcDbEntity
100
AcDbLine
  8
0
 62
256
370
-1
  6
ByLayer
 10
153.0
 20
234.5
 30
0.0
 11
162.0
 21
234.5
 31
0.0
  0
LINE
  5
D6
100
AcDbEntity
100
AcDbLine
  8
0
 62
256
370
-1
  6
ByLayer
 10
162.0
 20
222.5
 30
0.0
 11
162.0
 21
220.5
 31
0.0
  0
LINE
  5
D7
100
AcDbEntity
100
AcDbLine
  8
0
 62
256
370
-1
  6
ByLayer
 10
162.0
 20
232.5
 30
0.0
 11
162.0
 21
234.5
 31
0.0
  0
LINE
  5
D8
100
AcDbEntity
100
AcDbLine
  8
0
 62
256
370
-1
  6
ByLayer
 10
153.0
 20
220.5
 30
0.0
 11
153.0
 21
234.5
 31
0.0
  0
LINE
  5
D9
100
AcDbEntity
100
AcDbLine
  8
0
 62
256
370
-1
  6
ByLayer
 10
185.0
 20
222.5
 30
0.0
 11
162.0
 21
222.5
 31
0.0
  0
LINE
  5
DA
100
AcDbEntity
100
AcDbLine
  8
0
 62
256
370
-1
  6
ByLayer
 10
162.0
 20
232.5
 30
0.0
 11
185.0
 21
232.5
 31
0.0
  0
LINE
  5
DB
100
AcDbEntity
100
AcDbLine
  8
0
 62
256
370
-1
  6
ByLayer
 10
185.0
 20
232.5
 30
0.0
 11
185.0
 21
222.5
 31
0.0
  0
LINE
  5
DC
100
AcDbEntity
100
AcDbLine
  8
0
 62
256
370
-1
  6
ByLayer
 10
170.5
 20
237.5
 30
0.0
 11
170.5
 21
239.0999999999999943
 31
0.0
  0
LINE
  5
DD
100
AcDbEntity
100
AcDbLine
  8
0
 62
256
370
-1
  6
ByLayer
 10
170.5
 20
239.0999999999999943
 30
0.0
 11
179.6999999999999886
 21
239.0999999999999943
 31
0.0
  0
LINE
  5
DE
100
AcDbEntity
100
AcDbLine
  8
0
 62
256
370
-1
  6
ByLayer
 10
179.6999999999999886
 20
239.0999999999999943
 30
0.0
 11
179.6999999999999886
 21
237.5
 31
0.0
  0
LINE
  5
DF
100
AcDbEntity
100
AcDbLine
  8
0
 62
256
370
-1
  6
ByLayer
 10
179.6999999999999886
 20
237.5
 30
0.0
 11
170.5
 21
237.5
 31
0.0
  0
LINE
  5
E0
100
AcDbEntity
100
AcDbLine
  8
0
 62
256
370
-1
  6
ByLayer
 10
170.9000000000000057
 20
247.0999999999999943
 30
0.0
 11
179.3000000000000114
 21
247.0999999999999943
 31
0.0
  0
LINE
  5
E1
100
AcDbEntity
100
AcDbLine
  8
0
 62
256
370
-1
  6
ByLayer
 10
170.9000000000000057
 20
247.0999999999999943
 30
0.0
 11
170.9000000000000057
 21
250.5999999999999943
 31
0.0
  0
LINE
  5
E2
100
AcDbEntity
100
AcDbLine
  8
0
 62
256
370
-1
  6
ByLayer
 10
170.9000000000000057
 20
250.5999999999999943
 30
0.0
 11
179.3000000000000114
 21
250.5999999999999943
 31
0.0
  0
LINE
  5
E3
100
AcDbEntity
100
AcDbLine
  8
0
 62
256
370
-1
  6
ByLayer
 10
179.3000000000000114
 20
250.5999999999999943
 30
0.0
 11
179.3000000000000114
 21
247.0999999999999943
 31
0.0
  0
LINE
  5
E4
100
AcDbEntity
100
AcDbLine
  8
0
 62
256
370
-1
  6
ByLayer
 10
262.0
 20
227.5
 30
0.0
 11
262.0
 21
227.5
 31
0.0
  0
LINE
  5
E5
100
AcDbEntity
100
AcDbLine
  8
0
 62
256
370
-1
  6
ByLayer
 10
253.0
 20
227.5
 30
0.0
 11
253.0
 21
227.5
 31
0.0
  0
LINE
  5
E6
100
AcDbEntity
100
AcDbLine
  8
0
 62
256
370
-1
  6
ByLayer
 10
262.0
 20
234.5
 30
0.0
 11
253.0
 21
234.5
 31
0.0
  0
LINE
  5
E7
100
AcDbEntity
100
AcDbLine
  8
0
 62
256
370
-1
  6
ByLayer
 10
262.0
 20
220.5
 30
0.0
 11
253.0
 21
220.5
 31
0.0
  0
LINE
  5
E8
100
AcDbEntity
100
AcDbLine
  8
0
 62
256
370
-1
  6
ByLayer
 10
253.0
 20
232.5
 30
0.0
 11
253.0
 21
234.5
 31
0.0
  0
LINE
  5
E9
100
AcDbEntity
100
AcDbLine
  8
0
 62
256
370
-1
  6
ByLayer
 10
253.0
 20
222.5
 30
0.0
 11
253.0
 21
220.5
 31
0.0
  0
LINE
  5
EA
100
AcDbEntity
100
AcDbLine
  8
0
 62
256
370
-1
  6
ByLayer
 10
262.0
 20
234.5
 30
0.0
 11
262.0
 21
220.5
 31
0.0
  0
LINE
  5
EB
100
AcDbEntity
100
AcDbLine
  8
0
 62
256
370
-1
  6
ByLayer
 10
230.0
 20
232.5000000000000284
 30
0.0
 11
253.0
 21
232.5
 31
0.0
  0
LINE
  5
EC
100
AcDbEntity
100
AcDbLine
  8
0
 62
256
370
-1
  6
ByLayer
 10
253.0
 20
222.5
 30
0.0
 11
230.0
 21
222.5
 31
0.0
  0
LINE
  5
ED
100
AcDbEntity
100
AcDbLine
  8
0
 62
256
370
-1
  6
ByLayer
 10
230.0
 20
222.5
 30
0.0
 11
230.0
 21
232.5000000000000284
 31
0.0
  0
LINE
  5
EE
100
AcDbEntity
100
AcDbLine
  8
0
 62
256
370
-1
  6
ByLayer
 10
244.5
 20
217.5
 30
0.0
 11
244.5
 21
215.9000000000000057
 31
0.0
  0
LINE
  5
EF
100
AcDbEntity
100
AcDbLine
  8
0
 62
256
370
-1
  6
ByLayer
 10
244.5
 20
215.9000000000000057
 30
0.0
 11
235.3000000000000114
 21
215.9000000000000057
 31
0.0
  0
LINE
  5
F0
100
AcDbEntity
100
AcDbLine
  8
0
 62
256
370
-1
  6
ByLayer
 10
235.3000000000000114
 20
215.9000000000000057
 30
0.0
 11
235.3000000000000114
 21
217.5
 31
0.0
  0
LINE
  5
F1
100
AcDbEntity
100
AcDbLine
  8
0
 62
256
370
-1
  6
ByLayer
 10
235.3000000000000114
 20
217.5
 30
0.0
 11
244.5
 21
217.5
 31
0.0
  0
LINE
  5
F2
100
AcDbEntity
100
AcDbLine
  8
0
 62
256
370
-1
  6
ByLayer
 10
244.0999999999999943
 20
207.9000000000000057
 30
0.0
 11
235.6999999999999886
 21
207.9000000000000057
 31
0.0
  0
LINE
  5
F3
100
AcDbEntity
100
AcDbLine
  8
0
 62
256
370
-1
  6
ByLayer
 10
244.0999999999999943
 20
207.9000000000000057
 30
0.0
 11
244.0999999999999943
 21
204.4000000000000057
 31
0.0
  0
LINE
  5
F4
100
AcDbEntity
100
AcDbLine
  8
0
 62
256
370
-1
  6
ByLayer
 10
244.0999999999999943
 20
204.4000000000000057
 30
0.0
 11
235.6999999999999602
 21
204.4000000000000057
 31
0.0
  0
LINE
  5
F5
100
AcDbEntity
100
AcDbLine
  8
0
 62
256
370
-1
  6
ByLayer
 10
235.6999999999999602
 20
204.4000000000000057
 30
0.0
 11
235.6999999999999886
 21
207.9000000000000057
 31
0.0
  0
LINE
  5
F6
100
AcDbEntity
100
AcDbLine
  8
0
 62
256
370
-1
  6
ByLayer
 10
207.5
 20
173.0
 30
0.0
 11
207.5
 21
173.0
 31
0.0
  0
LINE
  5
F7
100
AcDbEntity
100
AcDbLine
  8
0
 62
256
370
-1
  6
ByLayer
 10
207.5
 20
182.0
 30
0.0
 11
207.5
 21
182.0
 31
0.0
  0
LINE
  5
F8
100
AcDbEntity
100
AcDbLine
  8
0
 62
256
370
-1
  6
ByLayer
 10
214.5
 20
173.0
 30
0.0
 11
214.5
 21
182.0
 31
0.0
  0
LINE
  5
F9
100
AcDbEntity
100
AcDbLine
  8
0
 62
256
370
-1
  6
ByLayer
 10
200.5
 20
173.0
 30
0.0
 11
200.5
 21
182.0
 31
0.0
  0
LINE
  5
FA
100
AcDbEntity
100
AcDbLine
  8
0
 62
256
370
-1
  6
ByLayer
 10
212.5
 20
182.0
 30
0.0
 11
214.5
 21
181.9999999999999716
 31
0.0
  0
LINE
  5
FB
100
AcDbEntity
100
AcDbLine
  8
0
 62
256
370
-1
  6
ByLayer
 10
202.5
 20
182.0
 30
0.0
 11
200.5
 21
182.0
 31
0.0
  0
LINE
  5
FC
100
AcDbEntity
100
AcDbLine
  8
0
 62
256
370
-1
  6
ByLayer
 10
214.5
 20
173.0
 30
0.0
 11
200.5
 21
173.0
 31
0.0
  0
LINE
  5
FD
100
AcDbEntity
100
AcDbLine
  8
0
 62
256
370
-1
  6
ByLayer
 10
212.5000000000000284
 20
205.0
 30
0.0
 11
212.5
 21
182.0
 31
0.0
  0
LINE
  5
FE
100
AcDbEntity
100
AcDbLine
  8
0
 62
256
370
-1
  6
ByLayer
 10
202.5
 20
182.0
 30
0.0
 11
202.5
 21
205.0
 31
0.0
  0
LINE
  5
FF
100
AcDbEntity
100
AcDbLine
  8
0
 62
256
370
-1
  6
ByLayer
 10
202.5
 20
205.0
 30
0.0
 11
212.5000000000000284
 21
205.0
 31
0.0
  0
LINE
  5
100
100
AcDbEntity
100
AcDbLine
  8
0
 62
256
370
-1
  6
ByLayer
 10
197.5
 20
190.5
 30
0.0
 11
195.9000000000000057
 21
190.5
 31
0.0
  0
LINE
  5
101
100
AcDbEntity
100
AcDbLine
  8
0
 62
256
370
-1
  6
ByLayer
 10
195.9000000000000057
 20
190.5
 30
0.0
 11
195.9000000000000341
 21
199.7000000000000171
 31
0.0
  0
LINE
  5
102
100
AcDbEntity
100
AcDbLine
  8
0
 62
256
370
-1
  6
ByLayer
 10
195.9000000000000341
 20
199.7000000000000171
 30
0.0
 11
197.5000000000000284
 21
199.6999999999999886
 31
0.0
  0
LINE
  5
103
100
AcDbEntity
100
AcDbLine
  8
0
 62
256
370
-1
  6
ByLayer
 10
197.5000000000000284
 20
199.6999999999999886
 30
0.0
 11
197.5
 21
190.5
 31
0.0
  0
LINE
  5
104
100
AcDbEntity
100
AcDbLine
  8
0
 62
256
370
-1
  6
ByLayer
 10
187.9000000000000057
 20
190.9000000000000341
 30
0.0
 11
187.9000000000000341
 21
199.3000000000000398
 31
0.0
  0
LINE
  5
105
100
AcDbEntity
100
AcDbLine
  8
0
 62
256
370
-1
  6
ByLayer
 10
187.9000000000000057
 20
190.9000000000000341
 30
0.0
 11
184.4000000000000057
 21
190.9000000000000057
 31
0.0
  0
LINE
  5
106
100
AcDbEntity
100
AcDbLine
  8
0
 62
256
370
-1
  6
ByLayer
 10
184.4000000000000057
 20
190.9000000000000057
 30
0.0
 11
184.4000000000000341
 21
199.3000000000000398
 31
0.0
  0
LINE
  5
107
100
AcDbEntity
100
AcDbLine
  8
0
 62
256
370
-1
  6
ByLayer
 10
184.4000000000000341
 20
199.3000000000000398
 30
0.0
 11
187.9000000000000341
 21
199.3000000000000398
 31
0.0
  0
LINE
  5
108
100
AcDbEntity
100
AcDbLine
  8
0
 62
256
370
-1
  6
ByLayer
 10
153.0
 20
127.5
 30
0.0
 11
153.0
 21
127.5
 31
0.0
  0
LINE
  5
109
100
AcDbEntity
100
AcDbLine
  8
0
 62
256
370
-1
  6
ByLayer
 10
162.0
 20
127.5
 30
0.0
 11
162.0
 21
127.5
 31
0.0
  0
LINE
  5
10A
100
AcDbEntity
100
AcDbLine
  8
0
 62
256
370
-1
  6
ByLayer
 10
153.0
 20
120.5
 30
0.0
 11
162.0
 21
120.5
 31
0.0
  0
LINE
  5
10B
100
AcDbEntity
100
AcDbLine
  8
0
 62
256
370
-1
  6
ByLayer
 10
153.0
 20
134.5
 30
0.0
 11
162.0
 21
134.5
 31
0.0
  0
LINE
  5
10C
100
AcDbEntity
100
AcDbLine
  8
0
 62
256
370
-1
  6
ByLayer
 10
162.0
 20
122.5
 30
0.0
 11
162.0
 21
120.5
 31
0.0
  0
LINE
  5
10D
100
AcDbEntity
100
AcDbLine
  8
0
 62
256
370
-1
  6
ByLayer
 10
162.0
 20
132.5
 30
0.0
 11
162.0
 21
134.5
 31
0.0
  0
LINE
  5
10E
100
AcDbEntity
100
AcDbLine
  8
0
 62
256
370
-1
  6
ByLayer
 10
153.0
 20
120.5
 30
0.0
 11
153.0
 21
134.5
 31
0.0
  0
LINE
  5
10F
100
AcDbEntity
100
AcDbLine
  8
0
 62
256
370
-1
  6
ByLayer
 10
185.0
 20
122.5
 30
0.0
 11
162.0
 21
122.5
 31
0.0
  0
LINE
  5
110
100
AcDbEntity
100
AcDbLine
  8
0
 62
256
370
-1
  6
ByLayer
 10
162.0
 20
132.5
 30
0.0
 11
185.0
 21
132.5
 31
0.0
  0
LINE
  5
111
100
AcDbEntity
100
AcDbLine
  8
0
 62
256
370
-1
  6
ByLayer
 10
185.0
 20
132.5
 30
0.0
 11
185.0
 21
122.5
 31
0.0
  0
LINE
  5
112
100
AcDbEntity
100
AcDbLine
  8
0
 62
256
370
-1
  6
ByLayer
 10
170.5
 20
137.5
 30
0.0
 11
170.5
 21
139.0999999999999943
 31
0.0
  0
LINE
  5
113
100
AcDbEntity
100
AcDbLine
  8
0
 62
256
370
-1
  6
ByLayer
 10
170.5
 20
139.0999999999999943
 30
0.0
 11
179.6999999999999886
 21
139.0999999999999943
 31
0.0
  0
LINE
  5
114
100
AcDbEntity
100
AcDbLine
  8
0
 62
256
370
-1
  6
ByLayer
 10
179.6999999999999886
 20
139.0999999999999943
 30
0.0
 11
179.6999999999999886
 21
137.5
 31
0.0
  0
LINE
  5
115
100
AcDbEntity
100
AcDbLine
  8
0
 62
256
370
-1
  6
ByLayer
 10
179.6999999999999886
 20
137.5
 30
0.0
 11
170.5
 21
137.5
 31
0.0
  0
LINE
  5
116
100
AcDbEntity
100
AcDbLine
  8
0
 62
256
370
-1
  6
ByLayer
 10
170.9000000000000057
 20
147.0999999999999943
 30
0.0
 11
179.3000000000000114
 21
147.0999999999999943
 31
0.0
  0
LINE
  5
117
100
AcDbEntity
100
AcDbLine
  8
0
 62
256
370
-1
  6
ByLayer
 10
170.9000000000000057
 20
147.0999999999999943
 30
0.0
 11
170.9000000000000057
 21
150.5999999999999943
 31
0.0
  0
LINE
  5
118
100
AcDbEntity
100
AcDbLine
  8
0
 62
256
370
-1
  6
ByLayer
 10
170.9000000000000057
 20
150.5999999999999943
 30
0.0
 11
179.3000000000000114
 21
150.5999999999999943
 31
0.0
  0
LINE
  5
119
100
AcDbEntity
100
AcDbLine
  8
0
 62
256
370
-1
  6
ByLayer
 10
179.3000000000000114
 20
150.5999999999999943
 30
0.0
 11
179.3000000000000114
 21
147.0999999999999943
 31
0.0
  0
LINE
  5
11A
100
AcDbEntity
100
AcDbLine
  8
0
 62
256
370
-1
  6
ByLayer
 10
262.0
 20
127.5
 30
0.0
 11
262.0
 21
127.5
 31
0.0
  0
LINE
  5
11B
100
AcDbEntity
100
AcDbLine
  8
0
 62
256
370
-1
  6
ByLayer
 10
253.0
 20
127.5
 30
0.0
 11
253.0
 21
127.5
 31
0.0
  0
LINE
  5
11C
100
AcDbEntity
100
AcDbLine
  8
0
 62
256
370
-1
  6
ByLayer
 10
262.0
 20
134.5
 30
0.0
 11
253.0
 21
134.5
 31
0.0
  0
LINE
  5
11D
100
AcDbEntity
100
AcDbLine
  8
0
 62
256
370
-1
  6
ByLayer
 10
262.0
 20
120.5
 30
0.0
 11
253.0
 21
120.5
 31
0.0
  0
LINE
  5
11E
100
AcDbEntity
100
AcDbLine
  8
0
 62
256
370
-1
  6
ByLayer
 10
253.0
 20
132.5
 30
0.0
 11
253.0
 21
134.5
 31
0.0
  0
LINE
  5
11F
100
AcDbEntity
100
AcDbLine
  8
0
 62
256
370
-1
  6
ByLayer
 10
253.0
 20
122.5
 30
0.0
 11
253.0
 21
120.5
 31
0.0
  0
LINE
  5
120
100
AcDbEntity
100
AcDbLine
  8
0
 62
256
370
-1
  6
ByLayer
 10
262.0
 20
134.5
 30
0.0
 11
262.0
 21
120.5
 31
0.0
  0
LINE
  5
121
100
AcDbEntity
100
AcDbLine
  8
0
 62
256
370
-1
  6
ByLayer
 10
230.0
 20
132.5000000000000284
 30
0.0
 11
253.0
 21
132.5
 31
0.0
  0
LINE
  5
122
100
AcDbEntity
100
AcDbLine
  8
0
 62
256
370
-1
  6
ByLayer
 10
253.0
 20
122.5
 30
0.0
 11
230.0
 21
122.5
 31
0.0
  0
LINE
  5
123
100
AcDbEntity
100
AcDbLine
  8
0
 62
256
370
-1
  6
ByLayer
 10
230.0
 20
122.5
 30
0.0
 11
230.0
 21
132.5000000000000284
 31
0.0
  0
LINE
  5
124
100
AcDbEntity
100
AcDbLine
  8
0
 62
256
370
-1
  6
ByLayer
 10
244.5
 20
117.5
 30
0.0
 11
244.5
 21
115.9000000000000057
 31
0.0
  0
LINE
  5
125
100
AcDbEntity
100
AcDbLine
  8
0
 62
256
370
-1
  6
ByLayer
 10
244.5
 20
115.9000000000000057
 30
0.0
 11
235.3000000000000114
 21
115.9000000000000057
 31
0.0
  0
LINE
  5
126
100
AcDbEntity
100
AcDbLine
  8
0
 62
256
370
-1
  6
ByLayer
 10
235.3000000000000114
 20
115.9000000000000057
 30
0.0
 11
235.3000000000000114
 21
117.5
 31
0.0
  0
LINE
  5
127
100
AcDbEntity
100
AcDbLine
  8
0
 62
256
370
-1
  6
ByLayer
 10
235.3000000000000114
 20
117.5
 30
0.0
 11
244.5
 21
117.5
 31
0.0
  0
LINE
  5
128
100
AcDbEntity
100
AcDbLine
  8
0
 62
256
370
-1
  6
ByLayer
 10
244.0999999999999943
 20
107.9000000000000057
 30
0.0
 11
235.6999999999999886
 21
107.9000000000000057
 31
0.0
  0
LINE
  5
129
100
AcDbEntity
100
AcDbLine
  8
0
 62
256
370
-1
  6
ByLayer
 10
244.0999999999999943
 20
107.9000000000000057
 30
0.0
 11
244.0999999999999943
 21
104.4000000000000057
 31
0.0
  0
LINE
  5
12A
100
AcDbEntity
100
AcDbLine
  8
0
 62
256
370
-1
  6
ByLayer
 10
244.0999999999999943
 20
104.4000000000000057
 30
0.0
 11
235.6999999999999602
 21
104.4000000000000057
 31
0.0
  0
LINE
  5
12B
100
AcDbEntity
100
AcDbLine
  8
0
 62
256
370
-1
  6
ByLayer
 10
235.6999999999999602
 20
104.4000000000000057
 30
0.0
 11
235.6999999999999886
 21
107.9000000000000057
 31
0.0
  0
LINE
  5
12C
100
AcDbEntity
100
AcDbLine
  8
0
 62
256
370
-1
  6
ByLayer
 10
207.5
 20
73.0
 30
0.0
 11
207.5
 21
73.0
 31
0.0
  0
LINE
  5
12D
100
AcDbEntity
100
AcDbLine
  8
0
 62
256
370
-1
  6
ByLayer
 10
214.5
 20
73.0
 30
0.0
 11
214.5
 21
82.0
 31
0.0
  0
LINE
  5
12E
100
AcDbEntity
100
AcDbLine
  8
0
 62
256
370
-1
  6
ByLayer
 10
200.5
 20
73.0
 30
0.0
 11
200.5
 21
82.0
 31
0.0
  0
LINE
  5
12F
100
AcDbEntity
100
AcDbLine
  8
0
 62
256
370
-1
  6
ByLayer
 10
212.5
 20
82.0
 30
0.0
 11
214.5
 21
81.9999999999999716
 31
0.0
  0
LINE
  5
130
100
AcDbEntity
100
AcDbLine
  8
0
 62
256
370
-1
  6
ByLayer
 10
202.5
 20
82.0
 30
0.0
 11
200.5
 21
82.0
 31
0.0
  0
LINE
  5
131
100
AcDbEntity
100
AcDbLine
  8
0
 62
256
370
-1
  6
ByLayer
 10
214.5
 20
73.0
 30
0.0
 11
200.5
 21
73.0
 31
0.0
  0
LINE
  5
132
100
AcDbEntity
100
AcDbLine
  8
0
 62
256
370
-1
  6
ByLayer
 10
212.5000000000000284
 20
105.0
 30
0.0
 11
212.5
 21
82.0
 31
0.0
  0
LINE
  5
133
100
AcDbEntity
100
AcDbLine
  8
0
 62
256
370
-1
  6
ByLayer
 10
202.5
 20
82.0
 30
0.0
 11
202.5
 21
105.0
 31
0.0
  0
LINE
  5
134
100
AcDbEntity
100
AcDbLine
  8
0
 62
256
370
-1
  6
ByLayer
 10
202.5
 20
105.0
 30
0.0
 11
212.5000000000000284
 21
105.0
 31
0.0
  0
LINE
  5
135
100
AcDbEntity
100
AcDbLine
  8
0
 62
256
370
-1
  6
ByLayer
 10
197.5
 20
90.5
 30
0.0
 11
195.9000000000000057
 21
90.5
 31
0.0
  0
LINE
  5
136
100
AcDbEntity
100
AcDbLine
  8
0
 62
256
370
-1
  6
ByLayer
 10
195.9000000000000057
 20
90.5
 30
0.0
 11
195.9000000000000341
 21
99.7000000000000171
 31
0.0
  0
LINE
  5
137
100
AcDbEntity
100
AcDbLine
  8
0
 62
256
370
-1
  6
ByLayer
 10
195.9000000000000341
 20
99.7000000000000171
 30
0.0
 11
197.5000000000000284
 21
99.6999999999999886
 31
0.0
  0
LINE
  5
138
100
AcDbEntity
100
AcDbLine
  8
0
 62
256
370
-1
  6
ByLayer
 10
197.5000000000000284
 20
99.6999999999999886
 30
0.0
 11
197.5
 21
90.5
 31
0.0
  0
LINE
  5
139
100
AcDbEntity
100
AcDbLine
  8
0
 62
256
370
-1
  6
ByLayer
 10
187.9000000000000057
 20
90.9000000000000341
 30
0.0
 11
187.9000000000000341
 21
99.3000000000000398
 31
0.0
  0
LINE
  5
13A
100
AcDbEntity
100
AcDbLine
  8
0
 62
256
370
-1
  6
ByLayer
 10
187.9000000000000057
 20
90.9000000000000341
 30
0.0
 11
184.4000000000000057
 21
90.9000000000000057
 31
0.0
  0
LINE
  5
13B
100
AcDbEntity
100
AcDbLine
  8
0
 62
256
370
-1
  6
ByLayer
 10
184.4000000000000057
 20
90.9000000000000057
 30
0.0
 11
184.4000000000000341
 21
99.3000000000000398
 31
0.0
  0
LINE
  5
13C
100
AcDbEntity
100
AcDbLine
  8
0
 62
256
370
-1
  6
ByLayer
 10
184.4000000000000341
 20
99.3000000000000398
 30
0.0
 11
187.9000000000000341
 21
99.3000000000000398
 31
0.0
  0
LINE
  5
13D
100
AcDbEntity
100
AcDbLine
  8
0
 62
256
370
-1
  6
ByLayer
 10
360.5
 20
282.0
 30
0.0
 11
360.5
 21
273.0
 31
0.0
  0
LINE
  5
13E
100
AcDbEntity
100
AcDbLine
  8
0
 62
256
370
-1
  6
ByLayer
 10
374.5
 20
282.0
 30
0.0
 11
374.5
 21
273.0
 31
0.0
  0
LINE
  5
13F
100
AcDbEntity
100
AcDbLine
  8
0
 62
256
370
-1
  6
ByLayer
 10
362.5
 20
273.0
 30
0.0
 11
360.5
 21
273.0
 31
0.0
  0
LINE
  5
140
100
AcDbEntity
100
AcDbLine
  8
0
 62
256
370
-1
  6
ByLayer
 10
372.5
 20
273.0
 30
0.0
 11
374.5
 21
273.0
 31
0.0
  0
LINE
  5
141
100
AcDbEntity
100
AcDbLine
  8
0
 62
256
370
-1
  6
ByLayer
 10
360.5
 20
282.0
 30
0.0
 11
374.5
 21
282.0
 31
0.0
  0
LINE
  5
142
100
AcDbEntity
100
AcDbLine
  8
0
 62
256
370
-1
  6
ByLayer
 10
362.5
 20
250.0
 30
0.0
 11
362.5
 21
273.0
 31
0.0
  0
LINE
  5
143
100
AcDbEntity
100
AcDbLine
  8
0
 62
256
370
-1
  6
ByLayer
 10
372.5
 20
273.0
 30
0.0
 11
372.5
 21
250.0
 31
0.0
  0
LINE
  5
144
100
AcDbEntity
100
AcDbLine
  8
0
 62
256
370
-1
  6
ByLayer
 10
372.5
 20
250.0
 30
0.0
 11
362.5
 21
250.0
 31
0.0
  0
LINE
  5
145
100
AcDbEntity
100
AcDbLine
  8
0
 62
256
370
-1
  6
ByLayer
 10
377.5
 20
264.5
 30
0.0
 11
379.1000000000000227
 21
264.5
 31
0.0
  0
LINE
  5
146
100
AcDbEntity
100
AcDbLine
  8
0
 62
256
370
-1
  6
ByLayer
 10
379.1000000000000227
 20
264.5
 30
0.0
 11
379.1000000000000227
 21
255.3000000000000114
 31
0.0
  0
LINE
  5
147
100
AcDbEntity
100
AcDbLine
  8
0
 62
256
370
-1
  6
ByLayer
 10
379.1000000000000227
 20
255.3000000000000114
 30
0.0
 11
377.5
 21
255.3000000000000114
 31
0.0
  0
LINE
  5
148
100
AcDbEntity
100
AcDbLine
  8
0
 62
256
370
-1
  6
ByLayer
 10
377.5
 20
255.3000000000000114
 30
0.0
 11
377.5
 21
264.5
 31
0.0
  0
LINE
  5
149
100
AcDbEntity
100
AcDbLine
  8
0
 62
256
370
-1
  6
ByLayer
 10
387.1000000000000227
 20
264.1000000000000227
 30
0.0
 11
387.1000000000000227
 21
255.6999999999999886
 31
0.0
  0
LINE
  5
14A
100
AcDbEntity
100
AcDbLine
  8
0
 62
256
370
-1
  6
ByLayer
 10
387.1000000000000227
 20
264.1000000000000227
 30
0.0
 11
390.6000000000000227
 21
264.1000000000000227
 31
0.0
  0
LINE
  5
14B
100
AcDbEntity
100
AcDbLine
  8
0
 62
256
370
-1
  6
ByLayer
 10
390.6000000000000227
 20
264.1000000000000227
 30
0.0
 11
390.6000000000000227
 21
255.6999999999999886
 31
0.0
  0
LINE
  5
14C
100
AcDbEntity
100
AcDbLine
  8
0
 62
256
370
-1
  6
ByLayer
 10
390.6000000000000227
 20
255.6999999999999886
 30
0.0
 11
387.1000000000000227
 21
255.6999999999999886
 31
0.0
  0
LINE
  5
14D
100
AcDbEntity
100
AcDbLine
  8
0
 62
256
370
-1
  6
ByLayer
 10
313.0
 20
227.5
 30
0.0
 11
313.0
 21
227.5
 31
0.0
  0
LINE
  5
14E
100
AcDbEntity
100
AcDbLine
  8
0
 62
256
370
-1
  6
ByLayer
 10
322.0
 20
227.5
 30
0.0
 11
322.0
 21
227.5
 31
0.0
  0
LINE
  5
14F
100
AcDbEntity
100
AcDbLine
  8
0
 62
256
370
-1
  6
ByLayer
 10
313.0
 20
220.5
 30
0.0
 11
322.0
 21
220.5
 31
0.0
  0
LINE
  5
150
100
AcDbEntity
100
AcDbLine
  8
0
 62
256
370
-1
  6
ByLayer
 10
313.0
 20
234.5
 30
0.0
 11
322.0
 21
234.5
 31
0.0
  0
LINE
  5
151
100
AcDbEntity
100
AcDbLine
  8
0
 62
256
370
-1
  6
ByLayer
 10
322.0
 20
222.5
 30
0.0
 11
322.0
 21
220.5
 31
0.0
  0
LINE
  5
152
100
AcDbEntity
100
AcDbLine
  8
0
 62
256
370
-1
  6
ByLayer
 10
322.0
 20
232.5
 30
0.0
 11
322.0
 21
234.5
 31
0.0
  0
LINE
  5
153
100
AcDbEntity
100
AcDbLine
  8
0
 62
256
370
-1
  6
ByLayer
 10
313.0
 20
220.5
 30
0.0
 11
313.0
 21
234.5
 31
0.0
  0
LINE
  5
154
100
AcDbEntity
100
AcDbLine
  8
0
 62
256
370
-1
  6
ByLayer
 10
345.0
 20
222.5
 30
0.0
 11
322.0
 21
222.5
 31
0.0
  0
LINE
  5
155
100
AcDbEntity
100
AcDbLine
  8
0
 62
256
370
-1
  6
ByLayer
 10
322.0
 20
232.5
 30
0.0
 11
345.0
 21
232.5
 31
0.0
  0
LINE
  5
156
100
AcDbEntity
100
AcDbLine
  8
0
 62
256
370
-1
  6
ByLayer
 10
345.0
 20
232.5
 30
0.0
 11
345.0
 21
222.5
 31
0.0
  0
LINE
  5
157
100
AcDbEntity
100
AcDbLine
  8
0
 62
256
370
-1
  6
ByLayer
 10
330.5
 20
237.5
 30
0.0
 11
330.5
 21
239.0999999999999943
 31
0.0
  0
LINE
  5
158
100
AcDbEntity
100
AcDbLine
  8
0
 62
256
370
-1
  6
ByLayer
 10
330.5
 20
239.0999999999999943
 30
0.0
 11
339.6999999999999886
 21
239.0999999999999943
 31
0.0
  0
LINE
  5
159
100
AcDbEntity
100
AcDbLine
  8
0
 62
256
370
-1
  6
ByLayer
 10
339.6999999999999886
 20
239.0999999999999943
 30
0.0
 11
339.6999999999999886
 21
237.5
 31
0.0
  0
LINE
  5
15A
100
AcDbEntity
100
AcDbLine
  8
0
 62
256
370
-1
  6
ByLayer
 10
339.6999999999999886
 20
237.5
 30
0.0
 11
330.5
 21
237.5
 31
0.0
  0
LINE
  5
15B
100
AcDbEntity
100
AcDbLine
  8
0
 62
256
370
-1
  6
ByLayer
 10
330.9000000000000341
 20
247.0999999999999943
 30
0.0
 11
339.3000000000000114
 21
247.0999999999999943
 31
0.0
  0
LINE
  5
15C
100
AcDbEntity
100
AcDbLine
  8
0
 62
256
370
-1
  6
ByLayer
 10
330.9000000000000341
 20
247.0999999999999943
 30
0.0
 11
330.9000000000000341
 21
250.5999999999999943
 31
0.0
  0
LINE
  5
15D
100
AcDbEntity
100
AcDbLine
  8
0
 62
256
370
-1
  6
ByLayer
 10
330.9000000000000341
 20
250.5999999999999943
 30
0.0
 11
339.3000000000000114
 21
250.5999999999999943
 31
0.0
  0
LINE
  5
15E
100
AcDbEntity
100
AcDbLine
  8
0
 62
256
370
-1
  6
ByLayer
 10
339.3000000000000114
 20
250.5999999999999943
 30
0.0
 11
339.3000000000000114
 21
247.0999999999999943
 31
0.0
  0
LINE
  5
15F
100
AcDbEntity
100
AcDbLine
  8
0
 62
256
370
-1
  6
ByLayer
 10
422.0
 20
227.5
 30
0.0
 11
422.0
 21
227.5
 31
0.0
  0
LINE
  5
160
100
AcDbEntity
100
AcDbLine
  8
0
 62
256
370
-1
  6
ByLayer
 10
413.0
 20
227.5
 30
0.0
 11
413.0
 21
227.5
 31
0.0
  0
LINE
  5
161
100
AcDbEntity
100
AcDbLine
  8
0
 62
256
370
-1
  6
ByLayer
 10
422.0
 20
234.5
 30
0.0
 11
413.0
 21
234.5
 31
0.0
  0
LINE
  5
162
100
AcDbEntity
100
AcDbLine
  8
0
 62
256
370
-1
  6
ByLayer
 10
422.0
 20
220.5
 30
0.0
 11
413.0
 21
220.5
 31
0.0
  0
LINE
  5
163
100
AcDbEntity
100
AcDbLine
  8
0
 62
256
370
-1
  6
ByLayer
 10
413.0
 20
232.5
 30
0.0
 11
413.0
 21
234.5
 31
0.0
  0
LINE
  5
164
100
AcDbEntity
100
AcDbLine
  8
0
 62
256
370
-1
  6
ByLayer
 10
413.0
 20
222.5
 30
0.0
 11
413.0
 21
220.5
 31
0.0
  0
LINE
  5
165
100
AcDbEntity
100
AcDbLine
  8
0
 62
256
370
-1
  6
ByLayer
 10
422.0
 20
234.5
 30
0.0
 11
422.0
 21
220.5
 31
0.0
  0
LINE
  5
166
100
AcDbEntity
100
AcDbLine
  8
0
 62
256
370
-1
  6
ByLayer
 10
390.0
 20
232.5000000000000284
 30
0.0
 11
413.0
 21
232.5
 31
0.0
  0
LINE
  5
167
100
AcDbEntity
100
AcDbLine
  8
0
 62
256
370
-1
  6
ByLayer
 10
413.0
 20
222.5
 30
0.0
 11
390.0
 21
222.5
 31
0.0
  0
LINE
  5
168
100
AcDbEntity
100
AcDbLine
  8
0
 62
256
370
-1
  6
ByLayer
 10
390.0
 20
222.5
 30
0.0
 11
390.0
 21
232.5000000000000284
 31
0.0
  0
LINE
  5
169
100
AcDbEntity
100
AcDbLine
  8
0
 62
256
370
-1
  6
ByLayer
 10
404.5
 20
217.5
 30
0.0
 11
404.5
 21
215.9000000000000057
 31
0.0
  0
LINE
  5
16A
100
AcDbEntity
100
AcDbLine
  8
0
 62
256
370
-1
  6
ByLayer
 10
404.5
 20
215.9000000000000057
 30
0.0
 11
395.3000000000000114
 21
215.9000000000000057
 31
0.0
  0
LINE
  5
16B
100
AcDbEntity
100
AcDbLine
  8
0
 62
256
370
-1
  6
ByLayer
 10
395.3000000000000114
 20
215.9000000000000057
 30
0.0
 11
395.3000000000000114
 21
217.5
 31
0.0
  0
LINE
  5
16C
100
AcDbEntity
100
AcDbLine
  8
0
 62
256
370
-1
  6
ByLayer
 10
395.3000000000000114
 20
217.5
 30
0.0
 11
404.5
 21
217.5
 31
0.0
  0
LINE
  5
16D
100
AcDbEntity
100
AcDbLine
  8
0
 62
256
370
-1
  6
ByLayer
 10
404.1000000000000227
 20
207.9000000000000057
 30
0.0
 11
395.6999999999999886
 21
207.9000000000000057
 31
0.0
  0
LINE
  5
16E
100
AcDbEntity
100
AcDbLine
  8
0
 62
256
370
-1
  6
ByLayer
 10
404.1000000000000227
 20
207.9000000000000057
 30
0.0
 11
404.1000000000000227
 21
204.4000000000000057
 31
0.0
  0
LINE
  5
16F
100
AcDbEntity
100
AcDbLine
  8
0
 62
256
370
-1
  6
ByLayer
 10
404.1000000000000227
 20
204.4000000000000057
 30
0.0
 11
395.6999999999999318
 21
204.4000000000000057
 31
0.0
  0
LINE
  5
170
100
AcDbEntity
100
AcDbLine
  8
0
 62
256
370
-1
  6
ByLayer
 10
395.6999999999999318
 20
204.4000000000000057
 30
0.0
 11
395.6999999999999886
 21
207.9000000000000057
 31
0.0
  0
LINE
  5
171
100
AcDbEntity
100
AcDbLine
  8
0
 62
256
370
-1
  6
ByLayer
 10
367.5
 20
173.0
 30
0.0
 11
367.5
 21
173.0
 31
0.0
  0
LINE
  5
172
100
AcDbEntity
100
AcDbLine
  8
0
 62
256
370
-1
  6
ByLayer
 10
374.5
 20
173.0
 30
0.0
 11
374.5
 21
182.0
 31
0.0
  0
LINE
  5
173
100
AcDbEntity
100
AcDbLine
  8
0
 62
256
370
-1
  6
ByLayer
 10
360.5
 20
173.0
 30
0.0
 11
360.5
 21
182.0
 31
0.0
  0
LINE
  5
174
100
AcDbEntity
100
AcDbLine
  8
0
 62
256
370
-1
  6
ByLayer
 10
372.5
 20
182.0
 30
0.0
 11
374.5
 21
181.9999999999999716
 31
0.0
  0
LINE
  5
175
100
AcDbEntity
100
AcDbLine
  8
0
 62
256
370
-1
  6
ByLayer
 10
362.5
 20
182.0
 30
0.0
 11
360.5
 21
182.0
 31
0.0
  0
LINE
  5
176
100
AcDbEntity
100
AcDbLine
  8
0
 62
256
370
-1
  6
ByLayer
 10
374.5
 20
173.0
 30
0.0
 11
360.5
 21
173.0
 31
0.0
  0
LINE
  5
177
100
AcDbEntity
100
AcDbLine
  8
0
 62
256
370
-1
  6
ByLayer
 10
372.5
 20
205.0
 30
0.0
 11
372.5
 21
182.0
 31
0.0
  0
LINE
  5
178
100
AcDbEntity
100
AcDbLine
  8
0
 62
256
370
-1
  6
ByLayer
 10
362.5
 20
182.0
 30
0.0
 11
362.5
 21
205.0
 31
0.0
  0
LINE
  5
179
100
AcDbEntity
100
AcDbLine
  8
0
 62
256
370
-1
  6
ByLayer
 10
362.5
 20
205.0
 30
0.0
 11
372.5
 21
205.0
 31
0.0
  0
LINE
  5
17A
100
AcDbEntity
100
AcDbLine
  8
0
 62
256
370
-1
  6
ByLayer
 10
357.5
 20
190.5
 30
0.0
 11
355.8999999999999773
 21
190.5
 31
0.0
  0
LINE
  5
17B
100
AcDbEntity
100
AcDbLine
  8
0
 62
256
370
-1
  6
ByLayer
 10
355.8999999999999773
 20
190.5
 30
0.0
 11
355.9000000000000341
 21
199.7000000000000171
 31
0.0
  0
LINE
  5
17C
100
AcDbEntity
100
AcDbLine
  8
0
 62
256
370
-1
  6
ByLayer
 10
355.9000000000000341
 20
199.7000000000000171
 30
0.0
 11
357.5
 21
199.6999999999999886
 31
0.0
  0
LINE
  5
17D
100
AcDbEntity
100
AcDbLine
  8
0
 62
256
370
-1
  6
ByLayer
 10
357.5
 20
199.6999999999999886
 30
0.0
 11
357.5
 21
190.5
 31
0.0
  0
LINE
  5
17E
100
AcDbEntity
100
AcDbLine
  8
0
 62
256
370
-1
  6
ByLayer
 10
347.9000000000000341
 20
190.9000000000000341
 30
0.0
 11
347.9000000000000341
 21
199.3000000000000398
 31
0.0
  0
LINE
  5
17F
100
AcDbEntity
100
AcDbLine
  8
0
 62
256
370
-1
  6
ByLayer
 10
347.9000000000000341
 20
190.9000000000000341
 30
0.0
 11
344.3999999999999773
 21
190.9000000000000057
 31
0.0
  0
LINE
  5
180
100
AcDbEntity
100
AcDbLine
  8
0
 62
256
370
-1
  6
ByLayer
 10
344.3999999999999773
 20
190.9000000000000057
 30
0.0
 11
344.4000000000000341
 21
199.3000000000000398
 31
0.0
  0
LINE
  5
181
100
AcDbEntity
100
AcDbLine
  8
0
 62
256
370
-1
  6
ByLayer
 10
344.4000000000000341
 20
199.3000000000000398
 30
0.0
 11
347.9000000000000341
 21
199.3000000000000398
 31
0.0
  0
LINE
  5
182
100
AcDbEntity
100
AcDbLine
  8
0
 62
256
370
-1
  6
ByLayer
 10
313.0
 20
127.5
 30
0.0
 11
313.0
 21
127.5
 31
0.0
  0
LINE
  5
183
100
AcDbEntity
100
AcDbLine
  8
0
 62
256
370
-1
  6
ByLayer
 10
322.0
 20
127.5
 30
0.0
 11
322.0
 21
127.5
 31
0.0
  0
LINE
  5
184
100
AcDbEntity
100
AcDbLine
  8
0
 62
256
370
-1
  6
ByLayer
 10
313.0
 20
120.5
 30
0.0
 11
322.0
 21
120.5
 31
0.0
  0
LINE
  5
185
100
AcDbEntity
100
AcDbLine
  8
0
 62
256
370
-1
  6
ByLayer
 10
313.0
 20
134.5
 30
0.0
 11
322.0
 21
134.5
 31
0.0
  0
LINE
  5
186
100
AcDbEntity
100
AcDbLine
  8
0
 62
256
370
-1
  6
ByLayer
 10
322.0
 20
122.5
 30
0.0
 11
322.0
 21
120.5
 31
0.0
  0
LINE
  5
187
100
AcDbEntity
100
AcDbLine
  8
0
 62
256
370
-1
  6
ByLayer
 10
322.0
 20
132.5
 30
0.0
 11
322.0
 21
134.5
 31
0.0
  0
LINE
  5
188
100
AcDbEntity
100
AcDbLine
  8
0
 62
256
370
-1
  6
ByLayer
 10
313.0
 20
120.5
 30
0.0
 11
313.0
 21
134.5
 31
0.0
  0
LINE
  5
189
100
AcDbEntity
100
AcDbLine
  8
0
 62
256
370
-1
  6
ByLayer
 10
345.0
 20
122.5
 30
0.0
 11
322.0
 21
122.5
 31
0.0
  0
LINE
  5
18A
100
AcDbEntity
100
AcDbLine
  8
0
 62
256
370
-1
  6
ByLayer
 10
322.0
 20
132.5
 30
0.0
 11
345.0
 21
132.5
 31
0.0
  0
LINE
  5
18B
100
AcDbEntity
100
AcDbLine
  8
0
 62
256
370
-1
  6
ByLayer
 10
345.0
 20
132.5
 30
0.0
 11
345.0
 21
122.5
 31
0.0
  0
LINE
  5
18C
100
AcDbEntity
100
AcDbLine
  8
0
 62
256
370
-1
  6
ByLayer
 10
330.5
 20
137.5
 30
0.0
 11
330.5
 21
139.0999999999999943
 31
0.0
  0
LINE
  5
18D
100
AcDbEntity
100
AcDbLine
  8
0
 62
256
370
-1
  6
ByLayer
 10
330.5
 20
139.0999999999999943
 30
0.0
 11
339.6999999999999886
 21
139.0999999999999943
 31
0.0
  0
LINE
  5
18E
100
AcDbEntity
100
AcDbLine
  8
0
 62
256
370
-1
  6
ByLayer
 10
339.6999999999999886
 20
139.0999999999999943
 30
0.0
 11
339.6999999999999886
 21
137.5
 31
0.0
  0
LINE
  5
18F
100
AcDbEntity
100
AcDbLine
  8
0
 62
256
370
-1
  6
ByLayer
 10
339.6999999999999886
 20
137.5
 30
0.0
 11
330.5
 21
137.5
 31
0.0
  0
LINE
  5
190
100
AcDbEntity
100
AcDbLine
  8
0
 62
256
370
-1
  6
ByLayer
 10
330.9000000000000341
 20
147.0999999999999943
 30
0.0
 11
339.3000000000000114
 21
147.0999999999999943
 31
0.0
  0
LINE
  5
191
100
AcDbEntity
100
AcDbLine
  8
0
 62
256
370
-1
  6
ByLayer
 10
330.9000000000000341
 20
147.0999999999999943
 30
0.0
 11
330.9000000000000341
 21
150.5999999999999943
 31
0.0
  0
LINE
  5
192
100
AcDbEntity
100
AcDbLine
  8
0
 62
256
370
-1
  6
ByLayer
 10
330.9000000000000341
 20
150.5999999999999943
 30
0.0
 11
339.3000000000000114
 21
150.5999999999999943
 31
0.0
  0
LINE
  5
193
100
AcDbEntity
100
AcDbLine
  8
0
 62
256
370
-1
  6
ByLayer
 10
339.3000000000000114
 20
150.5999999999999943
 30
0.0
 11
339.3000000000000114
 21
147.0999999999999943
 31
0.0
  0
LINE
  5
194
100
AcDbEntity
100
AcDbLine
  8
0
 62
256
370
-1
  6
ByLayer
 10
422.0
 20
127.5
 30
0.0
 11
422.0
 21
127.5
 31
0.0
  0
LINE
  5
195
100
AcDbEntity
100
AcDbLine
  8
0
 62
256
370
-1
  6
ByLayer
 10
413.0
 20
127.5
 30
0.0
 11
413.0
 21
127.5
 31
0.0
  0
LINE
  5
196
100
AcDbEntity
100
AcDbLine
  8
0
 62
256
370
-1
  6
ByLayer
 10
422.0
 20
134.5
 30
0.0
 11
413.0
 21
134.5
 31
0.0
  0
LINE
  5
197
100
AcDbEntity
100
AcDbLine
  8
0
 62
256
370
-1
  6
ByLayer
 10
422.0
 20
120.5
 30
0.0
 11
413.0
 21
120.5
 31
0.0
  0
LINE
  5
198
100
AcDbEntity
100
AcDbLine
  8
0
 62
256
370
-1
  6
ByLayer
 10
413.0
 20
132.5
 30
0.0
 11
413.0
 21
134.5
 31
0.0
  0
LINE
  5
199
100
AcDbEntity
100
AcDbLine
  8
0
 62
256
370
-1
  6
ByLayer
 10
413.0
 20
122.5
 30
0.0
 11
413.0
 21
120.5
 31
0.0
  0
LINE
  5
19A
100
AcDbEntity
100
AcDbLine
  8
0
 62
256
370
-1
  6
ByLayer
 10
422.0
 20
134.5
 30
0.0
 11
422.0
 21
120.5
 31
0.0
  0
LINE
  5
19B
100
AcDbEntity
100
AcDbLine
  8
0
 62
256
370
-1
  6
ByLayer
 10
390.0
 20
132.5000000000000284
 30
0.0
 11
413.0
 21
132.5
 31
0.0
  0
LINE
  5
19C
100
AcDbEntity
100
AcDbLine
  8
0
 62
256
370
-1
  6
ByLayer
 10
413.0
 20
122.5
 30
0.0
 11
390.0
 21
122.5
 31
0.0
  0
LINE
  5
19D
100
AcDbEntity
100
AcDbLine
  8
0
 62
256
370
-1
  6
ByLayer
 10
390.0
 20
122.5
 30
0.0
 11
390.0
 21
132.5000000000000284
 31
0.0
  0
LINE
  5
19E
100
AcDbEntity
100
AcDbLine
  8
0
 62
256
370
-1
  6
ByLayer
 10
404.5
 20
117.5
 30
0.0
 11
404.5
 21
115.9000000000000057
 31
0.0
  0
LINE
  5
19F
100
AcDbEntity
100
AcDbLine
  8
0
 62
256
370
-1
  6
ByLayer
 10
404.5
 20
115.9000000000000057
 30
0.0
 11
395.3000000000000114
 21
115.9000000000000057
 31
0.0
  0
LINE
  5
1A0
100
AcDbEntity
100
AcDbLine
  8
0
 62
256
370
-1
  6
ByLayer
 10
395.3000000000000114
 20
115.9000000000000057
 30
0.0
 11
395.3000000000000114
 21
117.5
 31
0.0
  0
LINE
  5
1A1
100
AcDbEntity
100
AcDbLine
  8
0
 62
256
370
-1
  6
ByLayer
 10
395.3000000000000114
 20
117.5
 30
0.0
 11
404.5
 21
117.5
 31
0.0
  0
LINE
  5
1A2
100
AcDbEntity
100
AcDbLine
  8
0
 62
256
370
-1
  6
ByLayer
 10
404.1000000000000227
 20
107.9000000000000057
 30
0.0
 11
395.6999999999999886
 21
107.9000000000000057
 31
0.0
  0
LINE
  5
1A3
100
AcDbEntity
100
AcDbLine
  8
0
 62
256
370
-1
  6
ByLayer
 10
404.1000000000000227
 20
107.9000000000000057
 30
0.0
 11
404.1000000000000227
 21
104.4000000000000057
 31
0.0
  0
LINE
  5
1A4
100
AcDbEntity
100
AcDbLine
  8
0
 62
256
370
-1
  6
ByLayer
 10
404.1000000000000227
 20
104.4000000000000057
 30
0.0
 11
395.6999999999999318
 21
104.4000000000000057
 31
0.0
  0
LINE
  5
1A5
100
AcDbEntity
100
AcDbLine
  8
0
 62
256
370
-1
  6
ByLayer
 10
395.6999999999999318
 20
104.4000000000000057
 30
0.0
 11
395.6999999999999886
 21
107.9000000000000057
 31
0.0
  0
LINE
  5
1A6
100
AcDbEntity
100
AcDbLine
  8
0
 62
256
370
-1
  6
ByLayer
 10
367.5
 20
73.0
 30
0.0
 11
367.5
 21
73.0
 31
0.0
  0
LINE
  5
1A7
100
AcDbEntity
100
AcDbLine
  8
0
 62
256
370
-1
  6
ByLayer
 10
374.5
 20
73.0
 30
0.0
 11
374.5
 21
82.0
 31
0.0
  0
LINE
  5
1A8
100
AcDbEntity
100
AcDbLine
  8
0
 62
256
370
-1
  6
ByLayer
 10
360.5
 20
73.0
 30
0.0
 11
360.5
 21
82.0
 31
0.0
  0
LINE
  5
1A9
100
AcDbEntity
100
AcDbLine
  8
0
 62
256
370
-1
  6
ByLayer
 10
372.5
 20
82.0
 30
0.0
 11
374.5
 21
81.9999999999999716
 31
0.0
  0
LINE
  5
1AA
100
AcDbEntity
100
AcDbLine
  8
0
 62
256
370
-1
  6
ByLayer
 10
362.5
 20
82.0
 30
0.0
 11
360.5
 21
82.0
 31
0.0
  0
LINE
  5
1AB
100
AcDbEntity
100
AcDbLine
  8
0
 62
256
370
-1
  6
ByLayer
 10
374.5
 20
73.0
 30
0.0
 11
360.5
 21
73.0
 31
0.0
  0
LINE
  5
1AC
100
AcDbEntity
100
AcDbLine
  8
0
 62
256
370
-1
  6
ByLayer
 10
372.5
 20
105.0
 30
0.0
 11
372.5
 21
82.0
 31
0.0
  0
LINE
  5
1AD
100
AcDbEntity
100
AcDbLine
  8
0
 62
256
370
-1
  6
ByLayer
 10
362.5
 20
82.0
 30
0.0
 11
362.5
 21
105.0
 31
0.0
  0
LINE
  5
1AE
100
AcDbEntity
100
AcDbLine
  8
0
 62
256
370
-1
  6
ByLayer
 10
362.5
 20
105.0
 30
0.0
 11
372.5
 21
105.0
 31
0.0
  0
LINE
  5
1AF
100
AcDbEntity
100
AcDbLine
  8
0
 62
256
370
-1
  6
ByLayer
 10
357.5
 20
90.5
 30
0.0
 11
355.8999999999999773
 21
90.5
 31
0.0
  0
LINE
  5
1B0
100
AcDbEntity
100
AcDbLine
  8
0
 62
256
370
-1
  6
ByLayer
 10
355.8999999999999773
 20
90.5
 30
0.0
 11
355.9000000000000341
 21
99.7000000000000171
 31
0.0
  0
LINE
  5
1B1
100
AcDbEntity
100
AcDbLine
  8
0
 62
256
370
-1
  6
ByLayer
 10
355.9000000000000341
 20
99.7000000000000171
 30
0.0
 11
357.5
 21
99.6999999999999886
 31
0.0
  0
LINE
  5
1B2
100
AcDbEntity
100
AcDbLine
  8
0
 62
256
370
-1
  6
ByLayer
 10
357.5
 20
99.6999999999999886
 30
0.0
 11
357.5
 21
90.5
 31
0.0
  0
LINE
  5
1B3
100
AcDbEntity
100
AcDbLine
  8
0
 62
256
370
-1
  6
ByLayer
 10
347.9000000000000341
 20
90.9000000000000341
 30
0.0
 11
347.9000000000000341
 21
99.3000000000000398
 31
0.0
  0
LINE
  5
1B4
100
AcDbEntity
100
AcDbLine
  8
0
 62
256
370
-1
  6
ByLayer
 10
347.9000000000000341
 20
90.9000000000000341
 30
0.0
 11
344.3999999999999773
 21
90.9000000000000057
 31
0.0
  0
LINE
  5
1B5
100
AcDbEntity
100
AcDbLine
  8
0
 62
256
370
-1
  6
ByLayer
 10
344.3999999999999773
 20
90.9000000000000057
 30
0.0
 11
344.4000000000000341
 21
99.3000000000000398
 31
0.0
  0
LINE
  5
1B6
100
AcDbEntity
100
AcDbLine
  8
0
 62
256
370
-1
  6
ByLayer
 10
344.4000000000000341
 20
99.3000000000000398
 30
0.0
 11
347.9000000000000341
 21
99.3000000000000398
 31
0.0
  0
LINE
  5
1B7
100
AcDbEntity
100
AcDbLine
  8
0
 62
256
370
-1
  6
ByLayer
 10
490.5
 20
282.0
 30
0.0
 11
490.5
 21
273.0
 31
0.0
  0
LINE
  5
1B8
100
AcDbEntity
100
AcDbLine
  8
0
 62
256
370
-1
  6
ByLayer
 10
504.5
 20
282.0
 30
0.0
 11
504.5
 21
273.0
 31
0.0
  0
LINE
  5
1B9
100
AcDbEntity
100
AcDbLine
  8
0
 62
256
370
-1
  6
ByLayer
 10
492.5
 20
273.0
 30
0.0
 11
490.5
 21
273.0
 31
0.0
  0
LINE
  5
1BA
100
AcDbEntity
100
AcDbLine
  8
0
 62
256
370
-1
  6
ByLayer
 10
502.5
 20
273.0
 30
0.0
 11
504.5
 21
273.0
 31
0.0
  0
LINE
  5
1BB
100
AcDbEntity
100
AcDbLine
  8
0
 62
256
370
-1
  6
ByLayer
 10
490.5
 20
282.0
 30
0.0
 11
504.5
 21
282.0
 31
0.0
  0
LINE
  5
1BC
100
AcDbEntity
100
AcDbLine
  8
0
 62
256
370
-1
  6
ByLayer
 10
492.5
 20
250.0
 30
0.0
 11
492.5
 21
273.0
 31
0.0
  0
LINE
  5
1BD
100
AcDbEntity
100
AcDbLine
  8
0
 62
256
370
-1
  6
ByLayer
 10
502.5
 20
273.0
 30
0.0
 11
502.5
 21
250.0
 31
0.0
  0
LINE
  5
1BE
100
AcDbEntity
100
AcDbLine
  8
0
 62
256
370
-1
  6
ByLayer
 10
502.5
 20
250.0
 30
0.0
 11
492.5
 21
250.0
 31
0.0
  0
LINE
  5
1BF
100
AcDbEntity
100
AcDbLine
  8
0
 62
256
370
-1
  6
ByLayer
 10
507.5
 20
264.5
 30
0.0
 11
509.1000000000000227
 21
264.5
 31
0.0
  0
LINE
  5
1C0
100
AcDbEntity
100
AcDbLine
  8
0
 62
256
370
-1
  6
ByLayer
 10
509.1000000000000227
 20
264.5
 30
0.0
 11
509.1000000000000227
 21
255.3000000000000114
 31
0.0
  0
LINE
  5
1C1
100
AcDbEntity
100
AcDbLine
  8
0
 62
256
370
-1
  6
ByLayer
 10
509.1000000000000227
 20
255.3000000000000114
 30
0.0
 11
507.5
 21
255.3000000000000114
 31
0.0
  0
LINE
  5
1C2
100
AcDbEntity
100
AcDbLine
  8
0
 62
256
370
-1
  6
ByLayer
 10
507.5
 20
255.3000000000000114
 30
0.0
 11
507.5
 21
264.5
 31
0.0
  0
LINE
  5
1C3
100
AcDbEntity
100
AcDbLine
  8
0
 62
256
370
-1
  6
ByLayer
 10
517.1000000000000227
 20
264.1000000000000227
 30
0.0
 11
517.1000000000000227
 21
255.6999999999999886
 31
0.0
  0
LINE
  5
1C4
100
AcDbEntity
100
AcDbLine
  8
0
 62
256
370
-1
  6
ByLayer
 10
517.1000000000000227
 20
264.1000000000000227
 30
0.0
 11
520.6000000000000227
 21
264.1000000000000227
 31
0.0
  0
LINE
  5
1C5
100
AcDbEntity
100
AcDbLine
  8
0
 62
256
370
-1
  6
ByLayer
 10
520.6000000000000227
 20
264.1000000000000227
 30
0.0
 11
520.6000000000000227
 21
255.6999999999999886
 31
0.0
  0
LINE
  5
1C6
100
AcDbEntity
100
AcDbLine
  8
0
 62
256
370
-1
  6
ByLayer
 10
520.6000000000000227
 20
255.6999999999999886
 30
0.0
 11
517.1000000000000227
 21
255.6999999999999886
 31
0.0
  0
LINE
  5
1C7
100
AcDbEntity
100
AcDbLine
  8
0
 62
256
370
-1
  6
ByLayer
 10
443.0
 20
227.5
 30
0.0
 11
443.0
 21
227.5
 31
0.0
  0
LINE
  5
1C8
100
AcDbEntity
100
AcDbLine
  8
0
 62
256
370
-1
  6
ByLayer
 10
452.0
 20
227.5
 30
0.0
 11
452.0
 21
227.5
 31
0.0
  0
LINE
  5
1C9
100
AcDbEntity
100
AcDbLine
  8
0
 62
256
370
-1
  6
ByLayer
 10
443.0
 20
220.5
 30
0.0
 11
452.0
 21
220.5
 31
0.0
  0
LINE
  5
1CA
100
AcDbEntity
100
AcDbLine
  8
0
 62
256
370
-1
  6
ByLayer
 10
443.0
 20
234.5
 30
0.0
 11
452.0
 21
234.5
 31
0.0
  0
LINE
  5
1CB
100
AcDbEntity
100
AcDbLine
  8
0
 62
256
370
-1
  6
ByLayer
 10
452.0
 20
222.5
 30
0.0
 11
452.0
 21
220.5
 31
0.0
  0
LINE
  5
1CC
100
AcDbEntity
100
AcDbLine
  8
0
 62
256
370
-1
  6
ByLayer
 10
452.0
 20
232.5
 30
0.0
 11
452.0
 21
234.5
 31
0.0
  0
LINE
  5
1CD
100
AcDbEntity
100
AcDbLine
  8
0
 62
256
370
-1
  6
ByLayer
 10
443.0
 20
220.5
 30
0.0
 11
443.0
 21
234.5
 31
0.0
  0
LINE
  5
1CE
100
AcDbEntity
100
AcDbLine
  8
0
 62
256
370
-1
  6
ByLayer
 10
475.0
 20
222.5
 30
0.0
 11
452.0
 21
222.5
 31
0.0
  0
LINE
  5
1CF
100
AcDbEntity
100
AcDbLine
  8
0
 62
256
370
-1
  6
ByLayer
 10
452.0
 20
232.5
 30
0.0
 11
475.0
 21
232.5
 31
0.0
  0
LINE
  5
1D0
100
AcDbEntity
100
AcDbLine
  8
0
 62
256
370
-1
  6
ByLayer
 10
475.0
 20
232.5
 30
0.0
 11
475.0
 21
222.5
 31
0.0
  0
LINE
  5
1D1
100
AcDbEntity
100
AcDbLine
  8
0
 62
256
370
-1
  6
ByLayer
 10
460.5
 20
237.5
 30
0.0
 11
460.5
 21
239.0999999999999943
 31
0.0
  0
LINE
  5
1D2
100
AcDbEntity
100
AcDbLine
  8
0
 62
256
370
-1
  6
ByLayer
 10
460.5
 20
239.0999999999999943
 30
0.0
 11
469.6999999999999886
 21
239.0999999999999943
 31
0.0
  0
LINE
  5
1D3
100
AcDbEntity
100
AcDbLine
  8
0
 62
256
370
-1
  6
ByLayer
 10
469.6999999999999886
 20
239.0999999999999943
 30
0.0
 11
469.6999999999999886
 21
237.5
 31
0.0
  0
LINE
  5
1D4
100
AcDbEntity
100
AcDbLine
  8
0
 62
256
370
-1
  6
ByLayer
 10
469.6999999999999886
 20
237.5
 30
0.0
 11
460.5
 21
237.5
 31
0.0
  0
LINE
  5
1D5
100
AcDbEntity
100
AcDbLine
  8
0
 62
256
370
-1
  6
ByLayer
 10
460.8999999999999773
 20
247.0999999999999943
 30
0.0
 11
469.3000000000000114
 21
247.0999999999999943
 31
0.0
  0
LINE
  5
1D6
100
AcDbEntity
100
AcDbLine
  8
0
 62
256
370
-1
  6
ByLayer
 10
460.8999999999999773
 20
247.0999999999999943
 30
0.0
 11
460.8999999999999773
 21
250.5999999999999943
 31
0.0
  0
LINE
  5
1D7
100
AcDbEntity
100
AcDbLine
  8
0
 62
256
370
-1
  6
ByLayer
 10
460.8999999999999773
 20
250.5999999999999943
 30
0.0
 11
469.3000000000000114
 21
250.5999999999999943
 31
0.0
  0
LINE
  5
1D8
100
AcDbEntity
100
AcDbLine
  8
0
 62
256
370
-1
  6
ByLayer
 10
469.3000000000000114
 20
250.5999999999999943
 30
0.0
 11
469.3000000000000114
 21
247.0999999999999943
 31
0.0
  0
LINE
  5
1D9
100
AcDbEntity
100
AcDbLine
  8
0
 62
256
370
-1
  6
ByLayer
 10
552.0
 20
227.5
 30
0.0
 11
552.0
 21
227.5
 31
0.0
  0
LINE
  5
1DA
100
AcDbEntity
100
AcDbLine
  8
0
 62
256
370
-1
  6
ByLayer
 10
543.0
 20
227.5
 30
0.0
 11
543.0
 21
227.5
 31
0.0
  0
LINE
  5
1DB
100
AcDbEntity
100
AcDbLine
  8
0
 62
256
370
-1
  6
ByLayer
 10
552.0
 20
234.5
 30
0.0
 11
543.0
 21
234.5
 31
0.0
  0
LINE
  5
1DC
100
AcDbEntity
100
AcDbLine
  8
0
 62
256
370
-1
  6
ByLayer
 10
552.0
 20
220.5
 30
0.0
 11
543.0
 21
220.5
 31
0.0
  0
LINE
  5
1DD
100
AcDbEntity
100
AcDbLine
  8
0
 62
256
370
-1
  6
ByLayer
 10
543.0
 20
232.5
 30
0.0
 11
543.0
 21
234.5
 31
0.0
  0
LINE
  5
1DE
100
AcDbEntity
100
AcDbLine
  8
0
 62
256
370
-1
  6
ByLayer
 10
543.0
 20
222.5
 30
0.0
 11
543.0
 21
220.5
 31
0.0
  0
LINE
  5
1DF
100
AcDbEntity
100
AcDbLine
  8
0
 62
256
370
-1
  6
ByLayer
 10
552.0
 20
234.5
 30
0.0
 11
552.0
 21
220.5
 31
0.0
  0
LINE
  5
1E0
100
AcDbEntity
100
AcDbLine
  8
0
 62
256
370
-1
  6
ByLayer
 10
520.0
 20
232.5000000000000284
 30
0.0
 11
543.0
 21
232.5
 31
0.0
  0
LINE
  5
1E1
100
AcDbEntity
100
AcDbLine
  8
0
 62
256
370
-1
  6
ByLayer
 10
543.0
 20
222.5
 30
0.0
 11
520.0
 21
222.5
 31
0.0
  0
LINE
  5
1E2
100
AcDbEntity
100
AcDbLine
  8
0
 62
256
370
-1
  6
ByLayer
 10
520.0
 20
222.5
 30
0.0
 11
520.0
 21
232.5000000000000284
 31
0.0
  0
LINE
  5
1E3
100
AcDbEntity
100
AcDbLine
  8
0
 62
256
370
-1
  6
ByLayer
 10
534.5
 20
217.5
 30
0.0
 11
534.5
 21
215.9000000000000057
 31
0.0
  0
LINE
  5
1E4
100
AcDbEntity
100
AcDbLine
  8
0
 62
256
370
-1
  6
ByLayer
 10
534.5
 20
215.9000000000000057
 30
0.0
 11
525.3000000000000682
 21
215.9000000000000057
 31
0.0
  0
LINE
  5
1E5
100
AcDbEntity
100
AcDbLine
  8
0
 62
256
370
-1
  6
ByLayer
 10
525.3000000000000682
 20
215.9000000000000057
 30
0.0
 11
525.3000000000000682
 21
217.5
 31
0.0
  0
LINE
  5
1E6
100
AcDbEntity
100
AcDbLine
  8
0
 62
256
370
-1
  6
ByLayer
 10
525.3000000000000682
 20
217.5
 30
0.0
 11
534.5
 21
217.5
 31
0.0
  0
LINE
  5
1E7
100
AcDbEntity
100
AcDbLine
  8
0
 62
256
370
-1
  6
ByLayer
 10
534.1000000000000227
 20
207.9000000000000057
 30
0.0
 11
525.7000000000000455
 21
207.9000000000000057
 31
0.0
  0
LINE
  5
1E8
100
AcDbEntity
100
AcDbLine
  8
0
 62
256
370
-1
  6
ByLayer
 10
534.1000000000000227
 20
207.9000000000000057
 30
0.0
 11
534.1000000000000227
 21
204.4000000000000057
 31
0.0
  0
LINE
  5
1E9
100
AcDbEntity
100
AcDbLine
  8
0
 62
256
370
-1
  6
ByLayer
 10
534.1000000000000227
 20
204.4000000000000057
 30
0.0
 11
525.6999999999999318
 21
204.4000000000000057
 31
0.0
  0
LINE
  5
1EA
100
AcDbEntity
100
AcDbLine
  8
0
 62
256
370
-1
  6
ByLayer
 10
525.6999999999999318
 20
204.4000000000000057
 30
0.0
 11
525.7000000000000455
 21
207.9000000000000057
 31
0.0
  0
LINE
  5
1EB
100
AcDbEntity
100
AcDbLine
  8
0
 62
256
370
-1
  6
ByLayer
 10
497.5
 20
173.0
 30
0.0
 11
497.5
 21
173.0
 31
0.0
  0
LINE
  5
1EC
100
AcDbEntity
100
AcDbLine
  8
0
 62
256
370
-1
  6
ByLayer
 10
504.5
 20
173.0
 30
0.0
 11
504.5
 21
182.0
 31
0.0
  0
LINE
  5
1ED
100
AcDbEntity
100
AcDbLine
  8
0
 62
256
370
-1
  6
ByLayer
 10
490.5
 20
173.0
 30
0.0
 11
490.5
 21
182.0
 31
0.0
  0
LINE
  5
1EE
100
AcDbEntity
100
AcDbLine
  8
0
 62
256
370
-1
  6
ByLayer
 10
502.5
 20
182.0
 30
0.0
 11
504.5
 21
181.9999999999999716
 31
0.0
  0
LINE
  5
1EF
100
AcDbEntity
100
AcDbLine
  8
0
 62
256
370
-1
  6
ByLayer
 10
492.5
 20
182.0
 30
0.0
 11
490.5
 21
182.0
 31
0.0
  0
LINE
  5
1F0
100
AcDbEntity
100
AcDbLine
  8
0
 62
256
370
-1
  6
ByLayer
 10
504.5
 20
173.0
 30
0.0
 11
490.5
 21
173.0
 31
0.0
  0
LINE
  5
1F1
100
AcDbEntity
100
AcDbLine
  8
0
 62
256
370
-1
  6
ByLayer
 10
502.5
 20
205.0
 30
0.0
 11
502.5
 21
182.0
 31
0.0
  0
LINE
  5
1F2
100
AcDbEntity
100
AcDbLine
  8
0
 62
256
370
-1
  6
ByLayer
 10
492.5
 20
182.0
 30
0.0
 11
492.5
 21
205.0
 31
0.0
  0
LINE
  5
1F3
100
AcDbEntity
100
AcDbLine
  8
0
 62
256
370
-1
  6
ByLayer
 10
492.5
 20
205.0
 30
0.0
 11
502.5
 21
205.0
 31
0.0
  0
LINE
  5
1F4
100
AcDbEntity
100
AcDbLine
  8
0
 62
256
370
-1
  6
ByLayer
 10
487.5
 20
190.5
 30
0.0
 11
485.8999999999999773
 21
190.5
 31
0.0
  0
LINE
  5
1F5
100
AcDbEntity
100
AcDbLine
  8
0
 62
256
370
-1
  6
ByLayer
 10
485.8999999999999773
 20
190.5
 30
0.0
 11
485.9000000000000341
 21
199.7000000000000171
 31
0.0
  0
LINE
  5
1F6
100
AcDbEntity
100
AcDbLine
  8
0
 62
256
370
-1
  6
ByLayer
 10
485.9000000000000341
 20
199.7000000000000171
 30
0.0
 11
487.5
 21
199.6999999999999886
 31
0.0
  0
LINE
  5
1F7
100
AcDbEntity
100
AcDbLine
  8
0
 62
256
370
-1
  6
ByLayer
 10
487.5
 20
199.6999999999999886
 30
0.0
 11
487.5
 21
190.5
 31
0.0
  0
LINE
  5
1F8
100
AcDbEntity
100
AcDbLine
  8
0
 62
256
370
-1
  6
ByLayer
 10
477.8999999999999773
 20
190.9000000000000341
 30
0.0
 11
477.9000000000000341
 21
199.3000000000000398
 31
0.0
  0
LINE
  5
1F9
100
AcDbEntity
100
AcDbLine
  8
0
 62
256
370
-1
  6
ByLayer
 10
477.8999999999999773
 20
190.9000000000000341
 30
0.0
 11
474.3999999999999773
 21
190.9000000000000057
 31
0.0
  0
LINE
  5
1FA
100
AcDbEntity
100
AcDbLine
  8
0
 62
256
370
-1
  6
ByLayer
 10
474.3999999999999773
 20
190.9000000000000057
 30
0.0
 11
474.4000000000000341
 21
199.3000000000000398
 31
0.0
  0
LINE
  5
1FB
100
AcDbEntity
100
AcDbLine
  8
0
 62
256
370
-1
  6
ByLayer
 10
474.4000000000000341
 20
199.3000000000000398
 30
0.0
 11
477.9000000000000341
 21
199.3000000000000398
 31
0.0
  0
LINE
  5
1FC
100
AcDbEntity
100
AcDbLine
  8
0
 62
256
370
-1
  6
ByLayer
 10
443.0
 20
127.5
 30
0.0
 11
443.0
 21
127.5
 31
0.0
  0
LINE
  5
1FD
100
AcDbEntity
100
AcDbLine
  8
0
 62
256
370
-1
  6
ByLayer
 10
452.0
 20
127.5
 30
0.0
 11
452.0
 21
127.5
 31
0.0
  0
LINE
  5
1FE
100
AcDbEntity
100
AcDbLine
  8
0
 62
256
370
-1
  6
ByLayer
 10
443.0
 20
120.5
 30
0.0
 11
452.0
 21
120.5
 31
0.0
  0
LINE
  5
1FF
100
AcDbEntity
100
AcDbLine
  8
0
 62
256
370
-1
  6
ByLayer
 10
443.0
 20
134.5
 30
0.0
 11
452.0
 21
134.5
 31
0.0
  0
LINE
  5
200
100
AcDbEntity
100
AcDbLine
  8
0
 62
256
370
-1
  6
ByLayer
 10
452.0
 20
122.5
 30
0.0
 11
452.0
 21
120.5
 31
0.0
  0
LINE
  5
201
100
AcDbEntity
100
AcDbLine
  8
0
 62
256
370
-1
  6
ByLayer
 10
452.0
 20
132.5
 30
0.0
 11
452.0
 21
134.5
 31
0.0
  0
LINE
  5
202
100
AcDbEntity
100
AcDbLine
  8
0
 62
256
370
-1
  6
ByLayer
 10
443.0
 20
120.5
 30
0.0
 11
443.0
 21
134.5
 31
0.0
  0
LINE
  5
203
100
AcDbEntity
100
AcDbLine
  8
0
 62
256
370
-1
  6
ByLayer
 10
475.0
 20
122.5
 30
0.0
 11
452.0
 21
122.5
 31
0.0
  0
LINE
  5
204
100
AcDbEntity
100
AcDbLine
  8
0
 62
256
370
-1
  6
ByLayer
 10
452.0
 20
132.5
 30
0.0
 11
475.0
 21
132.5
 31
0.0
  0
LINE
  5
205
100
AcDbEntity
100
AcDbLine
  8
0
 62
256
370
-1
  6
ByLayer
 10
475.0
 20
132.5
 30
0.0
 11
475.0
 21
122.5
 31
0.0
  0
LINE
  5
206
100
AcDbEntity
100
AcDbLine
  8
0
 62
256
370
-1
  6
ByLayer
 10
460.5
 20
137.5
 30
0.0
 11
460.5
 21
139.0999999999999943
 31
0.0
  0
LINE
  5
207
100
AcDbEntity
100
AcDbLine
  8
0
 62
256
370
-1
  6
ByLayer
 10
460.5
 20
139.0999999999999943
 30
0.0
 11
469.6999999999999886
 21
139.0999999999999943
 31
0.0
  0
LINE
  5
208
100
AcDbEntity
100
AcDbLine
  8
0
 62
256
370
-1
  6
ByLayer
 10
469.6999999999999886
 20
139.0999999999999943
 30
0.0
 11
469.6999999999999886
 21
137.5
 31
0.0
  0
LINE
  5
209
100
AcDbEntity
100
AcDbLine
  8
0
 62
256
370
-1
  6
ByLayer
 10
469.6999999999999886
 20
137.5
 30
0.0
 11
460.5
 21
137.5
 31
0.0
  0
LINE
  5
20A
100
AcDbEntity
100
AcDbLine
  8
0
 62
256
370
-1
  6
ByLayer
 10
460.8999999999999773
 20
147.0999999999999943
 30
0.0
 11
469.3000000000000114
 21
147.0999999999999943
 31
0.0
  0
LINE
  5
20B
100
AcDbEntity
100
AcDbLine
  8
0
 62
256
370
-1
  6
ByLayer
 10
460.8999999999999773
 20
147.0999999999999943
 30
0.0
 11
460.8999999999999773
 21
150.5999999999999943
 31
0.0
  0
LINE
  5
20C
100
AcDbEntity
100
AcDbLine
  8
0
 62
256
370
-1
  6
ByLayer
 10
460.8999999999999773
 20
150.5999999999999943
 30
0.0
 11
469.3000000000000114
 21
150.5999999999999943
 31
0.0
  0
LINE
  5
20D
100
AcDbEntity
100
AcDbLine
  8
0
 62
256
370
-1
  6
ByLayer
 10
469.3000000000000114
 20
150.5999999999999943
 30
0.0
 11
469.3000000000000114
 21
147.0999999999999943
 31
0.0
  0
LINE
  5
20E
100
AcDbEntity
100
AcDbLine
  8
0
 62
256
370
-1
  6
ByLayer
 10
552.0
 20
127.5
 30
0.0
 11
552.0
 21
127.5
 31
0.0
  0
LINE
  5
20F
100
AcDbEntity
100
AcDbLine
  8
0
 62
256
370
-1
  6
ByLayer
 10
543.0
 20
127.5
 30
0.0
 11
543.0
 21
127.5
 31
0.0
  0
LINE
  5
210
100
AcDbEntity
100
AcDbLine
  8
0
 62
256
370
-1
  6
ByLayer
 10
552.0
 20
134.5
 30
0.0
 11
543.0
 21
134.5
 31
0.0
  0
LINE
  5
211
100
AcDbEntity
100
AcDbLine
  8
0
 62
256
370
-1
  6
ByLayer
 10
552.0
 20
120.5
 30
0.0
 11
543.0
 21
120.5
 31
0.0
  0
LINE
  5
212
100
AcDbEntity
100
AcDbLine
  8
0
 62
256
370
-1
  6
ByLayer
 10
543.0
 20
132.5
 30
0.0
 11
543.0
 21
134.5
 31
0.0
  0
LINE
  5
213
100
AcDbEntity
100
AcDbLine
  8
0
 62
256
370
-1
  6
ByLayer
 10
543.0
 20
122.5
 30
0.0
 11
543.0
 21
120.5
 31
0.0
  0
LINE
  5
214
100
AcDbEntity
100
AcDbLine
  8
0
 62
256
370
-1
  6
ByLayer
 10
552.0
 20
134.5
 30
0.0
 11
552.0
 21
120.5
 31
0.0
  0
LINE
  5
215
100
AcDbEntity
100
AcDbLine
  8
0
 62
256
370
-1
  6
ByLayer
 10
520.0
 20
132.5000000000000284
 30
0.0
 11
543.0
 21
132.5
 31
0.0
  0
LINE
  5
216
100
AcDbEntity
100
AcDbLine
  8
0
 62
256
370
-1
  6
ByLayer
 10
543.0
 20
122.5
 30
0.0
 11
520.0
 21
122.5
 31
0.0
  0
LINE
  5
217
100
AcDbEntity
100
AcDbLine
  8
0
 62
256
370
-1
  6
ByLayer
 10
520.0
 20
122.5
 30
0.0
 11
520.0
 21
132.5000000000000284
 31
0.0
  0
LINE
  5
218
100
AcDbEntity
100
AcDbLine
  8
0
 62
256
370
-1
  6
ByLayer
 10
534.5
 20
117.5
 30
0.0
 11
534.5
 21
115.9000000000000057
 31
0.0
  0
LINE
  5
219
100
AcDbEntity
100
AcDbLine
  8
0
 62
256
370
-1
  6
ByLayer
 10
534.5
 20
115.9000000000000057
 30
0.0
 11
525.3000000000000682
 21
115.9000000000000057
 31
0.0
  0
LINE
  5
21A
100
AcDbEntity
100
AcDbLine
  8
0
 62
256
370
-1
  6
ByLayer
 10
525.3000000000000682
 20
115.9000000000000057
 30
0.0
 11
525.3000000000000682
 21
117.5
 31
0.0
  0
LINE
  5
21B
100
AcDbEntity
100
AcDbLine
  8
0
 62
256
370
-1
  6
ByLayer
 10
525.3000000000000682
 20
117.5
 30
0.0
 11
534.5
 21
117.5
 31
0.0
  0
LINE
  5
21C
100
AcDbEntity
100
AcDbLine
  8
0
 62
256
370
-1
  6
ByLayer
 10
534.1000000000000227
 20
107.9000000000000057
 30
0.0
 11
525.7000000000000455
 21
107.9000000000000057
 31
0.0
  0
LINE
  5
21D
100
AcDbEntity
100
AcDbLine
  8
0
 62
256
370
-1
  6
ByLayer
 10
534.1000000000000227
 20
107.9000000000000057
 30
0.0
 11
534.1000000000000227
 21
104.4000000000000057
 31
0.0
  0
LINE
  5
21E
100
AcDbEntity
100
AcDbLine
  8
0
 62
256
370
-1
  6
ByLayer
 10
534.1000000000000227
 20
104.4000000000000057
 30
0.0
 11
525.6999999999999318
 21
104.4000000000000057
 31
0.0
  0
LINE
  5
21F
100
AcDbEntity
100
AcDbLine
  8
0
 62
256
370
-1
  6
ByLayer
 10
525.6999999999999318
 20
104.4000000000000057
 30
0.0
 11
525.7000000000000455
 21
107.9000000000000057
 31
0.0
  0
LINE
  5
220
100
AcDbEntity
100
AcDbLine
  8
0
 62
256
370
-1
  6
ByLayer
 10
497.5
 20
73.0
 30
0.0
 11
497.5
 21
73.0
 31
0.0
  0
LINE
  5
221
100
AcDbEntity
100
AcDbLine
  8
0
 62
256
370
-1
  6
ByLayer
 10
504.5
 20
73.0
 30
0.0
 11
504.5
 21
82.0
 31
0.0
  0
LINE
  5
222
100
AcDbEntity
100
AcDbLine
  8
0
 62
256
370
-1
  6
ByLayer
 10
490.5
 20
73.0
 30
0.0
 11
490.5
 21
82.0
 31
0.0
  0
LINE
  5
223
100
AcDbEntity
100
AcDbLine
  8
0
 62
256
370
-1
  6
ByLayer
 10
502.5
 20
82.0
 30
0.0
 11
504.5
 21
81.9999999999999716
 31
0.0
  0
LINE
  5
224
100
AcDbEntity
100
AcDbLine
  8
0
 62
256
370
-1
  6
ByLayer
 10
492.5
 20
82.0
 30
0.0
 11
490.5
 21
82.0
 31
0.0
  0
LINE
  5
225
100
AcDbEntity
100
AcDbLine
  8
0
 62
256
370
-1
  6
ByLayer
 10
504.5
 20
73.0
 30
0.0
 11
490.5
 21
73.0
 31
0.0
  0
LINE
  5
226
100
AcDbEntity
100
AcDbLine
  8
0
 62
256
370
-1
  6
ByLayer
 10
502.5
 20
105.0
 30
0.0
 11
502.5
 21
82.0
 31
0.0
  0
LINE
  5
227
100
AcDbEntity
100
AcDbLine
  8
0
 62
256
370
-1
  6
ByLayer
 10
492.5
 20
82.0
 30
0.0
 11
492.5
 21
105.0
 31
0.0
  0
LINE
  5
228
100
AcDbEntity
100
AcDbLine
  8
0
 62
256
370
-1
  6
ByLayer
 10
492.5
 20
105.0
 30
0.0
 11
502.5
 21
105.0
 31
0.0
  0
LINE
  5
229
100
AcDbEntity
100
AcDbLine
  8
0
 62
256
370
-1
  6
ByLayer
 10
487.5
 20
90.5
 30
0.0
 11
485.8999999999999773
 21
90.5
 31
0.0
  0
LINE
  5
22A
100
AcDbEntity
100
AcDbLine
  8
0
 62
256
370
-1
  6
ByLayer
 10
485.8999999999999773
 20
90.5
 30
0.0
 11
485.9000000000000341
 21
99.7000000000000171
 31
0.0
  0
LINE
  5
22B
100
AcDbEntity
100
AcDbLine
  8
0
 62
256
370
-1
  6
ByLayer
 10
485.9000000000000341
 20
99.7000000000000171
 30
0.0
 11
487.5
 21
99.6999999999999886
 31
0.0
  0
LINE
  5
22C
100
AcDbEntity
100
AcDbLine
  8
0
 62
256
370
-1
  6
ByLayer
 10
487.5
 20
99.6999999999999886
 30
0.0
 11
487.5
 21
90.5
 31
0.0
  0
LINE
  5
22D
100
AcDbEntity
100
AcDbLine
  8
0
 62
256
370
-1
  6
ByLayer
 10
477.8999999999999773
 20
90.9000000000000341
 30
0.0
 11
477.9000000000000341
 21
99.3000000000000398
 31
0.0
  0
LINE
  5
22E
100
AcDbEntity
100
AcDbLine
  8
0
 62
256
370
-1
  6
ByLayer
 10
477.8999999999999773
 20
90.9000000000000341
 30
0.0
 11
474.3999999999999773
 21
90.9000000000000057
 31
0.0
  0
LINE
  5
22F
100
AcDbEntity
100
AcDbLine
  8
0
 62
256
370
-1
  6
ByLayer
 10
474.3999999999999773
 20
90.9000000000000057
 30
0.0
 11
474.4000000000000341
 21
99.3000000000000398
 31
0.0
  0
LINE
  5
230
100
AcDbEntity
100
AcDbLine
  8
0
 62
256
370
-1
  6
ByLayer
 10
474.4000000000000341
 20
99.3000000000000398
 30
0.0
 11
477.9000000000000341
 21
99.3000000000000398
 31
0.0
  0
LINE
  5
231
100
AcDbEntity
100
AcDbLine
  8
0
 62
256
370
-1
  6
ByLayer
 10
292.0
 20
177.5
 30
0.0
 11
292.0
 21
177.5
 31
0.0
  0
LINE
  5
232
100
AcDbEntity
100
AcDbLine
  8
0
 62
256
370
-1
  6
ByLayer
 10
283.0
 20
177.5
 30
0.0
 11
283.0
 21
177.5
 31
0.0
  0
LINE
  5
233
100
AcDbEntity
100
AcDbLine
  8
0
 62
256
370
-1
  6
ByLayer
 10
292.0
 20
184.5
 30
0.0
 11
283.0
 21
184.5
 31
0.0
  0
LINE
  5
234
100
AcDbEntity
100
AcDbLine
  8
0
 62
256
370
-1
  6
ByLayer
 10
292.0
 20
170.5
 30
0.0
 11
283.0
 21
170.5
 31
0.0
  0
LINE
  5
235
100
AcDbEntity
100
AcDbLine
  8
0
 62
256
370
-1
  6
ByLayer
 10
283.0
 20
182.5
 30
0.0
 11
283.0
 21
184.5
 31
0.0
  0
LINE
  5
236
100
AcDbEntity
100
AcDbLine
  8
0
 62
256
370
-1
  6
ByLayer
 10
283.0
 20
172.5
 30
0.0
 11
283.0
 21
170.5
 31
0.0
  0
LINE
  5
237
100
AcDbEntity
100
AcDbLine
  8
0
 62
256
370
-1
  6
ByLayer
 10
292.0
 20
184.5
 30
0.0
 11
292.0
 21
170.5
 31
0.0
  0
LINE
  5
238
100
AcDbEntity
100
AcDbLine
  8
0
 62
256
370
-1
  6
ByLayer
 10
260.0
 20
182.5000000000000284
 30
0.0
 11
283.0
 21
182.5
 31
0.0
  0
LINE
  5
239
100
AcDbEntity
100
AcDbLine
  8
0
 62
256
370
-1
  6
ByLayer
 10
283.0
 20
172.5
 30
0.0
 11
260.0
 21
172.5
 31
0.0
  0
LINE
  5
23A
100
AcDbEntity
100
AcDbLine
  8
0
 62
256
370
-1
  6
ByLayer
 10
260.0
 20
172.5
 30
0.0
 11
260.0
 21
182.5000000000000284
 31
0.0
  0
LINE
  5
23B
100
AcDbEntity
100
AcDbLine
  8
0
 62
256
370
-1
  6
ByLayer
 10
274.5
 20
167.5
 30
0.0
 11
274.5
 21
165.9000000000000057
 31
0.0
  0
LINE
  5
23C
100
AcDbEntity
100
AcDbLine
  8
0
 62
256
370
-1
  6
ByLayer
 10
274.5
 20
165.9000000000000057
 30
0.0
 11
265.3000000000000114
 21
165.9000000000000057
 31
0.0
  0
LINE
  5
23D
100
AcDbEntity
100
AcDbLine
  8
0
 62
256
370
-1
  6
ByLayer
 10
265.3000000000000114
 20
165.9000000000000057
 30
0.0
 11
265.3000000000000114
 21
167.5
 31
0.0
  0
LINE
  5
23E
100
AcDbEntity
100
AcDbLine
  8
0
 62
256
370
-1
  6
ByLayer
 10
265.3000000000000114
 20
167.5
 30
0.0
 11
274.5
 21
167.5
 31
0.0
  0
LINE
  5
23F
100
AcDbEntity
100
AcDbLine
  8
0
 62
256
370
-1
  6
ByLayer
 10
274.1000000000000227
 20
157.9000000000000057
 30
0.0
 11
265.6999999999999886
 21
157.9000000000000057
 31
0.0
  0
LINE
  5
240
100
AcDbEntity
100
AcDbLine
  8
0
 62
256
370
-1
  6
ByLayer
 10
274.1000000000000227
 20
157.9000000000000057
 30
0.0
 11
274.1000000000000227
 21
154.4000000000000057
 31
0.0
  0
LINE
  5
241
100
AcDbEntity
100
AcDbLine
  8
0
 62
256
370
-1
  6
ByLayer
 10
274.1000000000000227
 20
154.4000000000000057
 30
0.0
 11
265.6999999999999318
 21
154.4000000000000057
 31
0.0
  0
LINE
  5
242
100
AcDbEntity
100
AcDbLine
  8
0
 62
256
370
-1
  6
ByLayer
 10
265.6999999999999318
 20
154.4000000000000057
 30
0.0
 11
265.6999999999999886
 21
157.9000000000000057
 31
0.0
  0
CIRCLE
  5
243
100
AcDbEntity
100
AcDbCircle
  8
0
 62
256
370
-1
  6
ByLayer
 10
432.5
 20
177.5
 30
0.0
 40
2.0
  0
CIRCLE
  5
244
100
AcDbEntity
100
AcDbCircle
  8
0
 62
256
370
-1
  6
ByLayer
 10
142.5
 20
177.5
 30
0.0
 40
2.0
  0
LINE
  5
245
100
AcDbEntity
100
AcDbLine
  8
0
 62
256
370
-1
  6
ByLayer
 10
13.0
 20
63.0
 30
0.0
 11
562.0
 21
63.0
 31
0.0
  0
LINE
  5
246
100
AcDbEntity
100
AcDbLine
  8
0
 62
256
370
-1
  6
ByLayer
 10
562.0
 20
63.0
 30
0.0
 11
562.0
 21
292.0
 31
0.0
  0
LINE
  5
247
100
AcDbEntity
100
AcDbLine
  8
0
 62
256
370
-1
  6
ByLayer
 10
562.0
 20
292.0
 30
0.0
 11
13.0
 21
292.0
 31
0.0
  0
LINE
  5
248
100
AcDbEntity
100
AcDbLine
  8
0
 62
256
370
-1
  6
ByLayer
 10
13.0
 20
292.0
 30
0.0
 11
13.0
 21
63.0
 31
0.0
  0
CIRCLE
  5
249
100
AcDbEntity
100
AcDbCircle
  8
0
 62
256
370
-1
  6
ByLayer
 10
21.0
 20
284.0
 30
0.0
 40
2.0
  0
CIRCLE
  5
24A
100
AcDbEntity
100
AcDbCircle
  8
0
 62
256
370
-1
  6
ByLayer
 10
21.0
 20
71.0
 30
0.0
 40
2.0
  0
CIRCLE
  5
24B
100
AcDbEntity
100
AcDbCircle
  8
0
 62
256
370
-1
  6
ByLayer
 10
554.0
 20
71.0
 30
0.0
 40
2.0
  0
CIRCLE
  5
24C
100
AcDbEntity
100
AcDbCircle
  8
0
 62
256
370
-1
  6
ByLayer
 10
554.0
 20
284.0
 30
0.0
 40
2.0
  0
CIRCLE
  5
24D
100
AcDbEntity
100
AcDbCircle
  8
0
 62
256
370
-1
  6
ByLayer
 10
287.5
 20
284.0
 30
0.0
 40
2.0
  0
CIRCLE
  5
24E
100
AcDbEntity
100
AcDbCircle
  8
0
 62
256
370
-1
  6
ByLayer
 10
287.5
 20
71.0
 30
0.0
 40
2.0
  0
CIRCLE
  5
24F
100
AcDbEntity
100
AcDbCircle
  8
0
 62
256
370
-1
  6
ByLayer
 10
377.5
 20
107.5
 30
0.0
 40
1.5
  0
CIRCLE
  5
250
100
AcDbEntity
100
AcDbCircle
  8
0
 62
256
370
-1
  6
ByLayer
 10
357.5
 20
107.5
 30
0.0
 40
1.5
  0
CIRCLE
  5
251
100
AcDbEntity
100
AcDbCircle
  8
0
 62
256
370
-1
  6
ByLayer
 10
349.5
 20
138.5
 30
0.0
 40
1.5
  0
CIRCLE
  5
252
100
AcDbEntity
100
AcDbCircle
  8
0
 62
256
370
-1
  6
ByLayer
 10
385.5
 20
138.5
 30
0.0
 40
1.5
  0
CIRCLE
  5
253
100
AcDbEntity
100
AcDbCircle
  8
0
 62
256
370
-1
  6
ByLayer
 10
507.5
 20
107.5
 30
0.0
 40
1.5
  0
CIRCLE
  5
254
100
AcDbEntity
100
AcDbCircle
  8
0
 62
256
370
-1
  6
ByLayer
 10
487.5
 20
107.5
 30
0.0
 40
1.5
  0
CIRCLE
  5
255
100
AcDbEntity
100
AcDbCircle
  8
0
 62
256
370
-1
  6
ByLayer
 10
479.5
 20
138.5
 30
0.0
 40
1.5
  0
CIRCLE
  5
256
100
AcDbEntity
100
AcDbCircle
  8
0
 62
256
370
-1
  6
ByLayer
 10
515.5
 20
138.5
 30
0.0
 40
1.5
  0
CIRCLE
  5
257
100
AcDbEntity
100
AcDbCircle
  8
0
 62
256
370
-1
  6
ByLayer
 10
217.5
 20
107.5
 30
0.0
 40
1.5
  0
CIRCLE
  5
258
100
AcDbEntity
100
AcDbCircle
  8
0
 62
256
370
-1
  6
ByLayer
 10
197.5
 20
107.5
 30
0.0
 40
1.5
  0
CIRCLE
  5
259
100
AcDbEntity
100
AcDbCircle
  8
0
 62
256
370
-1
  6
ByLayer
 10
189.5
 20
138.5
 30
0.0
 40
1.5
  0
CIRCLE
  5
25A
100
AcDbEntity
100
AcDbCircle
  8
0
 62
256
370
-1
  6
ByLayer
 10
225.5
 20
138.5
 30
0.0
 40
1.5
  0
CIRCLE
  5
25B
100
AcDbEntity
100
AcDbCircle
  8
0
 62
256
370
-1
  6
ByLayer
 10
87.5
 20
107.5
 30
0.0
 40
1.5
  0
CIRCLE
  5
25C
100
AcDbEntity
100
AcDbCircle
  8
0
 62
256
370
-1
  6
ByLayer
 10
67.5
 20
107.5
 30
0.0
 40
1.5
  0
CIRCLE
  5
25D
100
AcDbEntity
100
AcDbCircle
  8
0
 62
256
370
-1
  6
ByLayer
 10
59.5
 20
138.5
 30
0.0
 40
1.5
  0
CIRCLE
  5
25E
100
AcDbEntity
100
AcDbCircle
  8
0
 62
256
370
-1
  6
ByLayer
 10
95.5
 20
138.5
 30
0.0
 40
1.5
  0
CIRCLE
  5
25F
100
AcDbEntity
100
AcDbCircle
  8
0
 62
256
370
-1
  6
ByLayer
 10
479.5
 20
238.5
 30
0.0
 40
1.5
  0
CIRCLE
  5
260
100
AcDbEntity
100
AcDbCircle
  8
0
 62
256
370
-1
  6
ByLayer
 10
515.5
 20
238.5
 30
0.0
 40
1.5
  0
CIRCLE
  5
261
100
AcDbEntity
100
AcDbCircle
  8
0
 62
256
370
-1
  6
ByLayer
 10
377.5
 20
207.5
 30
0.0
 40
1.5
  0
CIRCLE
  5
262
100
AcDbEntity
100
AcDbCircle
  8
0
 62
256
370
-1
  6
ByLayer
 10
357.5
 20
207.5
 30
0.0
 40
1.5
  0
CIRCLE
  5
263
100
AcDbEntity
100
AcDbCircle
  8
0
 62
256
370
-1
  6
ByLayer
 10
349.5
 20
238.5
 30
0.0
 40
1.5
  0
CIRCLE
  5
264
100
AcDbEntity
100
AcDbCircle
  8
0
 62
256
370
-1
  6
ByLayer
 10
385.5
 20
238.5
 30
0.0
 40
1.5
  0
CIRCLE
  5
265
100
AcDbEntity
100
AcDbCircle
  8
0
 62
256
370
-1
  6
ByLayer
 10
507.5
 20
207.5
 30
0.0
 40
1.5
  0
CIRCLE
  5
266
100
AcDbEntity
100
AcDbCircle
  8
0
 62
256
370
-1
  6
ByLayer
 10
487.5
 20
207.5
 30
0.0
 40
1.5
  0
LINE
  5
267
100
AcDbEntity
100
AcDbLine
  8
0
 62
256
370
-1
  6
ByLayer
 10
460.0
 20
169.0
 30
0.0
 11
460.0
 21
165.0
 31
0.0
  0
LINE
  5
268
100
AcDbEntity
100
AcDbLine
  8
0
 62
256
370
-1
  6
ByLayer
 10
460.0
 20
165.0
 30
0.0
 11
462.0
 21
165.0
 31
0.0
  0
LINE
  5
269
100
AcDbEntity
100
AcDbLine
  8
0
 62
256
370
-1
  6
ByLayer
 10
462.0
 20
165.0
 30
0.0
 11
462.0
 21
169.0
 31
0.0
  0
LINE
  5
26A
100
AcDbEntity
100
AcDbLine
  8
0
 62
256
370
-1
  6
ByLayer
 10
462.0
 20
169.0
 30
0.0
 11
460.0
 21
169.0
 31
0.0
  0
LINE
  5
26B
100
AcDbEntity
100
AcDbLine
  8
0
 62
256
370
-1
  6
ByLayer
 10
468.0
 20
165.0
 30
0.0
 11
468.0
 21
169.0
 31
0.0
  0
LINE
  5
26C
100
AcDbEntity
100
AcDbLine
  8
0
 62
256
370
-1
  6
ByLayer
 10
535.0
 20
169.0
 30
0.0
 11
535.0
 21
165.0
 31
0.0
  0
LINE
  5
26D
100
AcDbEntity
100
AcDbLine
  8
0
 62
256
370
-1
  6
ByLayer
 10
535.0
 20
165.0
 30
0.0
 11
533.0
 21
165.0
 31
0.0
  0
LINE
  5
26E
100
AcDbEntity
100
AcDbLine
  8
0
 62
256
370
-1
  6
ByLayer
 10
533.0
 20
165.0
 30
0.0
 11
533.0
 21
169.0
 31
0.0
  0
LINE
  5
26F
100
AcDbEntity
100
AcDbLine
  8
0
 62
256
370
-1
  6
ByLayer
 10
533.0
 20
169.0
 30
0.0
 11
535.0
 21
169.0
 31
0.0
  0
LINE
  5
270
100
AcDbEntity
100
AcDbLine
  8
0
 62
256
370
-1
  6
ByLayer
 10
527.0
 20
165.0
 30
0.0
 11
527.0
 21
169.0
 31
0.0
  0
LINE
  5
271
100
AcDbEntity
100
AcDbLine
  8
0
 62
256
370
-1
  6
ByLayer
 10
466.0
 20
169.0
 30
0.0
 11
466.0
 21
165.0
 31
0.0
  0
LINE
  5
272
100
AcDbEntity
100
AcDbLine
  8
0
 62
256
370
-1
  6
ByLayer
 10
466.0
 20
165.0
 30
0.0
 11
468.0
 21
165.0
 31
0.0
  0
LINE
  5
273
100
AcDbEntity
100
AcDbLine
  8
0
 62
256
370
-1
  6
ByLayer
 10
466.0
 20
169.0
 30
0.0
 11
468.0
 21
169.0
 31
0.0
  0
LINE
  5
274
100
AcDbEntity
100
AcDbLine
  8
0
 62
256
370
-1
  6
ByLayer
 10
529.0
 20
169.0
 30
0.0
 11
529.0
 21
165.0
 31
0.0
  0
LINE
  5
275
100
AcDbEntity
100
AcDbLine
  8
0
 62
256
370
-1
  6
ByLayer
 10
529.0
 20
165.0
 30
0.0
 11
527.0
 21
165.0
 31
0.0
  0
LINE
  5
276
100
AcDbEntity
100
AcDbLine
  8
0
 62
256
370
-1
  6
ByLayer
 10
527.0
 20
169.0
 30
0.0
 11
529.0
 21
169.0
 31
0.0
  0
LINE
  5
277
100
AcDbEntity
100
AcDbLine
  8
0
 62
256
370
-1
  6
ByLayer
 10
330.0
 20
169.0
 30
0.0
 11
330.0
 21
165.0
 31
0.0
  0
LINE
  5
278
100
AcDbEntity
100
AcDbLine
  8
0
 62
256
370
-1
  6
ByLayer
 10
330.0
 20
165.0
 30
0.0
 11
332.0
 21
165.0
 31
0.0
  0
LINE
  5
279
100
AcDbEntity
100
AcDbLine
  8
0
 62
256
370
-1
  6
ByLayer
 10
332.0
 20
165.0
 30
0.0
 11
332.0
 21
169.0
 31
0.0
  0
LINE
  5
27A
100
AcDbEntity
100
AcDbLine
  8
0
 62
256
370
-1
  6
ByLayer
 10
332.0
 20
169.0
 30
0.0
 11
330.0
 21
169.0
 31
0.0
  0
LINE
  5
27B
100
AcDbEntity
100
AcDbLine
  8
0
 62
256
370
-1
  6
ByLayer
 10
338.0
 20
165.0
 30
0.0
 11
338.0
 21
169.0
 31
0.0
  0
LINE
  5
27C
100
AcDbEntity
100
AcDbLine
  8
0
 62
256
370
-1
  6
ByLayer
 10
405.0
 20
169.0
 30
0.0
 11
405.0
 21
165.0
 31
0.0
  0
LINE
  5
27D
100
AcDbEntity
100
AcDbLine
  8
0
 62
256
370
-1
  6
ByLayer
 10
405.0
 20
165.0
 30
0.0
 11
403.0
 21
165.0
 31
0.0
  0
LINE
  5
27E
100
AcDbEntity
100
AcDbLine
  8
0
 62
256
370
-1
  6
ByLayer
 10
403.0
 20
165.0
 30
0.0
 11
403.0
 21
169.0
 31
0.0
  0
LINE
  5
27F
100
AcDbEntity
100
AcDbLine
  8
0
 62
256
370
-1
  6
ByLayer
 10
403.0
 20
169.0
 30
0.0
 11
405.0
 21
169.0
 31
0.0
  0
LINE
  5
280
100
AcDbEntity
100
AcDbLine
  8
0
 62
256
370
-1
  6
ByLayer
 10
397.0
 20
165.0
 30
0.0
 11
397.0
 21
169.0
 31
0.0
  0
LINE
  5
281
100
AcDbEntity
100
AcDbLine
  8
0
 62
256
370
-1
  6
ByLayer
 10
336.0
 20
169.0
 30
0.0
 11
336.0
 21
165.0
 31
0.0
  0
LINE
  5
282
100
AcDbEntity
100
AcDbLine
  8
0
 62
256
370
-1
  6
ByLayer
 10
336.0
 20
165.0
 30
0.0
 11
338.0
 21
165.0
 31
0.0
  0
LINE
  5
283
100
AcDbEntity
100
AcDbLine
  8
0
 62
256
370
-1
  6
ByLayer
 10
336.0
 20
169.0
 30
0.0
 11
338.0
 21
169.0
 31
0.0
  0
LINE
  5
284
100
AcDbEntity
100
AcDbLine
  8
0
 62
256
370
-1
  6
ByLayer
 10
399.0
 20
169.0
 30
0.0
 11
399.0
 21
165.0
 31
0.0
  0
LINE
  5
285
100
AcDbEntity
100
AcDbLine
  8
0
 62
256
370
-1
  6
ByLayer
 10
399.0
 20
165.0
 30
0.0
 11
397.0
 21
165.0
 31
0.0
  0
LINE
  5
286
100
AcDbEntity
100
AcDbLine
  8
0
 62
256
370
-1
  6
ByLayer
 10
397.0
 20
169.0
 30
0.0
 11
399.0
 21
169.0
 31
0.0
  0
LINE
  5
287
100
AcDbEntity
100
AcDbLine
  8
0
 62
256
370
-1
  6
ByLayer
 10
170.0
 20
169.0
 30
0.0
 11
170.0
 21
165.0
 31
0.0
  0
LINE
  5
288
100
AcDbEntity
100
AcDbLine
  8
0
 62
256
370
-1
  6
ByLayer
 10
170.0
 20
165.0
 30
0.0
 11
172.0
 21
165.0
 31
0.0
  0
LINE
  5
289
100
AcDbEntity
100
AcDbLine
  8
0
 62
256
370
-1
  6
ByLayer
 10
172.0
 20
165.0
 30
0.0
 11
172.0
 21
169.0
 31
0.0
  0
LINE
  5
28A
100
AcDbEntity
100
AcDbLine
  8
0
 62
256
370
-1
  6
ByLayer
 10
172.0
 20
169.0
 30
0.0
 11
170.0
 21
169.0
 31
0.0
  0
LINE
  5
28B
100
AcDbEntity
100
AcDbLine
  8
0
 62
256
370
-1
  6
ByLayer
 10
178.0
 20
165.0
 30
0.0
 11
178.0
 21
169.0
 31
0.0
  0
LINE
  5
28C
100
AcDbEntity
100
AcDbLine
  8
0
 62
256
370
-1
  6
ByLayer
 10
245.0
 20
169.0
 30
0.0
 11
245.0
 21
165.0
 31
0.0
  0
LINE
  5
28D
100
AcDbEntity
100
AcDbLine
  8
0
 62
256
370
-1
  6
ByLayer
 10
245.0
 20
165.0
 30
0.0
 11
243.0
 21
165.0
 31
0.0
  0
LINE
  5
28E
100
AcDbEntity
100
AcDbLine
  8
0
 62
256
370
-1
  6
ByLayer
 10
243.0
 20
165.0
 30
0.0
 11
243.0
 21
169.0
 31
0.0
  0
LINE
  5
28F
100
AcDbEntity
100
AcDbLine
  8
0
 62
256
370
-1
  6
ByLayer
 10
243.0
 20
169.0
 30
0.0
 11
245.0
 21
169.0
 31
0.0
  0
LINE
  5
290
100
AcDbEntity
100
AcDbLine
  8
0
 62
256
370
-1
  6
ByLayer
 10
237.0
 20
165.0
 30
0.0
 11
237.0
 21
169.0
 31
0.0
  0
LINE
  5
291
100
AcDbEntity
100
AcDbLine
  8
0
 62
256
370
-1
  6
ByLayer
 10
176.0
 20
169.0
 30
0.0
 11
176.0
 21
165.0
 31
0.0
  0
LINE
  5
292
100
AcDbEntity
100
AcDbLine
  8
0
 62
256
370
-1
  6
ByLayer
 10
176.0
 20
165.0
 30
0.0
 11
178.0
 21
165.0
 31
0.0
  0
LINE
  5
293
100
AcDbEntity
100
AcDbLine
  8
0
 62
256
370
-1
  6
ByLayer
 10
176.0
 20
169.0
 30
0.0
 11
178.0
 21
169.0
 31
0.0
  0
LINE
  5
294
100
AcDbEntity
100
AcDbLine
  8
0
 62
256
370
-1
  6
ByLayer
 10
239.0
 20
169.0
 30
0.0
 11
239.0
 21
165.0
 31
0.0
  0
LINE
  5
295
100
AcDbEntity
100
AcDbLine
  8
0
 62
256
370
-1
  6
ByLayer
 10
239.0
 20
165.0
 30
0.0
 11
237.0
 21
165.0
 31
0.0
  0
LINE
  5
296
100
AcDbEntity
100
AcDbLine
  8
0
 62
256
370
-1
  6
ByLayer
 10
237.0
 20
169.0
 30
0.0
 11
239.0
 21
169.0
 31
0.0
  0
LINE
  5
297
100
AcDbEntity
100
AcDbLine
  8
0
 62
256
370
-1
  6
ByLayer
 10
40.0
 20
169.0
 30
0.0
 11
40.0
 21
165.0
 31
0.0
  0
LINE
  5
298
100
AcDbEntity
100
AcDbLine
  8
0
 62
256
370
-1
  6
ByLayer
 10
40.0
 20
165.0
 30
0.0
 11
42.0
 21
165.0
 31
0.0
  0
LINE
  5
299
100
AcDbEntity
100
AcDbLine
  8
0
 62
256
370
-1
  6
ByLayer
 10
42.0
 20
165.0
 30
0.0
 11
42.0
 21
169.0
 31
0.0
  0
LINE
  5
29A
100
AcDbEntity
100
AcDbLine
  8
0
 62
256
370
-1
  6
ByLayer
 10
42.0
 20
169.0
 30
0.0
 11
40.0
 21
169.0
 31
0.0
  0
LINE
  5
29B
100
AcDbEntity
100
AcDbLine
  8
0
 62
256
370
-1
  6
ByLayer
 10
48.0
 20
165.0
 30
0.0
 11
48.0
 21
169.0
 31
0.0
  0
LINE
  5
29C
100
AcDbEntity
100
AcDbLine
  8
0
 62
256
370
-1
  6
ByLayer
 10
115.0
 20
169.0
 30
0.0
 11
115.0
 21
165.0
 31
0.0
  0
LINE
  5
29D
100
AcDbEntity
100
AcDbLine
  8
0
 62
256
370
-1
  6
ByLayer
 10
115.0
 20
165.0
 30
0.0
 11
113.0
 21
165.0
 31
0.0
  0
LINE
  5
29E
100
AcDbEntity
100
AcDbLine
  8
0
 62
256
370
-1
  6
ByLayer
 10
113.0
 20
165.0
 30
0.0
 11
113.0
 21
169.0
 31
0.0
  0
LINE
  5
29F
100
AcDbEntity
100
AcDbLine
  8
0
 62
256
370
-1
  6
ByLayer
 10
113.0
 20
169.0
 30
0.0
 11
115.0
 21
169.0
 31
0.0
  0
LINE
  5
2A0
100
AcDbEntity
100
AcDbLine
  8
0
 62
256
370
-1
  6
ByLayer
 10
107.0
 20
165.0
 30
0.0
 11
107.0
 21
169.0
 31
0.0
  0
LINE
  5
2A1
100
AcDbEntity
100
AcDbLine
  8
0
 62
256
370
-1
  6
ByLayer
 10
46.0
 20
169.0
 30
0.0
 11
46.0
 21
165.0
 31
0.0
  0
LINE
  5
2A2
100
AcDbEntity
100
AcDbLine
  8
0
 62
256
370
-1
  6
ByLayer
 10
46.0
 20
165.0
 30
0.0
 11
48.0
 21
165.0
 31
0.0
  0
LINE
  5
2A3
100
AcDbEntity
100
AcDbLine
  8
0
 62
256
370
-1
  6
ByLayer
 10
46.0
 20
169.0
 30
0.0
 11
48.0
 21
169.0
 31
0.0
  0
LINE
  5
2A4
100
AcDbEntity
100
AcDbLine
  8
0
 62
256
370
-1
  6
ByLayer
 10
109.0
 20
169.0
 30
0.0
 11
109.0
 21
165.0
 31
0.0
  0
LINE
  5
2A5
100
AcDbEntity
100
AcDbLine
  8
0
 62
256
370
-1
  6
ByLayer
 10
109.0
 20
165.0
 30
0.0
 11
107.0
 21
165.0
 31
0.0
  0
LINE
  5
2A6
100
AcDbEntity
100
AcDbLine
  8
0
 62
256
370
-1
  6
ByLayer
 10
107.0
 20
169.0
 30
0.0
 11
109.0
 21
169.0
 31
0.0
  0
LINE
  5
2A7
100
AcDbEntity
100
AcDbLine
  8
0
 62
256
370
-1
  6
ByLayer
 10
325.0
 20
258.0
 30
0.0
 11
329.0
 21
258.0
 31
0.0
  0
LINE
  5
2A8
100
AcDbEntity
100
AcDbLine
  8
0
 62
256
370
-1
  6
ByLayer
 10
329.0
 20
258.0
 30
0.0
 11
329.0
 21
256.0
 31
0.0
  0
LINE
  5
2A9
100
AcDbEntity
100
AcDbLine
  8
0
 62
256
370
-1
  6
ByLayer
 10
329.0
 20
256.0
 30
0.0
 11
325.0
 21
256.0
 31
0.0
  0
LINE
  5
2AA
100
AcDbEntity
100
AcDbLine
  8
0
 62
256
370
-1
  6
ByLayer
 10
325.0
 20
256.0
 30
0.0
 11
325.0
 21
258.0
 31
0.0
  0
LINE
  5
2AB
100
AcDbEntity
100
AcDbLine
  8
0
 62
256
370
-1
  6
ByLayer
 10
329.0
 20
265.0
 30
0.0
 11
325.0
 21
265.0
 31
0.0
  0
LINE
  5
2AC
100
AcDbEntity
100
AcDbLine
  8
0
 62
256
370
-1
  6
ByLayer
 10
325.0
 20
265.0
 30
0.0
 11
325.0
 21
267.0
 31
0.0
  0
LINE
  5
2AD
100
AcDbEntity
100
AcDbLine
  8
0
 62
256
370
-1
  6
ByLayer
 10
325.0
 20
267.0
 30
0.0
 11
329.0
 21
267.0
 31
0.0
  0
LINE
  5
2AE
100
AcDbEntity
100
AcDbLine
  8
0
 62
256
370
-1
  6
ByLayer
 10
329.0
 20
267.0
 30
0.0
 11
329.0
 21
265.0
 31
0.0
  0
ENDSEC
  0
SECTION
  2
OBJECTS
  0
DICTIONARY
  5
C
100
AcDbDictionary
280
0
281
1
  3
ACAD_GROUP
350
D
  3
ACAD_LAYOUT
350
1A
  3
ACAD_MLINESTYLE
350
17
  3
ACAD_PLOTSETTINGS
350
19
  3
ACAD_PLOTSTYLENAME
350
E
  3
AcDbVariableDictionary
350
2AF
  0
DICTIONARY
  5
D
100
AcDbDictionary
280
0
281
1
  0
ACDBDICTIONARYWDFLT
  5
E
100
AcDbDictionary
281
1
  3
Normal
350
F
100
AcDbDictionaryWithDefault
340
F
  0
ACDBPLACEHOLDER
  5
F
  0
DICTIONARY
  5
17
100
AcDbDictionary
280
0
281
1
  3
Standard
350
18
  0
MLINESTYLE
  5
18
100
AcDbMlineStyle
  2
STANDARD
 70
0
  3

 62
256
 51
90.0
 52
90.0
 71
2
 49
0.5
 62
256
  6
BYLAYER
 49
-0.5
 62
256
  6
BYLAYER
  0
DICTIONARY
  5
19
100
AcDbDictionary
280
0
281
1
  0
DICTIONARY
  5
1A
100
AcDbDictionary
281
1
  3
Layout1
350
1E
  3
Layout2
350
26
  3
Model
350
22
  0
LAYOUT
  5
1E
100
AcDbPlotSettings
  1

  2
C:\Program Files\AutoCAD 2002\plotters\DWF ePlot (optimized for plotting).pc3
  4

  6

 40
0.0
 41
0.0
 42
0.0
 43
0.0
 44
0.0
 45
0.0
 46
0.0
 47
0.0
 48
0.0
 49
0.0
140
0.0
141
0.0
142
1.0
143
1.0
 70
688
 72
0
 73
0
 74
5
  7

 75
16
147
1.0
148
0.0
149
0.0
100
AcDbLayout
  1
Layout1
 70
1
 71
1
 10
0.0
 20
0.0
 11
420.0
 21
297.0
 12
0.0
 22
0.0
 32
0.0
 14
100000000000000000000.0
 24
100000000000000000000.0
 34
100000000000000000000.0
 15
-100000000000000000000.0
 25
-100000000000000000000.0
 35
-100000000000000000000.0
146
0.0
 13
0.0
 23
0.0
 33
0.0
 16
1.0
 26
0.0
 36
0.0
 17
0.0
 27
1.0
 37
0.0
 76
0
330
1B
  0
LAYOUT
  5
22
100
AcDbPlotSettings
  1

  2
C:\Program Files\AutoCAD 2002\plotters\DWF ePlot (optimized for plotting).pc3
  4

  6

 40
0.0
 41
0.0
 42
0.0
 43
0.0
 44
0.0
 45
0.0
 46
0.0
 47
0.0
 48
0.0
 49
0.0
140
0.0
141
0.0
142
1.0
143
1.0
 70
1712
 72
0
 73
0
 74
0
  7

 75
0
147
1.0
148
0.0
149
0.0
100
AcDbLayout
  1
Model
 70
1
 71
0
 10
0.0
 20
0.0
 11
12.0
 21
9.0
 12
0.0
 22
0.0
 32
0.0
 14
0.0
 24
0.0
 34
0.0
 15
0.0
 25
0.0
 35
0.0
146
0.0
 13
0.0
 23
0.0
 33
0.0
 16
1.0
 26
0.0
 36
0.0
 17
0.0
 27
1.0
 37
0.0
 76
0
330
1F
  0
LAYOUT
  5
26
100
AcDbPlotSettings
  1

  2
C:\Program Files\AutoCAD 2002\plotters\DWF ePlot (optimized for plotting).pc3
  4

  6

 40
0.0
 41
0.0
 42
0.0
 43
0.0
 44
0.0
 45
0.0
 46
0.0
 47
0.0
 48
0.0
 49
0.0
140
0.0
141
0.0
142
1.0
143
1.0
 70
688
 72
0
 73
0
 74
5
  7

 75
16
147
1.0
148
0.0
149
0.0
100
AcDbLayout
  1
Layout2
 70
1
 71
2
 10
0.0
 20
0.0
 11
12.0
 21
9.0
 12
0.0
 22
0.0
 32
0.0
 14
0.0
 24
0.0
 34
0.0
 15
0.0
 25
0.0
 35
0.0
146
0.0
 13
0.0
 23
0.0
 33
0.0
 16
1.0
 26
0.0
 36
0.0
 17
0.0
 27
1.0
 37
0.0
 76
0
330
23
  0
DICTIONARY
  5
2AF
100
AcDbDictionary
281
1
  3
DIMASSOC
350
2B1
  3
HIDETEXT
350
2B0
  0
DICTIONARYVAR
  5
2B0
100
DictionaryVariables
280
0
  1
2
  0
DICTIONARYVAR
  5
2B1
100
DictionaryVariables
280
0
  1
1
  0
ENDSEC
  0
EOF
