G75*
G70*
%OFA0B0*%
%FSLAX24Y24*%
%IPPOS*%
%LPD*%
%AMOC8*
5,1,8,0,0,1.08239X$1,22.5*
%
%ADD10C,0.0000*%
%ADD11C,0.0040*%
%ADD12C,0.0039*%
%ADD13C,0.0060*%
%ADD14C,0.0030*%
%ADD15C,0.0050*%
%ADD16C,0.0080*%
D10*
X000574Y000574D02*
X020259Y000574D01*
X020259Y020259D01*
X000574Y020259D01*
X000574Y000574D01*
X005849Y006479D02*
X005851Y006529D01*
X005857Y006579D01*
X005867Y006628D01*
X005881Y006676D01*
X005898Y006723D01*
X005919Y006768D01*
X005944Y006812D01*
X005972Y006853D01*
X006004Y006892D01*
X006038Y006929D01*
X006075Y006963D01*
X006115Y006993D01*
X006157Y007020D01*
X006201Y007044D01*
X006247Y007065D01*
X006294Y007081D01*
X006342Y007094D01*
X006392Y007103D01*
X006441Y007108D01*
X006492Y007109D01*
X006542Y007106D01*
X006591Y007099D01*
X006640Y007088D01*
X006688Y007073D01*
X006734Y007055D01*
X006779Y007033D01*
X006822Y007007D01*
X006863Y006978D01*
X006902Y006946D01*
X006938Y006911D01*
X006970Y006873D01*
X007000Y006833D01*
X007027Y006790D01*
X007050Y006746D01*
X007069Y006700D01*
X007085Y006652D01*
X007097Y006603D01*
X007105Y006554D01*
X007109Y006504D01*
X007109Y006454D01*
X007105Y006404D01*
X007097Y006355D01*
X007085Y006306D01*
X007069Y006258D01*
X007050Y006212D01*
X007027Y006168D01*
X007000Y006125D01*
X006970Y006085D01*
X006938Y006047D01*
X006902Y006012D01*
X006863Y005980D01*
X006822Y005951D01*
X006779Y005925D01*
X006734Y005903D01*
X006688Y005885D01*
X006640Y005870D01*
X006591Y005859D01*
X006542Y005852D01*
X006492Y005849D01*
X006441Y005850D01*
X006392Y005855D01*
X006342Y005864D01*
X006294Y005877D01*
X006247Y005893D01*
X006201Y005914D01*
X006157Y005938D01*
X006115Y005965D01*
X006075Y005995D01*
X006038Y006029D01*
X006004Y006066D01*
X005972Y006105D01*
X005944Y006146D01*
X005919Y006190D01*
X005898Y006235D01*
X005881Y006282D01*
X005867Y006330D01*
X005857Y006379D01*
X005851Y006429D01*
X005849Y006479D01*
X013723Y006479D02*
X013725Y006529D01*
X013731Y006579D01*
X013741Y006628D01*
X013755Y006676D01*
X013772Y006723D01*
X013793Y006768D01*
X013818Y006812D01*
X013846Y006853D01*
X013878Y006892D01*
X013912Y006929D01*
X013949Y006963D01*
X013989Y006993D01*
X014031Y007020D01*
X014075Y007044D01*
X014121Y007065D01*
X014168Y007081D01*
X014216Y007094D01*
X014266Y007103D01*
X014315Y007108D01*
X014366Y007109D01*
X014416Y007106D01*
X014465Y007099D01*
X014514Y007088D01*
X014562Y007073D01*
X014608Y007055D01*
X014653Y007033D01*
X014696Y007007D01*
X014737Y006978D01*
X014776Y006946D01*
X014812Y006911D01*
X014844Y006873D01*
X014874Y006833D01*
X014901Y006790D01*
X014924Y006746D01*
X014943Y006700D01*
X014959Y006652D01*
X014971Y006603D01*
X014979Y006554D01*
X014983Y006504D01*
X014983Y006454D01*
X014979Y006404D01*
X014971Y006355D01*
X014959Y006306D01*
X014943Y006258D01*
X014924Y006212D01*
X014901Y006168D01*
X014874Y006125D01*
X014844Y006085D01*
X014812Y006047D01*
X014776Y006012D01*
X014737Y005980D01*
X014696Y005951D01*
X014653Y005925D01*
X014608Y005903D01*
X014562Y005885D01*
X014514Y005870D01*
X014465Y005859D01*
X014416Y005852D01*
X014366Y005849D01*
X014315Y005850D01*
X014266Y005855D01*
X014216Y005864D01*
X014168Y005877D01*
X014121Y005893D01*
X014075Y005914D01*
X014031Y005938D01*
X013989Y005965D01*
X013949Y005995D01*
X013912Y006029D01*
X013878Y006066D01*
X013846Y006105D01*
X013818Y006146D01*
X013793Y006190D01*
X013772Y006235D01*
X013755Y006282D01*
X013741Y006330D01*
X013731Y006379D01*
X013725Y006429D01*
X013723Y006479D01*
X016873Y018684D02*
X016875Y018734D01*
X016881Y018784D01*
X016891Y018833D01*
X016905Y018881D01*
X016922Y018928D01*
X016943Y018973D01*
X016968Y019017D01*
X016996Y019058D01*
X017028Y019097D01*
X017062Y019134D01*
X017099Y019168D01*
X017139Y019198D01*
X017181Y019225D01*
X017225Y019249D01*
X017271Y019270D01*
X017318Y019286D01*
X017366Y019299D01*
X017416Y019308D01*
X017465Y019313D01*
X017516Y019314D01*
X017566Y019311D01*
X017615Y019304D01*
X017664Y019293D01*
X017712Y019278D01*
X017758Y019260D01*
X017803Y019238D01*
X017846Y019212D01*
X017887Y019183D01*
X017926Y019151D01*
X017962Y019116D01*
X017994Y019078D01*
X018024Y019038D01*
X018051Y018995D01*
X018074Y018951D01*
X018093Y018905D01*
X018109Y018857D01*
X018121Y018808D01*
X018129Y018759D01*
X018133Y018709D01*
X018133Y018659D01*
X018129Y018609D01*
X018121Y018560D01*
X018109Y018511D01*
X018093Y018463D01*
X018074Y018417D01*
X018051Y018373D01*
X018024Y018330D01*
X017994Y018290D01*
X017962Y018252D01*
X017926Y018217D01*
X017887Y018185D01*
X017846Y018156D01*
X017803Y018130D01*
X017758Y018108D01*
X017712Y018090D01*
X017664Y018075D01*
X017615Y018064D01*
X017566Y018057D01*
X017516Y018054D01*
X017465Y018055D01*
X017416Y018060D01*
X017366Y018069D01*
X017318Y018082D01*
X017271Y018098D01*
X017225Y018119D01*
X017181Y018143D01*
X017139Y018170D01*
X017099Y018200D01*
X017062Y018234D01*
X017028Y018271D01*
X016996Y018310D01*
X016968Y018351D01*
X016943Y018395D01*
X016922Y018440D01*
X016905Y018487D01*
X016891Y018535D01*
X016881Y018584D01*
X016875Y018634D01*
X016873Y018684D01*
X002700Y018684D02*
X002702Y018734D01*
X002708Y018784D01*
X002718Y018833D01*
X002732Y018881D01*
X002749Y018928D01*
X002770Y018973D01*
X002795Y019017D01*
X002823Y019058D01*
X002855Y019097D01*
X002889Y019134D01*
X002926Y019168D01*
X002966Y019198D01*
X003008Y019225D01*
X003052Y019249D01*
X003098Y019270D01*
X003145Y019286D01*
X003193Y019299D01*
X003243Y019308D01*
X003292Y019313D01*
X003343Y019314D01*
X003393Y019311D01*
X003442Y019304D01*
X003491Y019293D01*
X003539Y019278D01*
X003585Y019260D01*
X003630Y019238D01*
X003673Y019212D01*
X003714Y019183D01*
X003753Y019151D01*
X003789Y019116D01*
X003821Y019078D01*
X003851Y019038D01*
X003878Y018995D01*
X003901Y018951D01*
X003920Y018905D01*
X003936Y018857D01*
X003948Y018808D01*
X003956Y018759D01*
X003960Y018709D01*
X003960Y018659D01*
X003956Y018609D01*
X003948Y018560D01*
X003936Y018511D01*
X003920Y018463D01*
X003901Y018417D01*
X003878Y018373D01*
X003851Y018330D01*
X003821Y018290D01*
X003789Y018252D01*
X003753Y018217D01*
X003714Y018185D01*
X003673Y018156D01*
X003630Y018130D01*
X003585Y018108D01*
X003539Y018090D01*
X003491Y018075D01*
X003442Y018064D01*
X003393Y018057D01*
X003343Y018054D01*
X003292Y018055D01*
X003243Y018060D01*
X003193Y018069D01*
X003145Y018082D01*
X003098Y018098D01*
X003052Y018119D01*
X003008Y018143D01*
X002966Y018170D01*
X002926Y018200D01*
X002889Y018234D01*
X002855Y018271D01*
X002823Y018310D01*
X002795Y018351D01*
X002770Y018395D01*
X002749Y018440D01*
X002732Y018487D01*
X002718Y018535D01*
X002708Y018584D01*
X002702Y018634D01*
X002700Y018684D01*
D11*
X001268Y016577D02*
X001221Y016577D01*
X001221Y016390D01*
X001221Y016282D02*
X001268Y016282D01*
X001454Y016095D01*
X001501Y016095D01*
X001361Y015894D02*
X001361Y015801D01*
X001501Y015801D02*
X001221Y015801D01*
X001221Y015988D01*
X001221Y016095D02*
X001221Y016282D01*
X001454Y016390D02*
X001268Y016577D01*
X001454Y016390D02*
X001501Y016390D01*
X002008Y016233D02*
X002008Y016046D01*
X002008Y016140D02*
X002289Y016140D01*
X002402Y016135D02*
X002402Y015948D01*
X002402Y016041D02*
X002682Y016041D01*
X002796Y015941D02*
X002796Y015847D01*
X002842Y015801D01*
X003029Y015801D01*
X003076Y015847D01*
X003076Y015941D01*
X003029Y015988D01*
X003029Y016095D02*
X002842Y016095D01*
X002796Y016142D01*
X002796Y016235D01*
X002842Y016282D01*
X002682Y016289D02*
X002402Y016289D01*
X002402Y016243D02*
X002402Y016336D01*
X002682Y016336D02*
X002682Y016243D01*
X002842Y015988D02*
X002796Y015941D01*
X002682Y015840D02*
X002402Y015840D01*
X002289Y015752D02*
X002008Y015752D01*
X002289Y015938D01*
X002008Y015938D01*
X002008Y015649D02*
X002008Y015555D01*
X002008Y015602D02*
X002289Y015602D01*
X002289Y015555D02*
X002289Y015649D01*
X002402Y015653D02*
X002682Y015840D01*
X002796Y015693D02*
X002982Y015693D01*
X003076Y015599D01*
X002982Y015506D01*
X002796Y015506D01*
X002682Y015504D02*
X002402Y015504D01*
X002402Y015550D02*
X002402Y015457D01*
X002402Y015653D02*
X002682Y015653D01*
X002682Y015550D02*
X002682Y015457D01*
X003189Y015553D02*
X003236Y015506D01*
X003423Y015506D01*
X003470Y015553D01*
X003470Y015646D01*
X003423Y015693D01*
X003329Y015693D01*
X003329Y015599D01*
X003236Y015693D02*
X003189Y015646D01*
X003189Y015553D01*
X003189Y015801D02*
X003470Y015988D01*
X003189Y015988D01*
X003189Y016095D02*
X003189Y016235D01*
X003236Y016282D01*
X003423Y016282D01*
X003470Y016235D01*
X003470Y016095D01*
X003189Y016095D01*
X003076Y016142D02*
X003076Y016235D01*
X003029Y016282D01*
X003076Y016142D02*
X003029Y016095D01*
X003189Y015801D02*
X003470Y015801D01*
X001501Y015646D02*
X001501Y015553D01*
X001454Y015506D01*
X001268Y015506D01*
X001221Y015553D01*
X001221Y015646D01*
X001268Y015693D01*
X001454Y015693D02*
X001501Y015646D01*
X001454Y015398D02*
X001268Y015398D01*
X001221Y015352D01*
X001221Y015211D01*
X001501Y015211D01*
X001501Y015352D01*
X001454Y015398D01*
X004926Y013312D02*
X004926Y013032D01*
X004926Y013126D02*
X005066Y013126D01*
X005112Y013172D01*
X005112Y013266D01*
X005066Y013312D01*
X004926Y013312D01*
X005019Y013126D02*
X005112Y013032D01*
X005220Y013032D02*
X005407Y013312D01*
X005515Y013312D02*
X005702Y013312D01*
X005608Y013312D02*
X005608Y013032D01*
X005407Y013032D02*
X005220Y013312D01*
X005810Y013312D02*
X005996Y013032D01*
X005810Y013032D02*
X005996Y013312D01*
X005702Y012525D02*
X005515Y012245D01*
X005407Y012245D02*
X005314Y012338D01*
X005360Y012338D02*
X005220Y012338D01*
X005220Y012245D02*
X005220Y012525D01*
X005360Y012525D01*
X005407Y012478D01*
X005407Y012385D01*
X005360Y012338D01*
X005314Y012131D02*
X005314Y011851D01*
X005368Y011738D02*
X005554Y011457D01*
X005554Y011738D01*
X005662Y011738D02*
X005802Y011738D01*
X005849Y011691D01*
X005849Y011504D01*
X005802Y011457D01*
X005662Y011457D01*
X005662Y011738D01*
X005702Y011851D02*
X005515Y012131D01*
X005407Y012131D02*
X005220Y012131D01*
X005213Y011738D02*
X005120Y011738D01*
X005073Y011691D01*
X005073Y011504D01*
X005120Y011457D01*
X005213Y011457D01*
X005260Y011504D01*
X005260Y011597D01*
X005166Y011597D01*
X005260Y011691D02*
X005213Y011738D01*
X005368Y011738D02*
X005368Y011457D01*
X005515Y011851D02*
X005702Y012131D01*
X005702Y012245D02*
X005515Y012525D01*
X005775Y014464D02*
X005775Y014924D01*
X006005Y014924D01*
X006082Y014847D01*
X006082Y014694D01*
X006005Y014617D01*
X005775Y014617D01*
X005929Y014617D02*
X006082Y014464D01*
X006236Y014464D02*
X006543Y014771D01*
X006543Y014847D01*
X006466Y014924D01*
X006312Y014924D01*
X006236Y014847D01*
X006236Y014464D02*
X006543Y014464D01*
X006543Y015842D02*
X006236Y015842D01*
X006389Y015842D02*
X006389Y016302D01*
X006236Y016149D01*
X006082Y016225D02*
X006082Y016072D01*
X006005Y015995D01*
X005775Y015995D01*
X005775Y015842D02*
X005775Y016302D01*
X006005Y016302D01*
X006082Y016225D01*
X005929Y015995D02*
X006082Y015842D01*
X010043Y017129D02*
X010196Y017129D01*
X010119Y017129D02*
X010119Y017590D01*
X010043Y017590D02*
X010196Y017590D01*
X010349Y017513D02*
X010349Y017206D01*
X010426Y017129D01*
X010580Y017129D01*
X010656Y017206D01*
X010810Y017129D02*
X011117Y017436D01*
X011117Y017513D01*
X011040Y017590D01*
X010887Y017590D01*
X010810Y017513D01*
X010656Y017513D02*
X010580Y017590D01*
X010426Y017590D01*
X010349Y017513D01*
X010810Y017129D02*
X011117Y017129D01*
X013782Y016505D02*
X013782Y016352D01*
X013859Y016275D01*
X013859Y016122D02*
X013782Y016045D01*
X013782Y015891D01*
X013859Y015815D01*
X014166Y015815D01*
X014243Y015891D01*
X014243Y016045D01*
X014166Y016122D01*
X014243Y016275D02*
X013936Y016582D01*
X013859Y016582D01*
X013782Y016505D01*
X014243Y016582D02*
X014243Y016275D01*
X015197Y016285D02*
X015197Y016192D01*
X015244Y016145D01*
X015197Y016042D02*
X015197Y015949D01*
X015197Y015996D02*
X015477Y015996D01*
X015477Y016042D02*
X015477Y015949D01*
X015477Y016145D02*
X015291Y016332D01*
X015244Y016332D01*
X015197Y016285D01*
X015244Y016440D02*
X015197Y016487D01*
X015197Y016580D01*
X015244Y016627D01*
X015431Y016627D02*
X015477Y016580D01*
X015477Y016487D01*
X015431Y016440D01*
X015244Y016440D01*
X015477Y016332D02*
X015477Y016145D01*
X016145Y016218D02*
X016145Y016032D01*
X016332Y016218D01*
X016332Y016032D01*
X016285Y015985D01*
X016192Y015985D01*
X016145Y016032D01*
X016145Y016218D02*
X016192Y016265D01*
X016285Y016265D01*
X016332Y016218D01*
X016440Y016172D02*
X016626Y015985D01*
X016734Y016032D02*
X016734Y016125D01*
X016874Y016125D01*
X016921Y016078D01*
X016921Y016032D01*
X016874Y015985D01*
X016781Y015985D01*
X016734Y016032D01*
X016734Y016125D02*
X016828Y016218D01*
X016921Y016265D01*
X017029Y016218D02*
X017076Y016265D01*
X017169Y016265D01*
X017216Y016218D01*
X017216Y016172D01*
X017169Y016125D01*
X017076Y016125D01*
X017029Y016172D01*
X017029Y016218D01*
X017076Y016125D02*
X017029Y016078D01*
X017029Y016032D01*
X017076Y015985D01*
X017169Y015985D01*
X017216Y016032D01*
X017216Y016078D01*
X017169Y016125D01*
X017169Y016379D02*
X017076Y016379D01*
X017029Y016425D01*
X017216Y016612D01*
X017216Y016425D01*
X017169Y016379D01*
X017029Y016425D02*
X017029Y016612D01*
X017076Y016659D01*
X017169Y016659D01*
X017216Y016612D01*
X016921Y016612D02*
X016921Y016425D01*
X016874Y016379D01*
X016781Y016379D01*
X016734Y016425D01*
X016781Y016519D02*
X016921Y016519D01*
X016921Y016612D02*
X016874Y016659D01*
X016781Y016659D01*
X016734Y016612D01*
X016734Y016565D01*
X016781Y016519D01*
X016626Y016565D02*
X016440Y016379D01*
X016332Y016425D02*
X016285Y016379D01*
X016192Y016379D01*
X016145Y016425D01*
X016332Y016612D01*
X016332Y016425D01*
X016440Y016565D02*
X016626Y016379D01*
X016626Y016172D02*
X016440Y015985D01*
X016145Y016425D02*
X016145Y016612D01*
X016192Y016659D01*
X016285Y016659D01*
X016332Y016612D01*
X017618Y016659D02*
X017618Y016379D01*
X017805Y016379D01*
X017913Y016379D02*
X017913Y016659D01*
X018006Y016565D01*
X018100Y016659D01*
X018100Y016379D01*
X018207Y016379D02*
X018207Y016425D01*
X018394Y016612D01*
X018394Y016659D01*
X018207Y016659D01*
X018502Y016659D02*
X018502Y016519D01*
X018596Y016565D01*
X018642Y016565D01*
X018689Y016519D01*
X018689Y016425D01*
X018642Y016379D01*
X018549Y016379D01*
X018502Y016425D01*
X018549Y016265D02*
X018502Y016218D01*
X018549Y016265D02*
X018642Y016265D01*
X018689Y016218D01*
X018689Y016172D01*
X018642Y016125D01*
X018689Y016078D01*
X018689Y016032D01*
X018642Y015985D01*
X018549Y015985D01*
X018502Y016032D01*
X018394Y015985D02*
X018207Y015985D01*
X018301Y015985D02*
X018301Y016265D01*
X018207Y016172D01*
X018100Y016218D02*
X018053Y016265D01*
X017959Y016265D01*
X017913Y016218D01*
X017913Y016172D01*
X017959Y016125D01*
X018053Y016125D01*
X018100Y016078D01*
X018100Y016032D01*
X018053Y015985D01*
X017959Y015985D01*
X017913Y016032D01*
X017805Y016032D02*
X017805Y016218D01*
X017758Y016265D01*
X017618Y016265D01*
X017618Y015985D01*
X017758Y015985D01*
X017805Y016032D01*
X018502Y016659D02*
X018689Y016659D01*
X018843Y016265D02*
X018937Y016265D01*
X018984Y016218D01*
X018797Y016032D01*
X018843Y015985D01*
X018937Y015985D01*
X018984Y016032D01*
X018984Y016218D01*
X019091Y016265D02*
X019278Y016265D01*
X019278Y016218D01*
X019091Y016032D01*
X019091Y015985D01*
X018797Y016032D02*
X018797Y016218D01*
X018843Y016265D01*
X018642Y016125D02*
X018596Y016125D01*
X017528Y012857D02*
X017298Y012627D01*
X017605Y012627D01*
X017528Y012397D02*
X017528Y012857D01*
X017145Y012781D02*
X017068Y012857D01*
X016915Y012857D01*
X016838Y012781D01*
X016838Y012474D01*
X016915Y012397D01*
X017068Y012397D01*
X017145Y012474D01*
X012778Y012602D02*
X012471Y012602D01*
X012625Y012602D02*
X012625Y013062D01*
X012471Y012909D01*
X012318Y012985D02*
X012241Y013062D01*
X012088Y013062D01*
X012011Y012985D01*
X012011Y012678D01*
X012088Y012602D01*
X012241Y012602D01*
X012318Y012678D01*
X012545Y007641D02*
X012468Y007564D01*
X012468Y007257D01*
X012545Y007180D01*
X012698Y007180D01*
X012775Y007257D01*
X012929Y007257D02*
X013005Y007180D01*
X013159Y007180D01*
X013236Y007257D01*
X013236Y007334D01*
X013159Y007411D01*
X013082Y007411D01*
X013159Y007411D02*
X013236Y007487D01*
X013236Y007564D01*
X013159Y007641D01*
X013005Y007641D01*
X012929Y007564D01*
X012775Y007564D02*
X012698Y007641D01*
X012545Y007641D01*
X013978Y003864D02*
X013931Y003817D01*
X013931Y003630D01*
X013978Y003583D01*
X014071Y003583D01*
X014118Y003630D01*
X014226Y003630D02*
X014226Y003817D01*
X014273Y003864D01*
X014366Y003864D01*
X014413Y003817D01*
X014413Y003630D01*
X014366Y003583D01*
X014273Y003583D01*
X014226Y003630D01*
X014118Y003817D02*
X014071Y003864D01*
X013978Y003864D01*
X014521Y003864D02*
X014521Y003583D01*
X014707Y003583D02*
X014521Y003864D01*
X014707Y003864D02*
X014707Y003583D01*
X014661Y003076D02*
X014567Y003076D01*
X014521Y003029D01*
X014521Y002843D01*
X014567Y002796D01*
X014661Y002796D01*
X014707Y002843D01*
X014661Y002682D02*
X014521Y002682D01*
X014521Y002402D01*
X014661Y002402D01*
X014707Y002449D01*
X014707Y002636D01*
X014661Y002682D01*
X014413Y002682D02*
X014413Y002402D01*
X014226Y002682D01*
X014226Y002402D01*
X014118Y002449D02*
X014118Y002542D01*
X014025Y002542D01*
X014118Y002449D02*
X014071Y002402D01*
X013978Y002402D01*
X013931Y002449D01*
X013931Y002636D01*
X013978Y002682D01*
X014071Y002682D01*
X014118Y002636D01*
X014025Y002796D02*
X013931Y002889D01*
X013931Y003076D01*
X014118Y003076D02*
X014118Y002889D01*
X014025Y002796D01*
X014226Y002843D02*
X014226Y003029D01*
X014273Y003076D01*
X014366Y003076D01*
X014413Y003029D01*
X014413Y002843D02*
X014366Y002796D01*
X014273Y002796D01*
X014226Y002843D01*
X014661Y003076D02*
X014707Y003029D01*
X014513Y002289D02*
X014420Y002289D01*
X014373Y002242D01*
X014373Y002055D01*
X014420Y002009D01*
X014513Y002009D01*
X014560Y002055D01*
X014614Y001895D02*
X014521Y001802D01*
X014521Y001615D01*
X014521Y001501D02*
X014521Y001221D01*
X014707Y001221D01*
X014413Y001268D02*
X014366Y001221D01*
X014273Y001221D01*
X014226Y001268D01*
X014226Y001455D01*
X014273Y001501D01*
X014366Y001501D01*
X014413Y001455D01*
X014366Y001615D02*
X014413Y001662D01*
X014413Y001848D01*
X014366Y001895D01*
X014226Y001895D01*
X014226Y001615D01*
X014366Y001615D01*
X014521Y001755D02*
X014707Y001755D01*
X014707Y001802D02*
X014707Y001615D01*
X014707Y001802D02*
X014614Y001895D01*
X014560Y002242D02*
X014513Y002289D01*
X014265Y002289D02*
X014265Y002009D01*
X014079Y002289D01*
X014079Y002009D01*
X014071Y001895D02*
X013978Y001895D01*
X013931Y001848D01*
X013931Y001802D01*
X013978Y001755D01*
X014071Y001755D01*
X014118Y001708D01*
X014118Y001662D01*
X014071Y001615D01*
X013978Y001615D01*
X013931Y001662D01*
X013978Y001501D02*
X013931Y001455D01*
X013931Y001408D01*
X013978Y001361D01*
X014071Y001361D01*
X014118Y001315D01*
X014118Y001268D01*
X014071Y001221D01*
X013978Y001221D01*
X013931Y001268D01*
X013978Y001501D02*
X014071Y001501D01*
X014118Y001455D01*
X014118Y001848D02*
X014071Y001895D01*
X008117Y007257D02*
X008041Y007180D01*
X007887Y007180D01*
X007810Y007257D01*
X007657Y007180D02*
X007504Y007334D01*
X007580Y007334D02*
X007350Y007334D01*
X007350Y007180D02*
X007350Y007641D01*
X007580Y007641D01*
X007657Y007564D01*
X007657Y007411D01*
X007580Y007334D01*
X007810Y007564D02*
X007887Y007641D01*
X008041Y007641D01*
X008117Y007564D01*
X008117Y007487D01*
X008041Y007411D01*
X008117Y007334D01*
X008117Y007257D01*
X008041Y007411D02*
X007964Y007411D01*
X005982Y004668D02*
X006029Y004621D01*
X006029Y004528D01*
X005982Y004481D01*
X005795Y004481D01*
X005748Y004528D01*
X005748Y004621D01*
X005795Y004668D01*
X005635Y004621D02*
X005588Y004668D01*
X005401Y004668D01*
X005355Y004621D01*
X005355Y004481D01*
X005635Y004481D01*
X005635Y004621D01*
X005635Y004373D02*
X005355Y004373D01*
X005241Y004381D02*
X005241Y004474D01*
X005195Y004521D01*
X005241Y004381D02*
X005195Y004334D01*
X005008Y004334D01*
X004961Y004381D01*
X004961Y004474D01*
X005008Y004521D01*
X004848Y004481D02*
X004848Y004668D01*
X004848Y004481D02*
X004567Y004481D01*
X004454Y004481D02*
X004267Y004481D01*
X004174Y004575D01*
X004267Y004668D01*
X004454Y004668D01*
X004314Y004668D02*
X004314Y004481D01*
X004407Y004373D02*
X004220Y004373D01*
X004174Y004327D01*
X004174Y004187D01*
X004454Y004187D01*
X004454Y004327D01*
X004407Y004373D01*
X004567Y004327D02*
X004567Y004233D01*
X004614Y004187D01*
X004801Y004187D01*
X004848Y004233D01*
X004848Y004327D01*
X004801Y004373D01*
X004614Y004373D02*
X004567Y004327D01*
X004614Y004079D02*
X004567Y004032D01*
X004567Y003939D01*
X004614Y003892D01*
X004661Y003892D01*
X004707Y003939D01*
X004707Y004032D01*
X004754Y004079D01*
X004801Y004079D01*
X004848Y004032D01*
X004848Y003939D01*
X004801Y003892D01*
X004961Y004039D02*
X005241Y004226D01*
X004961Y004226D01*
X004961Y004039D02*
X005241Y004039D01*
X005355Y004032D02*
X005355Y003939D01*
X005401Y003892D01*
X005588Y003892D01*
X005635Y003939D01*
X005635Y004032D01*
X005588Y004079D01*
X005495Y004079D01*
X005495Y003985D01*
X005401Y004079D02*
X005355Y004032D01*
X005355Y004187D02*
X005635Y004373D01*
X005748Y004327D02*
X005748Y004233D01*
X005795Y004187D01*
X005982Y004187D01*
X006029Y004233D01*
X006029Y004327D01*
X005982Y004373D01*
X005795Y004373D02*
X005748Y004327D01*
X005635Y004187D02*
X005355Y004187D01*
X005748Y004079D02*
X005935Y004079D01*
X006029Y003985D01*
X005935Y003892D01*
X005748Y003892D01*
X004454Y003939D02*
X004407Y003892D01*
X004454Y003939D02*
X004454Y004032D01*
X004407Y004079D01*
X004360Y004079D01*
X004314Y004032D01*
X004314Y003939D01*
X004267Y003892D01*
X004220Y003892D01*
X004174Y003939D01*
X004174Y004032D01*
X004220Y004079D01*
X003666Y004079D02*
X003573Y003985D01*
X003573Y004032D02*
X003573Y003892D01*
X003666Y003892D02*
X003386Y003892D01*
X003386Y004032D01*
X003433Y004079D01*
X003526Y004079D01*
X003573Y004032D01*
X003386Y004187D02*
X003386Y004373D01*
X003386Y004280D02*
X003666Y004280D01*
X003620Y004481D02*
X003433Y004481D01*
X003386Y004528D01*
X003386Y004621D01*
X003433Y004668D01*
X003620Y004668D02*
X003666Y004621D01*
X003666Y004528D01*
X003620Y004481D01*
D12*
X003920Y005101D02*
X003133Y005101D01*
X003133Y003526D01*
X003920Y003526D01*
X006282Y003526D01*
X006282Y005101D01*
X003920Y005101D01*
X003920Y003526D01*
X004708Y011204D02*
X006282Y011204D01*
X006282Y012778D01*
X006282Y013566D01*
X004708Y013566D01*
X004708Y012778D01*
X004708Y011204D01*
X004708Y012778D02*
X006282Y012778D01*
X003723Y015141D02*
X003723Y016715D01*
X001755Y016715D01*
X000967Y016715D01*
X000967Y015141D01*
X001755Y015141D01*
X003723Y015141D01*
X001755Y015141D02*
X001755Y016715D01*
X013566Y004117D02*
X013566Y003330D01*
X013566Y000967D01*
X015141Y000967D01*
X015141Y003330D01*
X015141Y004117D01*
X013566Y004117D01*
X013566Y003330D02*
X015141Y003330D01*
X014944Y015731D02*
X015731Y015731D01*
X015731Y016912D01*
X014944Y016912D01*
X014944Y015731D01*
X015731Y015731D02*
X019668Y015731D01*
X019668Y016912D01*
X015731Y016912D01*
D13*
X015208Y014724D02*
X015151Y014667D01*
X015151Y014383D01*
X015094Y014553D02*
X015208Y014553D01*
X015340Y014553D02*
X015397Y014610D01*
X015510Y014610D01*
X015567Y014553D01*
X015567Y014497D01*
X015340Y014497D01*
X015340Y014553D02*
X015340Y014440D01*
X015397Y014383D01*
X015510Y014383D01*
X015708Y014383D02*
X015708Y014610D01*
X015708Y014497D02*
X015822Y014610D01*
X015878Y014610D01*
X016015Y014553D02*
X016072Y014610D01*
X016185Y014610D01*
X016242Y014553D01*
X016242Y014497D01*
X016015Y014497D01*
X016015Y014553D02*
X016015Y014440D01*
X016072Y014383D01*
X016185Y014383D01*
X016383Y014383D02*
X016383Y014610D01*
X016553Y014610D01*
X016610Y014553D01*
X016610Y014383D01*
X016752Y014440D02*
X016808Y014383D01*
X016979Y014383D01*
X017120Y014440D02*
X017120Y014553D01*
X017177Y014610D01*
X017290Y014610D01*
X017347Y014553D01*
X017347Y014497D01*
X017120Y014497D01*
X017120Y014440D02*
X017177Y014383D01*
X017290Y014383D01*
X016979Y014610D02*
X016808Y014610D01*
X016752Y014553D01*
X016752Y014440D01*
X017857Y014497D02*
X018027Y014497D01*
X018083Y014553D01*
X018083Y014667D01*
X018027Y014724D01*
X017857Y014724D01*
X017857Y014383D01*
X017970Y014497D02*
X018083Y014383D01*
X018225Y014383D02*
X018225Y014724D01*
X018452Y014724D01*
X018593Y014724D02*
X018593Y014497D01*
X018707Y014383D01*
X018820Y014497D01*
X018820Y014724D01*
X018452Y014383D02*
X018225Y014383D01*
X018225Y014553D02*
X018338Y014553D01*
X018777Y013936D02*
X018777Y013596D01*
X018777Y013709D02*
X018948Y013823D01*
X019084Y013823D02*
X019141Y013823D01*
X019141Y013596D01*
X019084Y013596D02*
X019198Y013596D01*
X019330Y013653D02*
X019387Y013596D01*
X019557Y013596D01*
X019557Y013823D01*
X019330Y013823D02*
X019330Y013653D01*
X019141Y013936D02*
X019141Y013993D01*
X019330Y014383D02*
X019330Y014610D01*
X019443Y014724D01*
X019557Y014610D01*
X019557Y014383D01*
X019557Y014553D02*
X019330Y014553D01*
X018777Y013709D02*
X018948Y013596D01*
X014953Y014497D02*
X014726Y014497D01*
X014726Y014553D02*
X014783Y014610D01*
X014896Y014610D01*
X014953Y014553D01*
X014953Y014497D01*
X014896Y014383D02*
X014783Y014383D01*
X014726Y014440D01*
X014726Y014553D01*
X014584Y014553D02*
X014528Y014497D01*
X014358Y014497D01*
X014471Y014497D02*
X014584Y014383D01*
X014584Y014553D02*
X014584Y014667D01*
X014528Y014724D01*
X014358Y014724D01*
X014358Y014383D01*
X014216Y014440D02*
X014216Y014553D01*
X014159Y014610D01*
X014046Y014610D01*
X013989Y014553D01*
X013989Y014440D01*
X014046Y014383D01*
X014159Y014383D01*
X014216Y014440D01*
X013848Y014610D02*
X013734Y014383D01*
X013621Y014610D01*
X013484Y014610D02*
X013427Y014610D01*
X013314Y014497D01*
X013314Y014610D02*
X013314Y014383D01*
X013173Y014497D02*
X012946Y014497D01*
X012946Y014553D02*
X013002Y014610D01*
X013116Y014610D01*
X013173Y014553D01*
X013173Y014497D01*
X013116Y014383D02*
X013002Y014383D01*
X012946Y014440D01*
X012946Y014553D01*
X012804Y014497D02*
X012804Y014440D01*
X012748Y014383D01*
X012634Y014383D01*
X012577Y014440D01*
X012634Y014553D02*
X012748Y014553D01*
X012804Y014497D01*
X012804Y014667D02*
X012748Y014724D01*
X012634Y014724D01*
X012577Y014667D01*
X012577Y014610D01*
X012634Y014553D01*
X011796Y011796D02*
X011796Y009036D01*
X009176Y009036D01*
X009036Y009176D01*
X009036Y011796D01*
X011796Y011796D01*
X009195Y009336D02*
X009197Y009359D01*
X009203Y009382D01*
X009212Y009403D01*
X009225Y009423D01*
X009241Y009440D01*
X009259Y009454D01*
X009279Y009465D01*
X009301Y009473D01*
X009324Y009477D01*
X009348Y009477D01*
X009371Y009473D01*
X009393Y009465D01*
X009413Y009454D01*
X009431Y009440D01*
X009447Y009423D01*
X009460Y009403D01*
X009469Y009382D01*
X009475Y009359D01*
X009477Y009336D01*
X009475Y009313D01*
X009469Y009290D01*
X009460Y009269D01*
X009447Y009249D01*
X009431Y009232D01*
X009413Y009218D01*
X009393Y009207D01*
X009371Y009199D01*
X009348Y009195D01*
X009324Y009195D01*
X009301Y009199D01*
X009279Y009207D01*
X009259Y009218D01*
X009241Y009232D01*
X009225Y009249D01*
X009212Y009269D01*
X009203Y009290D01*
X009197Y009313D01*
X009195Y009336D01*
X009666Y005420D02*
X011166Y005420D01*
X011416Y005170D01*
X011416Y004670D01*
X011166Y004420D01*
X009666Y004420D01*
X009416Y004670D01*
X009416Y005170D01*
X009666Y005420D01*
X009666Y004420D02*
X009416Y004170D01*
X009416Y003670D01*
X009666Y003420D01*
X011166Y003420D01*
X011416Y003670D01*
X011416Y004170D01*
X011166Y004420D01*
X011166Y003420D02*
X011416Y003170D01*
X011416Y002670D01*
X011166Y002420D01*
X009666Y002420D01*
X009416Y002670D01*
X009416Y003170D01*
X009666Y003420D01*
X006223Y002399D02*
X006223Y001899D01*
X005973Y001649D01*
X005473Y001649D01*
X005223Y001899D01*
X004973Y001649D01*
X004473Y001649D01*
X004223Y001899D01*
X003973Y001649D01*
X003473Y001649D01*
X003223Y001899D01*
X002973Y001649D01*
X002473Y001649D01*
X002223Y001899D01*
X001973Y001649D01*
X001473Y001649D01*
X001223Y001899D01*
X001223Y002399D01*
X001473Y002649D01*
X001973Y002649D01*
X002223Y002399D01*
X002473Y002649D01*
X002973Y002649D01*
X003223Y002399D01*
X003223Y001899D01*
X003223Y002399D02*
X003473Y002649D01*
X003973Y002649D01*
X004223Y002399D01*
X004473Y002649D01*
X004973Y002649D01*
X005223Y002399D01*
X005473Y002649D01*
X005973Y002649D01*
X006223Y002399D01*
X005223Y002399D02*
X005223Y001899D01*
X004223Y001899D02*
X004223Y002399D01*
X002223Y002399D02*
X002223Y001899D01*
X002686Y011278D02*
X002436Y011528D01*
X002436Y012028D01*
X002686Y012278D01*
X002436Y012528D01*
X002436Y013028D01*
X002686Y013278D01*
X002436Y013528D01*
X002436Y014028D01*
X002686Y014278D01*
X003186Y014278D01*
X003436Y014028D01*
X003436Y013528D01*
X003186Y013278D01*
X003436Y013028D01*
X003436Y012528D01*
X003186Y012278D01*
X003436Y012028D01*
X003436Y011528D01*
X003186Y011278D01*
X002686Y011278D01*
X002686Y012278D02*
X003186Y012278D01*
X003186Y013278D02*
X002686Y013278D01*
X005788Y018184D02*
X005538Y018434D01*
X005538Y018934D01*
X005788Y019184D01*
X006288Y019184D01*
X006538Y018934D01*
X006788Y019184D01*
X007288Y019184D01*
X007538Y018934D01*
X007788Y019184D01*
X008288Y019184D01*
X008538Y018934D01*
X008788Y019184D01*
X009288Y019184D01*
X009538Y018934D01*
X009788Y019184D01*
X010288Y019184D01*
X010538Y018934D01*
X010788Y019184D01*
X011288Y019184D01*
X011538Y018934D01*
X011788Y019184D01*
X012288Y019184D01*
X012538Y018934D01*
X012538Y018434D01*
X012288Y018184D01*
X011788Y018184D01*
X011538Y018434D01*
X011288Y018184D01*
X010788Y018184D01*
X010538Y018434D01*
X010538Y018934D01*
X010538Y018434D02*
X010288Y018184D01*
X009788Y018184D01*
X009538Y018434D01*
X009288Y018184D01*
X008788Y018184D01*
X008538Y018434D01*
X008288Y018184D01*
X007788Y018184D01*
X007538Y018434D01*
X007538Y018934D01*
X007538Y018434D02*
X007288Y018184D01*
X006788Y018184D01*
X006538Y018434D01*
X006288Y018184D01*
X005788Y018184D01*
X006538Y018434D02*
X006538Y018934D01*
X008538Y018934D02*
X008538Y018434D01*
X009538Y018434D02*
X009538Y018934D01*
X011538Y018934D02*
X011538Y018434D01*
X017147Y008979D02*
X018647Y008979D01*
X018897Y008729D01*
X018897Y008229D01*
X018647Y007979D01*
X017147Y007979D01*
X016897Y008229D01*
X016897Y008729D01*
X017147Y008979D01*
X017147Y007979D02*
X016897Y007729D01*
X016897Y007229D01*
X017147Y006979D01*
X018647Y006979D01*
X018897Y007229D01*
X018897Y007729D01*
X018647Y007979D01*
X018647Y006979D02*
X018897Y006729D01*
X018897Y006229D01*
X018647Y005979D01*
X017147Y005979D01*
X016897Y006229D01*
X016897Y006729D01*
X017147Y006979D01*
X017147Y005979D02*
X016897Y005729D01*
X016897Y005229D01*
X017147Y004979D01*
X018647Y004979D01*
X018897Y005229D01*
X018897Y005729D01*
X018647Y005979D01*
X018647Y004979D02*
X018897Y004729D01*
X018897Y004229D01*
X018647Y003979D01*
X017147Y003979D01*
X016897Y004229D01*
X016897Y004729D01*
X017147Y004979D01*
D14*
X008401Y009341D02*
X008401Y009438D01*
X008401Y009390D02*
X008111Y009390D01*
X008111Y009438D02*
X008111Y009341D01*
X008159Y009538D02*
X008353Y009538D01*
X008401Y009586D01*
X008401Y009683D01*
X008353Y009731D01*
X008401Y009832D02*
X008401Y010026D01*
X008401Y009929D02*
X008111Y009929D01*
X008208Y009832D01*
X008159Y009731D02*
X008111Y009683D01*
X008111Y009586D01*
X008159Y009538D01*
D15*
X004131Y012492D02*
X003681Y012492D01*
X003681Y012717D01*
X003756Y012792D01*
X003906Y012792D01*
X003981Y012717D01*
X003981Y012492D01*
X003981Y012642D02*
X004131Y012792D01*
X004131Y012952D02*
X003681Y013253D01*
X003681Y013413D02*
X003681Y013713D01*
X003681Y013563D02*
X004131Y013563D01*
X004131Y013873D02*
X003681Y014173D01*
X003681Y013873D02*
X004131Y014173D01*
X004131Y013253D02*
X003681Y012952D01*
X005383Y017422D02*
X005609Y017422D01*
X005684Y017497D01*
X005684Y017797D01*
X005609Y017872D01*
X005383Y017872D01*
X005383Y017422D01*
X005844Y017497D02*
X005919Y017422D01*
X006069Y017422D01*
X006144Y017497D01*
X006304Y017422D02*
X006304Y017872D01*
X006604Y017872D01*
X006765Y017872D02*
X007065Y017872D01*
X007065Y017797D01*
X006765Y017497D01*
X006765Y017422D01*
X006454Y017647D02*
X006304Y017647D01*
X006144Y017797D02*
X006069Y017872D01*
X005919Y017872D01*
X005844Y017797D01*
X005844Y017497D01*
X007225Y017497D02*
X007225Y017422D01*
X007225Y017497D02*
X007525Y017797D01*
X007525Y017872D01*
X007225Y017872D01*
X008047Y004619D02*
X008198Y004619D01*
X008273Y004544D01*
X008273Y004319D01*
X008423Y004319D02*
X007972Y004319D01*
X007972Y004544D01*
X008047Y004619D01*
X008047Y004159D02*
X007972Y004084D01*
X007972Y003933D01*
X008047Y003858D01*
X008122Y003858D01*
X008198Y003933D01*
X008198Y004084D01*
X008273Y004159D01*
X008348Y004159D01*
X008423Y004084D01*
X008423Y003933D01*
X008348Y003858D01*
X008423Y003702D02*
X008423Y003551D01*
X008423Y003627D02*
X007972Y003627D01*
X007972Y003702D02*
X007972Y003551D01*
X002439Y003269D02*
X002364Y003344D01*
X002214Y003344D01*
X002139Y003269D01*
X002139Y002969D01*
X002214Y002894D01*
X002364Y002894D01*
X002439Y002969D01*
X001979Y003344D02*
X001679Y003344D01*
X001829Y003344D02*
X001829Y002894D01*
X001519Y002894D02*
X001368Y003044D01*
X001443Y003044D02*
X001218Y003044D01*
X001218Y002894D02*
X001218Y003344D01*
X001443Y003344D01*
X001519Y003269D01*
X001519Y003119D01*
X001443Y003044D01*
X016937Y003036D02*
X017012Y002961D01*
X017162Y002961D01*
X017238Y003036D01*
X017398Y003036D02*
X017473Y002961D01*
X017623Y002961D01*
X017698Y003036D01*
X017698Y003336D01*
X017623Y003411D01*
X017473Y003411D01*
X017398Y003336D01*
X017398Y003036D01*
X017238Y003336D02*
X017162Y003411D01*
X017012Y003411D01*
X016937Y003336D01*
X016937Y003036D01*
X017858Y002961D02*
X017858Y003411D01*
X018158Y002961D01*
X018158Y003411D01*
X018318Y003261D02*
X018469Y003411D01*
X018469Y002961D01*
X018619Y002961D02*
X018318Y002961D01*
D16*
X018586Y010160D02*
X016853Y010160D01*
X016853Y010771D01*
X016853Y011637D02*
X016853Y012247D01*
X018586Y012247D01*
X018940Y011893D01*
X018940Y011637D01*
X018940Y010771D02*
X018940Y010515D01*
X018586Y010160D01*
X018763Y011578D02*
X018737Y011633D01*
X018707Y011686D01*
X018674Y011738D01*
X018638Y011787D01*
X018599Y011833D01*
X018557Y011877D01*
X018512Y011919D01*
X018465Y011957D01*
X018415Y011992D01*
X018363Y012024D01*
X018309Y012052D01*
X018254Y012077D01*
X018196Y012098D01*
X018138Y012116D01*
X018079Y012129D01*
X018019Y012139D01*
X017958Y012145D01*
X017897Y012147D01*
X017836Y012145D01*
X017775Y012139D01*
X017715Y012129D01*
X017656Y012116D01*
X017598Y012098D01*
X017540Y012077D01*
X017485Y012052D01*
X017431Y012024D01*
X017379Y011992D01*
X017329Y011957D01*
X017282Y011919D01*
X017237Y011877D01*
X017195Y011833D01*
X017156Y011787D01*
X017120Y011738D01*
X017087Y011686D01*
X017057Y011633D01*
X017031Y011578D01*
X017031Y010830D02*
X017057Y010775D01*
X017087Y010722D01*
X017120Y010670D01*
X017156Y010621D01*
X017195Y010575D01*
X017237Y010531D01*
X017282Y010489D01*
X017329Y010451D01*
X017379Y010416D01*
X017431Y010384D01*
X017485Y010356D01*
X017540Y010331D01*
X017598Y010310D01*
X017656Y010292D01*
X017715Y010279D01*
X017775Y010269D01*
X017836Y010263D01*
X017897Y010261D01*
X017958Y010263D01*
X018019Y010269D01*
X018079Y010279D01*
X018138Y010292D01*
X018196Y010310D01*
X018254Y010331D01*
X018309Y010356D01*
X018363Y010384D01*
X018415Y010416D01*
X018465Y010451D01*
X018512Y010489D01*
X018557Y010531D01*
X018599Y010575D01*
X018638Y010621D01*
X018674Y010670D01*
X018707Y010722D01*
X018737Y010775D01*
X018763Y010830D01*
M02*
