G75*
G70*
%OFA0B0*%
%FSLAX24Y24*%
%IPPOS*%
%LPD*%
%AMOC8*
5,1,8,0,0,1.08239X$1,22.5*
%
%ADD10C,0.0000*%
%ADD11OC8,0.0600*%
%ADD12C,0.0600*%
%ADD13C,0.0705*%
%ADD14C,0.0160*%
%ADD15OC8,0.0356*%
D10*
X000574Y000574D02*
X020259Y000574D01*
X020259Y020259D01*
X000574Y020259D01*
X000574Y000574D01*
X005849Y006479D02*
X005851Y006529D01*
X005857Y006579D01*
X005867Y006628D01*
X005881Y006676D01*
X005898Y006723D01*
X005919Y006768D01*
X005944Y006812D01*
X005972Y006853D01*
X006004Y006892D01*
X006038Y006929D01*
X006075Y006963D01*
X006115Y006993D01*
X006157Y007020D01*
X006201Y007044D01*
X006247Y007065D01*
X006294Y007081D01*
X006342Y007094D01*
X006392Y007103D01*
X006441Y007108D01*
X006492Y007109D01*
X006542Y007106D01*
X006591Y007099D01*
X006640Y007088D01*
X006688Y007073D01*
X006734Y007055D01*
X006779Y007033D01*
X006822Y007007D01*
X006863Y006978D01*
X006902Y006946D01*
X006938Y006911D01*
X006970Y006873D01*
X007000Y006833D01*
X007027Y006790D01*
X007050Y006746D01*
X007069Y006700D01*
X007085Y006652D01*
X007097Y006603D01*
X007105Y006554D01*
X007109Y006504D01*
X007109Y006454D01*
X007105Y006404D01*
X007097Y006355D01*
X007085Y006306D01*
X007069Y006258D01*
X007050Y006212D01*
X007027Y006168D01*
X007000Y006125D01*
X006970Y006085D01*
X006938Y006047D01*
X006902Y006012D01*
X006863Y005980D01*
X006822Y005951D01*
X006779Y005925D01*
X006734Y005903D01*
X006688Y005885D01*
X006640Y005870D01*
X006591Y005859D01*
X006542Y005852D01*
X006492Y005849D01*
X006441Y005850D01*
X006392Y005855D01*
X006342Y005864D01*
X006294Y005877D01*
X006247Y005893D01*
X006201Y005914D01*
X006157Y005938D01*
X006115Y005965D01*
X006075Y005995D01*
X006038Y006029D01*
X006004Y006066D01*
X005972Y006105D01*
X005944Y006146D01*
X005919Y006190D01*
X005898Y006235D01*
X005881Y006282D01*
X005867Y006330D01*
X005857Y006379D01*
X005851Y006429D01*
X005849Y006479D01*
X013723Y006479D02*
X013725Y006529D01*
X013731Y006579D01*
X013741Y006628D01*
X013755Y006676D01*
X013772Y006723D01*
X013793Y006768D01*
X013818Y006812D01*
X013846Y006853D01*
X013878Y006892D01*
X013912Y006929D01*
X013949Y006963D01*
X013989Y006993D01*
X014031Y007020D01*
X014075Y007044D01*
X014121Y007065D01*
X014168Y007081D01*
X014216Y007094D01*
X014266Y007103D01*
X014315Y007108D01*
X014366Y007109D01*
X014416Y007106D01*
X014465Y007099D01*
X014514Y007088D01*
X014562Y007073D01*
X014608Y007055D01*
X014653Y007033D01*
X014696Y007007D01*
X014737Y006978D01*
X014776Y006946D01*
X014812Y006911D01*
X014844Y006873D01*
X014874Y006833D01*
X014901Y006790D01*
X014924Y006746D01*
X014943Y006700D01*
X014959Y006652D01*
X014971Y006603D01*
X014979Y006554D01*
X014983Y006504D01*
X014983Y006454D01*
X014979Y006404D01*
X014971Y006355D01*
X014959Y006306D01*
X014943Y006258D01*
X014924Y006212D01*
X014901Y006168D01*
X014874Y006125D01*
X014844Y006085D01*
X014812Y006047D01*
X014776Y006012D01*
X014737Y005980D01*
X014696Y005951D01*
X014653Y005925D01*
X014608Y005903D01*
X014562Y005885D01*
X014514Y005870D01*
X014465Y005859D01*
X014416Y005852D01*
X014366Y005849D01*
X014315Y005850D01*
X014266Y005855D01*
X014216Y005864D01*
X014168Y005877D01*
X014121Y005893D01*
X014075Y005914D01*
X014031Y005938D01*
X013989Y005965D01*
X013949Y005995D01*
X013912Y006029D01*
X013878Y006066D01*
X013846Y006105D01*
X013818Y006146D01*
X013793Y006190D01*
X013772Y006235D01*
X013755Y006282D01*
X013741Y006330D01*
X013731Y006379D01*
X013725Y006429D01*
X013723Y006479D01*
X016873Y018684D02*
X016875Y018734D01*
X016881Y018784D01*
X016891Y018833D01*
X016905Y018881D01*
X016922Y018928D01*
X016943Y018973D01*
X016968Y019017D01*
X016996Y019058D01*
X017028Y019097D01*
X017062Y019134D01*
X017099Y019168D01*
X017139Y019198D01*
X017181Y019225D01*
X017225Y019249D01*
X017271Y019270D01*
X017318Y019286D01*
X017366Y019299D01*
X017416Y019308D01*
X017465Y019313D01*
X017516Y019314D01*
X017566Y019311D01*
X017615Y019304D01*
X017664Y019293D01*
X017712Y019278D01*
X017758Y019260D01*
X017803Y019238D01*
X017846Y019212D01*
X017887Y019183D01*
X017926Y019151D01*
X017962Y019116D01*
X017994Y019078D01*
X018024Y019038D01*
X018051Y018995D01*
X018074Y018951D01*
X018093Y018905D01*
X018109Y018857D01*
X018121Y018808D01*
X018129Y018759D01*
X018133Y018709D01*
X018133Y018659D01*
X018129Y018609D01*
X018121Y018560D01*
X018109Y018511D01*
X018093Y018463D01*
X018074Y018417D01*
X018051Y018373D01*
X018024Y018330D01*
X017994Y018290D01*
X017962Y018252D01*
X017926Y018217D01*
X017887Y018185D01*
X017846Y018156D01*
X017803Y018130D01*
X017758Y018108D01*
X017712Y018090D01*
X017664Y018075D01*
X017615Y018064D01*
X017566Y018057D01*
X017516Y018054D01*
X017465Y018055D01*
X017416Y018060D01*
X017366Y018069D01*
X017318Y018082D01*
X017271Y018098D01*
X017225Y018119D01*
X017181Y018143D01*
X017139Y018170D01*
X017099Y018200D01*
X017062Y018234D01*
X017028Y018271D01*
X016996Y018310D01*
X016968Y018351D01*
X016943Y018395D01*
X016922Y018440D01*
X016905Y018487D01*
X016891Y018535D01*
X016881Y018584D01*
X016875Y018634D01*
X016873Y018684D01*
X002700Y018684D02*
X002702Y018734D01*
X002708Y018784D01*
X002718Y018833D01*
X002732Y018881D01*
X002749Y018928D01*
X002770Y018973D01*
X002795Y019017D01*
X002823Y019058D01*
X002855Y019097D01*
X002889Y019134D01*
X002926Y019168D01*
X002966Y019198D01*
X003008Y019225D01*
X003052Y019249D01*
X003098Y019270D01*
X003145Y019286D01*
X003193Y019299D01*
X003243Y019308D01*
X003292Y019313D01*
X003343Y019314D01*
X003393Y019311D01*
X003442Y019304D01*
X003491Y019293D01*
X003539Y019278D01*
X003585Y019260D01*
X003630Y019238D01*
X003673Y019212D01*
X003714Y019183D01*
X003753Y019151D01*
X003789Y019116D01*
X003821Y019078D01*
X003851Y019038D01*
X003878Y018995D01*
X003901Y018951D01*
X003920Y018905D01*
X003936Y018857D01*
X003948Y018808D01*
X003956Y018759D01*
X003960Y018709D01*
X003960Y018659D01*
X003956Y018609D01*
X003948Y018560D01*
X003936Y018511D01*
X003920Y018463D01*
X003901Y018417D01*
X003878Y018373D01*
X003851Y018330D01*
X003821Y018290D01*
X003789Y018252D01*
X003753Y018217D01*
X003714Y018185D01*
X003673Y018156D01*
X003630Y018130D01*
X003585Y018108D01*
X003539Y018090D01*
X003491Y018075D01*
X003442Y018064D01*
X003393Y018057D01*
X003343Y018054D01*
X003292Y018055D01*
X003243Y018060D01*
X003193Y018069D01*
X003145Y018082D01*
X003098Y018098D01*
X003052Y018119D01*
X003008Y018143D01*
X002966Y018170D01*
X002926Y018200D01*
X002889Y018234D01*
X002855Y018271D01*
X002823Y018310D01*
X002795Y018351D01*
X002770Y018395D01*
X002749Y018440D01*
X002732Y018487D01*
X002718Y018535D01*
X002708Y018584D01*
X002702Y018634D01*
X002700Y018684D01*
D11*
X002436Y008479D03*
X002436Y007479D03*
X002436Y006479D03*
X002436Y005479D03*
X002436Y004479D03*
X003436Y004479D03*
X003436Y005479D03*
X003436Y006479D03*
X003436Y007479D03*
X003436Y008479D03*
X009916Y004920D03*
X009916Y003920D03*
X009916Y002920D03*
X010916Y002920D03*
X010916Y003920D03*
X010916Y004920D03*
X017397Y004979D03*
X017397Y003979D03*
X018397Y003979D03*
X018397Y004979D03*
X018397Y005979D03*
X018397Y006979D03*
X018397Y007979D03*
X018397Y008979D03*
X018397Y009979D03*
X017397Y009979D03*
X017397Y008979D03*
X017397Y007979D03*
X017397Y006979D03*
X017397Y005979D03*
X017397Y002979D03*
X018397Y002979D03*
D12*
X003236Y011778D02*
X002636Y011778D01*
X002636Y012778D02*
X003236Y012778D01*
X003236Y013778D02*
X002636Y013778D01*
X008416Y018384D02*
X008416Y018984D01*
X009416Y018984D02*
X009416Y018384D01*
X010416Y018384D02*
X010416Y018984D01*
X011416Y018984D02*
X011416Y018384D01*
X012416Y018384D02*
X012416Y018984D01*
D13*
X016507Y015353D02*
X017212Y015353D01*
X017212Y013353D02*
X016507Y013353D01*
D14*
X016064Y013571D02*
X007179Y013571D01*
X007021Y013729D02*
X016186Y013729D01*
X016228Y013771D02*
X016089Y013632D01*
X016014Y013451D01*
X016014Y013255D01*
X016089Y013074D01*
X016228Y012936D01*
X016409Y012861D01*
X017310Y012861D01*
X017491Y012936D01*
X017629Y013074D01*
X017704Y013255D01*
X017704Y013451D01*
X017629Y013632D01*
X017491Y013771D01*
X017310Y013846D01*
X016409Y013846D01*
X016228Y013771D01*
X016014Y013412D02*
X007338Y013412D01*
X007496Y013254D02*
X016015Y013254D01*
X016080Y013095D02*
X011927Y013095D01*
X011926Y013097D02*
X011662Y013097D01*
X011476Y012910D01*
X011476Y012771D01*
X011299Y012594D01*
X011299Y005160D01*
X011098Y005360D01*
X010787Y005360D01*
X010636Y005511D01*
X010636Y011072D01*
X010734Y011170D01*
X010734Y011434D01*
X010548Y011620D01*
X010284Y011620D01*
X010098Y011434D01*
X010098Y011170D01*
X010196Y011072D01*
X010196Y005329D01*
X010476Y005049D01*
X010476Y004738D01*
X010734Y004480D01*
X011098Y004480D01*
X011299Y004680D01*
X011299Y004614D01*
X011045Y004360D01*
X010734Y004360D01*
X010476Y004102D01*
X010476Y003738D01*
X010734Y003480D01*
X011098Y003480D01*
X011356Y003738D01*
X011356Y004049D01*
X011739Y004431D01*
X011739Y012412D01*
X011787Y012460D01*
X011926Y012460D01*
X012112Y012647D01*
X012112Y012910D01*
X011926Y013097D01*
X012086Y012937D02*
X016227Y012937D01*
X017492Y012937D02*
X020079Y012937D01*
X020079Y013095D02*
X017638Y013095D01*
X017703Y013254D02*
X020079Y013254D01*
X020079Y013412D02*
X017704Y013412D01*
X017655Y013571D02*
X020079Y013571D01*
X020079Y013729D02*
X017532Y013729D01*
X017336Y014834D02*
X017254Y014821D01*
X016897Y014821D01*
X016897Y015316D01*
X016897Y015391D01*
X017744Y015391D01*
X017744Y015395D01*
X017731Y015478D01*
X017705Y015558D01*
X017667Y015632D01*
X017618Y015700D01*
X017559Y015759D01*
X017491Y015809D01*
X017416Y015847D01*
X017336Y015873D01*
X017254Y015886D01*
X016897Y015886D01*
X016897Y015391D01*
X016822Y015391D01*
X016822Y015886D01*
X016465Y015886D01*
X016382Y015873D01*
X016302Y015847D01*
X016228Y015809D01*
X016160Y015759D01*
X016100Y015700D01*
X016051Y015632D01*
X016013Y015558D01*
X015987Y015478D01*
X015974Y015395D01*
X015974Y015391D01*
X016822Y015391D01*
X016822Y015316D01*
X016897Y015316D01*
X017744Y015316D01*
X017744Y015311D01*
X017731Y015229D01*
X017705Y015149D01*
X017667Y015074D01*
X017618Y015006D01*
X017559Y014947D01*
X017491Y014898D01*
X017416Y014860D01*
X017336Y014834D01*
X017351Y014839D02*
X020079Y014839D01*
X020079Y014997D02*
X017609Y014997D01*
X017707Y015156D02*
X020079Y015156D01*
X020079Y015314D02*
X017744Y015314D01*
X017732Y015473D02*
X020079Y015473D01*
X020079Y015631D02*
X017668Y015631D01*
X017517Y015790D02*
X020079Y015790D01*
X020079Y015948D02*
X000754Y015948D01*
X000754Y015790D02*
X016201Y015790D01*
X016051Y015631D02*
X000754Y015631D01*
X000754Y015473D02*
X015986Y015473D01*
X015974Y015316D02*
X015974Y015311D01*
X015987Y015229D01*
X016013Y015149D01*
X016051Y015074D01*
X016100Y015006D01*
X016160Y014947D01*
X016228Y014898D01*
X016302Y014860D01*
X016382Y014834D01*
X016465Y014821D01*
X016822Y014821D01*
X016822Y015316D01*
X015974Y015316D01*
X015974Y015314D02*
X000754Y015314D01*
X000754Y015156D02*
X016011Y015156D01*
X016110Y014997D02*
X000754Y014997D01*
X000754Y014839D02*
X016367Y014839D01*
X016822Y014839D02*
X016897Y014839D01*
X016897Y014997D02*
X016822Y014997D01*
X016822Y015156D02*
X016897Y015156D01*
X016897Y015314D02*
X016822Y015314D01*
X016822Y015473D02*
X016897Y015473D01*
X016897Y015631D02*
X016822Y015631D01*
X016822Y015790D02*
X016897Y015790D01*
X017342Y017874D02*
X017664Y017874D01*
X017962Y017997D01*
X018189Y018225D01*
X018313Y018523D01*
X018313Y018845D01*
X018189Y019143D01*
X017962Y019371D01*
X017664Y019494D01*
X017342Y019494D01*
X017044Y019371D01*
X016816Y019143D01*
X016693Y018845D01*
X016693Y018523D01*
X016816Y018225D01*
X017044Y017997D01*
X017342Y017874D01*
X017033Y018009D02*
X012716Y018009D01*
X012729Y018018D02*
X012782Y018071D01*
X012827Y018132D01*
X012861Y018200D01*
X012884Y018272D01*
X012896Y018346D01*
X012896Y018664D01*
X012436Y018664D01*
X012436Y017904D01*
X012454Y017904D01*
X012529Y017916D01*
X012600Y017939D01*
X012668Y017973D01*
X012729Y018018D01*
X012845Y018167D02*
X016874Y018167D01*
X016775Y018326D02*
X012893Y018326D01*
X012896Y018484D02*
X016709Y018484D01*
X016693Y018643D02*
X012896Y018643D01*
X012896Y018704D02*
X012896Y019022D01*
X012884Y019096D01*
X012861Y019168D01*
X012827Y019236D01*
X012782Y019297D01*
X012729Y019350D01*
X012668Y019394D01*
X012600Y019429D01*
X012529Y019452D01*
X012454Y019464D01*
X012436Y019464D01*
X012436Y018704D01*
X012396Y018704D01*
X012396Y018664D01*
X011936Y018664D01*
X011936Y018346D01*
X011948Y018272D01*
X011971Y018200D01*
X012006Y018132D01*
X012050Y018071D01*
X012104Y018018D01*
X012165Y017973D01*
X012232Y017939D01*
X012304Y017916D01*
X012378Y017904D01*
X012396Y017904D01*
X012396Y018664D01*
X012436Y018664D01*
X012436Y018704D01*
X012896Y018704D01*
X012896Y018801D02*
X016693Y018801D01*
X016740Y018960D02*
X012896Y018960D01*
X012877Y019118D02*
X016806Y019118D01*
X016950Y019277D02*
X012797Y019277D01*
X012581Y019435D02*
X017200Y019435D01*
X017805Y019435D02*
X020079Y019435D01*
X020079Y019277D02*
X018055Y019277D01*
X018200Y019118D02*
X020079Y019118D01*
X020079Y018960D02*
X018265Y018960D01*
X018313Y018801D02*
X020079Y018801D01*
X020079Y018643D02*
X018313Y018643D01*
X018297Y018484D02*
X020079Y018484D01*
X020079Y018326D02*
X018231Y018326D01*
X018132Y018167D02*
X020079Y018167D01*
X020079Y018009D02*
X017973Y018009D01*
X020079Y017850D02*
X000754Y017850D01*
X000754Y017692D02*
X020079Y017692D01*
X020079Y017533D02*
X000754Y017533D01*
X000754Y017375D02*
X020079Y017375D01*
X020079Y017216D02*
X000754Y017216D01*
X000754Y017058D02*
X020079Y017058D01*
X020079Y016899D02*
X000754Y016899D01*
X000754Y016741D02*
X020079Y016741D01*
X020079Y016582D02*
X000754Y016582D01*
X000754Y016424D02*
X020079Y016424D01*
X020079Y016265D02*
X000754Y016265D01*
X000754Y016107D02*
X020079Y016107D01*
X020079Y014680D02*
X000754Y014680D01*
X000754Y014522D02*
X020079Y014522D01*
X020079Y014363D02*
X000754Y014363D01*
X000754Y014205D02*
X002515Y014205D01*
X002548Y014218D02*
X002387Y014151D01*
X002263Y014028D01*
X002196Y013866D01*
X002196Y013691D01*
X002263Y013529D01*
X002387Y013405D01*
X002548Y013338D01*
X003323Y013338D01*
X003485Y013405D01*
X003609Y013529D01*
X003621Y013558D01*
X006569Y013558D01*
X009409Y010718D01*
X009048Y010718D01*
X008889Y010876D02*
X009251Y010876D01*
X009409Y010718D02*
X009409Y010580D01*
X009595Y010393D01*
X009859Y010393D01*
X010045Y010580D01*
X010045Y010843D01*
X009859Y011030D01*
X009720Y011030D01*
X006880Y013870D01*
X006751Y013998D01*
X003621Y013998D01*
X003609Y014028D01*
X003485Y014151D01*
X003323Y014218D01*
X002548Y014218D01*
X002281Y014046D02*
X000754Y014046D01*
X000754Y013888D02*
X002205Y013888D01*
X002196Y013729D02*
X000754Y013729D01*
X000754Y013571D02*
X002246Y013571D01*
X002380Y013412D02*
X000754Y013412D01*
X000754Y013254D02*
X006874Y013254D01*
X006715Y013412D02*
X003492Y013412D01*
X003323Y013218D02*
X003485Y013151D01*
X003609Y013028D01*
X003621Y012998D01*
X006767Y012998D01*
X006896Y012870D01*
X009720Y010045D01*
X009859Y010045D01*
X010045Y009859D01*
X010045Y009595D01*
X009859Y009409D01*
X009595Y009409D01*
X009409Y009595D01*
X009409Y009734D01*
X006585Y012558D01*
X003621Y012558D01*
X003609Y012529D01*
X003485Y012405D01*
X003323Y012338D01*
X002548Y012338D01*
X002387Y012405D01*
X002263Y012529D01*
X002196Y012691D01*
X002196Y012866D01*
X002263Y013028D01*
X002387Y013151D01*
X002548Y013218D01*
X003323Y013218D01*
X003541Y013095D02*
X007032Y013095D01*
X007191Y012937D02*
X006829Y012937D01*
X006676Y012778D02*
X002936Y012778D01*
X003541Y012461D02*
X006682Y012461D01*
X006841Y012303D02*
X000754Y012303D01*
X000754Y012461D02*
X002331Y012461D01*
X002225Y012620D02*
X000754Y012620D01*
X000754Y012778D02*
X002196Y012778D01*
X002225Y012937D02*
X000754Y012937D01*
X000754Y013095D02*
X002330Y013095D01*
X002524Y012247D02*
X002452Y012223D01*
X002384Y012189D01*
X002323Y012145D01*
X002270Y012091D01*
X002225Y012030D01*
X002191Y011963D01*
X002168Y011891D01*
X002156Y011816D01*
X002156Y011798D01*
X002916Y011798D01*
X002916Y011758D01*
X002956Y011758D01*
X002956Y011298D01*
X003274Y011298D01*
X003348Y011310D01*
X003420Y011334D01*
X003487Y011368D01*
X003549Y011412D01*
X003602Y011466D01*
X003646Y011527D01*
X003681Y011594D01*
X003704Y011666D01*
X003716Y011741D01*
X003716Y011758D01*
X002956Y011758D01*
X002956Y011798D01*
X003716Y011798D01*
X003716Y011816D01*
X003704Y011891D01*
X003681Y011963D01*
X003646Y012030D01*
X003602Y012091D01*
X003549Y012145D01*
X003487Y012189D01*
X003420Y012223D01*
X003348Y012247D01*
X003274Y012258D01*
X002956Y012258D01*
X002956Y011798D01*
X002916Y011798D01*
X002916Y012258D01*
X002598Y012258D01*
X002524Y012247D01*
X002323Y012144D02*
X000754Y012144D01*
X000754Y011986D02*
X002203Y011986D01*
X002158Y011827D02*
X000754Y011827D01*
X000754Y011669D02*
X002167Y011669D01*
X002168Y011666D02*
X002156Y011741D01*
X002156Y011758D01*
X002916Y011758D01*
X002916Y011298D01*
X002598Y011298D01*
X002524Y011310D01*
X002452Y011334D01*
X002384Y011368D01*
X002323Y011412D01*
X002270Y011466D01*
X002225Y011527D01*
X002191Y011594D01*
X002168Y011666D01*
X002237Y011510D02*
X000754Y011510D01*
X000754Y011352D02*
X002416Y011352D01*
X002916Y011352D02*
X002956Y011352D01*
X002956Y011510D02*
X002916Y011510D01*
X002916Y011669D02*
X002956Y011669D01*
X002956Y011827D02*
X002916Y011827D01*
X002916Y011986D02*
X002956Y011986D01*
X002956Y012144D02*
X002916Y012144D01*
X003549Y012144D02*
X006999Y012144D01*
X007158Y011986D02*
X003669Y011986D01*
X003714Y011827D02*
X007316Y011827D01*
X007475Y011669D02*
X003705Y011669D01*
X003634Y011510D02*
X007633Y011510D01*
X007792Y011352D02*
X003456Y011352D01*
X003618Y008919D02*
X003254Y008919D01*
X002996Y008661D01*
X002996Y008297D01*
X003254Y008039D01*
X003618Y008039D01*
X003876Y008297D01*
X003876Y008661D01*
X003618Y008919D01*
X003722Y008816D02*
X010196Y008816D01*
X010196Y008974D02*
X000754Y008974D01*
X000754Y008816D02*
X002150Y008816D01*
X002254Y008919D02*
X001996Y008661D01*
X001996Y008297D01*
X002254Y008039D01*
X002618Y008039D01*
X002876Y008297D01*
X002876Y008661D01*
X002618Y008919D01*
X002254Y008919D01*
X001996Y008657D02*
X000754Y008657D01*
X000754Y008499D02*
X001996Y008499D01*
X001996Y008340D02*
X000754Y008340D01*
X000754Y008182D02*
X002111Y008182D01*
X002237Y007959D02*
X001956Y007678D01*
X001956Y007499D01*
X002416Y007499D01*
X002416Y007459D01*
X002456Y007459D01*
X002456Y006999D01*
X002635Y006999D01*
X002916Y007280D01*
X002916Y007459D01*
X002456Y007459D01*
X002456Y007499D01*
X002916Y007499D01*
X002916Y007678D01*
X002635Y007959D01*
X002456Y007959D01*
X002456Y007499D01*
X002416Y007499D01*
X002416Y007959D01*
X002237Y007959D01*
X002143Y007865D02*
X000754Y007865D01*
X000754Y008023D02*
X010196Y008023D01*
X010196Y007865D02*
X003729Y007865D01*
X003635Y007959D02*
X003456Y007959D01*
X003456Y007499D01*
X003916Y007499D01*
X003916Y007678D01*
X003635Y007959D01*
X003456Y007865D02*
X003416Y007865D01*
X003416Y007959D02*
X003237Y007959D01*
X002956Y007678D01*
X002956Y007499D01*
X003416Y007499D01*
X003416Y007459D01*
X003456Y007459D01*
X003456Y006999D01*
X003635Y006999D01*
X003916Y007280D01*
X003916Y007459D01*
X003456Y007459D01*
X003456Y007499D01*
X003416Y007499D01*
X003416Y007959D01*
X003143Y007865D02*
X002729Y007865D01*
X002888Y007706D02*
X002984Y007706D01*
X002956Y007548D02*
X002916Y007548D01*
X002956Y007459D02*
X002956Y007280D01*
X003237Y006999D01*
X003416Y006999D01*
X003416Y007459D01*
X002956Y007459D01*
X002956Y007389D02*
X002916Y007389D01*
X002866Y007231D02*
X003006Y007231D01*
X003164Y007072D02*
X002708Y007072D01*
X002618Y006919D02*
X002254Y006919D01*
X001996Y006661D01*
X001996Y006297D01*
X002254Y006039D01*
X002618Y006039D01*
X002876Y006297D01*
X002876Y006661D01*
X002618Y006919D01*
X002624Y006914D02*
X003248Y006914D01*
X003254Y006919D02*
X002996Y006661D01*
X002996Y006297D01*
X003254Y006039D01*
X003618Y006039D01*
X003876Y006297D01*
X003876Y006661D01*
X003618Y006919D01*
X003254Y006919D01*
X003416Y007072D02*
X003456Y007072D01*
X003456Y007231D02*
X003416Y007231D01*
X003416Y007389D02*
X003456Y007389D01*
X003456Y007548D02*
X003416Y007548D01*
X003416Y007706D02*
X003456Y007706D01*
X003888Y007706D02*
X010196Y007706D01*
X010196Y007548D02*
X003916Y007548D01*
X003916Y007389D02*
X010196Y007389D01*
X010196Y007231D02*
X006781Y007231D01*
X006640Y007289D02*
X006318Y007289D01*
X006020Y007166D01*
X005793Y006938D01*
X005669Y006640D01*
X005669Y006318D01*
X005793Y006020D01*
X006020Y005793D01*
X006318Y005669D01*
X006640Y005669D01*
X006938Y005793D01*
X007166Y006020D01*
X007289Y006318D01*
X007289Y006640D01*
X007166Y006938D01*
X006938Y007166D01*
X006640Y007289D01*
X007032Y007072D02*
X010196Y007072D01*
X010196Y006914D02*
X007176Y006914D01*
X007242Y006755D02*
X010196Y006755D01*
X010196Y006597D02*
X007289Y006597D01*
X007289Y006438D02*
X010196Y006438D01*
X010196Y006280D02*
X007273Y006280D01*
X007208Y006121D02*
X010196Y006121D01*
X010196Y005963D02*
X007108Y005963D01*
X006950Y005804D02*
X010196Y005804D01*
X010196Y005646D02*
X003876Y005646D01*
X003876Y005661D02*
X003618Y005919D01*
X003254Y005919D01*
X002996Y005661D01*
X002996Y005297D01*
X003254Y005039D01*
X003618Y005039D01*
X003876Y005297D01*
X003876Y005661D01*
X003876Y005487D02*
X010196Y005487D01*
X010115Y005400D02*
X009936Y005400D01*
X009936Y004940D01*
X009896Y004940D01*
X009896Y004900D01*
X009436Y004900D01*
X009436Y004721D01*
X009717Y004440D01*
X009896Y004440D01*
X009896Y004900D01*
X009936Y004900D01*
X009936Y004440D01*
X010115Y004440D01*
X010396Y004721D01*
X010396Y004900D01*
X009936Y004900D01*
X009936Y004940D01*
X010396Y004940D01*
X010396Y005119D01*
X010115Y005400D01*
X010186Y005329D02*
X010197Y005329D01*
X010345Y005170D02*
X010355Y005170D01*
X010396Y005012D02*
X010476Y005012D01*
X010476Y004853D02*
X010396Y004853D01*
X010370Y004695D02*
X010519Y004695D01*
X010678Y004536D02*
X010211Y004536D01*
X010098Y004360D02*
X009734Y004360D01*
X009514Y004140D01*
X009144Y004140D01*
X008621Y003618D01*
X008621Y001861D01*
X008750Y001732D01*
X009144Y001338D01*
X011885Y001338D01*
X012014Y001467D01*
X012998Y002451D01*
X012998Y011279D01*
X013107Y011279D01*
X013293Y011466D01*
X013293Y011729D01*
X013107Y011915D01*
X012844Y011915D01*
X012657Y011729D01*
X012657Y011590D01*
X012558Y011492D01*
X012558Y002633D01*
X011703Y001778D01*
X009326Y001778D01*
X009061Y002043D01*
X009061Y003435D01*
X009326Y003700D01*
X009514Y003700D01*
X009734Y003480D01*
X010098Y003480D01*
X010356Y003738D01*
X010356Y004102D01*
X010098Y004360D01*
X010239Y004219D02*
X010593Y004219D01*
X010476Y004061D02*
X010356Y004061D01*
X010356Y003902D02*
X010476Y003902D01*
X010476Y003744D02*
X010356Y003744D01*
X010204Y003585D02*
X010629Y003585D01*
X010734Y003360D02*
X010476Y003102D01*
X010476Y002738D01*
X010734Y002480D01*
X011098Y002480D01*
X011356Y002738D01*
X011356Y003049D01*
X012408Y004101D01*
X012408Y011870D01*
X012516Y011870D01*
X012703Y012056D01*
X012703Y012320D01*
X012516Y012506D01*
X012253Y012506D01*
X012067Y012320D01*
X012067Y012181D01*
X011968Y012082D01*
X011968Y004283D01*
X011045Y003360D01*
X010734Y003360D01*
X010642Y003268D02*
X010190Y003268D01*
X010098Y003360D02*
X009734Y003360D01*
X009476Y003102D01*
X009476Y002738D01*
X009734Y002480D01*
X010098Y002480D01*
X010356Y002738D01*
X010356Y003102D01*
X010098Y003360D01*
X010349Y003110D02*
X010484Y003110D01*
X010476Y002951D02*
X010356Y002951D01*
X010356Y002793D02*
X010476Y002793D01*
X010580Y002634D02*
X010253Y002634D01*
X010916Y002920D02*
X012188Y004192D01*
X012188Y011991D01*
X012385Y012188D01*
X012632Y011986D02*
X020079Y011986D01*
X020079Y012144D02*
X012703Y012144D01*
X012703Y012303D02*
X020079Y012303D01*
X020079Y012461D02*
X012561Y012461D01*
X012208Y012461D02*
X011927Y012461D01*
X012067Y012303D02*
X011739Y012303D01*
X011739Y012144D02*
X012030Y012144D01*
X011968Y011986D02*
X011739Y011986D01*
X011739Y011827D02*
X011968Y011827D01*
X011968Y011669D02*
X011739Y011669D01*
X011739Y011510D02*
X011968Y011510D01*
X011968Y011352D02*
X011739Y011352D01*
X011739Y011193D02*
X011968Y011193D01*
X011968Y011035D02*
X011739Y011035D01*
X011739Y010876D02*
X011968Y010876D01*
X011968Y010718D02*
X011739Y010718D01*
X011739Y010559D02*
X011968Y010559D01*
X011968Y010401D02*
X011739Y010401D01*
X011739Y010242D02*
X011968Y010242D01*
X011968Y010084D02*
X011739Y010084D01*
X011739Y009925D02*
X011968Y009925D01*
X011968Y009767D02*
X011739Y009767D01*
X011739Y009608D02*
X011968Y009608D01*
X011968Y009450D02*
X011739Y009450D01*
X011739Y009291D02*
X011968Y009291D01*
X011968Y009133D02*
X011739Y009133D01*
X011739Y008974D02*
X011968Y008974D01*
X011968Y008816D02*
X011739Y008816D01*
X011739Y008657D02*
X011968Y008657D01*
X011968Y008499D02*
X011739Y008499D01*
X011739Y008340D02*
X011968Y008340D01*
X011968Y008182D02*
X011739Y008182D01*
X011739Y008023D02*
X011968Y008023D01*
X011968Y007865D02*
X011739Y007865D01*
X011739Y007706D02*
X011968Y007706D01*
X011968Y007548D02*
X011739Y007548D01*
X011739Y007389D02*
X011968Y007389D01*
X011968Y007231D02*
X011739Y007231D01*
X011739Y007072D02*
X011968Y007072D01*
X011968Y006914D02*
X011739Y006914D01*
X011739Y006755D02*
X011968Y006755D01*
X011968Y006597D02*
X011739Y006597D01*
X011739Y006438D02*
X011968Y006438D01*
X011968Y006280D02*
X011739Y006280D01*
X011739Y006121D02*
X011968Y006121D01*
X011968Y005963D02*
X011739Y005963D01*
X011739Y005804D02*
X011968Y005804D01*
X011968Y005646D02*
X011739Y005646D01*
X011739Y005487D02*
X011968Y005487D01*
X011968Y005329D02*
X011739Y005329D01*
X011739Y005170D02*
X011968Y005170D01*
X011968Y005012D02*
X011739Y005012D01*
X011739Y004853D02*
X011968Y004853D01*
X011968Y004695D02*
X011739Y004695D01*
X011739Y004536D02*
X011968Y004536D01*
X011968Y004378D02*
X011685Y004378D01*
X011519Y004523D02*
X010916Y003920D01*
X011204Y003585D02*
X011270Y003585D01*
X011356Y003744D02*
X011429Y003744D01*
X011356Y003902D02*
X011587Y003902D01*
X011746Y004061D02*
X011368Y004061D01*
X011526Y004219D02*
X011904Y004219D01*
X012209Y003902D02*
X012558Y003902D01*
X012558Y003744D02*
X012051Y003744D01*
X011892Y003585D02*
X012558Y003585D01*
X012558Y003427D02*
X011734Y003427D01*
X011575Y003268D02*
X012558Y003268D01*
X012558Y003110D02*
X011417Y003110D01*
X011356Y002951D02*
X012558Y002951D01*
X012558Y002793D02*
X011356Y002793D01*
X011253Y002634D02*
X012558Y002634D01*
X012401Y002476D02*
X009061Y002476D01*
X009061Y002634D02*
X009580Y002634D01*
X009476Y002793D02*
X009061Y002793D01*
X009061Y002951D02*
X009476Y002951D01*
X009484Y003110D02*
X009061Y003110D01*
X009061Y003268D02*
X009642Y003268D01*
X009629Y003585D02*
X009211Y003585D01*
X009061Y003427D02*
X011112Y003427D01*
X011063Y004378D02*
X003876Y004378D01*
X003876Y004297D02*
X003618Y004039D01*
X003254Y004039D01*
X002996Y004297D01*
X002996Y004661D01*
X003254Y004919D01*
X003618Y004919D01*
X003876Y004661D01*
X003876Y004297D01*
X003798Y004219D02*
X009593Y004219D01*
X009621Y004536D02*
X003876Y004536D01*
X003843Y004695D02*
X009463Y004695D01*
X009436Y004853D02*
X003684Y004853D01*
X003749Y005170D02*
X009487Y005170D01*
X009436Y005119D02*
X009436Y004940D01*
X009896Y004940D01*
X009896Y005400D01*
X009717Y005400D01*
X009436Y005119D01*
X009436Y005012D02*
X000754Y005012D01*
X000754Y005170D02*
X002123Y005170D01*
X001996Y005297D02*
X002254Y005039D01*
X002618Y005039D01*
X002876Y005297D01*
X002876Y005661D01*
X002618Y005919D01*
X002254Y005919D01*
X001996Y005661D01*
X001996Y005297D01*
X001996Y005329D02*
X000754Y005329D01*
X000754Y005487D02*
X001996Y005487D01*
X001996Y005646D02*
X000754Y005646D01*
X000754Y005804D02*
X002139Y005804D01*
X002172Y006121D02*
X000754Y006121D01*
X000754Y005963D02*
X005850Y005963D01*
X005751Y006121D02*
X003700Y006121D01*
X003859Y006280D02*
X005685Y006280D01*
X005669Y006438D02*
X003876Y006438D01*
X003876Y006597D02*
X005669Y006597D01*
X005717Y006755D02*
X003782Y006755D01*
X003624Y006914D02*
X005783Y006914D01*
X005927Y007072D02*
X003708Y007072D01*
X003866Y007231D02*
X006177Y007231D01*
X006009Y005804D02*
X003733Y005804D01*
X003876Y005329D02*
X009646Y005329D01*
X009896Y005329D02*
X009936Y005329D01*
X009936Y005170D02*
X009896Y005170D01*
X009896Y005012D02*
X009936Y005012D01*
X009936Y004853D02*
X009896Y004853D01*
X009896Y004695D02*
X009936Y004695D01*
X009936Y004536D02*
X009896Y004536D01*
X009916Y003920D02*
X009235Y003920D01*
X008841Y003526D01*
X008841Y001952D01*
X009235Y001558D01*
X011794Y001558D01*
X012778Y002542D01*
X012778Y011400D01*
X012975Y011597D01*
X012755Y011827D02*
X012408Y011827D01*
X012408Y011669D02*
X012657Y011669D01*
X012577Y011510D02*
X012408Y011510D01*
X012408Y011352D02*
X012558Y011352D01*
X012558Y011193D02*
X012408Y011193D01*
X012408Y011035D02*
X012558Y011035D01*
X012558Y010876D02*
X012408Y010876D01*
X012408Y010718D02*
X012558Y010718D01*
X012558Y010559D02*
X012408Y010559D01*
X012408Y010401D02*
X012558Y010401D01*
X012558Y010242D02*
X012408Y010242D01*
X012408Y010084D02*
X012558Y010084D01*
X012558Y009925D02*
X012408Y009925D01*
X012408Y009767D02*
X012558Y009767D01*
X012558Y009608D02*
X012408Y009608D01*
X012408Y009450D02*
X012558Y009450D01*
X012558Y009291D02*
X012408Y009291D01*
X012408Y009133D02*
X012558Y009133D01*
X012558Y008974D02*
X012408Y008974D01*
X012408Y008816D02*
X012558Y008816D01*
X012558Y008657D02*
X012408Y008657D01*
X012408Y008499D02*
X012558Y008499D01*
X012558Y008340D02*
X012408Y008340D01*
X012408Y008182D02*
X012558Y008182D01*
X012558Y008023D02*
X012408Y008023D01*
X012408Y007865D02*
X012558Y007865D01*
X012558Y007706D02*
X012408Y007706D01*
X012408Y007548D02*
X012558Y007548D01*
X012558Y007389D02*
X012408Y007389D01*
X012408Y007231D02*
X012558Y007231D01*
X012558Y007072D02*
X012408Y007072D01*
X012408Y006914D02*
X012558Y006914D01*
X012558Y006755D02*
X012408Y006755D01*
X012408Y006597D02*
X012558Y006597D01*
X012558Y006438D02*
X012408Y006438D01*
X012408Y006280D02*
X012558Y006280D01*
X012558Y006121D02*
X012408Y006121D01*
X012408Y005963D02*
X012558Y005963D01*
X012558Y005804D02*
X012408Y005804D01*
X012408Y005646D02*
X012558Y005646D01*
X012558Y005487D02*
X012408Y005487D01*
X012408Y005329D02*
X012558Y005329D01*
X012558Y005170D02*
X012408Y005170D01*
X012408Y005012D02*
X012558Y005012D01*
X012558Y004853D02*
X012408Y004853D01*
X012408Y004695D02*
X012558Y004695D01*
X012558Y004536D02*
X012408Y004536D01*
X012408Y004378D02*
X012558Y004378D01*
X012558Y004219D02*
X012408Y004219D01*
X012368Y004061D02*
X012558Y004061D01*
X012998Y004061D02*
X016957Y004061D01*
X016957Y004161D02*
X016957Y003797D01*
X017214Y003539D01*
X017579Y003539D01*
X017837Y003797D01*
X017837Y004161D01*
X017579Y004419D01*
X017214Y004419D01*
X016957Y004161D01*
X017014Y004219D02*
X012998Y004219D01*
X012998Y004378D02*
X017173Y004378D01*
X017214Y004539D02*
X017579Y004539D01*
X017837Y004797D01*
X017837Y005161D01*
X017579Y005419D01*
X017214Y005419D01*
X016957Y005161D01*
X016957Y004797D01*
X017214Y004539D01*
X017059Y004695D02*
X012998Y004695D01*
X012998Y004853D02*
X016957Y004853D01*
X016957Y005012D02*
X012998Y005012D01*
X012998Y005170D02*
X016965Y005170D01*
X017124Y005329D02*
X012998Y005329D01*
X012998Y005487D02*
X020079Y005487D01*
X020079Y005329D02*
X018669Y005329D01*
X018579Y005419D02*
X018214Y005419D01*
X017957Y005161D01*
X017957Y004797D01*
X018214Y004539D01*
X018579Y004539D01*
X018837Y004797D01*
X018837Y005161D01*
X018579Y005419D01*
X018579Y005539D02*
X018837Y005797D01*
X018837Y006161D01*
X018579Y006419D01*
X018214Y006419D01*
X017957Y006161D01*
X017957Y005797D01*
X018214Y005539D01*
X018579Y005539D01*
X018685Y005646D02*
X020079Y005646D01*
X020079Y005804D02*
X018837Y005804D01*
X018837Y005963D02*
X020079Y005963D01*
X020079Y006121D02*
X018837Y006121D01*
X018718Y006280D02*
X020079Y006280D01*
X020079Y006438D02*
X015163Y006438D01*
X015163Y006318D02*
X015040Y006020D01*
X014812Y005793D01*
X014514Y005669D01*
X014192Y005669D01*
X013894Y005793D01*
X013667Y006020D01*
X013543Y006318D01*
X013543Y006640D01*
X013667Y006938D01*
X013894Y007166D01*
X014192Y007289D01*
X014514Y007289D01*
X014812Y007166D01*
X015040Y006938D01*
X015163Y006640D01*
X015163Y006318D01*
X015147Y006280D02*
X017075Y006280D01*
X016957Y006161D02*
X016957Y005797D01*
X017214Y005539D01*
X017579Y005539D01*
X017837Y005797D01*
X017837Y006161D01*
X017579Y006419D01*
X017214Y006419D01*
X016957Y006161D01*
X016957Y006121D02*
X015082Y006121D01*
X014982Y005963D02*
X016957Y005963D01*
X016957Y005804D02*
X014824Y005804D01*
X015163Y006597D02*
X017100Y006597D01*
X017198Y006499D02*
X016917Y006780D01*
X016917Y006959D01*
X017377Y006959D01*
X017417Y006959D01*
X017417Y006999D01*
X017877Y006999D01*
X017877Y007178D01*
X017595Y007459D01*
X017417Y007459D01*
X017417Y006999D01*
X017377Y006999D01*
X017377Y007459D01*
X017198Y007459D01*
X016917Y007178D01*
X016917Y006999D01*
X017377Y006999D01*
X017377Y006959D01*
X017377Y006499D01*
X017198Y006499D01*
X017377Y006597D02*
X017417Y006597D01*
X017417Y006499D02*
X017595Y006499D01*
X017877Y006780D01*
X017877Y006959D01*
X017417Y006959D01*
X017417Y006499D01*
X017417Y006755D02*
X017377Y006755D01*
X017377Y006914D02*
X017417Y006914D01*
X017417Y007072D02*
X017377Y007072D01*
X017377Y007231D02*
X017417Y007231D01*
X017417Y007389D02*
X017377Y007389D01*
X017377Y007499D02*
X017377Y007959D01*
X017417Y007959D01*
X017417Y007999D01*
X017877Y007999D01*
X017877Y008178D01*
X017595Y008459D01*
X017417Y008459D01*
X017417Y007999D01*
X017377Y007999D01*
X017377Y008459D01*
X017198Y008459D01*
X016917Y008178D01*
X016917Y007999D01*
X017377Y007999D01*
X017377Y007959D01*
X016917Y007959D01*
X016917Y007780D01*
X017198Y007499D01*
X017377Y007499D01*
X017417Y007499D02*
X017595Y007499D01*
X017877Y007780D01*
X017877Y007959D01*
X017417Y007959D01*
X017417Y007499D01*
X017417Y007548D02*
X017377Y007548D01*
X017377Y007706D02*
X017417Y007706D01*
X017417Y007865D02*
X017377Y007865D01*
X017377Y008023D02*
X017417Y008023D01*
X017417Y008182D02*
X017377Y008182D01*
X017377Y008340D02*
X017417Y008340D01*
X017579Y008539D02*
X017214Y008539D01*
X016957Y008797D01*
X016957Y009161D01*
X017214Y009419D01*
X017579Y009419D01*
X017837Y009161D01*
X017837Y008797D01*
X017579Y008539D01*
X017697Y008657D02*
X018096Y008657D01*
X018214Y008539D02*
X017957Y008797D01*
X017957Y009161D01*
X018214Y009419D01*
X018579Y009419D01*
X018837Y009161D01*
X018837Y008797D01*
X018579Y008539D01*
X018214Y008539D01*
X018198Y008459D02*
X017917Y008178D01*
X017917Y007999D01*
X018377Y007999D01*
X018377Y008459D01*
X018198Y008459D01*
X018079Y008340D02*
X017714Y008340D01*
X017873Y008182D02*
X017920Y008182D01*
X017917Y008023D02*
X017877Y008023D01*
X017917Y007959D02*
X017917Y007780D01*
X018198Y007499D01*
X018377Y007499D01*
X018377Y007959D01*
X018417Y007959D01*
X018417Y007999D01*
X018877Y007999D01*
X018877Y008178D01*
X018595Y008459D01*
X018417Y008459D01*
X018417Y007999D01*
X018377Y007999D01*
X018377Y007959D01*
X017917Y007959D01*
X017917Y007865D02*
X017877Y007865D01*
X017802Y007706D02*
X017991Y007706D01*
X018149Y007548D02*
X017644Y007548D01*
X017665Y007389D02*
X018128Y007389D01*
X018198Y007459D02*
X017917Y007178D01*
X017917Y006999D01*
X018377Y006999D01*
X018377Y007459D01*
X018198Y007459D01*
X018377Y007389D02*
X018417Y007389D01*
X018417Y007459D02*
X018417Y006999D01*
X018877Y006999D01*
X018877Y007178D01*
X018595Y007459D01*
X018417Y007459D01*
X018417Y007499D02*
X018595Y007499D01*
X018877Y007780D01*
X018877Y007959D01*
X018417Y007959D01*
X018417Y007499D01*
X018417Y007548D02*
X018377Y007548D01*
X018377Y007706D02*
X018417Y007706D01*
X018417Y007865D02*
X018377Y007865D01*
X018377Y008023D02*
X018417Y008023D01*
X018417Y008182D02*
X018377Y008182D01*
X018377Y008340D02*
X018417Y008340D01*
X018714Y008340D02*
X020079Y008340D01*
X020079Y008182D02*
X018873Y008182D01*
X018877Y008023D02*
X020079Y008023D01*
X020079Y007865D02*
X018877Y007865D01*
X018802Y007706D02*
X020079Y007706D01*
X020079Y007548D02*
X018644Y007548D01*
X018665Y007389D02*
X020079Y007389D01*
X020079Y007231D02*
X018824Y007231D01*
X018877Y007072D02*
X020079Y007072D01*
X020079Y006914D02*
X018877Y006914D01*
X018877Y006959D02*
X018417Y006959D01*
X018417Y006999D01*
X018377Y006999D01*
X018377Y006959D01*
X018417Y006959D01*
X018417Y006499D01*
X018595Y006499D01*
X018877Y006780D01*
X018877Y006959D01*
X018851Y006755D02*
X020079Y006755D01*
X020079Y006597D02*
X018693Y006597D01*
X018417Y006597D02*
X018377Y006597D01*
X018377Y006499D02*
X018377Y006959D01*
X017917Y006959D01*
X017917Y006780D01*
X018198Y006499D01*
X018377Y006499D01*
X018377Y006755D02*
X018417Y006755D01*
X018417Y006914D02*
X018377Y006914D01*
X018377Y007072D02*
X018417Y007072D01*
X018417Y007231D02*
X018377Y007231D01*
X017969Y007231D02*
X017824Y007231D01*
X017877Y007072D02*
X017917Y007072D01*
X017917Y006914D02*
X017877Y006914D01*
X017851Y006755D02*
X017942Y006755D01*
X018100Y006597D02*
X017693Y006597D01*
X017718Y006280D02*
X018075Y006280D01*
X017957Y006121D02*
X017837Y006121D01*
X017837Y005963D02*
X017957Y005963D01*
X017957Y005804D02*
X017837Y005804D01*
X017685Y005646D02*
X018108Y005646D01*
X018124Y005329D02*
X017669Y005329D01*
X017828Y005170D02*
X017965Y005170D01*
X017957Y005012D02*
X017837Y005012D01*
X017837Y004853D02*
X017957Y004853D01*
X018059Y004695D02*
X017734Y004695D01*
X017620Y004378D02*
X018173Y004378D01*
X018214Y004419D02*
X017957Y004161D01*
X017957Y003797D01*
X018214Y003539D01*
X018579Y003539D01*
X018837Y003797D01*
X018837Y004161D01*
X018579Y004419D01*
X018214Y004419D01*
X018014Y004219D02*
X017779Y004219D01*
X017837Y004061D02*
X017957Y004061D01*
X017957Y003902D02*
X017837Y003902D01*
X017783Y003744D02*
X018010Y003744D01*
X018168Y003585D02*
X017625Y003585D01*
X017579Y003419D02*
X017214Y003419D01*
X016957Y003161D01*
X016957Y002797D01*
X017214Y002539D01*
X017579Y002539D01*
X017837Y002797D01*
X017837Y003161D01*
X017579Y003419D01*
X017730Y003268D02*
X018063Y003268D01*
X017957Y003161D02*
X017957Y002797D01*
X018214Y002539D01*
X018579Y002539D01*
X018837Y002797D01*
X018837Y003161D01*
X018579Y003419D01*
X018214Y003419D01*
X017957Y003161D01*
X017957Y003110D02*
X017837Y003110D01*
X017837Y002951D02*
X017957Y002951D01*
X017961Y002793D02*
X017832Y002793D01*
X017674Y002634D02*
X018119Y002634D01*
X018674Y002634D02*
X020079Y002634D01*
X020079Y002476D02*
X012998Y002476D01*
X012998Y002634D02*
X017119Y002634D01*
X016961Y002793D02*
X012998Y002793D01*
X012998Y002951D02*
X016957Y002951D01*
X016957Y003110D02*
X012998Y003110D01*
X012998Y003268D02*
X017063Y003268D01*
X017168Y003585D02*
X012998Y003585D01*
X012998Y003427D02*
X020079Y003427D01*
X020079Y003585D02*
X018625Y003585D01*
X018783Y003744D02*
X020079Y003744D01*
X020079Y003902D02*
X018837Y003902D01*
X018837Y004061D02*
X020079Y004061D01*
X020079Y004219D02*
X018779Y004219D01*
X018620Y004378D02*
X020079Y004378D01*
X020079Y004536D02*
X012998Y004536D01*
X012998Y003902D02*
X016957Y003902D01*
X017010Y003744D02*
X012998Y003744D01*
X012865Y002317D02*
X020079Y002317D01*
X020079Y002159D02*
X012706Y002159D01*
X012548Y002000D02*
X020079Y002000D01*
X020079Y001842D02*
X012389Y001842D01*
X012231Y001683D02*
X020079Y001683D01*
X020079Y001525D02*
X012072Y001525D01*
X011914Y001366D02*
X020079Y001366D01*
X020079Y001208D02*
X000754Y001208D01*
X000754Y001366D02*
X009116Y001366D01*
X008957Y001525D02*
X000754Y001525D01*
X000754Y001683D02*
X008799Y001683D01*
X008640Y001842D02*
X000754Y001842D01*
X000754Y002000D02*
X008621Y002000D01*
X008621Y002159D02*
X000754Y002159D01*
X000754Y002317D02*
X008621Y002317D01*
X008621Y002476D02*
X000754Y002476D01*
X000754Y002634D02*
X008621Y002634D01*
X008621Y002793D02*
X000754Y002793D01*
X000754Y002951D02*
X008621Y002951D01*
X008621Y003110D02*
X000754Y003110D01*
X000754Y003268D02*
X008621Y003268D01*
X008621Y003427D02*
X000754Y003427D01*
X000754Y003585D02*
X008621Y003585D01*
X008748Y003744D02*
X000754Y003744D01*
X000754Y003902D02*
X008906Y003902D01*
X009065Y004061D02*
X003640Y004061D01*
X003232Y004061D02*
X002640Y004061D01*
X002618Y004039D02*
X002876Y004297D01*
X002876Y004661D01*
X002618Y004919D01*
X002254Y004919D01*
X001996Y004661D01*
X001996Y004297D01*
X002254Y004039D01*
X002618Y004039D01*
X002798Y004219D02*
X003074Y004219D01*
X002996Y004378D02*
X002876Y004378D01*
X002876Y004536D02*
X002996Y004536D01*
X003029Y004695D02*
X002843Y004695D01*
X002684Y004853D02*
X003188Y004853D01*
X003123Y005170D02*
X002749Y005170D01*
X002876Y005329D02*
X002996Y005329D01*
X002996Y005487D02*
X002876Y005487D01*
X002876Y005646D02*
X002996Y005646D01*
X003139Y005804D02*
X002733Y005804D01*
X002700Y006121D02*
X003172Y006121D01*
X003013Y006280D02*
X002859Y006280D01*
X002876Y006438D02*
X002996Y006438D01*
X002996Y006597D02*
X002876Y006597D01*
X002782Y006755D02*
X003090Y006755D01*
X002456Y007072D02*
X002416Y007072D01*
X002416Y006999D02*
X002416Y007459D01*
X001956Y007459D01*
X001956Y007280D01*
X002237Y006999D01*
X002416Y006999D01*
X002248Y006914D02*
X000754Y006914D01*
X000754Y007072D02*
X002164Y007072D01*
X002006Y007231D02*
X000754Y007231D01*
X000754Y007389D02*
X001956Y007389D01*
X001956Y007548D02*
X000754Y007548D01*
X000754Y007706D02*
X001984Y007706D01*
X002416Y007706D02*
X002456Y007706D01*
X002456Y007548D02*
X002416Y007548D01*
X002416Y007389D02*
X002456Y007389D01*
X002456Y007231D02*
X002416Y007231D01*
X002090Y006755D02*
X000754Y006755D01*
X000754Y006597D02*
X001996Y006597D01*
X001996Y006438D02*
X000754Y006438D01*
X000754Y006280D02*
X002013Y006280D01*
X002188Y004853D02*
X000754Y004853D01*
X000754Y004695D02*
X002029Y004695D01*
X001996Y004536D02*
X000754Y004536D01*
X000754Y004378D02*
X001996Y004378D01*
X002074Y004219D02*
X000754Y004219D01*
X000754Y004061D02*
X002232Y004061D01*
X000754Y001049D02*
X020079Y001049D01*
X020079Y000891D02*
X000754Y000891D01*
X000754Y000754D02*
X000754Y020079D01*
X020079Y020079D01*
X020079Y000754D01*
X000754Y000754D01*
X002416Y007865D02*
X002456Y007865D01*
X002761Y008182D02*
X003111Y008182D01*
X002996Y008340D02*
X002876Y008340D01*
X002876Y008499D02*
X002996Y008499D01*
X002996Y008657D02*
X002876Y008657D01*
X002722Y008816D02*
X003150Y008816D01*
X003876Y008657D02*
X010196Y008657D01*
X010196Y008499D02*
X003876Y008499D01*
X003876Y008340D02*
X010196Y008340D01*
X010196Y008182D02*
X003761Y008182D01*
X000754Y009133D02*
X010196Y009133D01*
X010196Y009291D02*
X000754Y009291D01*
X000754Y009450D02*
X009555Y009450D01*
X009409Y009608D02*
X000754Y009608D01*
X000754Y009767D02*
X009377Y009767D01*
X009218Y009925D02*
X000754Y009925D01*
X000754Y010084D02*
X009060Y010084D01*
X008901Y010242D02*
X000754Y010242D01*
X000754Y010401D02*
X008743Y010401D01*
X008584Y010559D02*
X000754Y010559D01*
X000754Y010718D02*
X008426Y010718D01*
X008267Y010876D02*
X000754Y010876D01*
X000754Y011035D02*
X008109Y011035D01*
X007950Y011193D02*
X000754Y011193D01*
X002936Y013778D02*
X006660Y013778D01*
X009727Y010711D01*
X009715Y011035D02*
X010196Y011035D01*
X010196Y010876D02*
X010012Y010876D01*
X010045Y010718D02*
X010196Y010718D01*
X010196Y010559D02*
X010025Y010559D01*
X009866Y010401D02*
X010196Y010401D01*
X010196Y010242D02*
X009523Y010242D01*
X009588Y010401D02*
X009365Y010401D01*
X009430Y010559D02*
X009206Y010559D01*
X009093Y011035D02*
X008731Y011035D01*
X008572Y011193D02*
X008934Y011193D01*
X008776Y011352D02*
X008414Y011352D01*
X008255Y011510D02*
X008617Y011510D01*
X008459Y011669D02*
X008097Y011669D01*
X007938Y011827D02*
X008300Y011827D01*
X008142Y011986D02*
X007780Y011986D01*
X007621Y012144D02*
X007983Y012144D01*
X007825Y012303D02*
X007463Y012303D01*
X007304Y012461D02*
X007666Y012461D01*
X007508Y012620D02*
X007146Y012620D01*
X006987Y012778D02*
X007349Y012778D01*
X007655Y013095D02*
X011661Y013095D01*
X011503Y012937D02*
X007813Y012937D01*
X007972Y012778D02*
X011476Y012778D01*
X011324Y012620D02*
X008130Y012620D01*
X008289Y012461D02*
X011299Y012461D01*
X011299Y012303D02*
X008447Y012303D01*
X008606Y012144D02*
X011299Y012144D01*
X011299Y011986D02*
X008764Y011986D01*
X008923Y011827D02*
X011299Y011827D01*
X011299Y011669D02*
X009081Y011669D01*
X009240Y011510D02*
X010175Y011510D01*
X010098Y011352D02*
X009398Y011352D01*
X009557Y011193D02*
X010098Y011193D01*
X010416Y011302D02*
X010416Y005420D01*
X010916Y004920D01*
X011288Y005170D02*
X011299Y005170D01*
X011299Y005329D02*
X011130Y005329D01*
X011299Y005487D02*
X010660Y005487D01*
X010636Y005646D02*
X011299Y005646D01*
X011299Y005804D02*
X010636Y005804D01*
X010636Y005963D02*
X011299Y005963D01*
X011299Y006121D02*
X010636Y006121D01*
X010636Y006280D02*
X011299Y006280D01*
X011299Y006438D02*
X010636Y006438D01*
X010636Y006597D02*
X011299Y006597D01*
X011299Y006755D02*
X010636Y006755D01*
X010636Y006914D02*
X011299Y006914D01*
X011299Y007072D02*
X010636Y007072D01*
X010636Y007231D02*
X011299Y007231D01*
X011299Y007389D02*
X010636Y007389D01*
X010636Y007548D02*
X011299Y007548D01*
X011299Y007706D02*
X010636Y007706D01*
X010636Y007865D02*
X011299Y007865D01*
X011299Y008023D02*
X010636Y008023D01*
X010636Y008182D02*
X011299Y008182D01*
X011299Y008340D02*
X010636Y008340D01*
X010636Y008499D02*
X011299Y008499D01*
X011299Y008657D02*
X010636Y008657D01*
X010636Y008816D02*
X011299Y008816D01*
X011299Y008974D02*
X010636Y008974D01*
X010636Y009133D02*
X011299Y009133D01*
X011299Y009291D02*
X010636Y009291D01*
X010636Y009450D02*
X011299Y009450D01*
X011299Y009608D02*
X010636Y009608D01*
X010636Y009767D02*
X011299Y009767D01*
X011299Y009925D02*
X010636Y009925D01*
X010636Y010084D02*
X011299Y010084D01*
X011299Y010242D02*
X010636Y010242D01*
X010636Y010401D02*
X011299Y010401D01*
X011299Y010559D02*
X010636Y010559D01*
X010636Y010718D02*
X011299Y010718D01*
X011299Y010876D02*
X010636Y010876D01*
X010636Y011035D02*
X011299Y011035D01*
X011299Y011193D02*
X010734Y011193D01*
X010734Y011352D02*
X011299Y011352D01*
X011299Y011510D02*
X010658Y011510D01*
X011519Y012503D02*
X011794Y012778D01*
X011519Y012503D02*
X011519Y004523D01*
X011221Y004536D02*
X011155Y004536D01*
X012998Y005646D02*
X017108Y005646D01*
X016942Y006755D02*
X015116Y006755D01*
X015050Y006914D02*
X016917Y006914D01*
X016917Y007072D02*
X014906Y007072D01*
X014655Y007231D02*
X016969Y007231D01*
X017128Y007389D02*
X012998Y007389D01*
X012998Y007231D02*
X014051Y007231D01*
X013801Y007072D02*
X012998Y007072D01*
X012998Y006914D02*
X013657Y006914D01*
X013591Y006755D02*
X012998Y006755D01*
X012998Y006597D02*
X013543Y006597D01*
X013543Y006438D02*
X012998Y006438D01*
X012998Y006280D02*
X013559Y006280D01*
X013625Y006121D02*
X012998Y006121D01*
X012998Y005963D02*
X013724Y005963D01*
X013883Y005804D02*
X012998Y005804D01*
X012998Y007548D02*
X017149Y007548D01*
X016991Y007706D02*
X012998Y007706D01*
X012998Y007865D02*
X016917Y007865D01*
X016917Y008023D02*
X012998Y008023D01*
X012998Y008182D02*
X016920Y008182D01*
X017079Y008340D02*
X012998Y008340D01*
X012998Y008499D02*
X020079Y008499D01*
X020079Y008657D02*
X018697Y008657D01*
X018837Y008816D02*
X020079Y008816D01*
X020079Y008974D02*
X018837Y008974D01*
X018837Y009133D02*
X020079Y009133D01*
X020079Y009291D02*
X018707Y009291D01*
X018579Y009539D02*
X018837Y009797D01*
X018837Y010161D01*
X018579Y010419D01*
X018214Y010419D01*
X017957Y010161D01*
X017957Y009797D01*
X018214Y009539D01*
X018579Y009539D01*
X018648Y009608D02*
X020079Y009608D01*
X020079Y009450D02*
X012998Y009450D01*
X012998Y009608D02*
X017145Y009608D01*
X017214Y009539D02*
X016957Y009797D01*
X016957Y010161D01*
X017214Y010419D01*
X017579Y010419D01*
X017837Y010161D01*
X017837Y009797D01*
X017579Y009539D01*
X017214Y009539D01*
X017086Y009291D02*
X012998Y009291D01*
X012998Y009133D02*
X016957Y009133D01*
X016957Y008974D02*
X012998Y008974D01*
X012998Y008816D02*
X016957Y008816D01*
X017096Y008657D02*
X012998Y008657D01*
X012998Y009767D02*
X016987Y009767D01*
X016957Y009925D02*
X012998Y009925D01*
X012998Y010084D02*
X016957Y010084D01*
X017037Y010242D02*
X012998Y010242D01*
X012998Y010401D02*
X017196Y010401D01*
X017597Y010401D02*
X018196Y010401D01*
X018037Y010242D02*
X017756Y010242D01*
X017837Y010084D02*
X017957Y010084D01*
X017957Y009925D02*
X017837Y009925D01*
X017806Y009767D02*
X017987Y009767D01*
X018145Y009608D02*
X017648Y009608D01*
X017707Y009291D02*
X018086Y009291D01*
X017957Y009133D02*
X017837Y009133D01*
X017837Y008974D02*
X017957Y008974D01*
X017957Y008816D02*
X017837Y008816D01*
X018806Y009767D02*
X020079Y009767D01*
X020079Y009925D02*
X018837Y009925D01*
X018837Y010084D02*
X020079Y010084D01*
X020079Y010242D02*
X018756Y010242D01*
X018597Y010401D02*
X020079Y010401D01*
X020079Y010559D02*
X012998Y010559D01*
X012998Y010718D02*
X020079Y010718D01*
X020079Y010876D02*
X012998Y010876D01*
X012998Y011035D02*
X020079Y011035D01*
X020079Y011193D02*
X012998Y011193D01*
X013180Y011352D02*
X020079Y011352D01*
X020079Y011510D02*
X013293Y011510D01*
X013293Y011669D02*
X020079Y011669D01*
X020079Y011827D02*
X013195Y011827D01*
X012085Y012620D02*
X020079Y012620D01*
X020079Y012778D02*
X012112Y012778D01*
X010196Y010084D02*
X009682Y010084D01*
X009979Y009925D02*
X010196Y009925D01*
X010196Y009767D02*
X010045Y009767D01*
X010045Y009608D02*
X010196Y009608D01*
X010196Y009450D02*
X009900Y009450D01*
X009727Y009727D02*
X006676Y012778D01*
X006862Y013888D02*
X020079Y013888D01*
X020079Y014046D02*
X003590Y014046D01*
X003357Y014205D02*
X020079Y014205D01*
X020079Y019594D02*
X000754Y019594D01*
X000754Y019752D02*
X020079Y019752D01*
X020079Y019911D02*
X000754Y019911D01*
X000754Y020069D02*
X020079Y020069D01*
X012436Y019435D02*
X012396Y019435D01*
X012396Y019464D02*
X012378Y019464D01*
X012304Y019452D01*
X012232Y019429D01*
X012165Y019394D01*
X012104Y019350D01*
X012050Y019297D01*
X012006Y019236D01*
X011971Y019168D01*
X011948Y019096D01*
X011936Y019022D01*
X011936Y018704D01*
X012396Y018704D01*
X012396Y019464D01*
X012252Y019435D02*
X003632Y019435D01*
X003491Y019494D02*
X003788Y019371D01*
X004016Y019143D01*
X004140Y018845D01*
X004140Y018523D01*
X004016Y018225D01*
X003788Y017997D01*
X003491Y017874D01*
X003169Y017874D01*
X002871Y017997D01*
X002643Y018225D01*
X002520Y018523D01*
X002520Y018845D01*
X002643Y019143D01*
X002871Y019371D01*
X003169Y019494D01*
X003491Y019494D01*
X003882Y019277D02*
X008087Y019277D01*
X008043Y019233D02*
X007976Y019071D01*
X007976Y018296D01*
X008043Y018135D01*
X008167Y018011D01*
X008329Y017944D01*
X008504Y017944D01*
X008665Y018011D01*
X008789Y018135D01*
X008856Y018296D01*
X008856Y019071D01*
X008789Y019233D01*
X008665Y019357D01*
X008504Y019424D01*
X008329Y019424D01*
X008167Y019357D01*
X008043Y019233D01*
X007996Y019118D02*
X004026Y019118D01*
X004092Y018960D02*
X007976Y018960D01*
X007976Y018801D02*
X004140Y018801D01*
X004140Y018643D02*
X007976Y018643D01*
X007976Y018484D02*
X004124Y018484D01*
X004058Y018326D02*
X007976Y018326D01*
X008030Y018167D02*
X003958Y018167D01*
X003800Y018009D02*
X008172Y018009D01*
X008660Y018009D02*
X009172Y018009D01*
X009167Y018011D02*
X009329Y017944D01*
X009504Y017944D01*
X009665Y018011D01*
X009789Y018135D01*
X009856Y018296D01*
X009856Y019071D01*
X009789Y019233D01*
X009665Y019357D01*
X009504Y019424D01*
X009329Y019424D01*
X009167Y019357D01*
X009043Y019233D01*
X008976Y019071D01*
X008976Y018296D01*
X009043Y018135D01*
X009167Y018011D01*
X009030Y018167D02*
X008803Y018167D01*
X008856Y018326D02*
X008976Y018326D01*
X008976Y018484D02*
X008856Y018484D01*
X008856Y018643D02*
X008976Y018643D01*
X008976Y018801D02*
X008856Y018801D01*
X008856Y018960D02*
X008976Y018960D01*
X008996Y019118D02*
X008837Y019118D01*
X008746Y019277D02*
X009087Y019277D01*
X009746Y019277D02*
X010087Y019277D01*
X010043Y019233D02*
X009976Y019071D01*
X009976Y018296D01*
X010043Y018135D01*
X010167Y018011D01*
X010329Y017944D01*
X010504Y017944D01*
X010665Y018011D01*
X010789Y018135D01*
X010856Y018296D01*
X010856Y019071D01*
X010789Y019233D01*
X010665Y019357D01*
X010504Y019424D01*
X010329Y019424D01*
X010167Y019357D01*
X010043Y019233D01*
X009996Y019118D02*
X009837Y019118D01*
X009856Y018960D02*
X009976Y018960D01*
X009976Y018801D02*
X009856Y018801D01*
X009856Y018643D02*
X009976Y018643D01*
X009976Y018484D02*
X009856Y018484D01*
X009856Y018326D02*
X009976Y018326D01*
X010030Y018167D02*
X009803Y018167D01*
X009660Y018009D02*
X010172Y018009D01*
X010660Y018009D02*
X011172Y018009D01*
X011167Y018011D02*
X011329Y017944D01*
X011504Y017944D01*
X011665Y018011D01*
X011789Y018135D01*
X011856Y018296D01*
X011856Y019071D01*
X011789Y019233D01*
X011665Y019357D01*
X011504Y019424D01*
X011329Y019424D01*
X011167Y019357D01*
X011043Y019233D01*
X010976Y019071D01*
X010976Y018296D01*
X011043Y018135D01*
X011167Y018011D01*
X011030Y018167D02*
X010803Y018167D01*
X010856Y018326D02*
X010976Y018326D01*
X010976Y018484D02*
X010856Y018484D01*
X010856Y018643D02*
X010976Y018643D01*
X010976Y018801D02*
X010856Y018801D01*
X010856Y018960D02*
X010976Y018960D01*
X010996Y019118D02*
X010837Y019118D01*
X010746Y019277D02*
X011087Y019277D01*
X011746Y019277D02*
X012036Y019277D01*
X011955Y019118D02*
X011837Y019118D01*
X011856Y018960D02*
X011936Y018960D01*
X011936Y018801D02*
X011856Y018801D01*
X011856Y018643D02*
X011936Y018643D01*
X011936Y018484D02*
X011856Y018484D01*
X011856Y018326D02*
X011939Y018326D01*
X011988Y018167D02*
X011803Y018167D01*
X011660Y018009D02*
X012116Y018009D01*
X012396Y018009D02*
X012436Y018009D01*
X012436Y018167D02*
X012396Y018167D01*
X012396Y018326D02*
X012436Y018326D01*
X012436Y018484D02*
X012396Y018484D01*
X012396Y018643D02*
X012436Y018643D01*
X012436Y018801D02*
X012396Y018801D01*
X012396Y018960D02*
X012436Y018960D01*
X012436Y019118D02*
X012396Y019118D01*
X012396Y019277D02*
X012436Y019277D01*
X003027Y019435D02*
X000754Y019435D01*
X000754Y019277D02*
X002777Y019277D01*
X002633Y019118D02*
X000754Y019118D01*
X000754Y018960D02*
X002567Y018960D01*
X002520Y018801D02*
X000754Y018801D01*
X000754Y018643D02*
X002520Y018643D01*
X002536Y018484D02*
X000754Y018484D01*
X000754Y018326D02*
X002601Y018326D01*
X002701Y018167D02*
X000754Y018167D01*
X000754Y018009D02*
X002859Y018009D01*
X009061Y002317D02*
X012242Y002317D01*
X012084Y002159D02*
X009061Y002159D01*
X009104Y002000D02*
X011925Y002000D01*
X011767Y001842D02*
X009262Y001842D01*
X018730Y003268D02*
X020079Y003268D01*
X020079Y003110D02*
X018837Y003110D01*
X018837Y002951D02*
X020079Y002951D01*
X020079Y002793D02*
X018832Y002793D01*
X018734Y004695D02*
X020079Y004695D01*
X020079Y004853D02*
X018837Y004853D01*
X018837Y005012D02*
X020079Y005012D01*
X020079Y005170D02*
X018828Y005170D01*
D15*
X012975Y011597D03*
X012385Y012188D03*
X011794Y012778D03*
X010416Y011302D03*
X009727Y010711D03*
X009727Y009727D03*
M02*
