%
M48
M72
T01C0.0236
T02C0.0400
T03C0.0470
T04C0.1260
%
T01
X9727Y9727
X9727Y10711
X10416Y11302
X11794Y12778
X12385Y12188
X12975Y11597
T02
X2436Y4479
X3436Y4479
X3436Y5479
X2436Y5479
X2436Y6479
X2436Y7479
X3436Y7479
X3436Y6479
X3436Y8479
X2436Y8479
X2936Y11778
X2936Y12778
X2936Y13778
X8416Y18684
X9416Y18684
X10416Y18684
X11416Y18684
X12416Y18684
X17397Y9979
X17397Y8979
X18397Y8979
X18397Y9979
X18397Y7979
X18397Y6979
X18397Y5979
X18397Y4979
X18397Y3979
X18397Y2979
X17397Y2979
X17397Y3979
X17397Y4979
X17397Y5979
X17397Y6979
X17397Y7979
X10916Y4920
X9916Y4920
X9916Y3920
X9916Y2920
X10916Y2920
X10916Y3920
T03
X16859Y13353
X16859Y15353
T04
X17503Y18684
X14353Y6479
X6479Y6479
X3330Y18684
M30
