%
M48
M72
T01C0.0236
T02C0.0400
T03C0.1260
%
T01
X8054Y8645
X7660Y9235
X9826Y9629
X9826Y10416
X9826Y11204
X11204Y10416
X7660Y14156
T02
X1723Y2149
X2723Y2149
X3723Y2149
X4723Y2149
X5723Y2149
X9916Y2920
X9916Y3920
X9916Y4920
X10916Y4920
X10916Y3920
X10916Y2920
X17397Y4479
X18397Y4479
X18397Y5479
X18397Y6479
X18397Y7479
X18397Y8479
X17397Y8479
X17397Y7479
X17397Y6479
X17397Y5479
X12038Y18684
X10038Y18684
X8038Y18684
X6038Y18684
X2936Y13778
X2936Y12778
X2936Y11778
T03
X6479Y6479
X14353Y6479
X17503Y18684
X3330Y18684
M30
