%
M48
M72
T01C0.0400
T02C0.1260
%
T01
X2452Y2979
X3452Y2979
X3452Y3979
X3452Y4979
X3452Y5979
X3452Y6979
X3452Y7979
X3452Y8979
X3452Y9979
X2452Y9979
X2452Y8979
X2452Y7979
X2452Y6979
X2452Y5979
X2452Y4979
X2452Y3979
X4920Y14337
X4920Y15337
X4920Y16337
X6495Y16337
X6495Y15337
X6495Y14337
X8070Y14337
X8070Y15337
X8070Y16337
X9644Y16337
X9644Y15337
X9644Y14337
X11219Y14337
X11219Y15337
X11219Y16337
X12794Y16337
X12794Y15337
X12794Y14337
X14369Y14337
X14369Y15337
X14369Y16337
X15944Y16337
X15944Y15337
X15944Y14337
X17412Y9979
X17412Y8979
X17412Y7979
X17412Y6979
X17412Y5979
X17412Y4979
X17412Y3979
X17412Y2979
X18412Y2979
X18412Y3979
X18412Y4979
X18412Y5979
X18412Y6979
X18412Y7979
X18412Y8979
X18412Y9979
T02
X14369Y6479
X6495Y6479
X3345Y18684
X17519Y18684
M30
