G75*
G70*
%OFA0B0*%
%FSLAX24Y24*%
%IPPOS*%
%LPD*%
%AMOC8*
5,1,8,0,0,1.08239X$1,22.5*
%
%ADD10C,0.0000*%
%ADD11C,0.0040*%
%ADD12C,0.0039*%
%ADD13C,0.0060*%
%ADD14C,0.0050*%
%ADD15C,0.0030*%
%ADD16C,0.0080*%
D10*
X000574Y000574D02*
X020259Y000574D01*
X020259Y020259D01*
X000574Y020259D01*
X000574Y000574D01*
X005849Y006479D02*
X005851Y006529D01*
X005857Y006579D01*
X005867Y006628D01*
X005881Y006676D01*
X005898Y006723D01*
X005919Y006768D01*
X005944Y006812D01*
X005972Y006853D01*
X006004Y006892D01*
X006038Y006929D01*
X006075Y006963D01*
X006115Y006993D01*
X006157Y007020D01*
X006201Y007044D01*
X006247Y007065D01*
X006294Y007081D01*
X006342Y007094D01*
X006392Y007103D01*
X006441Y007108D01*
X006492Y007109D01*
X006542Y007106D01*
X006591Y007099D01*
X006640Y007088D01*
X006688Y007073D01*
X006734Y007055D01*
X006779Y007033D01*
X006822Y007007D01*
X006863Y006978D01*
X006902Y006946D01*
X006938Y006911D01*
X006970Y006873D01*
X007000Y006833D01*
X007027Y006790D01*
X007050Y006746D01*
X007069Y006700D01*
X007085Y006652D01*
X007097Y006603D01*
X007105Y006554D01*
X007109Y006504D01*
X007109Y006454D01*
X007105Y006404D01*
X007097Y006355D01*
X007085Y006306D01*
X007069Y006258D01*
X007050Y006212D01*
X007027Y006168D01*
X007000Y006125D01*
X006970Y006085D01*
X006938Y006047D01*
X006902Y006012D01*
X006863Y005980D01*
X006822Y005951D01*
X006779Y005925D01*
X006734Y005903D01*
X006688Y005885D01*
X006640Y005870D01*
X006591Y005859D01*
X006542Y005852D01*
X006492Y005849D01*
X006441Y005850D01*
X006392Y005855D01*
X006342Y005864D01*
X006294Y005877D01*
X006247Y005893D01*
X006201Y005914D01*
X006157Y005938D01*
X006115Y005965D01*
X006075Y005995D01*
X006038Y006029D01*
X006004Y006066D01*
X005972Y006105D01*
X005944Y006146D01*
X005919Y006190D01*
X005898Y006235D01*
X005881Y006282D01*
X005867Y006330D01*
X005857Y006379D01*
X005851Y006429D01*
X005849Y006479D01*
X013723Y006479D02*
X013725Y006529D01*
X013731Y006579D01*
X013741Y006628D01*
X013755Y006676D01*
X013772Y006723D01*
X013793Y006768D01*
X013818Y006812D01*
X013846Y006853D01*
X013878Y006892D01*
X013912Y006929D01*
X013949Y006963D01*
X013989Y006993D01*
X014031Y007020D01*
X014075Y007044D01*
X014121Y007065D01*
X014168Y007081D01*
X014216Y007094D01*
X014266Y007103D01*
X014315Y007108D01*
X014366Y007109D01*
X014416Y007106D01*
X014465Y007099D01*
X014514Y007088D01*
X014562Y007073D01*
X014608Y007055D01*
X014653Y007033D01*
X014696Y007007D01*
X014737Y006978D01*
X014776Y006946D01*
X014812Y006911D01*
X014844Y006873D01*
X014874Y006833D01*
X014901Y006790D01*
X014924Y006746D01*
X014943Y006700D01*
X014959Y006652D01*
X014971Y006603D01*
X014979Y006554D01*
X014983Y006504D01*
X014983Y006454D01*
X014979Y006404D01*
X014971Y006355D01*
X014959Y006306D01*
X014943Y006258D01*
X014924Y006212D01*
X014901Y006168D01*
X014874Y006125D01*
X014844Y006085D01*
X014812Y006047D01*
X014776Y006012D01*
X014737Y005980D01*
X014696Y005951D01*
X014653Y005925D01*
X014608Y005903D01*
X014562Y005885D01*
X014514Y005870D01*
X014465Y005859D01*
X014416Y005852D01*
X014366Y005849D01*
X014315Y005850D01*
X014266Y005855D01*
X014216Y005864D01*
X014168Y005877D01*
X014121Y005893D01*
X014075Y005914D01*
X014031Y005938D01*
X013989Y005965D01*
X013949Y005995D01*
X013912Y006029D01*
X013878Y006066D01*
X013846Y006105D01*
X013818Y006146D01*
X013793Y006190D01*
X013772Y006235D01*
X013755Y006282D01*
X013741Y006330D01*
X013731Y006379D01*
X013725Y006429D01*
X013723Y006479D01*
X016873Y018684D02*
X016875Y018734D01*
X016881Y018784D01*
X016891Y018833D01*
X016905Y018881D01*
X016922Y018928D01*
X016943Y018973D01*
X016968Y019017D01*
X016996Y019058D01*
X017028Y019097D01*
X017062Y019134D01*
X017099Y019168D01*
X017139Y019198D01*
X017181Y019225D01*
X017225Y019249D01*
X017271Y019270D01*
X017318Y019286D01*
X017366Y019299D01*
X017416Y019308D01*
X017465Y019313D01*
X017516Y019314D01*
X017566Y019311D01*
X017615Y019304D01*
X017664Y019293D01*
X017712Y019278D01*
X017758Y019260D01*
X017803Y019238D01*
X017846Y019212D01*
X017887Y019183D01*
X017926Y019151D01*
X017962Y019116D01*
X017994Y019078D01*
X018024Y019038D01*
X018051Y018995D01*
X018074Y018951D01*
X018093Y018905D01*
X018109Y018857D01*
X018121Y018808D01*
X018129Y018759D01*
X018133Y018709D01*
X018133Y018659D01*
X018129Y018609D01*
X018121Y018560D01*
X018109Y018511D01*
X018093Y018463D01*
X018074Y018417D01*
X018051Y018373D01*
X018024Y018330D01*
X017994Y018290D01*
X017962Y018252D01*
X017926Y018217D01*
X017887Y018185D01*
X017846Y018156D01*
X017803Y018130D01*
X017758Y018108D01*
X017712Y018090D01*
X017664Y018075D01*
X017615Y018064D01*
X017566Y018057D01*
X017516Y018054D01*
X017465Y018055D01*
X017416Y018060D01*
X017366Y018069D01*
X017318Y018082D01*
X017271Y018098D01*
X017225Y018119D01*
X017181Y018143D01*
X017139Y018170D01*
X017099Y018200D01*
X017062Y018234D01*
X017028Y018271D01*
X016996Y018310D01*
X016968Y018351D01*
X016943Y018395D01*
X016922Y018440D01*
X016905Y018487D01*
X016891Y018535D01*
X016881Y018584D01*
X016875Y018634D01*
X016873Y018684D01*
X002700Y018684D02*
X002702Y018734D01*
X002708Y018784D01*
X002718Y018833D01*
X002732Y018881D01*
X002749Y018928D01*
X002770Y018973D01*
X002795Y019017D01*
X002823Y019058D01*
X002855Y019097D01*
X002889Y019134D01*
X002926Y019168D01*
X002966Y019198D01*
X003008Y019225D01*
X003052Y019249D01*
X003098Y019270D01*
X003145Y019286D01*
X003193Y019299D01*
X003243Y019308D01*
X003292Y019313D01*
X003343Y019314D01*
X003393Y019311D01*
X003442Y019304D01*
X003491Y019293D01*
X003539Y019278D01*
X003585Y019260D01*
X003630Y019238D01*
X003673Y019212D01*
X003714Y019183D01*
X003753Y019151D01*
X003789Y019116D01*
X003821Y019078D01*
X003851Y019038D01*
X003878Y018995D01*
X003901Y018951D01*
X003920Y018905D01*
X003936Y018857D01*
X003948Y018808D01*
X003956Y018759D01*
X003960Y018709D01*
X003960Y018659D01*
X003956Y018609D01*
X003948Y018560D01*
X003936Y018511D01*
X003920Y018463D01*
X003901Y018417D01*
X003878Y018373D01*
X003851Y018330D01*
X003821Y018290D01*
X003789Y018252D01*
X003753Y018217D01*
X003714Y018185D01*
X003673Y018156D01*
X003630Y018130D01*
X003585Y018108D01*
X003539Y018090D01*
X003491Y018075D01*
X003442Y018064D01*
X003393Y018057D01*
X003343Y018054D01*
X003292Y018055D01*
X003243Y018060D01*
X003193Y018069D01*
X003145Y018082D01*
X003098Y018098D01*
X003052Y018119D01*
X003008Y018143D01*
X002966Y018170D01*
X002926Y018200D01*
X002889Y018234D01*
X002855Y018271D01*
X002823Y018310D01*
X002795Y018351D01*
X002770Y018395D01*
X002749Y018440D01*
X002732Y018487D01*
X002718Y018535D01*
X002708Y018584D01*
X002702Y018634D01*
X002700Y018684D01*
D11*
X005123Y013312D02*
X005263Y013312D01*
X005309Y013266D01*
X005309Y013172D01*
X005263Y013126D01*
X005123Y013126D01*
X005216Y013126D02*
X005309Y013032D01*
X005417Y013032D02*
X005604Y013312D01*
X005712Y013312D02*
X005899Y013312D01*
X005805Y013312D02*
X005805Y013032D01*
X005604Y013032D02*
X005417Y013312D01*
X005123Y013312D02*
X005123Y013032D01*
X005417Y012525D02*
X005557Y012525D01*
X005604Y012478D01*
X005604Y012385D01*
X005557Y012338D01*
X005417Y012338D01*
X005417Y012245D02*
X005417Y012525D01*
X005511Y012338D02*
X005604Y012245D01*
X005712Y012245D02*
X005899Y012525D01*
X005712Y012525D02*
X005899Y012245D01*
X005899Y012131D02*
X005712Y011851D01*
X005751Y011738D02*
X005751Y011457D01*
X005564Y011738D01*
X005564Y011457D01*
X005457Y011504D02*
X005457Y011597D01*
X005363Y011597D01*
X005270Y011504D02*
X005317Y011457D01*
X005410Y011457D01*
X005457Y011504D01*
X005457Y011691D02*
X005410Y011738D01*
X005317Y011738D01*
X005270Y011691D01*
X005270Y011504D01*
X005511Y011851D02*
X005511Y012131D01*
X005604Y012131D02*
X005417Y012131D01*
X005712Y012131D02*
X005899Y011851D01*
X005859Y011738D02*
X005999Y011738D01*
X006046Y011691D01*
X006046Y011504D01*
X005999Y011457D01*
X005859Y011457D01*
X005859Y011738D01*
X005899Y010556D02*
X005899Y010276D01*
X005712Y010556D01*
X005712Y010276D01*
X005604Y010323D02*
X005604Y010510D01*
X005557Y010556D01*
X005464Y010556D01*
X005417Y010510D01*
X005417Y010323D01*
X005464Y010276D01*
X005557Y010276D01*
X005604Y010323D01*
X005309Y010323D02*
X005263Y010276D01*
X005169Y010276D01*
X005123Y010323D01*
X005123Y010510D01*
X005169Y010556D01*
X005263Y010556D01*
X005309Y010510D01*
X006006Y010463D02*
X006100Y010556D01*
X006100Y010276D01*
X006193Y010276D02*
X006006Y010276D01*
X005999Y009769D02*
X005906Y009769D01*
X005859Y009722D01*
X005859Y009536D01*
X005906Y009489D01*
X005999Y009489D01*
X006046Y009536D01*
X005999Y009375D02*
X006046Y009329D01*
X006046Y009142D01*
X005999Y009095D01*
X005859Y009095D01*
X005859Y009375D01*
X005999Y009375D01*
X005751Y009375D02*
X005751Y009095D01*
X005564Y009375D01*
X005564Y009095D01*
X005457Y009142D02*
X005457Y009235D01*
X005363Y009235D01*
X005270Y009142D02*
X005270Y009329D01*
X005317Y009375D01*
X005410Y009375D01*
X005457Y009329D01*
X005363Y009489D02*
X005457Y009582D01*
X005457Y009769D01*
X005564Y009722D02*
X005564Y009536D01*
X005611Y009489D01*
X005705Y009489D01*
X005751Y009536D01*
X005751Y009722D02*
X005705Y009769D01*
X005611Y009769D01*
X005564Y009722D01*
X005270Y009769D02*
X005270Y009582D01*
X005363Y009489D01*
X005270Y009142D02*
X005317Y009095D01*
X005410Y009095D01*
X005457Y009142D01*
X005417Y008982D02*
X005604Y008701D01*
X005604Y008982D01*
X005712Y008935D02*
X005712Y008748D01*
X005759Y008701D01*
X005852Y008701D01*
X005899Y008748D01*
X005953Y008588D02*
X006046Y008495D01*
X006046Y008308D01*
X006046Y008448D02*
X005859Y008448D01*
X005859Y008495D02*
X005953Y008588D01*
X005859Y008495D02*
X005859Y008308D01*
X005859Y008194D02*
X005859Y007914D01*
X006046Y007914D01*
X005751Y007961D02*
X005705Y007914D01*
X005611Y007914D01*
X005564Y007961D01*
X005564Y008148D01*
X005611Y008194D01*
X005705Y008194D01*
X005751Y008148D01*
X005705Y008308D02*
X005751Y008354D01*
X005751Y008541D01*
X005705Y008588D01*
X005564Y008588D01*
X005564Y008308D01*
X005705Y008308D01*
X005457Y008354D02*
X005410Y008308D01*
X005317Y008308D01*
X005270Y008354D01*
X005317Y008448D02*
X005410Y008448D01*
X005457Y008401D01*
X005457Y008354D01*
X005410Y008194D02*
X005317Y008194D01*
X005270Y008148D01*
X005270Y008101D01*
X005317Y008054D01*
X005410Y008054D01*
X005457Y008007D01*
X005457Y007961D01*
X005410Y007914D01*
X005317Y007914D01*
X005270Y007961D01*
X005457Y008148D02*
X005410Y008194D01*
X005317Y008448D02*
X005270Y008495D01*
X005270Y008541D01*
X005317Y008588D01*
X005410Y008588D01*
X005457Y008541D01*
X005417Y008701D02*
X005417Y008982D01*
X005712Y008935D02*
X005759Y008982D01*
X005852Y008982D01*
X005899Y008935D01*
X006046Y009722D02*
X005999Y009769D01*
X008137Y008351D02*
X008137Y008044D01*
X008214Y007968D01*
X008368Y007968D01*
X008444Y008044D01*
X008598Y008198D02*
X008905Y008198D01*
X008828Y007968D02*
X008828Y008428D01*
X008598Y008198D01*
X008444Y008351D02*
X008368Y008428D01*
X008214Y008428D01*
X008137Y008351D01*
X006147Y005045D02*
X006053Y005045D01*
X006006Y004998D01*
X005899Y005045D02*
X005899Y004764D01*
X005712Y005045D01*
X005712Y004764D01*
X005604Y004811D02*
X005604Y004998D01*
X005557Y005045D01*
X005464Y005045D01*
X005417Y004998D01*
X005417Y004811D01*
X005464Y004764D01*
X005557Y004764D01*
X005604Y004811D01*
X005309Y004811D02*
X005263Y004764D01*
X005169Y004764D01*
X005123Y004811D01*
X005123Y004998D01*
X005169Y005045D01*
X005263Y005045D01*
X005309Y004998D01*
X006006Y004764D02*
X006193Y004951D01*
X006193Y004998D01*
X006147Y005045D01*
X006193Y004764D02*
X006006Y004764D01*
X005999Y004257D02*
X005906Y004257D01*
X005859Y004211D01*
X005859Y004024D01*
X005906Y003977D01*
X005999Y003977D01*
X006046Y004024D01*
X005999Y003864D02*
X005906Y003864D01*
X005859Y003817D01*
X005859Y003630D01*
X005906Y003583D01*
X005999Y003583D01*
X006046Y003630D01*
X005999Y003470D02*
X005859Y003470D01*
X005859Y003190D01*
X005999Y003190D01*
X006046Y003236D01*
X006046Y003423D01*
X005999Y003470D01*
X005751Y003470D02*
X005751Y003190D01*
X005564Y003470D01*
X005564Y003190D01*
X005564Y003076D02*
X005751Y002796D01*
X005751Y003076D01*
X005859Y003076D02*
X005859Y002796D01*
X005999Y002796D01*
X006046Y002843D01*
X006046Y003029D01*
X005999Y003076D01*
X005859Y003076D01*
X005564Y003076D02*
X005564Y002796D01*
X005457Y002843D02*
X005457Y002936D01*
X005363Y002936D01*
X005270Y003029D02*
X005270Y002843D01*
X005317Y002796D01*
X005410Y002796D01*
X005457Y002843D01*
X005417Y002682D02*
X005604Y002402D01*
X005604Y002682D01*
X005712Y002636D02*
X005712Y002449D01*
X005759Y002402D01*
X005852Y002402D01*
X005899Y002449D01*
X005901Y002289D02*
X005808Y002289D01*
X005761Y002242D01*
X005761Y002195D01*
X005808Y002149D01*
X005901Y002149D01*
X005948Y002102D01*
X005948Y002055D01*
X005901Y002009D01*
X005808Y002009D01*
X005761Y002055D01*
X005653Y002055D02*
X005653Y002242D01*
X005606Y002289D01*
X005513Y002289D01*
X005466Y002242D01*
X005466Y002055D01*
X005513Y002009D01*
X005606Y002009D01*
X005653Y002055D01*
X005557Y001895D02*
X005604Y001848D01*
X005557Y001895D02*
X005464Y001895D01*
X005417Y001848D01*
X005417Y001802D01*
X005464Y001755D01*
X005557Y001755D01*
X005604Y001708D01*
X005604Y001662D01*
X005557Y001615D01*
X005464Y001615D01*
X005417Y001662D01*
X005410Y001501D02*
X005457Y001455D01*
X005410Y001501D02*
X005317Y001501D01*
X005270Y001455D01*
X005270Y001408D01*
X005317Y001361D01*
X005410Y001361D01*
X005457Y001315D01*
X005457Y001268D01*
X005410Y001221D01*
X005317Y001221D01*
X005270Y001268D01*
X005564Y001268D02*
X005611Y001221D01*
X005705Y001221D01*
X005751Y001268D01*
X005859Y001315D02*
X006046Y001501D01*
X005859Y001501D02*
X005859Y001221D01*
X005906Y001361D02*
X006046Y001221D01*
X005751Y001455D02*
X005705Y001501D01*
X005611Y001501D01*
X005564Y001455D01*
X005564Y001268D01*
X005759Y001615D02*
X005712Y001662D01*
X005759Y001615D02*
X005852Y001615D01*
X005899Y001662D01*
X005899Y001708D01*
X005852Y001755D01*
X005759Y001755D01*
X005712Y001802D01*
X005712Y001848D01*
X005759Y001895D01*
X005852Y001895D01*
X005899Y001848D01*
X006056Y002009D02*
X006149Y002009D01*
X006102Y002009D02*
X006102Y002289D01*
X006056Y002289D02*
X006149Y002289D01*
X005948Y002242D02*
X005901Y002289D01*
X005899Y002636D02*
X005852Y002682D01*
X005759Y002682D01*
X005712Y002636D01*
X005417Y002682D02*
X005417Y002402D01*
X005358Y002289D02*
X005358Y002009D01*
X005172Y002009D02*
X005172Y002289D01*
X005265Y002195D01*
X005358Y002289D01*
X005270Y003029D02*
X005317Y003076D01*
X005410Y003076D01*
X005457Y003029D01*
X005410Y003190D02*
X005457Y003236D01*
X005457Y003330D01*
X005363Y003330D01*
X005270Y003423D02*
X005270Y003236D01*
X005317Y003190D01*
X005410Y003190D01*
X005457Y003423D02*
X005410Y003470D01*
X005317Y003470D01*
X005270Y003423D01*
X005363Y003583D02*
X005457Y003677D01*
X005457Y003864D01*
X005564Y003817D02*
X005564Y003630D01*
X005611Y003583D01*
X005705Y003583D01*
X005751Y003630D01*
X005751Y003817D02*
X005705Y003864D01*
X005611Y003864D01*
X005564Y003817D01*
X005611Y003977D02*
X005705Y003977D01*
X005751Y004024D01*
X005611Y003977D02*
X005564Y004024D01*
X005564Y004211D01*
X005611Y004257D01*
X005705Y004257D01*
X005751Y004211D01*
X005999Y004257D02*
X006046Y004211D01*
X005999Y003864D02*
X006046Y003817D01*
X005457Y004070D02*
X005457Y004257D01*
X005457Y004070D02*
X005363Y003977D01*
X005270Y004070D01*
X005270Y004257D01*
X005270Y003864D02*
X005270Y003677D01*
X005363Y003583D01*
X003637Y001895D02*
X003497Y001895D01*
X003497Y001615D01*
X003637Y001615D01*
X003684Y001662D01*
X003684Y001848D01*
X003637Y001895D01*
X003389Y001895D02*
X003389Y001615D01*
X003202Y001895D01*
X003202Y001615D01*
X003094Y001662D02*
X003094Y001755D01*
X003001Y001755D01*
X002908Y001848D02*
X002908Y001662D01*
X002954Y001615D01*
X003048Y001615D01*
X003094Y001662D01*
X003094Y001501D02*
X003094Y001315D01*
X003001Y001221D01*
X002908Y001315D01*
X002908Y001501D01*
X002908Y001848D02*
X002954Y001895D01*
X003048Y001895D01*
X003094Y001848D01*
X003249Y001501D02*
X003202Y001455D01*
X003202Y001268D01*
X003249Y001221D01*
X003342Y001221D01*
X003389Y001268D01*
X003497Y001268D02*
X003544Y001221D01*
X003637Y001221D01*
X003684Y001268D01*
X003684Y001455D02*
X003637Y001501D01*
X003544Y001501D01*
X003497Y001455D01*
X003497Y001268D01*
X003389Y001455D02*
X003342Y001501D01*
X003249Y001501D01*
X002289Y001431D02*
X002195Y001524D01*
X002289Y001617D01*
X002008Y001617D01*
X002008Y001725D02*
X002008Y001865D01*
X002055Y001912D01*
X002148Y001912D01*
X002195Y001865D01*
X002195Y001725D01*
X002289Y001725D02*
X002008Y001725D01*
X002195Y001819D02*
X002289Y001912D01*
X002289Y001431D02*
X002008Y001431D01*
X002055Y001323D02*
X002148Y001323D01*
X002195Y001276D01*
X002195Y001136D01*
X002289Y001136D02*
X002008Y001136D01*
X002008Y001276D01*
X002055Y001323D01*
X011681Y007968D02*
X011681Y008428D01*
X011911Y008428D01*
X011988Y008351D01*
X011988Y008198D01*
X011911Y008121D01*
X011681Y008121D01*
X011834Y008121D02*
X011988Y007968D01*
X012141Y007968D02*
X012448Y007968D01*
X012295Y007968D02*
X012295Y008428D01*
X012141Y008275D01*
X012862Y003901D02*
X013092Y003901D01*
X013169Y003824D01*
X013169Y003670D01*
X013092Y003594D01*
X012862Y003594D01*
X013015Y003594D02*
X013169Y003440D01*
X013322Y003517D02*
X013399Y003440D01*
X013552Y003440D01*
X013629Y003517D01*
X013629Y003594D01*
X013552Y003670D01*
X013476Y003670D01*
X013552Y003670D02*
X013629Y003747D01*
X013629Y003824D01*
X013552Y003901D01*
X013399Y003901D01*
X013322Y003824D01*
X012862Y003901D02*
X012862Y003440D01*
X012897Y002530D02*
X013127Y002530D01*
X013204Y002454D01*
X013204Y002300D01*
X013127Y002224D01*
X012897Y002224D01*
X013050Y002224D02*
X013204Y002070D01*
X013357Y002070D02*
X013664Y002377D01*
X013664Y002454D01*
X013587Y002530D01*
X013434Y002530D01*
X013357Y002454D01*
X013357Y002070D02*
X013664Y002070D01*
X012897Y002070D02*
X012897Y002530D01*
X012862Y001145D02*
X013092Y001145D01*
X013169Y001068D01*
X013169Y000914D01*
X013092Y000838D01*
X012862Y000838D01*
X013015Y000838D02*
X013169Y000684D01*
X013322Y000914D02*
X013629Y000914D01*
X013552Y000684D02*
X013552Y001145D01*
X013322Y000914D01*
X012862Y000684D02*
X012862Y001145D01*
X006193Y013032D02*
X006006Y013312D01*
X006193Y013312D02*
X006006Y013032D01*
X009319Y013753D02*
X009395Y013676D01*
X009549Y013676D01*
X009626Y013753D01*
X009779Y013753D02*
X009856Y013676D01*
X010009Y013676D01*
X010086Y013753D01*
X010086Y013830D01*
X010009Y013907D01*
X009932Y013907D01*
X010009Y013907D02*
X010086Y013983D01*
X010086Y014060D01*
X010009Y014137D01*
X009856Y014137D01*
X009779Y014060D01*
X009626Y014060D02*
X009549Y014137D01*
X009395Y014137D01*
X009319Y014060D01*
X009319Y013753D01*
X010576Y016432D02*
X010730Y016432D01*
X010807Y016509D01*
X010960Y016432D02*
X011267Y016739D01*
X011267Y016816D01*
X011190Y016893D01*
X011037Y016893D01*
X010960Y016816D01*
X010807Y016816D02*
X010730Y016893D01*
X010576Y016893D01*
X010500Y016816D01*
X010500Y016509D01*
X010576Y016432D01*
X010960Y016432D02*
X011267Y016432D01*
X012074Y016509D02*
X012151Y016432D01*
X012305Y016432D01*
X012381Y016509D01*
X012535Y016432D02*
X012842Y016432D01*
X012688Y016432D02*
X012688Y016893D01*
X012535Y016739D01*
X012381Y016816D02*
X012305Y016893D01*
X012151Y016893D01*
X012074Y016816D01*
X012074Y016509D01*
D12*
X006479Y013566D02*
X006479Y012778D01*
X006479Y011204D01*
X004904Y011204D01*
X004904Y012778D01*
X004904Y013566D01*
X006479Y013566D01*
X006479Y012778D02*
X004904Y012778D01*
X004904Y010810D02*
X004904Y010023D01*
X004904Y007660D01*
X006479Y007660D01*
X006479Y010023D01*
X006479Y010810D01*
X004904Y010810D01*
X004904Y010023D02*
X006479Y010023D01*
X006479Y005298D02*
X004904Y005298D01*
X004904Y004511D01*
X004904Y000967D01*
X006479Y000967D01*
X006479Y004511D01*
X006479Y005298D01*
X006479Y004511D02*
X004904Y004511D01*
X004117Y002149D02*
X002542Y002149D01*
X001755Y002149D01*
X001755Y000967D01*
X002542Y000967D01*
X004117Y000967D01*
X004117Y002149D01*
X002542Y002149D02*
X002542Y000967D01*
D13*
X002186Y003979D02*
X003686Y003979D01*
X003936Y004229D01*
X003936Y004729D01*
X003686Y004979D01*
X002186Y004979D01*
X001936Y004729D01*
X001936Y004229D01*
X002186Y003979D01*
X002186Y004979D02*
X001936Y005229D01*
X001936Y005729D01*
X002186Y005979D01*
X003686Y005979D01*
X003936Y005729D01*
X003936Y005229D01*
X003686Y004979D01*
X003686Y005979D02*
X003936Y006229D01*
X003936Y006729D01*
X003686Y006979D01*
X002186Y006979D01*
X001936Y006729D01*
X001936Y006229D01*
X002186Y005979D01*
X002186Y006979D02*
X001936Y007229D01*
X001936Y007729D01*
X002186Y007979D01*
X003686Y007979D01*
X003936Y007729D01*
X003936Y007229D01*
X003686Y006979D01*
X003686Y007979D02*
X003936Y008229D01*
X003936Y008729D01*
X003686Y008979D01*
X002186Y008979D01*
X001936Y008729D01*
X001936Y008229D01*
X002186Y007979D01*
X002686Y011278D02*
X002436Y011528D01*
X002436Y012028D01*
X002686Y012278D01*
X002436Y012528D01*
X002436Y013028D01*
X002686Y013278D01*
X002436Y013528D01*
X002436Y014028D01*
X002686Y014278D01*
X003186Y014278D01*
X003436Y014028D01*
X003436Y013528D01*
X003186Y013278D01*
X003436Y013028D01*
X003436Y012528D01*
X003186Y012278D01*
X003436Y012028D01*
X003436Y011528D01*
X003186Y011278D01*
X002686Y011278D01*
X002686Y012278D02*
X003186Y012278D01*
X003186Y013278D02*
X002686Y013278D01*
X002583Y015367D02*
X002470Y015367D01*
X002413Y015424D01*
X002470Y015538D02*
X002583Y015538D01*
X002640Y015481D01*
X002640Y015424D01*
X002583Y015367D01*
X002470Y015538D02*
X002413Y015594D01*
X002413Y015651D01*
X002470Y015708D01*
X002583Y015708D01*
X002640Y015651D01*
X002782Y015538D02*
X002838Y015594D01*
X002952Y015594D01*
X003008Y015538D01*
X003008Y015481D01*
X002782Y015481D01*
X002782Y015424D02*
X002782Y015538D01*
X002782Y015424D02*
X002838Y015367D01*
X002952Y015367D01*
X003150Y015367D02*
X003150Y015594D01*
X003150Y015481D02*
X003263Y015594D01*
X003320Y015594D01*
X003457Y015594D02*
X003570Y015367D01*
X003684Y015594D01*
X003825Y015538D02*
X003825Y015424D01*
X003882Y015367D01*
X003995Y015367D01*
X004052Y015424D01*
X004052Y015538D01*
X003995Y015594D01*
X003882Y015594D01*
X003825Y015538D01*
X004193Y015651D02*
X004193Y015424D01*
X004250Y015367D01*
X004364Y015367D01*
X004420Y015424D01*
X004562Y015424D02*
X004618Y015367D01*
X004732Y015367D01*
X004789Y015424D01*
X004789Y015538D01*
X004732Y015594D01*
X004618Y015594D01*
X004562Y015538D01*
X004562Y015424D01*
X004420Y015651D02*
X004364Y015708D01*
X004250Y015708D01*
X004193Y015651D01*
X004930Y015594D02*
X004930Y015367D01*
X005157Y015367D02*
X005157Y015538D01*
X005100Y015594D01*
X004930Y015594D01*
X005298Y015594D02*
X005412Y015594D01*
X005355Y015651D02*
X005355Y015424D01*
X005412Y015367D01*
X005544Y015367D02*
X005544Y015594D01*
X005544Y015481D02*
X005657Y015594D01*
X005714Y015594D01*
X005851Y015538D02*
X005851Y015424D01*
X005908Y015367D01*
X006021Y015367D01*
X006078Y015424D01*
X006078Y015538D01*
X006021Y015594D01*
X005908Y015594D01*
X005851Y015538D01*
X006219Y015708D02*
X006276Y015708D01*
X006276Y015367D01*
X006219Y015367D02*
X006333Y015367D01*
X006833Y015367D02*
X006833Y015708D01*
X007003Y015708D01*
X007060Y015651D01*
X007060Y015538D01*
X007003Y015481D01*
X006833Y015481D01*
X006946Y015481D02*
X007060Y015367D01*
X007201Y015367D02*
X007428Y015367D01*
X007570Y015481D02*
X007683Y015367D01*
X007796Y015481D01*
X007796Y015708D01*
X007570Y015708D02*
X007570Y015481D01*
X007315Y015538D02*
X007201Y015538D01*
X007201Y015708D02*
X007201Y015367D01*
X007201Y015708D02*
X007428Y015708D01*
X007754Y014920D02*
X007754Y014580D01*
X007754Y014694D02*
X007924Y014807D01*
X008061Y014807D02*
X008117Y014807D01*
X008117Y014580D01*
X008061Y014580D02*
X008174Y014580D01*
X008306Y014637D02*
X008363Y014580D01*
X008533Y014580D01*
X008533Y014807D01*
X008306Y014807D02*
X008306Y014637D01*
X008117Y014920D02*
X008117Y014977D01*
X007924Y014580D02*
X007754Y014694D01*
X008306Y015367D02*
X008306Y015594D01*
X008420Y015708D01*
X008533Y015594D01*
X008533Y015367D01*
X008533Y015538D02*
X008306Y015538D01*
X008166Y018184D02*
X007916Y018434D01*
X007916Y018934D01*
X008166Y019184D01*
X008666Y019184D01*
X008916Y018934D01*
X009166Y019184D01*
X009666Y019184D01*
X009916Y018934D01*
X010166Y019184D01*
X010666Y019184D01*
X010916Y018934D01*
X011166Y019184D01*
X011666Y019184D01*
X011916Y018934D01*
X012166Y019184D01*
X012666Y019184D01*
X012916Y018934D01*
X012916Y018434D01*
X012666Y018184D01*
X012166Y018184D01*
X011916Y018434D01*
X011666Y018184D01*
X011166Y018184D01*
X010916Y018434D01*
X010916Y018934D01*
X010916Y018434D02*
X010666Y018184D01*
X010166Y018184D01*
X009916Y018434D01*
X009666Y018184D01*
X009166Y018184D01*
X008916Y018434D01*
X008666Y018184D01*
X008166Y018184D01*
X008916Y018434D02*
X008916Y018934D01*
X009916Y018934D02*
X009916Y018434D01*
X011916Y018434D02*
X011916Y018934D01*
X015209Y016353D02*
X016159Y016353D01*
X016159Y015703D01*
X016159Y016353D02*
X018759Y016353D01*
X018859Y016353D01*
X018859Y012353D01*
X018759Y012353D01*
X016159Y012353D01*
X016159Y013003D01*
X016159Y012353D02*
X015209Y012353D01*
X015209Y016353D01*
X016159Y015003D02*
X016159Y013703D01*
X018029Y013353D02*
X018031Y013381D01*
X018037Y013408D01*
X018046Y013434D01*
X018059Y013459D01*
X018076Y013482D01*
X018095Y013502D01*
X018117Y013519D01*
X018141Y013533D01*
X018167Y013543D01*
X018194Y013550D01*
X018222Y013553D01*
X018250Y013552D01*
X018277Y013547D01*
X018304Y013538D01*
X018329Y013526D01*
X018352Y013511D01*
X018373Y013492D01*
X018391Y013471D01*
X018406Y013447D01*
X018417Y013421D01*
X018425Y013395D01*
X018429Y013367D01*
X018429Y013339D01*
X018425Y013311D01*
X018417Y013285D01*
X018406Y013259D01*
X018391Y013235D01*
X018373Y013214D01*
X018352Y013195D01*
X018329Y013180D01*
X018304Y013168D01*
X018277Y013159D01*
X018250Y013154D01*
X018222Y013153D01*
X018194Y013156D01*
X018167Y013163D01*
X018141Y013173D01*
X018117Y013187D01*
X018095Y013204D01*
X018076Y013224D01*
X018059Y013247D01*
X018046Y013272D01*
X018037Y013298D01*
X018031Y013325D01*
X018029Y013353D01*
X018759Y012353D02*
X018759Y016353D01*
X018029Y015353D02*
X018031Y015381D01*
X018037Y015408D01*
X018046Y015434D01*
X018059Y015459D01*
X018076Y015482D01*
X018095Y015502D01*
X018117Y015519D01*
X018141Y015533D01*
X018167Y015543D01*
X018194Y015550D01*
X018222Y015553D01*
X018250Y015552D01*
X018277Y015547D01*
X018304Y015538D01*
X018329Y015526D01*
X018352Y015511D01*
X018373Y015492D01*
X018391Y015471D01*
X018406Y015447D01*
X018417Y015421D01*
X018425Y015395D01*
X018429Y015367D01*
X018429Y015339D01*
X018425Y015311D01*
X018417Y015285D01*
X018406Y015259D01*
X018391Y015235D01*
X018373Y015214D01*
X018352Y015195D01*
X018329Y015180D01*
X018304Y015168D01*
X018277Y015159D01*
X018250Y015154D01*
X018222Y015153D01*
X018194Y015156D01*
X018167Y015163D01*
X018141Y015173D01*
X018117Y015187D01*
X018095Y015204D01*
X018076Y015224D01*
X018059Y015247D01*
X018046Y015272D01*
X018037Y015298D01*
X018031Y015325D01*
X018029Y015353D01*
X018647Y010479D02*
X017147Y010479D01*
X016897Y010229D01*
X016897Y009729D01*
X017147Y009479D01*
X018647Y009479D01*
X018897Y009729D01*
X018897Y010229D01*
X018647Y010479D01*
X018647Y009479D02*
X018897Y009229D01*
X018897Y008729D01*
X018647Y008479D01*
X017147Y008479D01*
X016897Y008729D01*
X016897Y009229D01*
X017147Y009479D01*
X017147Y008479D02*
X016897Y008229D01*
X016897Y007729D01*
X017147Y007479D01*
X018647Y007479D01*
X018897Y007729D01*
X018897Y008229D01*
X018647Y008479D01*
X018647Y007479D02*
X018897Y007229D01*
X018897Y006729D01*
X018647Y006479D01*
X017147Y006479D01*
X016897Y006729D01*
X016897Y007229D01*
X017147Y007479D01*
X017147Y006479D02*
X016897Y006229D01*
X016897Y005729D01*
X017147Y005479D01*
X018647Y005479D01*
X018897Y005729D01*
X018897Y006229D01*
X018647Y006479D01*
X018647Y005479D02*
X018897Y005229D01*
X018897Y004729D01*
X018647Y004479D01*
X017147Y004479D01*
X016897Y004729D01*
X016897Y005229D01*
X017147Y005479D01*
X017147Y004479D02*
X016897Y004229D01*
X016897Y003729D01*
X017147Y003479D01*
X018647Y003479D01*
X018897Y003729D01*
X018897Y004229D01*
X018647Y004479D01*
X018647Y003479D02*
X018897Y003229D01*
X018897Y002729D01*
X018647Y002479D01*
X017147Y002479D01*
X016897Y002729D01*
X016897Y003229D01*
X017147Y003479D01*
X011796Y009036D02*
X009176Y009036D01*
X009036Y009176D01*
X009036Y011796D01*
X011796Y011796D01*
X011796Y009036D01*
X009195Y009336D02*
X009197Y009359D01*
X009203Y009382D01*
X009212Y009403D01*
X009225Y009423D01*
X009241Y009440D01*
X009259Y009454D01*
X009279Y009465D01*
X009301Y009473D01*
X009324Y009477D01*
X009348Y009477D01*
X009371Y009473D01*
X009393Y009465D01*
X009413Y009454D01*
X009431Y009440D01*
X009447Y009423D01*
X009460Y009403D01*
X009469Y009382D01*
X009475Y009359D01*
X009477Y009336D01*
X009475Y009313D01*
X009469Y009290D01*
X009460Y009269D01*
X009447Y009249D01*
X009431Y009232D01*
X009413Y009218D01*
X009393Y009207D01*
X009371Y009199D01*
X009348Y009195D01*
X009324Y009195D01*
X009301Y009199D01*
X009279Y009207D01*
X009259Y009218D01*
X009241Y009232D01*
X009225Y009249D01*
X009212Y009269D01*
X009203Y009290D01*
X009197Y009313D01*
X009195Y009336D01*
X009666Y005420D02*
X011166Y005420D01*
X011416Y005170D01*
X011416Y004670D01*
X011166Y004420D01*
X009666Y004420D01*
X009416Y004670D01*
X009416Y005170D01*
X009666Y005420D01*
X009666Y004420D02*
X009416Y004170D01*
X009416Y003670D01*
X009666Y003420D01*
X011166Y003420D01*
X011416Y003670D01*
X011416Y004170D01*
X011166Y004420D01*
X011166Y003420D02*
X011416Y003170D01*
X011416Y002670D01*
X011166Y002420D01*
X009666Y002420D01*
X009416Y002670D01*
X009416Y003170D01*
X009666Y003420D01*
D14*
X008423Y003551D02*
X008423Y003702D01*
X008423Y003627D02*
X007972Y003627D01*
X007972Y003702D02*
X007972Y003551D01*
X008047Y003858D02*
X008122Y003858D01*
X008198Y003933D01*
X008198Y004084D01*
X008273Y004159D01*
X008348Y004159D01*
X008423Y004084D01*
X008423Y003933D01*
X008348Y003858D01*
X008047Y003858D02*
X007972Y003933D01*
X007972Y004084D01*
X008047Y004159D01*
X007972Y004319D02*
X007972Y004544D01*
X008047Y004619D01*
X008198Y004619D01*
X008273Y004544D01*
X008273Y004319D01*
X008423Y004319D02*
X007972Y004319D01*
X003785Y009351D02*
X003485Y009351D01*
X003635Y009351D02*
X003635Y009801D01*
X003485Y009651D01*
X003325Y009801D02*
X003325Y009351D01*
X003024Y009801D01*
X003024Y009351D01*
X002864Y009426D02*
X002864Y009726D01*
X002789Y009801D01*
X002639Y009801D01*
X002564Y009726D01*
X002564Y009426D01*
X002639Y009351D01*
X002789Y009351D01*
X002864Y009426D01*
X002404Y009426D02*
X002329Y009351D01*
X002179Y009351D01*
X002104Y009426D01*
X002104Y009726D01*
X002179Y009801D01*
X002329Y009801D01*
X002404Y009726D01*
X003681Y012492D02*
X003681Y012717D01*
X003756Y012792D01*
X003906Y012792D01*
X003981Y012717D01*
X003981Y012492D01*
X004131Y012492D02*
X003681Y012492D01*
X003981Y012642D02*
X004131Y012792D01*
X004131Y012952D02*
X003681Y013253D01*
X003681Y013413D02*
X003681Y013713D01*
X003681Y013563D02*
X004131Y013563D01*
X004131Y013873D02*
X003681Y014173D01*
X003681Y013873D02*
X004131Y014173D01*
X004131Y013253D02*
X003681Y012952D01*
X011130Y017489D02*
X011130Y017939D01*
X011280Y017789D01*
X011430Y017939D01*
X011430Y017489D01*
X011590Y017564D02*
X011665Y017489D01*
X011815Y017489D01*
X011890Y017564D01*
X011890Y017864D01*
X011815Y017939D01*
X011665Y017939D01*
X011590Y017864D01*
X011590Y017564D01*
X012050Y017489D02*
X012050Y017939D01*
X012276Y017939D01*
X012351Y017864D01*
X012351Y017564D01*
X012276Y017489D01*
X012050Y017489D01*
X012511Y017489D02*
X012511Y017939D01*
X012811Y017939D01*
X012661Y017714D02*
X012511Y017714D01*
X012511Y017489D02*
X012811Y017489D01*
X015434Y015643D02*
X015434Y015418D01*
X015884Y015418D01*
X015734Y015418D02*
X015734Y015643D01*
X015659Y015718D01*
X015509Y015718D01*
X015434Y015643D01*
X015734Y015568D02*
X015884Y015718D01*
X015884Y015258D02*
X015434Y015258D01*
X015734Y015108D02*
X015884Y015258D01*
X015734Y015108D02*
X015884Y014957D01*
X015434Y014957D01*
X015509Y014797D02*
X015659Y014797D01*
X015734Y014722D01*
X015734Y014497D01*
X015884Y014497D02*
X015434Y014497D01*
X015434Y014722D01*
X015509Y014797D01*
X017012Y011285D02*
X016937Y011210D01*
X016937Y010910D01*
X017012Y010835D01*
X017162Y010835D01*
X017238Y010910D01*
X017398Y010910D02*
X017398Y011210D01*
X017473Y011285D01*
X017623Y011285D01*
X017698Y011210D01*
X017698Y010910D01*
X017623Y010835D01*
X017473Y010835D01*
X017398Y010910D01*
X017238Y011210D02*
X017162Y011285D01*
X017012Y011285D01*
X017858Y011285D02*
X017858Y010835D01*
X018158Y010835D02*
X017858Y011285D01*
X018158Y011285D02*
X018158Y010835D01*
X018318Y010835D02*
X018619Y011135D01*
X018619Y011210D01*
X018544Y011285D01*
X018394Y011285D01*
X018318Y011210D01*
X018318Y010835D02*
X018619Y010835D01*
D15*
X008401Y010026D02*
X008401Y009832D01*
X008208Y010026D01*
X008159Y010026D01*
X008111Y009977D01*
X008111Y009881D01*
X008159Y009832D01*
X008159Y009731D02*
X008111Y009683D01*
X008111Y009586D01*
X008159Y009538D01*
X008353Y009538D01*
X008401Y009586D01*
X008401Y009683D01*
X008353Y009731D01*
X008401Y009438D02*
X008401Y009341D01*
X008401Y009390D02*
X008111Y009390D01*
X008111Y009438D02*
X008111Y009341D01*
D16*
X012877Y014097D02*
X012523Y014452D01*
X012523Y016184D01*
X013133Y016184D01*
X013999Y016184D02*
X014609Y016184D01*
X014609Y014452D01*
X014255Y014097D01*
X013999Y014097D01*
X013133Y014097D02*
X012877Y014097D01*
X013940Y014275D02*
X013995Y014301D01*
X014048Y014331D01*
X014100Y014364D01*
X014149Y014400D01*
X014195Y014439D01*
X014239Y014481D01*
X014281Y014526D01*
X014319Y014573D01*
X014354Y014623D01*
X014386Y014675D01*
X014414Y014729D01*
X014439Y014784D01*
X014460Y014842D01*
X014478Y014900D01*
X014491Y014959D01*
X014501Y015019D01*
X014507Y015080D01*
X014509Y015141D01*
X014507Y015202D01*
X014501Y015263D01*
X014491Y015323D01*
X014478Y015382D01*
X014460Y015440D01*
X014439Y015498D01*
X014414Y015553D01*
X014386Y015607D01*
X014354Y015659D01*
X014319Y015709D01*
X014281Y015756D01*
X014239Y015801D01*
X014195Y015843D01*
X014149Y015882D01*
X014100Y015918D01*
X014048Y015951D01*
X013995Y015981D01*
X013940Y016007D01*
X013192Y016007D02*
X013137Y015981D01*
X013084Y015951D01*
X013032Y015918D01*
X012983Y015882D01*
X012937Y015843D01*
X012893Y015801D01*
X012851Y015756D01*
X012813Y015709D01*
X012778Y015659D01*
X012746Y015607D01*
X012718Y015553D01*
X012693Y015498D01*
X012672Y015440D01*
X012654Y015382D01*
X012641Y015323D01*
X012631Y015263D01*
X012625Y015202D01*
X012623Y015141D01*
X012625Y015080D01*
X012631Y015019D01*
X012641Y014959D01*
X012654Y014900D01*
X012672Y014842D01*
X012693Y014784D01*
X012718Y014729D01*
X012746Y014675D01*
X012778Y014623D01*
X012813Y014573D01*
X012851Y014526D01*
X012893Y014481D01*
X012937Y014439D01*
X012983Y014400D01*
X013032Y014364D01*
X013084Y014331D01*
X013137Y014301D01*
X013192Y014275D01*
M02*
