G75*
G70*
%OFA0B0*%
%FSLAX24Y24*%
%IPPOS*%
%LPD*%
%AMOC8*
5,1,8,0,0,1.08239X$1,22.5*
%
%ADD10C,0.0000*%
%ADD11C,0.0060*%
%ADD12C,0.0040*%
%ADD13C,0.0039*%
%ADD14C,0.0050*%
%ADD15C,0.0020*%
%ADD16C,0.0080*%
D10*
X000589Y000574D02*
X000589Y020259D01*
X020274Y020259D01*
X020274Y000574D01*
X000589Y000574D01*
X005865Y006479D02*
X005867Y006529D01*
X005873Y006579D01*
X005883Y006628D01*
X005897Y006676D01*
X005914Y006723D01*
X005935Y006768D01*
X005960Y006812D01*
X005988Y006853D01*
X006020Y006892D01*
X006054Y006929D01*
X006091Y006963D01*
X006131Y006993D01*
X006173Y007020D01*
X006217Y007044D01*
X006263Y007065D01*
X006310Y007081D01*
X006358Y007094D01*
X006408Y007103D01*
X006457Y007108D01*
X006508Y007109D01*
X006558Y007106D01*
X006607Y007099D01*
X006656Y007088D01*
X006704Y007073D01*
X006750Y007055D01*
X006795Y007033D01*
X006838Y007007D01*
X006879Y006978D01*
X006918Y006946D01*
X006954Y006911D01*
X006986Y006873D01*
X007016Y006833D01*
X007043Y006790D01*
X007066Y006746D01*
X007085Y006700D01*
X007101Y006652D01*
X007113Y006603D01*
X007121Y006554D01*
X007125Y006504D01*
X007125Y006454D01*
X007121Y006404D01*
X007113Y006355D01*
X007101Y006306D01*
X007085Y006258D01*
X007066Y006212D01*
X007043Y006168D01*
X007016Y006125D01*
X006986Y006085D01*
X006954Y006047D01*
X006918Y006012D01*
X006879Y005980D01*
X006838Y005951D01*
X006795Y005925D01*
X006750Y005903D01*
X006704Y005885D01*
X006656Y005870D01*
X006607Y005859D01*
X006558Y005852D01*
X006508Y005849D01*
X006457Y005850D01*
X006408Y005855D01*
X006358Y005864D01*
X006310Y005877D01*
X006263Y005893D01*
X006217Y005914D01*
X006173Y005938D01*
X006131Y005965D01*
X006091Y005995D01*
X006054Y006029D01*
X006020Y006066D01*
X005988Y006105D01*
X005960Y006146D01*
X005935Y006190D01*
X005914Y006235D01*
X005897Y006282D01*
X005883Y006330D01*
X005873Y006379D01*
X005867Y006429D01*
X005865Y006479D01*
X013739Y006479D02*
X013741Y006529D01*
X013747Y006579D01*
X013757Y006628D01*
X013771Y006676D01*
X013788Y006723D01*
X013809Y006768D01*
X013834Y006812D01*
X013862Y006853D01*
X013894Y006892D01*
X013928Y006929D01*
X013965Y006963D01*
X014005Y006993D01*
X014047Y007020D01*
X014091Y007044D01*
X014137Y007065D01*
X014184Y007081D01*
X014232Y007094D01*
X014282Y007103D01*
X014331Y007108D01*
X014382Y007109D01*
X014432Y007106D01*
X014481Y007099D01*
X014530Y007088D01*
X014578Y007073D01*
X014624Y007055D01*
X014669Y007033D01*
X014712Y007007D01*
X014753Y006978D01*
X014792Y006946D01*
X014828Y006911D01*
X014860Y006873D01*
X014890Y006833D01*
X014917Y006790D01*
X014940Y006746D01*
X014959Y006700D01*
X014975Y006652D01*
X014987Y006603D01*
X014995Y006554D01*
X014999Y006504D01*
X014999Y006454D01*
X014995Y006404D01*
X014987Y006355D01*
X014975Y006306D01*
X014959Y006258D01*
X014940Y006212D01*
X014917Y006168D01*
X014890Y006125D01*
X014860Y006085D01*
X014828Y006047D01*
X014792Y006012D01*
X014753Y005980D01*
X014712Y005951D01*
X014669Y005925D01*
X014624Y005903D01*
X014578Y005885D01*
X014530Y005870D01*
X014481Y005859D01*
X014432Y005852D01*
X014382Y005849D01*
X014331Y005850D01*
X014282Y005855D01*
X014232Y005864D01*
X014184Y005877D01*
X014137Y005893D01*
X014091Y005914D01*
X014047Y005938D01*
X014005Y005965D01*
X013965Y005995D01*
X013928Y006029D01*
X013894Y006066D01*
X013862Y006105D01*
X013834Y006146D01*
X013809Y006190D01*
X013788Y006235D01*
X013771Y006282D01*
X013757Y006330D01*
X013747Y006379D01*
X013741Y006429D01*
X013739Y006479D01*
X016889Y018684D02*
X016891Y018734D01*
X016897Y018784D01*
X016907Y018833D01*
X016921Y018881D01*
X016938Y018928D01*
X016959Y018973D01*
X016984Y019017D01*
X017012Y019058D01*
X017044Y019097D01*
X017078Y019134D01*
X017115Y019168D01*
X017155Y019198D01*
X017197Y019225D01*
X017241Y019249D01*
X017287Y019270D01*
X017334Y019286D01*
X017382Y019299D01*
X017432Y019308D01*
X017481Y019313D01*
X017532Y019314D01*
X017582Y019311D01*
X017631Y019304D01*
X017680Y019293D01*
X017728Y019278D01*
X017774Y019260D01*
X017819Y019238D01*
X017862Y019212D01*
X017903Y019183D01*
X017942Y019151D01*
X017978Y019116D01*
X018010Y019078D01*
X018040Y019038D01*
X018067Y018995D01*
X018090Y018951D01*
X018109Y018905D01*
X018125Y018857D01*
X018137Y018808D01*
X018145Y018759D01*
X018149Y018709D01*
X018149Y018659D01*
X018145Y018609D01*
X018137Y018560D01*
X018125Y018511D01*
X018109Y018463D01*
X018090Y018417D01*
X018067Y018373D01*
X018040Y018330D01*
X018010Y018290D01*
X017978Y018252D01*
X017942Y018217D01*
X017903Y018185D01*
X017862Y018156D01*
X017819Y018130D01*
X017774Y018108D01*
X017728Y018090D01*
X017680Y018075D01*
X017631Y018064D01*
X017582Y018057D01*
X017532Y018054D01*
X017481Y018055D01*
X017432Y018060D01*
X017382Y018069D01*
X017334Y018082D01*
X017287Y018098D01*
X017241Y018119D01*
X017197Y018143D01*
X017155Y018170D01*
X017115Y018200D01*
X017078Y018234D01*
X017044Y018271D01*
X017012Y018310D01*
X016984Y018351D01*
X016959Y018395D01*
X016938Y018440D01*
X016921Y018487D01*
X016907Y018535D01*
X016897Y018584D01*
X016891Y018634D01*
X016889Y018684D01*
X002715Y018684D02*
X002717Y018734D01*
X002723Y018784D01*
X002733Y018833D01*
X002747Y018881D01*
X002764Y018928D01*
X002785Y018973D01*
X002810Y019017D01*
X002838Y019058D01*
X002870Y019097D01*
X002904Y019134D01*
X002941Y019168D01*
X002981Y019198D01*
X003023Y019225D01*
X003067Y019249D01*
X003113Y019270D01*
X003160Y019286D01*
X003208Y019299D01*
X003258Y019308D01*
X003307Y019313D01*
X003358Y019314D01*
X003408Y019311D01*
X003457Y019304D01*
X003506Y019293D01*
X003554Y019278D01*
X003600Y019260D01*
X003645Y019238D01*
X003688Y019212D01*
X003729Y019183D01*
X003768Y019151D01*
X003804Y019116D01*
X003836Y019078D01*
X003866Y019038D01*
X003893Y018995D01*
X003916Y018951D01*
X003935Y018905D01*
X003951Y018857D01*
X003963Y018808D01*
X003971Y018759D01*
X003975Y018709D01*
X003975Y018659D01*
X003971Y018609D01*
X003963Y018560D01*
X003951Y018511D01*
X003935Y018463D01*
X003916Y018417D01*
X003893Y018373D01*
X003866Y018330D01*
X003836Y018290D01*
X003804Y018252D01*
X003768Y018217D01*
X003729Y018185D01*
X003688Y018156D01*
X003645Y018130D01*
X003600Y018108D01*
X003554Y018090D01*
X003506Y018075D01*
X003457Y018064D01*
X003408Y018057D01*
X003358Y018054D01*
X003307Y018055D01*
X003258Y018060D01*
X003208Y018069D01*
X003160Y018082D01*
X003113Y018098D01*
X003067Y018119D01*
X003023Y018143D01*
X002981Y018170D01*
X002941Y018200D01*
X002904Y018234D01*
X002870Y018271D01*
X002838Y018310D01*
X002810Y018351D01*
X002785Y018395D01*
X002764Y018440D01*
X002747Y018487D01*
X002733Y018535D01*
X002723Y018584D01*
X002717Y018634D01*
X002715Y018684D01*
D11*
X004670Y016837D02*
X004420Y016587D01*
X004420Y016087D01*
X004670Y015837D01*
X004420Y015587D01*
X004420Y015087D01*
X004670Y014837D01*
X004420Y014587D01*
X004420Y014087D01*
X004670Y013837D01*
X005170Y013837D01*
X005420Y014087D01*
X005420Y014587D01*
X005170Y014837D01*
X004670Y014837D01*
X005170Y014837D02*
X005420Y015087D01*
X005420Y015587D01*
X005170Y015837D01*
X004670Y015837D01*
X005170Y015837D02*
X005420Y016087D01*
X005420Y016587D01*
X005170Y016837D01*
X004670Y016837D01*
X005995Y016587D02*
X005995Y016087D01*
X006245Y015837D01*
X005995Y015587D01*
X005995Y015087D01*
X006245Y014837D01*
X005995Y014587D01*
X005995Y014087D01*
X006245Y013837D01*
X006745Y013837D01*
X006995Y014087D01*
X006995Y014587D01*
X006745Y014837D01*
X006245Y014837D01*
X006745Y014837D02*
X006995Y015087D01*
X006995Y015587D01*
X006745Y015837D01*
X006245Y015837D01*
X006745Y015837D02*
X006995Y016087D01*
X006995Y016587D01*
X006745Y016837D01*
X006245Y016837D01*
X005995Y016587D01*
X007570Y016587D02*
X007570Y016087D01*
X007820Y015837D01*
X007570Y015587D01*
X007570Y015087D01*
X007820Y014837D01*
X007570Y014587D01*
X007570Y014087D01*
X007820Y013837D01*
X008320Y013837D01*
X008570Y014087D01*
X008570Y014587D01*
X008320Y014837D01*
X007820Y014837D01*
X008320Y014837D02*
X008570Y015087D01*
X008570Y015587D01*
X008320Y015837D01*
X007820Y015837D01*
X008320Y015837D02*
X008570Y016087D01*
X008570Y016587D01*
X008320Y016837D01*
X007820Y016837D01*
X007570Y016587D01*
X009144Y016587D02*
X009144Y016087D01*
X009394Y015837D01*
X009144Y015587D01*
X009144Y015087D01*
X009394Y014837D01*
X009144Y014587D01*
X009144Y014087D01*
X009394Y013837D01*
X009894Y013837D01*
X010144Y014087D01*
X010144Y014587D01*
X009894Y014837D01*
X009394Y014837D01*
X009894Y014837D02*
X010144Y015087D01*
X010144Y015587D01*
X009894Y015837D01*
X009394Y015837D01*
X009894Y015837D02*
X010144Y016087D01*
X010144Y016587D01*
X009894Y016837D01*
X009394Y016837D01*
X009144Y016587D01*
X010719Y016587D02*
X010719Y016087D01*
X010969Y015837D01*
X010719Y015587D01*
X010719Y015087D01*
X010969Y014837D01*
X010719Y014587D01*
X010719Y014087D01*
X010969Y013837D01*
X011469Y013837D01*
X011719Y014087D01*
X011719Y014587D01*
X011469Y014837D01*
X010969Y014837D01*
X011469Y014837D02*
X011719Y015087D01*
X011719Y015587D01*
X011469Y015837D01*
X010969Y015837D01*
X011469Y015837D02*
X011719Y016087D01*
X011719Y016587D01*
X011469Y016837D01*
X010969Y016837D01*
X010719Y016587D01*
X012294Y016587D02*
X012294Y016087D01*
X012544Y015837D01*
X012294Y015587D01*
X012294Y015087D01*
X012544Y014837D01*
X012294Y014587D01*
X012294Y014087D01*
X012544Y013837D01*
X013044Y013837D01*
X013294Y014087D01*
X013294Y014587D01*
X013044Y014837D01*
X012544Y014837D01*
X013044Y014837D02*
X013294Y015087D01*
X013294Y015587D01*
X013044Y015837D01*
X012544Y015837D01*
X013044Y015837D02*
X013294Y016087D01*
X013294Y016587D01*
X013044Y016837D01*
X012544Y016837D01*
X012294Y016587D01*
X013869Y016587D02*
X013869Y016087D01*
X014119Y015837D01*
X013869Y015587D01*
X013869Y015087D01*
X014119Y014837D01*
X013869Y014587D01*
X013869Y014087D01*
X014119Y013837D01*
X014619Y013837D01*
X014869Y014087D01*
X014869Y014587D01*
X014619Y014837D01*
X014119Y014837D01*
X014619Y014837D02*
X014869Y015087D01*
X014869Y015587D01*
X014619Y015837D01*
X014119Y015837D01*
X014619Y015837D02*
X014869Y016087D01*
X014869Y016587D01*
X014619Y016837D01*
X014119Y016837D01*
X013869Y016587D01*
X015444Y016587D02*
X015444Y016087D01*
X015694Y015837D01*
X015444Y015587D01*
X015444Y015087D01*
X015694Y014837D01*
X015444Y014587D01*
X015444Y014087D01*
X015694Y013837D01*
X016194Y013837D01*
X016444Y014087D01*
X016444Y014587D01*
X016194Y014837D01*
X015694Y014837D01*
X016194Y014837D02*
X016444Y015087D01*
X016444Y015587D01*
X016194Y015837D01*
X015694Y015837D01*
X016194Y015837D02*
X016444Y016087D01*
X016444Y016587D01*
X016194Y016837D01*
X015694Y016837D01*
X015444Y016587D01*
X017162Y010479D02*
X018662Y010479D01*
X018912Y010229D01*
X018912Y009729D01*
X018662Y009479D01*
X017162Y009479D01*
X016912Y009229D01*
X016912Y008729D01*
X017162Y008479D01*
X018662Y008479D01*
X018912Y008229D01*
X018912Y007729D01*
X018662Y007479D01*
X017162Y007479D01*
X016912Y007229D01*
X016912Y006729D01*
X017162Y006479D01*
X018662Y006479D01*
X018912Y006229D01*
X018912Y005729D01*
X018662Y005479D01*
X017162Y005479D01*
X016912Y005229D01*
X016912Y004729D01*
X017162Y004479D01*
X018662Y004479D01*
X018912Y004229D01*
X018912Y003729D01*
X018662Y003479D01*
X018912Y003229D01*
X018912Y002729D01*
X018662Y002479D01*
X017162Y002479D01*
X016912Y002729D01*
X016912Y003229D01*
X017162Y003479D01*
X018662Y003479D01*
X018662Y004479D02*
X018912Y004729D01*
X018912Y005229D01*
X018662Y005479D01*
X018662Y006479D02*
X018912Y006729D01*
X018912Y007229D01*
X018662Y007479D01*
X018662Y008479D02*
X018912Y008729D01*
X018912Y009229D01*
X018662Y009479D01*
X017162Y009479D02*
X016912Y009729D01*
X016912Y010229D01*
X017162Y010479D01*
X017162Y008479D02*
X016912Y008229D01*
X016912Y007729D01*
X017162Y007479D01*
X017162Y006479D02*
X016912Y006229D01*
X016912Y005729D01*
X017162Y005479D01*
X017162Y004479D02*
X016912Y004229D01*
X016912Y003729D01*
X017162Y003479D01*
X016113Y002125D02*
X016226Y002012D01*
X016226Y001785D01*
X016226Y001955D02*
X015999Y001955D01*
X015999Y002012D02*
X016113Y002125D01*
X015999Y002012D02*
X015999Y001785D01*
X015810Y001394D02*
X015810Y001338D01*
X015810Y001224D02*
X015810Y000997D01*
X015754Y000997D02*
X015867Y000997D01*
X015999Y001054D02*
X016056Y000997D01*
X016226Y000997D01*
X016226Y001224D01*
X015999Y001224D02*
X015999Y001054D01*
X015810Y001224D02*
X015754Y001224D01*
X015617Y001224D02*
X015447Y001111D01*
X015617Y000997D01*
X015447Y000997D02*
X015447Y001338D01*
X015376Y001785D02*
X015489Y001898D01*
X015489Y002125D01*
X015262Y002125D02*
X015262Y001898D01*
X015376Y001785D01*
X015121Y001785D02*
X014894Y001785D01*
X014894Y002125D01*
X015121Y002125D01*
X015008Y001955D02*
X014894Y001955D01*
X014753Y001955D02*
X014696Y001898D01*
X014526Y001898D01*
X014526Y001785D02*
X014526Y002125D01*
X014696Y002125D01*
X014753Y002068D01*
X014753Y001955D01*
X014639Y001898D02*
X014753Y001785D01*
X014021Y002012D02*
X013964Y002012D01*
X013851Y001898D01*
X013851Y001785D02*
X013851Y002012D01*
X013709Y001955D02*
X013709Y001898D01*
X013482Y001898D01*
X013482Y001842D02*
X013482Y001955D01*
X013539Y002012D01*
X013652Y002012D01*
X013709Y001955D01*
X013652Y001785D02*
X013539Y001785D01*
X013482Y001842D01*
X013350Y001785D02*
X013293Y001842D01*
X013293Y002068D01*
X013237Y002012D02*
X013350Y002012D01*
X013105Y001955D02*
X012991Y001955D01*
X013048Y002068D02*
X013105Y002125D01*
X013048Y002068D02*
X013048Y001785D01*
X012859Y001785D02*
X012746Y001785D01*
X012802Y001785D02*
X012802Y002012D01*
X012746Y002012D01*
X012802Y002125D02*
X012802Y002182D01*
X012604Y001955D02*
X012604Y001785D01*
X012604Y001955D02*
X012547Y002012D01*
X012434Y002012D01*
X012377Y001955D01*
X012236Y001898D02*
X012236Y001842D01*
X012179Y001785D01*
X012066Y001785D01*
X012009Y001842D01*
X012066Y001955D02*
X012179Y001955D01*
X012236Y001898D01*
X012236Y002068D02*
X012179Y002125D01*
X012066Y002125D01*
X012009Y002068D01*
X012009Y002012D01*
X012066Y001955D01*
X011868Y001955D02*
X011868Y001842D01*
X011811Y001785D01*
X011697Y001785D01*
X011641Y001842D01*
X011641Y001955D01*
X011697Y002012D01*
X011811Y002012D01*
X011868Y001955D01*
X011499Y002012D02*
X011386Y001785D01*
X011272Y002012D01*
X011136Y002012D02*
X011079Y002012D01*
X010965Y001898D01*
X010965Y001785D02*
X010965Y002012D01*
X010824Y001955D02*
X010824Y001898D01*
X010597Y001898D01*
X010597Y001842D02*
X010597Y001955D01*
X010654Y002012D01*
X010767Y002012D01*
X010824Y001955D01*
X010767Y001785D02*
X010654Y001785D01*
X010597Y001842D01*
X010456Y001842D02*
X010399Y001785D01*
X010286Y001785D01*
X010229Y001842D01*
X010286Y001955D02*
X010399Y001955D01*
X010456Y001898D01*
X010456Y001842D01*
X010286Y001955D02*
X010229Y002012D01*
X010229Y002068D01*
X010286Y002125D01*
X010399Y002125D01*
X010456Y002068D01*
X012377Y002125D02*
X012377Y001785D01*
X012432Y009009D02*
X012432Y009429D01*
X012432Y009829D01*
X012432Y010249D01*
X012430Y010272D01*
X012425Y010295D01*
X012416Y010317D01*
X012403Y010337D01*
X012388Y010355D01*
X012370Y010370D01*
X012350Y010383D01*
X012328Y010392D01*
X012305Y010397D01*
X012282Y010399D01*
X012432Y009829D02*
X012405Y009827D01*
X012378Y009822D01*
X012352Y009812D01*
X012328Y009800D01*
X012306Y009784D01*
X012286Y009766D01*
X012269Y009744D01*
X012254Y009721D01*
X012244Y009696D01*
X012236Y009670D01*
X012232Y009643D01*
X012232Y009615D01*
X012236Y009588D01*
X012244Y009562D01*
X012254Y009537D01*
X012269Y009514D01*
X012286Y009492D01*
X012306Y009474D01*
X012328Y009458D01*
X012352Y009446D01*
X012378Y009436D01*
X012405Y009431D01*
X012432Y009429D01*
X012432Y009009D02*
X012430Y008986D01*
X012425Y008963D01*
X012416Y008941D01*
X012403Y008921D01*
X012388Y008903D01*
X012370Y008888D01*
X012350Y008875D01*
X012328Y008866D01*
X012305Y008861D01*
X012282Y008859D01*
X008582Y008859D02*
X008559Y008861D01*
X008536Y008866D01*
X008514Y008875D01*
X008494Y008888D01*
X008476Y008903D01*
X008461Y008921D01*
X008448Y008941D01*
X008439Y008963D01*
X008434Y008986D01*
X008432Y009009D01*
X008432Y010249D01*
X008434Y010272D01*
X008439Y010295D01*
X008448Y010317D01*
X008461Y010337D01*
X008476Y010355D01*
X008494Y010370D01*
X008514Y010383D01*
X008536Y010392D01*
X008559Y010397D01*
X008582Y010399D01*
X003952Y010229D02*
X003952Y009729D01*
X003702Y009479D01*
X002202Y009479D01*
X001952Y009729D01*
X001952Y010229D01*
X002202Y010479D01*
X003702Y010479D01*
X003952Y010229D01*
X003702Y009479D02*
X003952Y009229D01*
X003952Y008729D01*
X003702Y008479D01*
X002202Y008479D01*
X001952Y008729D01*
X001952Y009229D01*
X002202Y009479D01*
X002202Y008479D02*
X001952Y008229D01*
X001952Y007729D01*
X002202Y007479D01*
X003702Y007479D01*
X003952Y007729D01*
X003952Y008229D01*
X003702Y008479D01*
X003702Y007479D02*
X003952Y007229D01*
X003952Y006729D01*
X003702Y006479D01*
X002202Y006479D01*
X001952Y006729D01*
X001952Y007229D01*
X002202Y007479D01*
X002202Y006479D02*
X001952Y006229D01*
X001952Y005729D01*
X002202Y005479D01*
X003702Y005479D01*
X003952Y005729D01*
X003952Y006229D01*
X003702Y006479D01*
X003702Y005479D02*
X003952Y005229D01*
X003952Y004729D01*
X003702Y004479D01*
X002202Y004479D01*
X001952Y004729D01*
X001952Y005229D01*
X002202Y005479D01*
X002202Y004479D02*
X001952Y004229D01*
X001952Y003729D01*
X002202Y003479D01*
X003702Y003479D01*
X003952Y003729D01*
X003952Y004229D01*
X003702Y004479D01*
X003702Y003479D02*
X003952Y003229D01*
X003952Y002729D01*
X003702Y002479D01*
X002202Y002479D01*
X001952Y002729D01*
X001952Y003229D01*
X002202Y003479D01*
D12*
X005385Y003029D02*
X005385Y002983D01*
X005431Y002936D01*
X005525Y002936D01*
X005571Y002889D01*
X005571Y002843D01*
X005525Y002796D01*
X005431Y002796D01*
X005385Y002843D01*
X005385Y003029D02*
X005431Y003076D01*
X005525Y003076D01*
X005571Y003029D01*
X005679Y003076D02*
X005679Y002796D01*
X005866Y002796D01*
X005974Y002796D02*
X005974Y003076D01*
X006114Y003076D01*
X006161Y003029D01*
X006161Y002936D01*
X006114Y002889D01*
X005974Y002889D01*
X006067Y002889D02*
X006161Y002796D01*
X006269Y002889D02*
X006269Y003076D01*
X006455Y003076D02*
X006455Y002889D01*
X006362Y002796D01*
X006269Y002889D01*
X006563Y002843D02*
X006563Y003029D01*
X006610Y003076D01*
X006703Y003076D01*
X006750Y003029D01*
X006750Y002843D01*
X006703Y002796D01*
X006610Y002796D01*
X006563Y002843D01*
X006409Y002289D02*
X006269Y002289D01*
X006269Y002009D01*
X006409Y002009D01*
X006455Y002055D01*
X006455Y002242D01*
X006409Y002289D01*
X006161Y002289D02*
X006161Y002009D01*
X005974Y002289D01*
X005974Y002009D01*
X005866Y002055D02*
X005866Y002149D01*
X005773Y002149D01*
X005866Y002242D02*
X005819Y002289D01*
X005726Y002289D01*
X005679Y002242D01*
X005679Y002055D01*
X005726Y002009D01*
X005819Y002009D01*
X005866Y002055D01*
X005866Y001895D02*
X005866Y001708D01*
X005773Y001615D01*
X005679Y001708D01*
X005679Y001895D01*
X005974Y001848D02*
X005974Y001662D01*
X006021Y001615D01*
X006114Y001615D01*
X006161Y001662D01*
X006269Y001662D02*
X006269Y001848D01*
X006315Y001895D01*
X006409Y001895D01*
X006455Y001848D01*
X006455Y001662D02*
X006409Y001615D01*
X006315Y001615D01*
X006269Y001662D01*
X006269Y001501D02*
X006269Y001221D01*
X006455Y001221D01*
X006067Y001221D02*
X006067Y001501D01*
X005974Y001501D02*
X006161Y001501D01*
X005866Y001455D02*
X005819Y001501D01*
X005726Y001501D01*
X005679Y001455D01*
X005679Y001268D01*
X005726Y001221D01*
X005819Y001221D01*
X005866Y001268D01*
X005974Y001848D02*
X006021Y001895D01*
X006114Y001895D01*
X006161Y001848D01*
X005773Y002936D02*
X005679Y002936D01*
X005679Y003076D02*
X005866Y003076D01*
X007500Y002242D02*
X007500Y002055D01*
X007547Y002009D01*
X007641Y002009D01*
X007687Y002055D01*
X007687Y002242D01*
X007641Y002289D01*
X007547Y002289D01*
X007500Y002242D01*
X007594Y002102D02*
X007687Y002009D01*
X007795Y002009D02*
X007795Y002289D01*
X007795Y002402D02*
X007795Y002682D01*
X007982Y002402D01*
X007982Y002682D01*
X008090Y002636D02*
X008090Y002449D01*
X008136Y002402D01*
X008230Y002402D01*
X008277Y002449D01*
X008277Y002289D02*
X008090Y002009D01*
X007982Y002009D02*
X007982Y002289D01*
X007982Y002149D02*
X007795Y002149D01*
X007788Y001895D02*
X007648Y001895D01*
X007648Y001615D01*
X007648Y001708D02*
X007788Y001708D01*
X007835Y001755D01*
X007835Y001848D01*
X007788Y001895D01*
X007942Y001848D02*
X007942Y001662D01*
X007989Y001615D01*
X008082Y001615D01*
X008129Y001662D01*
X008237Y001708D02*
X008424Y001895D01*
X008384Y002009D02*
X008524Y002009D01*
X008571Y002055D01*
X008571Y002242D01*
X008524Y002289D01*
X008384Y002289D01*
X008384Y002009D01*
X008237Y001895D02*
X008237Y001615D01*
X008237Y001501D02*
X008237Y001221D01*
X008237Y001315D02*
X008424Y001501D01*
X008424Y001615D02*
X008284Y001755D01*
X008129Y001848D02*
X008082Y001895D01*
X007989Y001895D01*
X007942Y001848D01*
X007741Y001708D02*
X007835Y001615D01*
X007788Y001501D02*
X007694Y001501D01*
X007648Y001455D01*
X007648Y001408D01*
X007694Y001361D01*
X007788Y001361D01*
X007835Y001315D01*
X007835Y001268D01*
X007788Y001221D01*
X007694Y001221D01*
X007648Y001268D01*
X007835Y001455D02*
X007788Y001501D01*
X007942Y001455D02*
X007942Y001268D01*
X007989Y001221D01*
X008082Y001221D01*
X008129Y001268D01*
X008284Y001361D02*
X008424Y001221D01*
X008129Y001455D02*
X008082Y001501D01*
X007989Y001501D01*
X007942Y001455D01*
X008090Y002636D02*
X008136Y002682D01*
X008230Y002682D01*
X008277Y002636D01*
X008237Y002796D02*
X008377Y002796D01*
X008424Y002843D01*
X008424Y003029D01*
X008377Y003076D01*
X008237Y003076D01*
X008237Y002796D01*
X008129Y002796D02*
X008129Y003076D01*
X008129Y003190D02*
X008129Y003470D01*
X008237Y003470D02*
X008237Y003190D01*
X008377Y003190D01*
X008424Y003236D01*
X008424Y003423D01*
X008377Y003470D01*
X008237Y003470D01*
X008284Y003583D02*
X008377Y003583D01*
X008424Y003630D01*
X008284Y003583D02*
X008237Y003630D01*
X008237Y003817D01*
X008284Y003864D01*
X008377Y003864D01*
X008424Y003817D01*
X008377Y003977D02*
X008284Y003977D01*
X008237Y004024D01*
X008237Y004211D01*
X008284Y004257D01*
X008377Y004257D01*
X008424Y004211D01*
X008424Y004024D02*
X008377Y003977D01*
X008129Y004024D02*
X008082Y003977D01*
X007989Y003977D01*
X007942Y004024D01*
X007942Y004211D01*
X007989Y004257D01*
X008082Y004257D01*
X008129Y004211D01*
X007835Y004257D02*
X007835Y004070D01*
X007741Y003977D01*
X007648Y004070D01*
X007648Y004257D01*
X007648Y003864D02*
X007648Y003677D01*
X007741Y003583D01*
X007835Y003677D01*
X007835Y003864D01*
X007942Y003817D02*
X007942Y003630D01*
X007989Y003583D01*
X008082Y003583D01*
X008129Y003630D01*
X008129Y003817D02*
X008082Y003864D01*
X007989Y003864D01*
X007942Y003817D01*
X007942Y003470D02*
X008129Y003190D01*
X007942Y003190D02*
X007942Y003470D01*
X007835Y003423D02*
X007788Y003470D01*
X007694Y003470D01*
X007648Y003423D01*
X007648Y003236D01*
X007694Y003190D01*
X007788Y003190D01*
X007835Y003236D01*
X007835Y003330D01*
X007741Y003330D01*
X007694Y003076D02*
X007648Y003029D01*
X007648Y002843D01*
X007694Y002796D01*
X007788Y002796D01*
X007835Y002843D01*
X007835Y002936D01*
X007741Y002936D01*
X007835Y003029D02*
X007788Y003076D01*
X007694Y003076D01*
X007942Y003076D02*
X008129Y002796D01*
X007942Y002796D02*
X007942Y003076D01*
X007989Y004764D02*
X008082Y004764D01*
X008129Y004811D01*
X008129Y004998D01*
X008082Y005045D01*
X007989Y005045D01*
X007942Y004998D01*
X007942Y004811D01*
X007989Y004764D01*
X007835Y004811D02*
X007788Y004764D01*
X007694Y004764D01*
X007648Y004811D01*
X007648Y004998D01*
X007694Y005045D01*
X007788Y005045D01*
X007835Y004998D01*
X008237Y005045D02*
X008237Y004764D01*
X008424Y004764D02*
X008424Y005045D01*
X008237Y005045D02*
X008424Y004764D01*
X008079Y008137D02*
X007772Y008137D01*
X007696Y008214D01*
X007696Y008368D01*
X007772Y008444D01*
X007849Y008598D02*
X007696Y008751D01*
X008156Y008751D01*
X008156Y008598D02*
X008156Y008905D01*
X008079Y008444D02*
X008156Y008368D01*
X008156Y008214D01*
X008079Y008137D01*
X006615Y010633D02*
X006461Y010633D01*
X006385Y010710D01*
X006231Y010710D02*
X006155Y010633D01*
X006001Y010633D01*
X005924Y010710D01*
X005924Y011017D01*
X006001Y011093D01*
X006155Y011093D01*
X006231Y011017D01*
X006385Y011017D02*
X006461Y011093D01*
X006615Y011093D01*
X006692Y011017D01*
X006692Y010940D01*
X006615Y010863D01*
X006692Y010787D01*
X006692Y010710D01*
X006615Y010633D01*
X006615Y010863D02*
X006538Y010863D01*
X003658Y013952D02*
X003735Y014029D01*
X003735Y014183D01*
X003658Y014259D01*
X003658Y014413D02*
X003735Y014490D01*
X003735Y014643D01*
X003658Y014720D01*
X003505Y014720D01*
X003428Y014643D01*
X003428Y014566D01*
X003505Y014413D01*
X003274Y014413D01*
X003274Y014720D01*
X003351Y014259D02*
X003274Y014183D01*
X003274Y014029D01*
X003351Y013952D01*
X003658Y013952D01*
X003150Y015909D02*
X002843Y015909D01*
X002766Y015986D01*
X002766Y016139D01*
X002843Y016216D01*
X002766Y016370D02*
X002766Y016676D01*
X002843Y016676D01*
X003150Y016370D01*
X003227Y016370D01*
X003150Y016216D02*
X003227Y016139D01*
X003227Y015986D01*
X003150Y015909D01*
X012617Y008828D02*
X012617Y008675D01*
X012694Y008598D01*
X012694Y008444D02*
X012617Y008368D01*
X012617Y008214D01*
X012694Y008137D01*
X013001Y008137D01*
X013077Y008214D01*
X013077Y008368D01*
X013001Y008444D01*
X013077Y008598D02*
X012770Y008905D01*
X012694Y008905D01*
X012617Y008828D01*
X013077Y008905D02*
X013077Y008598D01*
X014269Y010633D02*
X014422Y010633D01*
X014499Y010710D01*
X014652Y010863D02*
X014959Y010863D01*
X014883Y010633D02*
X014883Y011093D01*
X014652Y010863D01*
X014499Y011017D02*
X014422Y011093D01*
X014269Y011093D01*
X014192Y011017D01*
X014192Y010710D01*
X014269Y010633D01*
X017221Y014043D02*
X017528Y014043D01*
X017605Y014120D01*
X017605Y014273D01*
X017528Y014350D01*
X017528Y014503D02*
X017375Y014503D01*
X017375Y014734D01*
X017451Y014810D01*
X017528Y014810D01*
X017605Y014734D01*
X017605Y014580D01*
X017528Y014503D01*
X017375Y014503D02*
X017221Y014657D01*
X017144Y014810D01*
X017221Y014350D02*
X017144Y014273D01*
X017144Y014120D01*
X017221Y014043D01*
X020089Y015986D02*
X020166Y015909D01*
X020473Y015909D01*
X020550Y015986D01*
X020550Y016139D01*
X020473Y016216D01*
X020473Y016370D02*
X020396Y016370D01*
X020319Y016446D01*
X020319Y016600D01*
X020396Y016676D01*
X020473Y016676D01*
X020550Y016600D01*
X020550Y016446D01*
X020473Y016370D01*
X020319Y016446D02*
X020243Y016370D01*
X020166Y016370D01*
X020089Y016446D01*
X020089Y016600D01*
X020166Y016676D01*
X020243Y016676D01*
X020319Y016600D01*
X020166Y016216D02*
X020089Y016139D01*
X020089Y015986D01*
D13*
X008857Y005298D02*
X007282Y005298D01*
X007282Y004511D01*
X007282Y000967D01*
X008857Y000967D01*
X008857Y004511D01*
X008857Y005298D01*
X008857Y004511D02*
X007282Y004511D01*
X006889Y003330D02*
X005314Y003330D01*
X005314Y002542D01*
X005314Y000967D01*
X006889Y000967D01*
X006889Y002542D01*
X006889Y003330D01*
X006889Y002542D02*
X005314Y002542D01*
D14*
X003871Y001780D02*
X003570Y001780D01*
X003720Y001780D02*
X003720Y002230D01*
X003570Y002080D01*
X003410Y002230D02*
X003410Y001780D01*
X003110Y002230D01*
X003110Y001780D01*
X002950Y001855D02*
X002950Y002155D01*
X002875Y002230D01*
X002725Y002230D01*
X002650Y002155D01*
X002650Y001855D01*
X002725Y001780D01*
X002875Y001780D01*
X002950Y001855D01*
X002489Y001855D02*
X002414Y001780D01*
X002264Y001780D01*
X002189Y001855D01*
X002189Y002155D01*
X002264Y002230D01*
X002414Y002230D01*
X002489Y002155D01*
X009820Y011516D02*
X009970Y011516D01*
X009895Y011516D02*
X009895Y011966D01*
X009820Y011966D02*
X009970Y011966D01*
X010127Y011891D02*
X010127Y011591D01*
X010202Y011516D01*
X010352Y011516D01*
X010427Y011591D01*
X010587Y011516D02*
X010887Y011516D01*
X010737Y011516D02*
X010737Y011966D01*
X010587Y011816D01*
X010427Y011891D02*
X010352Y011966D01*
X010202Y011966D01*
X010127Y011891D01*
X009828Y017028D02*
X009828Y017478D01*
X009603Y017253D01*
X009903Y017253D01*
X009443Y017178D02*
X009443Y017103D01*
X009368Y017028D01*
X009217Y017028D01*
X009142Y017103D01*
X009217Y017253D02*
X009142Y017328D01*
X009142Y017403D01*
X009217Y017478D01*
X009368Y017478D01*
X009443Y017403D01*
X009368Y017253D02*
X009443Y017178D01*
X009368Y017253D02*
X009217Y017253D01*
X008328Y017253D02*
X008328Y017103D01*
X008253Y017028D01*
X008103Y017028D01*
X008028Y017103D01*
X008028Y017253D02*
X008178Y017328D01*
X008253Y017328D01*
X008328Y017253D01*
X008328Y017478D02*
X008028Y017478D01*
X008028Y017253D01*
X007868Y017178D02*
X007868Y017103D01*
X007793Y017028D01*
X007643Y017028D01*
X007568Y017103D01*
X007643Y017253D02*
X007793Y017253D01*
X007868Y017178D01*
X007868Y017403D02*
X007793Y017478D01*
X007643Y017478D01*
X007568Y017403D01*
X007568Y017328D01*
X007643Y017253D01*
X006753Y017178D02*
X006678Y017253D01*
X006453Y017253D01*
X006453Y017103D01*
X006528Y017028D01*
X006678Y017028D01*
X006753Y017103D01*
X006753Y017178D01*
X006603Y017403D02*
X006453Y017253D01*
X006293Y017178D02*
X006293Y017103D01*
X006218Y017028D01*
X006068Y017028D01*
X005993Y017103D01*
X006068Y017253D02*
X005993Y017328D01*
X005993Y017403D01*
X006068Y017478D01*
X006218Y017478D01*
X006293Y017403D01*
X006218Y017253D02*
X006293Y017178D01*
X006218Y017253D02*
X006068Y017253D01*
X006603Y017403D02*
X006753Y017478D01*
X005179Y017478D02*
X005179Y017403D01*
X004878Y017103D01*
X004878Y017028D01*
X004718Y017103D02*
X004643Y017028D01*
X004493Y017028D01*
X004418Y017103D01*
X004493Y017253D02*
X004643Y017253D01*
X004718Y017178D01*
X004718Y017103D01*
X004493Y017253D02*
X004418Y017328D01*
X004418Y017403D01*
X004493Y017478D01*
X004643Y017478D01*
X004718Y017403D01*
X004878Y017478D02*
X005179Y017478D01*
X010717Y017403D02*
X010717Y017328D01*
X010792Y017253D01*
X010942Y017253D01*
X011017Y017178D01*
X011017Y017103D01*
X010942Y017028D01*
X010792Y017028D01*
X010717Y017103D01*
X010717Y017403D02*
X010792Y017478D01*
X010942Y017478D01*
X011017Y017403D01*
X011178Y017403D02*
X011253Y017478D01*
X011403Y017478D01*
X011478Y017403D01*
X011478Y017328D01*
X011403Y017253D01*
X011478Y017178D01*
X011478Y017103D01*
X011403Y017028D01*
X011253Y017028D01*
X011178Y017103D01*
X011328Y017253D02*
X011403Y017253D01*
X012292Y017328D02*
X012367Y017253D01*
X012517Y017253D01*
X012592Y017178D01*
X012592Y017103D01*
X012517Y017028D01*
X012367Y017028D01*
X012292Y017103D01*
X012292Y017328D02*
X012292Y017403D01*
X012367Y017478D01*
X012517Y017478D01*
X012592Y017403D01*
X012752Y017403D02*
X012827Y017478D01*
X012978Y017478D01*
X013053Y017403D01*
X013053Y017328D01*
X012752Y017028D01*
X013053Y017028D01*
X013867Y017103D02*
X013942Y017028D01*
X014092Y017028D01*
X014167Y017103D01*
X014167Y017178D01*
X014092Y017253D01*
X013942Y017253D01*
X013867Y017328D01*
X013867Y017403D01*
X013942Y017478D01*
X014092Y017478D01*
X014167Y017403D01*
X014327Y017328D02*
X014477Y017478D01*
X014477Y017028D01*
X014327Y017028D02*
X014627Y017028D01*
X015442Y017103D02*
X015517Y017028D01*
X015667Y017028D01*
X015742Y017103D01*
X015742Y017178D01*
X015667Y017253D01*
X015517Y017253D01*
X015442Y017328D01*
X015442Y017403D01*
X015517Y017478D01*
X015667Y017478D01*
X015742Y017403D01*
X015902Y017403D02*
X015902Y017103D01*
X016202Y017403D01*
X016202Y017103D01*
X016127Y017028D01*
X015977Y017028D01*
X015902Y017103D01*
X015902Y017403D02*
X015977Y017478D01*
X016127Y017478D01*
X016202Y017403D01*
X017155Y002124D02*
X017080Y002049D01*
X017080Y001749D01*
X017155Y001674D01*
X017305Y001674D01*
X017380Y001749D01*
X017540Y001749D02*
X017540Y002049D01*
X017615Y002124D01*
X017765Y002124D01*
X017841Y002049D01*
X017841Y001749D01*
X017765Y001674D01*
X017615Y001674D01*
X017540Y001749D01*
X017380Y002049D02*
X017305Y002124D01*
X017155Y002124D01*
X018001Y002124D02*
X018001Y001674D01*
X018301Y001674D02*
X018301Y002124D01*
X018461Y002049D02*
X018536Y002124D01*
X018686Y002124D01*
X018761Y002049D01*
X018761Y001974D01*
X018461Y001674D01*
X018761Y001674D01*
X018301Y001674D02*
X018001Y002124D01*
D15*
X012432Y010259D02*
X008432Y010259D01*
D16*
X006357Y009924D02*
X006357Y008192D01*
X005747Y008192D01*
X004881Y008192D02*
X004270Y008192D01*
X004270Y009924D01*
X004625Y010278D01*
X004881Y010278D01*
X005747Y010278D02*
X006003Y010278D01*
X006357Y009924D01*
X004940Y010101D02*
X004885Y010075D01*
X004832Y010045D01*
X004780Y010012D01*
X004731Y009976D01*
X004685Y009937D01*
X004641Y009895D01*
X004599Y009850D01*
X004561Y009803D01*
X004526Y009753D01*
X004494Y009701D01*
X004466Y009647D01*
X004441Y009592D01*
X004420Y009534D01*
X004402Y009476D01*
X004389Y009417D01*
X004379Y009357D01*
X004373Y009296D01*
X004371Y009235D01*
X004373Y009174D01*
X004379Y009113D01*
X004389Y009053D01*
X004402Y008994D01*
X004420Y008936D01*
X004441Y008878D01*
X004466Y008823D01*
X004494Y008769D01*
X004526Y008717D01*
X004561Y008667D01*
X004599Y008620D01*
X004641Y008575D01*
X004685Y008533D01*
X004731Y008494D01*
X004780Y008458D01*
X004832Y008425D01*
X004885Y008395D01*
X004940Y008369D01*
X005688Y008369D02*
X005743Y008395D01*
X005796Y008425D01*
X005848Y008458D01*
X005897Y008494D01*
X005943Y008533D01*
X005987Y008575D01*
X006029Y008620D01*
X006067Y008667D01*
X006102Y008717D01*
X006134Y008769D01*
X006162Y008823D01*
X006187Y008878D01*
X006208Y008936D01*
X006226Y008994D01*
X006239Y009053D01*
X006249Y009113D01*
X006255Y009174D01*
X006257Y009235D01*
X006255Y009296D01*
X006249Y009357D01*
X006239Y009417D01*
X006226Y009476D01*
X006208Y009534D01*
X006187Y009592D01*
X006162Y009647D01*
X006134Y009701D01*
X006102Y009753D01*
X006067Y009803D01*
X006029Y009850D01*
X005987Y009895D01*
X005943Y009937D01*
X005897Y009976D01*
X005848Y010012D01*
X005796Y010045D01*
X005743Y010075D01*
X005688Y010101D01*
X002263Y015082D02*
X002617Y015436D01*
X002617Y016774D01*
X002204Y016774D01*
X001337Y016774D02*
X000924Y016774D01*
X000924Y015436D01*
X001278Y015082D01*
X001357Y015082D01*
X002204Y015082D02*
X002263Y015082D01*
X001396Y015278D02*
X001351Y015306D01*
X001309Y015337D01*
X001269Y015370D01*
X001231Y015407D01*
X001196Y015445D01*
X001164Y015487D01*
X001134Y015530D01*
X001108Y015576D01*
X001085Y015623D01*
X001065Y015671D01*
X001049Y015721D01*
X001036Y015772D01*
X001027Y015824D01*
X001022Y015876D01*
X001020Y015928D01*
X001022Y015980D01*
X001027Y016032D01*
X001036Y016084D01*
X001049Y016135D01*
X001065Y016185D01*
X001085Y016233D01*
X001108Y016280D01*
X001134Y016326D01*
X001164Y016369D01*
X001196Y016411D01*
X001231Y016449D01*
X001269Y016486D01*
X001309Y016519D01*
X001351Y016550D01*
X001396Y016578D01*
X002144Y016578D02*
X002189Y016550D01*
X002231Y016519D01*
X002271Y016486D01*
X002309Y016449D01*
X002344Y016411D01*
X002376Y016369D01*
X002406Y016326D01*
X002432Y016280D01*
X002455Y016233D01*
X002475Y016185D01*
X002491Y016135D01*
X002504Y016084D01*
X002513Y016032D01*
X002518Y015980D01*
X002520Y015928D01*
X002518Y015876D01*
X002513Y015824D01*
X002504Y015772D01*
X002491Y015721D01*
X002475Y015671D01*
X002455Y015623D01*
X002432Y015576D01*
X002406Y015530D01*
X002376Y015487D01*
X002344Y015445D01*
X002309Y015407D01*
X002271Y015370D01*
X002231Y015337D01*
X002189Y015306D01*
X002144Y015278D01*
X014507Y009924D02*
X014507Y008192D01*
X015117Y008192D01*
X015983Y008192D02*
X016593Y008192D01*
X016593Y009924D01*
X016239Y010278D01*
X015983Y010278D01*
X015117Y010278D02*
X014861Y010278D01*
X014507Y009924D01*
X015924Y010101D02*
X015979Y010075D01*
X016032Y010045D01*
X016084Y010012D01*
X016133Y009976D01*
X016179Y009937D01*
X016223Y009895D01*
X016265Y009850D01*
X016303Y009803D01*
X016338Y009753D01*
X016370Y009701D01*
X016398Y009647D01*
X016423Y009592D01*
X016444Y009534D01*
X016462Y009476D01*
X016475Y009417D01*
X016485Y009357D01*
X016491Y009296D01*
X016493Y009235D01*
X016491Y009174D01*
X016485Y009113D01*
X016475Y009053D01*
X016462Y008994D01*
X016444Y008936D01*
X016423Y008878D01*
X016398Y008823D01*
X016370Y008769D01*
X016338Y008717D01*
X016303Y008667D01*
X016265Y008620D01*
X016223Y008575D01*
X016179Y008533D01*
X016133Y008494D01*
X016084Y008458D01*
X016032Y008425D01*
X015979Y008395D01*
X015924Y008369D01*
X015176Y008369D02*
X015121Y008395D01*
X015068Y008425D01*
X015016Y008458D01*
X014967Y008494D01*
X014921Y008533D01*
X014877Y008575D01*
X014835Y008620D01*
X014797Y008667D01*
X014762Y008717D01*
X014730Y008769D01*
X014702Y008823D01*
X014677Y008878D01*
X014656Y008936D01*
X014638Y008994D01*
X014625Y009053D01*
X014615Y009113D01*
X014609Y009174D01*
X014607Y009235D01*
X014609Y009296D01*
X014615Y009357D01*
X014625Y009417D01*
X014638Y009476D01*
X014656Y009534D01*
X014677Y009592D01*
X014702Y009647D01*
X014730Y009701D01*
X014762Y009753D01*
X014797Y009803D01*
X014835Y009850D01*
X014877Y009895D01*
X014921Y009937D01*
X014967Y009976D01*
X015016Y010012D01*
X015068Y010045D01*
X015121Y010075D01*
X015176Y010101D01*
X018601Y015082D02*
X018247Y015436D01*
X018247Y016774D01*
X018660Y016774D01*
X019526Y016774D02*
X019940Y016774D01*
X019940Y015436D01*
X019585Y015082D01*
X019526Y015082D01*
X018680Y015082D02*
X018601Y015082D01*
X019467Y015278D02*
X019512Y015306D01*
X019554Y015337D01*
X019594Y015370D01*
X019632Y015407D01*
X019667Y015445D01*
X019699Y015487D01*
X019729Y015530D01*
X019755Y015576D01*
X019778Y015623D01*
X019798Y015671D01*
X019814Y015721D01*
X019827Y015772D01*
X019836Y015824D01*
X019841Y015876D01*
X019843Y015928D01*
X019841Y015980D01*
X019836Y016032D01*
X019827Y016084D01*
X019814Y016135D01*
X019798Y016185D01*
X019778Y016233D01*
X019755Y016280D01*
X019729Y016326D01*
X019699Y016369D01*
X019667Y016411D01*
X019632Y016449D01*
X019594Y016486D01*
X019554Y016519D01*
X019512Y016550D01*
X019467Y016578D01*
X018719Y016578D02*
X018674Y016550D01*
X018632Y016519D01*
X018592Y016486D01*
X018554Y016449D01*
X018519Y016411D01*
X018487Y016369D01*
X018457Y016326D01*
X018431Y016280D01*
X018408Y016233D01*
X018388Y016185D01*
X018372Y016135D01*
X018359Y016084D01*
X018350Y016032D01*
X018345Y015980D01*
X018343Y015928D01*
X018345Y015876D01*
X018350Y015824D01*
X018359Y015772D01*
X018372Y015721D01*
X018388Y015671D01*
X018408Y015623D01*
X018431Y015576D01*
X018457Y015530D01*
X018487Y015487D01*
X018519Y015445D01*
X018554Y015407D01*
X018592Y015370D01*
X018632Y015337D01*
X018674Y015306D01*
X018719Y015278D01*
M02*
