G75*
G70*
%OFA0B0*%
%FSLAX24Y24*%
%IPPOS*%
%LPD*%
%AMOC8*
5,1,8,0,0,1.08239X$1,22.5*
%
%ADD10C,0.0000*%
%ADD11C,0.0080*%
%ADD12R,0.0220X0.0500*%
%ADD13R,0.0500X0.0220*%
%ADD14C,0.0600*%
%ADD15R,0.0866X0.0236*%
%ADD16R,0.0512X0.0591*%
%ADD17R,0.0591X0.0512*%
%ADD18OC8,0.0600*%
%ADD19R,0.1181X0.0630*%
%ADD20C,0.0160*%
%ADD21OC8,0.0356*%
%ADD22C,0.0100*%
D10*
X000574Y000574D02*
X020259Y000574D01*
X020259Y020259D01*
X000574Y020259D01*
X000574Y000574D01*
X005849Y006479D02*
X005851Y006529D01*
X005857Y006579D01*
X005867Y006628D01*
X005881Y006676D01*
X005898Y006723D01*
X005919Y006768D01*
X005944Y006812D01*
X005972Y006853D01*
X006004Y006892D01*
X006038Y006929D01*
X006075Y006963D01*
X006115Y006993D01*
X006157Y007020D01*
X006201Y007044D01*
X006247Y007065D01*
X006294Y007081D01*
X006342Y007094D01*
X006392Y007103D01*
X006441Y007108D01*
X006492Y007109D01*
X006542Y007106D01*
X006591Y007099D01*
X006640Y007088D01*
X006688Y007073D01*
X006734Y007055D01*
X006779Y007033D01*
X006822Y007007D01*
X006863Y006978D01*
X006902Y006946D01*
X006938Y006911D01*
X006970Y006873D01*
X007000Y006833D01*
X007027Y006790D01*
X007050Y006746D01*
X007069Y006700D01*
X007085Y006652D01*
X007097Y006603D01*
X007105Y006554D01*
X007109Y006504D01*
X007109Y006454D01*
X007105Y006404D01*
X007097Y006355D01*
X007085Y006306D01*
X007069Y006258D01*
X007050Y006212D01*
X007027Y006168D01*
X007000Y006125D01*
X006970Y006085D01*
X006938Y006047D01*
X006902Y006012D01*
X006863Y005980D01*
X006822Y005951D01*
X006779Y005925D01*
X006734Y005903D01*
X006688Y005885D01*
X006640Y005870D01*
X006591Y005859D01*
X006542Y005852D01*
X006492Y005849D01*
X006441Y005850D01*
X006392Y005855D01*
X006342Y005864D01*
X006294Y005877D01*
X006247Y005893D01*
X006201Y005914D01*
X006157Y005938D01*
X006115Y005965D01*
X006075Y005995D01*
X006038Y006029D01*
X006004Y006066D01*
X005972Y006105D01*
X005944Y006146D01*
X005919Y006190D01*
X005898Y006235D01*
X005881Y006282D01*
X005867Y006330D01*
X005857Y006379D01*
X005851Y006429D01*
X005849Y006479D01*
X013723Y006479D02*
X013725Y006529D01*
X013731Y006579D01*
X013741Y006628D01*
X013755Y006676D01*
X013772Y006723D01*
X013793Y006768D01*
X013818Y006812D01*
X013846Y006853D01*
X013878Y006892D01*
X013912Y006929D01*
X013949Y006963D01*
X013989Y006993D01*
X014031Y007020D01*
X014075Y007044D01*
X014121Y007065D01*
X014168Y007081D01*
X014216Y007094D01*
X014266Y007103D01*
X014315Y007108D01*
X014366Y007109D01*
X014416Y007106D01*
X014465Y007099D01*
X014514Y007088D01*
X014562Y007073D01*
X014608Y007055D01*
X014653Y007033D01*
X014696Y007007D01*
X014737Y006978D01*
X014776Y006946D01*
X014812Y006911D01*
X014844Y006873D01*
X014874Y006833D01*
X014901Y006790D01*
X014924Y006746D01*
X014943Y006700D01*
X014959Y006652D01*
X014971Y006603D01*
X014979Y006554D01*
X014983Y006504D01*
X014983Y006454D01*
X014979Y006404D01*
X014971Y006355D01*
X014959Y006306D01*
X014943Y006258D01*
X014924Y006212D01*
X014901Y006168D01*
X014874Y006125D01*
X014844Y006085D01*
X014812Y006047D01*
X014776Y006012D01*
X014737Y005980D01*
X014696Y005951D01*
X014653Y005925D01*
X014608Y005903D01*
X014562Y005885D01*
X014514Y005870D01*
X014465Y005859D01*
X014416Y005852D01*
X014366Y005849D01*
X014315Y005850D01*
X014266Y005855D01*
X014216Y005864D01*
X014168Y005877D01*
X014121Y005893D01*
X014075Y005914D01*
X014031Y005938D01*
X013989Y005965D01*
X013949Y005995D01*
X013912Y006029D01*
X013878Y006066D01*
X013846Y006105D01*
X013818Y006146D01*
X013793Y006190D01*
X013772Y006235D01*
X013755Y006282D01*
X013741Y006330D01*
X013731Y006379D01*
X013725Y006429D01*
X013723Y006479D01*
X016873Y018684D02*
X016875Y018734D01*
X016881Y018784D01*
X016891Y018833D01*
X016905Y018881D01*
X016922Y018928D01*
X016943Y018973D01*
X016968Y019017D01*
X016996Y019058D01*
X017028Y019097D01*
X017062Y019134D01*
X017099Y019168D01*
X017139Y019198D01*
X017181Y019225D01*
X017225Y019249D01*
X017271Y019270D01*
X017318Y019286D01*
X017366Y019299D01*
X017416Y019308D01*
X017465Y019313D01*
X017516Y019314D01*
X017566Y019311D01*
X017615Y019304D01*
X017664Y019293D01*
X017712Y019278D01*
X017758Y019260D01*
X017803Y019238D01*
X017846Y019212D01*
X017887Y019183D01*
X017926Y019151D01*
X017962Y019116D01*
X017994Y019078D01*
X018024Y019038D01*
X018051Y018995D01*
X018074Y018951D01*
X018093Y018905D01*
X018109Y018857D01*
X018121Y018808D01*
X018129Y018759D01*
X018133Y018709D01*
X018133Y018659D01*
X018129Y018609D01*
X018121Y018560D01*
X018109Y018511D01*
X018093Y018463D01*
X018074Y018417D01*
X018051Y018373D01*
X018024Y018330D01*
X017994Y018290D01*
X017962Y018252D01*
X017926Y018217D01*
X017887Y018185D01*
X017846Y018156D01*
X017803Y018130D01*
X017758Y018108D01*
X017712Y018090D01*
X017664Y018075D01*
X017615Y018064D01*
X017566Y018057D01*
X017516Y018054D01*
X017465Y018055D01*
X017416Y018060D01*
X017366Y018069D01*
X017318Y018082D01*
X017271Y018098D01*
X017225Y018119D01*
X017181Y018143D01*
X017139Y018170D01*
X017099Y018200D01*
X017062Y018234D01*
X017028Y018271D01*
X016996Y018310D01*
X016968Y018351D01*
X016943Y018395D01*
X016922Y018440D01*
X016905Y018487D01*
X016891Y018535D01*
X016881Y018584D01*
X016875Y018634D01*
X016873Y018684D01*
X002700Y018684D02*
X002702Y018734D01*
X002708Y018784D01*
X002718Y018833D01*
X002732Y018881D01*
X002749Y018928D01*
X002770Y018973D01*
X002795Y019017D01*
X002823Y019058D01*
X002855Y019097D01*
X002889Y019134D01*
X002926Y019168D01*
X002966Y019198D01*
X003008Y019225D01*
X003052Y019249D01*
X003098Y019270D01*
X003145Y019286D01*
X003193Y019299D01*
X003243Y019308D01*
X003292Y019313D01*
X003343Y019314D01*
X003393Y019311D01*
X003442Y019304D01*
X003491Y019293D01*
X003539Y019278D01*
X003585Y019260D01*
X003630Y019238D01*
X003673Y019212D01*
X003714Y019183D01*
X003753Y019151D01*
X003789Y019116D01*
X003821Y019078D01*
X003851Y019038D01*
X003878Y018995D01*
X003901Y018951D01*
X003920Y018905D01*
X003936Y018857D01*
X003948Y018808D01*
X003956Y018759D01*
X003960Y018709D01*
X003960Y018659D01*
X003956Y018609D01*
X003948Y018560D01*
X003936Y018511D01*
X003920Y018463D01*
X003901Y018417D01*
X003878Y018373D01*
X003851Y018330D01*
X003821Y018290D01*
X003789Y018252D01*
X003753Y018217D01*
X003714Y018185D01*
X003673Y018156D01*
X003630Y018130D01*
X003585Y018108D01*
X003539Y018090D01*
X003491Y018075D01*
X003442Y018064D01*
X003393Y018057D01*
X003343Y018054D01*
X003292Y018055D01*
X003243Y018060D01*
X003193Y018069D01*
X003145Y018082D01*
X003098Y018098D01*
X003052Y018119D01*
X003008Y018143D01*
X002966Y018170D01*
X002926Y018200D01*
X002889Y018234D01*
X002855Y018271D01*
X002823Y018310D01*
X002795Y018351D01*
X002770Y018395D01*
X002749Y018440D01*
X002732Y018487D01*
X002718Y018535D01*
X002708Y018584D01*
X002702Y018634D01*
X002700Y018684D01*
D11*
X004944Y009195D02*
X004944Y008875D01*
X004944Y008982D02*
X005105Y009089D01*
X005251Y009089D02*
X005305Y009089D01*
X005305Y008875D01*
X005358Y008875D02*
X005251Y008875D01*
X005105Y008875D02*
X004944Y008982D01*
X005305Y009195D02*
X005305Y009249D01*
X005497Y009089D02*
X005497Y008928D01*
X005550Y008875D01*
X005710Y008875D01*
X005710Y009089D01*
D12*
X009314Y008726D03*
X009629Y008726D03*
X009944Y008726D03*
X010259Y008726D03*
X010574Y008726D03*
X010889Y008726D03*
X011204Y008726D03*
X011519Y008726D03*
X011519Y012106D03*
X011204Y012106D03*
X010889Y012106D03*
X010574Y012106D03*
X010259Y012106D03*
X009944Y012106D03*
X009629Y012106D03*
X009314Y012106D03*
D13*
X008726Y011519D03*
X008726Y011204D03*
X008726Y010889D03*
X008726Y010574D03*
X008726Y010259D03*
X008726Y009944D03*
X008726Y009629D03*
X008726Y009314D03*
X012106Y009314D03*
X012106Y009629D03*
X012106Y009944D03*
X012106Y010259D03*
X012106Y010574D03*
X012106Y010889D03*
X012106Y011204D03*
X012106Y011519D03*
D14*
X012038Y018384D02*
X012038Y018984D01*
X010038Y018984D02*
X010038Y018384D01*
X008038Y018384D02*
X008038Y018984D01*
X006038Y018984D02*
X006038Y018384D01*
X003236Y013778D02*
X002636Y013778D01*
X002636Y012778D02*
X003236Y012778D01*
X003236Y011778D02*
X002636Y011778D01*
X002723Y002449D02*
X002723Y001849D01*
X003723Y001849D02*
X003723Y002449D01*
X004723Y002449D02*
X004723Y001849D01*
X005723Y001849D02*
X005723Y002449D01*
X001723Y002449D02*
X001723Y001849D01*
D15*
X009393Y015178D03*
X009393Y015678D03*
X009393Y016178D03*
X009393Y016678D03*
X011440Y016678D03*
X011440Y016178D03*
X011440Y015678D03*
X011440Y015178D03*
D16*
X011223Y013566D03*
X011971Y013566D03*
X007641Y015337D03*
X006893Y015337D03*
X006893Y016715D03*
X007641Y016715D03*
X008861Y007463D03*
X009609Y007463D03*
X011223Y007463D03*
X011971Y007463D03*
D17*
X013172Y015948D03*
X013172Y016696D03*
D18*
X017397Y008479D03*
X018397Y008479D03*
X018397Y007479D03*
X018397Y006479D03*
X018397Y005479D03*
X018397Y004479D03*
X017397Y004479D03*
X017397Y005479D03*
X017397Y006479D03*
X017397Y007479D03*
X010916Y004920D03*
X009916Y004920D03*
X009916Y003920D03*
X009916Y002920D03*
X010916Y002920D03*
X010916Y003920D03*
D19*
X017030Y011204D03*
X018763Y011204D03*
D20*
X018763Y013290D01*
X015375Y016678D01*
X013154Y016678D01*
X011440Y016678D01*
X010773Y016678D01*
X010711Y016617D01*
X010711Y014589D01*
X011223Y014078D01*
X011223Y013566D01*
X011223Y012126D01*
X011204Y012106D01*
X011204Y011597D01*
X010613Y011007D01*
X010613Y009432D01*
X010889Y009156D01*
X010889Y008726D01*
X010889Y007798D01*
X011223Y007463D01*
X010827Y007389D02*
X010005Y007389D01*
X010005Y007231D02*
X010827Y007231D01*
X010827Y007110D02*
X010909Y007028D01*
X011537Y007028D01*
X011570Y007061D01*
X011571Y007058D01*
X011605Y007024D01*
X011646Y007000D01*
X011692Y006988D01*
X011923Y006988D01*
X011923Y007416D01*
X012019Y007416D01*
X012019Y007511D01*
X012407Y007511D01*
X012407Y007782D01*
X012395Y007828D01*
X012371Y007869D01*
X012338Y007903D01*
X012297Y007926D01*
X012251Y007939D01*
X012019Y007939D01*
X012019Y007511D01*
X011923Y007511D01*
X011923Y007939D01*
X011692Y007939D01*
X011646Y007926D01*
X011605Y007903D01*
X011571Y007869D01*
X011570Y007866D01*
X011537Y007899D01*
X011109Y007899D01*
X011109Y008336D01*
X011687Y008336D01*
X011769Y008418D01*
X011769Y009034D01*
X011687Y009116D01*
X011109Y009116D01*
X011109Y009248D01*
X010833Y009523D01*
X010833Y010916D01*
X011295Y011377D01*
X011424Y011506D01*
X011424Y011716D01*
X011687Y011716D01*
X011769Y011798D01*
X011769Y011968D01*
X012490Y011968D01*
X013149Y011309D01*
X013149Y003618D01*
X011703Y002172D01*
X011098Y002172D01*
X010789Y002480D01*
X011098Y002480D01*
X011318Y002700D01*
X011870Y002700D01*
X012998Y003829D01*
X012998Y011295D01*
X012870Y011424D01*
X012870Y011424D01*
X012683Y011610D01*
X012555Y011739D01*
X012444Y011739D01*
X012414Y011769D01*
X011798Y011769D01*
X011716Y011687D01*
X011716Y011424D01*
X011506Y011424D01*
X011377Y011295D01*
X010984Y010901D01*
X010984Y010646D01*
X010886Y010548D01*
X010886Y010284D01*
X011072Y010098D01*
X011335Y010098D01*
X011522Y010284D01*
X011522Y010548D01*
X011424Y010646D01*
X011424Y010719D01*
X011688Y010984D01*
X011716Y010984D01*
X011716Y009146D01*
X011798Y009064D01*
X012414Y009064D01*
X012496Y009146D01*
X012496Y011175D01*
X012558Y011112D01*
X012558Y004011D01*
X011687Y003140D01*
X011318Y003140D01*
X011098Y003360D01*
X010734Y003360D01*
X010636Y003262D01*
X010636Y003329D01*
X010787Y003480D01*
X011098Y003480D01*
X011356Y003738D01*
X011356Y004102D01*
X011098Y004360D01*
X010734Y004360D01*
X010476Y004102D01*
X010476Y003791D01*
X010325Y003640D01*
X010196Y003511D01*
X010196Y003262D01*
X010098Y003360D01*
X009734Y003360D01*
X009476Y003102D01*
X009476Y002738D01*
X009734Y002480D01*
X010098Y002480D01*
X010196Y002578D01*
X010196Y002451D01*
X010325Y002322D01*
X010787Y001861D01*
X010916Y001732D01*
X011885Y001732D01*
X013589Y003435D01*
X013589Y006208D01*
X013667Y006020D01*
X013894Y005793D01*
X014192Y005669D01*
X014514Y005669D01*
X014812Y005793D01*
X015040Y006020D01*
X015163Y006318D01*
X015163Y006640D01*
X015040Y006938D01*
X014812Y007166D01*
X014514Y007289D01*
X014192Y007289D01*
X013894Y007166D01*
X013667Y006938D01*
X013589Y006751D01*
X013589Y011492D01*
X013460Y011620D01*
X012802Y012279D01*
X012673Y012408D01*
X011769Y012408D01*
X011769Y012414D01*
X011687Y012496D01*
X011443Y012496D01*
X011443Y013131D01*
X011537Y013131D01*
X011570Y013163D01*
X011571Y013160D01*
X011605Y013127D01*
X011646Y013103D01*
X011692Y013091D01*
X011923Y013091D01*
X011923Y013518D01*
X012019Y013518D01*
X012019Y013091D01*
X012251Y013091D01*
X012297Y013103D01*
X012338Y013127D01*
X012371Y013160D01*
X012395Y013201D01*
X012407Y013247D01*
X012407Y013518D01*
X012019Y013518D01*
X012019Y013614D01*
X011923Y013614D01*
X011923Y014041D01*
X011692Y014041D01*
X011646Y014029D01*
X011605Y014005D01*
X011571Y013972D01*
X011570Y013969D01*
X011537Y014001D01*
X011443Y014001D01*
X011443Y014169D01*
X010931Y014681D01*
X010931Y014896D01*
X010937Y014892D01*
X010983Y014880D01*
X011440Y014880D01*
X011897Y014880D01*
X011942Y014892D01*
X011983Y014916D01*
X012017Y014949D01*
X012041Y014990D01*
X012053Y015036D01*
X012053Y015178D01*
X011440Y015178D01*
X011440Y015178D01*
X012053Y015178D01*
X012053Y015320D01*
X012041Y015366D01*
X012017Y015407D01*
X011996Y015428D01*
X012017Y015449D01*
X012041Y015490D01*
X012053Y015536D01*
X012053Y015678D01*
X011440Y015678D01*
X011440Y015678D01*
X012053Y015678D01*
X012053Y015820D01*
X012041Y015866D01*
X012017Y015907D01*
X011996Y015928D01*
X012017Y015949D01*
X012041Y015990D01*
X012053Y016036D01*
X012053Y016178D01*
X011440Y016178D01*
X011440Y016178D01*
X012053Y016178D01*
X012053Y016320D01*
X012041Y016366D01*
X012017Y016407D01*
X011983Y016440D01*
X011963Y016452D01*
X011969Y016458D01*
X012737Y016458D01*
X012737Y016382D01*
X012769Y016349D01*
X012766Y016348D01*
X012733Y016314D01*
X012709Y016273D01*
X012697Y016227D01*
X012697Y015996D01*
X013124Y015996D01*
X013124Y015900D01*
X012697Y015900D01*
X012697Y015668D01*
X012709Y015622D01*
X012733Y015581D01*
X012766Y015548D01*
X012807Y015524D01*
X012853Y015512D01*
X013124Y015512D01*
X013124Y015900D01*
X013220Y015900D01*
X013220Y015996D01*
X013647Y015996D01*
X013647Y016227D01*
X013635Y016273D01*
X013611Y016314D01*
X013578Y016348D01*
X013575Y016349D01*
X013607Y016382D01*
X013607Y016458D01*
X015284Y016458D01*
X018543Y013199D01*
X018543Y011659D01*
X018114Y011659D01*
X018032Y011577D01*
X018032Y010831D01*
X018114Y010749D01*
X018177Y010749D01*
X018177Y008881D01*
X017994Y008699D01*
X017799Y008699D01*
X017579Y008919D01*
X017214Y008919D01*
X016957Y008661D01*
X016957Y008297D01*
X017214Y008039D01*
X017579Y008039D01*
X017799Y008259D01*
X017994Y008259D01*
X018214Y008039D01*
X018579Y008039D01*
X018837Y008297D01*
X018837Y008661D01*
X018617Y008881D01*
X018617Y010746D01*
X018619Y010749D01*
X019411Y010749D01*
X019493Y010831D01*
X019493Y011577D01*
X019411Y011659D01*
X018983Y011659D01*
X018983Y013381D01*
X015466Y016898D01*
X013607Y016898D01*
X013607Y017010D01*
X013525Y017092D01*
X012819Y017092D01*
X012737Y017010D01*
X012737Y016898D01*
X011969Y016898D01*
X011931Y016936D01*
X011660Y016936D01*
X011660Y017373D01*
X011531Y017502D01*
X011439Y017594D01*
X011310Y017723D01*
X010507Y017723D01*
X010258Y017972D01*
X010258Y017999D01*
X010288Y018011D01*
X010411Y018135D01*
X010478Y018296D01*
X010478Y019071D01*
X010411Y019233D01*
X010288Y019357D01*
X010126Y019424D01*
X009951Y019424D01*
X009789Y019357D01*
X009665Y019233D01*
X009598Y019071D01*
X009598Y018296D01*
X009665Y018135D01*
X009789Y018011D01*
X009818Y017999D01*
X009818Y017790D01*
X009885Y017723D01*
X007175Y017723D01*
X006782Y017329D01*
X006653Y017200D01*
X006653Y017151D01*
X006579Y017151D01*
X006497Y017069D01*
X006497Y016362D01*
X006579Y016280D01*
X006673Y016280D01*
X006673Y015773D01*
X006579Y015773D01*
X006497Y015691D01*
X006497Y014984D01*
X006579Y014902D01*
X007206Y014902D01*
X007267Y014962D01*
X007327Y014902D01*
X007440Y014902D01*
X007440Y014386D01*
X007342Y014288D01*
X007342Y014025D01*
X007529Y013838D01*
X007792Y013838D01*
X007978Y014025D01*
X007978Y014288D01*
X007880Y014386D01*
X007880Y014902D01*
X007955Y014902D01*
X008037Y014984D01*
X008037Y015422D01*
X008572Y015958D01*
X008863Y015958D01*
X008893Y015928D01*
X008820Y015854D01*
X008820Y015502D01*
X008869Y015452D01*
X008849Y015440D01*
X008815Y015407D01*
X008792Y015366D01*
X008780Y015320D01*
X008780Y015178D01*
X008780Y015036D01*
X008792Y014990D01*
X008815Y014949D01*
X008849Y014916D01*
X008890Y014892D01*
X008936Y014880D01*
X009393Y014880D01*
X009849Y014880D01*
X009895Y014892D01*
X009936Y014916D01*
X009970Y014949D01*
X009993Y014990D01*
X009999Y015013D01*
X009999Y014641D01*
X007766Y012408D01*
X007637Y012279D01*
X007637Y011109D01*
X004105Y011109D01*
X003976Y010980D01*
X003976Y010980D01*
X001632Y008636D01*
X001503Y008507D01*
X001503Y002834D01*
X001474Y002822D01*
X001350Y002698D01*
X001283Y002536D01*
X001283Y001761D01*
X001350Y001599D01*
X001474Y001475D01*
X001563Y001439D01*
X001929Y001073D01*
X002057Y000944D01*
X013173Y000944D01*
X013302Y001073D01*
X017268Y005039D01*
X017579Y005039D01*
X017799Y005259D01*
X017994Y005259D01*
X018214Y005039D01*
X018579Y005039D01*
X018837Y005297D01*
X018837Y005661D01*
X018579Y005919D01*
X018214Y005919D01*
X017994Y005699D01*
X017799Y005699D01*
X017579Y005919D01*
X017214Y005919D01*
X016957Y005661D01*
X016957Y005350D01*
X012990Y001384D01*
X004848Y001384D01*
X004908Y001404D01*
X004975Y001438D01*
X005036Y001482D01*
X005089Y001536D01*
X005134Y001597D01*
X005168Y001664D01*
X005191Y001736D01*
X005203Y001811D01*
X005203Y002129D01*
X004743Y002129D01*
X004743Y002169D01*
X004703Y002169D01*
X004703Y002929D01*
X004686Y002929D01*
X004611Y002917D01*
X004539Y002893D01*
X004472Y002859D01*
X004411Y002815D01*
X004357Y002761D01*
X004313Y002700D01*
X004278Y002633D01*
X004255Y002561D01*
X004243Y002486D01*
X004243Y002169D01*
X004703Y002169D01*
X004703Y002129D01*
X004243Y002129D01*
X004243Y001811D01*
X004255Y001736D01*
X004278Y001664D01*
X004313Y001597D01*
X004357Y001536D01*
X004411Y001482D01*
X004472Y001438D01*
X004539Y001404D01*
X004599Y001384D01*
X002240Y001384D01*
X002060Y001563D01*
X002096Y001599D01*
X002163Y001761D01*
X002163Y002536D01*
X002096Y002698D01*
X001973Y002822D01*
X001943Y002834D01*
X001943Y008325D01*
X004287Y010669D01*
X007011Y010669D01*
X007007Y010665D01*
X007007Y010665D01*
X006782Y010439D01*
X004420Y010439D01*
X002632Y008652D01*
X002503Y008523D01*
X002503Y002834D01*
X002474Y002822D01*
X002350Y002698D01*
X002283Y002536D01*
X002283Y001761D01*
X002350Y001599D01*
X002474Y001475D01*
X002636Y001409D01*
X002811Y001409D01*
X002973Y001475D01*
X003096Y001599D01*
X003163Y001761D01*
X003163Y002536D01*
X003096Y002698D01*
X002973Y002822D01*
X002943Y002834D01*
X002943Y008341D01*
X004602Y009999D01*
X006932Y009999D01*
X006850Y009917D01*
X006850Y008357D01*
X007243Y007963D01*
X007372Y007834D01*
X008482Y007834D01*
X008465Y007817D01*
X008465Y007110D01*
X008547Y007028D01*
X008621Y007028D01*
X008621Y006767D01*
X005632Y003778D01*
X005503Y003649D01*
X005503Y002834D01*
X005474Y002822D01*
X005350Y002698D01*
X005283Y002536D01*
X005283Y001761D01*
X005350Y001599D01*
X005474Y001475D01*
X005636Y001409D01*
X005811Y001409D01*
X005973Y001475D01*
X006096Y001599D01*
X006163Y001761D01*
X006163Y002536D01*
X006096Y002698D01*
X005973Y002822D01*
X005943Y002834D01*
X005943Y003467D01*
X008933Y006456D01*
X009061Y006585D01*
X009061Y007028D01*
X009175Y007028D01*
X009235Y007088D01*
X009295Y007028D01*
X009389Y007028D01*
X009389Y006605D01*
X009518Y006476D01*
X010684Y005310D01*
X010476Y005102D01*
X010476Y004738D01*
X010734Y004480D01*
X011098Y004480D01*
X011356Y004738D01*
X011356Y005102D01*
X011136Y005322D01*
X011136Y005480D01*
X009829Y006787D01*
X009829Y007028D01*
X009923Y007028D01*
X010005Y007110D01*
X010005Y007817D01*
X009923Y007899D01*
X009702Y007899D01*
X009326Y008274D01*
X007555Y008274D01*
X007290Y008539D01*
X007290Y009735D01*
X007594Y010039D01*
X008336Y010039D01*
X008336Y009455D01*
X007890Y009455D01*
X007792Y009553D01*
X007529Y009553D01*
X007342Y009367D01*
X007342Y009103D01*
X007529Y008917D01*
X007792Y008917D01*
X007890Y009015D01*
X008739Y009015D01*
X008787Y009064D01*
X009034Y009064D01*
X009116Y009146D01*
X009116Y009409D01*
X009596Y009409D01*
X009694Y009311D01*
X009957Y009311D01*
X010144Y009497D01*
X010144Y009761D01*
X009957Y009947D01*
X009694Y009947D01*
X009596Y009849D01*
X009569Y009849D01*
X009819Y010098D01*
X009957Y010098D01*
X010144Y010284D01*
X010144Y010548D01*
X009957Y010734D01*
X009694Y010734D01*
X009508Y010548D01*
X009508Y010409D01*
X009262Y010164D01*
X009116Y010164D01*
X009116Y010354D01*
X009287Y010354D01*
X009819Y010886D01*
X009957Y010886D01*
X010144Y011072D01*
X010144Y011335D01*
X009957Y011522D01*
X009694Y011522D01*
X009508Y011335D01*
X009508Y011197D01*
X009116Y010805D01*
X009116Y011687D01*
X009034Y011769D01*
X008418Y011769D01*
X008336Y011687D01*
X008336Y011109D01*
X008077Y011109D01*
X008077Y012097D01*
X010310Y014330D01*
X010310Y014330D01*
X010439Y014459D01*
X010439Y016610D01*
X010151Y016898D01*
X009922Y016898D01*
X009884Y016936D01*
X008902Y016936D01*
X008863Y016898D01*
X008037Y016898D01*
X008037Y017069D01*
X007955Y017151D01*
X007327Y017151D01*
X007267Y017091D01*
X007216Y017141D01*
X007358Y017283D01*
X011128Y017283D01*
X011220Y017191D01*
X011220Y016936D01*
X010949Y016936D01*
X010911Y016898D01*
X010681Y016898D01*
X010553Y016769D01*
X010491Y016708D01*
X010491Y014498D01*
X010989Y014001D01*
X010909Y014001D01*
X010827Y013919D01*
X010827Y013213D01*
X010909Y013131D01*
X011003Y013131D01*
X011003Y012496D01*
X010483Y012496D01*
X010479Y012500D01*
X010438Y012524D01*
X010392Y012536D01*
X010259Y012536D01*
X010259Y012106D01*
X010259Y011676D01*
X010392Y011676D01*
X010438Y011688D01*
X010479Y011712D01*
X010483Y011716D01*
X010984Y011716D01*
X010984Y011688D01*
X010522Y011227D01*
X010393Y011098D01*
X010393Y009523D01*
X010039Y009169D01*
X010039Y009156D01*
X009944Y009156D01*
X009944Y008726D01*
X009944Y008296D01*
X010077Y008296D01*
X010123Y008308D01*
X010164Y008332D01*
X010168Y008336D01*
X010349Y008336D01*
X010353Y008332D01*
X010394Y008308D01*
X010440Y008296D01*
X010574Y008296D01*
X010669Y008296D01*
X010669Y007707D01*
X010827Y007548D01*
X010827Y007110D01*
X010865Y007072D02*
X009967Y007072D01*
X009829Y006914D02*
X012558Y006914D01*
X012558Y007072D02*
X012380Y007072D01*
X012371Y007058D02*
X012395Y007099D01*
X012407Y007144D01*
X012407Y007416D01*
X012019Y007416D01*
X012019Y006988D01*
X012251Y006988D01*
X012297Y007000D01*
X012338Y007024D01*
X012371Y007058D01*
X012407Y007231D02*
X012558Y007231D01*
X012558Y007389D02*
X012407Y007389D01*
X012407Y007548D02*
X012558Y007548D01*
X012558Y007706D02*
X012407Y007706D01*
X012374Y007865D02*
X012558Y007865D01*
X012558Y008023D02*
X011109Y008023D01*
X011109Y008182D02*
X012558Y008182D01*
X012558Y008340D02*
X011691Y008340D01*
X011769Y008499D02*
X012558Y008499D01*
X012558Y008657D02*
X011769Y008657D01*
X011769Y008816D02*
X012558Y008816D01*
X012558Y008974D02*
X011769Y008974D01*
X011729Y009133D02*
X011109Y009133D01*
X011065Y009291D02*
X011716Y009291D01*
X011716Y009450D02*
X010906Y009450D01*
X010833Y009608D02*
X011716Y009608D01*
X011716Y009767D02*
X010833Y009767D01*
X010833Y009925D02*
X011716Y009925D01*
X011716Y010084D02*
X010833Y010084D01*
X010833Y010242D02*
X010928Y010242D01*
X010886Y010401D02*
X010833Y010401D01*
X010833Y010559D02*
X010897Y010559D01*
X010833Y010718D02*
X010984Y010718D01*
X010984Y010876D02*
X010833Y010876D01*
X010952Y011035D02*
X011117Y011035D01*
X011111Y011193D02*
X011276Y011193D01*
X011269Y011352D02*
X011434Y011352D01*
X011295Y011377D02*
X011295Y011377D01*
X011424Y011510D02*
X011716Y011510D01*
X011716Y011669D02*
X011424Y011669D01*
X011769Y011827D02*
X012631Y011827D01*
X012624Y011669D02*
X012790Y011669D01*
X012683Y011610D02*
X012683Y011610D01*
X012783Y011510D02*
X012948Y011510D01*
X012941Y011352D02*
X013107Y011352D01*
X013149Y011193D02*
X012998Y011193D01*
X012998Y011035D02*
X013149Y011035D01*
X013149Y010876D02*
X012998Y010876D01*
X012998Y010718D02*
X013149Y010718D01*
X013149Y010559D02*
X012998Y010559D01*
X012998Y010401D02*
X013149Y010401D01*
X013149Y010242D02*
X012998Y010242D01*
X012998Y010084D02*
X013149Y010084D01*
X013149Y009925D02*
X012998Y009925D01*
X012998Y009767D02*
X013149Y009767D01*
X013149Y009608D02*
X012998Y009608D01*
X012998Y009450D02*
X013149Y009450D01*
X013149Y009291D02*
X012998Y009291D01*
X012998Y009133D02*
X013149Y009133D01*
X013149Y008974D02*
X012998Y008974D01*
X012998Y008816D02*
X013149Y008816D01*
X013149Y008657D02*
X012998Y008657D01*
X012998Y008499D02*
X013149Y008499D01*
X013149Y008340D02*
X012998Y008340D01*
X012998Y008182D02*
X013149Y008182D01*
X013149Y008023D02*
X012998Y008023D01*
X012998Y007865D02*
X013149Y007865D01*
X013149Y007706D02*
X012998Y007706D01*
X012998Y007548D02*
X013149Y007548D01*
X013149Y007389D02*
X012998Y007389D01*
X012998Y007231D02*
X013149Y007231D01*
X013149Y007072D02*
X012998Y007072D01*
X012998Y006914D02*
X013149Y006914D01*
X013149Y006755D02*
X012998Y006755D01*
X012998Y006597D02*
X013149Y006597D01*
X013149Y006438D02*
X012998Y006438D01*
X012998Y006280D02*
X013149Y006280D01*
X013149Y006121D02*
X012998Y006121D01*
X012998Y005963D02*
X013149Y005963D01*
X013149Y005804D02*
X012998Y005804D01*
X012998Y005646D02*
X013149Y005646D01*
X013149Y005487D02*
X012998Y005487D01*
X012998Y005329D02*
X013149Y005329D01*
X013149Y005170D02*
X012998Y005170D01*
X012998Y005012D02*
X013149Y005012D01*
X013149Y004853D02*
X012998Y004853D01*
X012998Y004695D02*
X013149Y004695D01*
X013149Y004536D02*
X012998Y004536D01*
X012998Y004378D02*
X013149Y004378D01*
X013149Y004219D02*
X012998Y004219D01*
X012998Y004061D02*
X013149Y004061D01*
X013149Y003902D02*
X012998Y003902D01*
X012913Y003744D02*
X013149Y003744D01*
X013117Y003585D02*
X012755Y003585D01*
X012596Y003427D02*
X012958Y003427D01*
X012800Y003268D02*
X012438Y003268D01*
X012279Y003110D02*
X012641Y003110D01*
X012483Y002951D02*
X012121Y002951D01*
X011962Y002793D02*
X012324Y002793D01*
X012166Y002634D02*
X011253Y002634D01*
X010952Y002317D02*
X011849Y002317D01*
X012007Y002476D02*
X010794Y002476D01*
X010416Y002542D02*
X010416Y003420D01*
X010916Y003920D01*
X011204Y003585D02*
X012132Y003585D01*
X011974Y003427D02*
X010734Y003427D01*
X010642Y003268D02*
X010636Y003268D01*
X010916Y002920D02*
X011778Y002920D01*
X012778Y003920D01*
X012778Y011204D01*
X012463Y011519D01*
X012106Y011519D01*
X012106Y011204D02*
X011597Y011204D01*
X011204Y010810D01*
X011204Y010416D01*
X011522Y010401D02*
X011716Y010401D01*
X011716Y010559D02*
X011510Y010559D01*
X011424Y010718D02*
X011716Y010718D01*
X011716Y010876D02*
X011581Y010876D01*
X011479Y010242D02*
X011716Y010242D01*
X012496Y010242D02*
X012558Y010242D01*
X012558Y010084D02*
X012496Y010084D01*
X012496Y009925D02*
X012558Y009925D01*
X012558Y009767D02*
X012496Y009767D01*
X012496Y009608D02*
X012558Y009608D01*
X012558Y009450D02*
X012496Y009450D01*
X012496Y009291D02*
X012558Y009291D01*
X012558Y009133D02*
X012483Y009133D01*
X013589Y009133D02*
X014416Y009133D01*
X014440Y009156D02*
X014389Y009105D01*
X014334Y009058D01*
X014334Y009050D01*
X014329Y009045D01*
X014329Y009006D01*
X014240Y009006D01*
X014040Y008806D01*
X013929Y008695D01*
X013929Y007938D01*
X014040Y007826D01*
X014197Y007826D01*
X014309Y007938D01*
X014309Y008238D01*
X014329Y008258D01*
X014329Y008238D01*
X014440Y008126D01*
X014597Y008126D01*
X014709Y008238D01*
X014709Y008555D01*
X014729Y008573D01*
X014729Y008372D01*
X014725Y008299D01*
X014729Y008294D01*
X014729Y008288D01*
X014781Y008236D01*
X014829Y008181D01*
X014836Y008181D01*
X014840Y008176D01*
X014913Y008176D01*
X014986Y008172D01*
X014991Y008176D01*
X014997Y008176D01*
X015049Y008228D01*
X016137Y009198D01*
X016138Y009198D01*
X016142Y009201D01*
X016147Y009201D01*
X016199Y009253D01*
X016254Y009302D01*
X016254Y009303D01*
X016530Y009554D01*
X016537Y009711D01*
X016431Y009827D01*
X016274Y009835D01*
X016259Y009821D01*
X016259Y010286D01*
X016263Y010359D01*
X016259Y010364D01*
X016259Y010370D01*
X016207Y010422D01*
X016159Y010476D01*
X016152Y010477D01*
X016147Y010481D01*
X016074Y010481D01*
X016001Y010486D01*
X015997Y010481D01*
X015990Y010481D01*
X015938Y010430D01*
X015659Y010181D01*
X015658Y010163D01*
X015643Y010166D01*
X015530Y010081D01*
X015515Y010081D01*
X015469Y010035D01*
X015417Y009996D01*
X015415Y009981D01*
X015404Y009970D01*
X015279Y009845D01*
X015279Y009835D01*
X015253Y009836D01*
X015247Y009831D01*
X015240Y009831D01*
X015189Y009780D01*
X015047Y009656D01*
X015040Y009656D01*
X014989Y009605D01*
X014934Y009558D01*
X014934Y009550D01*
X014929Y009545D01*
X014929Y009506D01*
X014840Y009506D01*
X014729Y009395D01*
X014729Y009331D01*
X014725Y009331D01*
X014653Y009336D01*
X014647Y009331D01*
X014640Y009331D01*
X014589Y009280D01*
X014447Y009156D01*
X014440Y009156D01*
X014600Y009291D02*
X013589Y009291D01*
X013589Y009450D02*
X014783Y009450D01*
X014992Y009608D02*
X013589Y009608D01*
X013589Y009767D02*
X015173Y009767D01*
X015359Y009925D02*
X013589Y009925D01*
X013589Y010084D02*
X015534Y010084D01*
X015727Y010242D02*
X013589Y010242D01*
X013589Y010401D02*
X015906Y010401D01*
X016228Y010401D02*
X018177Y010401D01*
X018177Y010559D02*
X013589Y010559D01*
X013589Y010718D02*
X016382Y010718D01*
X016370Y010721D02*
X016416Y010709D01*
X016953Y010709D01*
X016953Y011126D01*
X017108Y011126D01*
X017108Y011281D01*
X017801Y011281D01*
X017801Y011542D01*
X017789Y011588D01*
X017765Y011629D01*
X017731Y011663D01*
X017690Y011686D01*
X017645Y011699D01*
X017108Y011699D01*
X017108Y011281D01*
X016953Y011281D01*
X016953Y011126D01*
X016260Y011126D01*
X016260Y010865D01*
X016272Y010819D01*
X016296Y010778D01*
X016329Y010745D01*
X016370Y010721D01*
X016260Y010876D02*
X013589Y010876D01*
X013589Y011035D02*
X016260Y011035D01*
X016260Y011281D02*
X016953Y011281D01*
X016953Y011699D01*
X016416Y011699D01*
X016370Y011686D01*
X016329Y011663D01*
X016296Y011629D01*
X016272Y011588D01*
X016260Y011542D01*
X016260Y011281D01*
X016260Y011352D02*
X013589Y011352D01*
X013589Y011193D02*
X016953Y011193D01*
X017108Y011193D02*
X018032Y011193D01*
X018032Y011035D02*
X017801Y011035D01*
X017801Y011126D02*
X017801Y010865D01*
X017789Y010819D01*
X017765Y010778D01*
X017731Y010745D01*
X017690Y010721D01*
X017645Y010709D01*
X017108Y010709D01*
X017108Y011126D01*
X017801Y011126D01*
X017801Y011352D02*
X018032Y011352D01*
X018032Y011510D02*
X017801Y011510D01*
X017721Y011669D02*
X018543Y011669D01*
X018543Y011827D02*
X013253Y011827D01*
X013095Y011986D02*
X018543Y011986D01*
X018543Y012144D02*
X012936Y012144D01*
X012778Y012303D02*
X018543Y012303D01*
X018543Y012461D02*
X011722Y012461D01*
X011600Y012188D02*
X011519Y012106D01*
X011600Y012188D02*
X012582Y012188D01*
X013369Y011400D01*
X013369Y003526D01*
X011794Y001952D01*
X011007Y001952D01*
X010416Y002542D01*
X010196Y002476D02*
X006163Y002476D01*
X006163Y002317D02*
X010330Y002317D01*
X010489Y002159D02*
X006163Y002159D01*
X006163Y002000D02*
X010647Y002000D01*
X010806Y001842D02*
X006163Y001842D01*
X006131Y001683D02*
X013289Y001683D01*
X013131Y001525D02*
X006022Y001525D01*
X005425Y001525D02*
X005078Y001525D01*
X005174Y001683D02*
X005316Y001683D01*
X005283Y001842D02*
X005203Y001842D01*
X005203Y002000D02*
X005283Y002000D01*
X005283Y002159D02*
X004743Y002159D01*
X004743Y002169D02*
X005203Y002169D01*
X005203Y002486D01*
X005191Y002561D01*
X005168Y002633D01*
X005134Y002700D01*
X005089Y002761D01*
X005036Y002815D01*
X004975Y002859D01*
X004908Y002893D01*
X004836Y002917D01*
X004761Y002929D01*
X004743Y002929D01*
X004743Y002169D01*
X004703Y002159D02*
X004163Y002159D01*
X004163Y002317D02*
X004243Y002317D01*
X004243Y002476D02*
X004163Y002476D01*
X004163Y002536D02*
X004096Y002698D01*
X003973Y002822D01*
X003811Y002889D01*
X003636Y002889D01*
X003474Y002822D01*
X003350Y002698D01*
X003283Y002536D01*
X003283Y001761D01*
X003350Y001599D01*
X003474Y001475D01*
X003636Y001409D01*
X003811Y001409D01*
X003973Y001475D01*
X004096Y001599D01*
X004163Y001761D01*
X004163Y002536D01*
X004123Y002634D02*
X004279Y002634D01*
X004389Y002793D02*
X004001Y002793D01*
X003445Y002793D02*
X003001Y002793D01*
X002943Y002951D02*
X005503Y002951D01*
X005503Y003110D02*
X002943Y003110D01*
X002943Y003268D02*
X005503Y003268D01*
X005503Y003427D02*
X002943Y003427D01*
X002943Y003585D02*
X005503Y003585D01*
X005598Y003744D02*
X002943Y003744D01*
X002943Y003902D02*
X005756Y003902D01*
X005915Y004061D02*
X002943Y004061D01*
X002943Y004219D02*
X006073Y004219D01*
X006232Y004378D02*
X002943Y004378D01*
X002943Y004536D02*
X006390Y004536D01*
X006549Y004695D02*
X002943Y004695D01*
X002943Y004853D02*
X006707Y004853D01*
X006866Y005012D02*
X002943Y005012D01*
X002943Y005170D02*
X007024Y005170D01*
X007183Y005329D02*
X002943Y005329D01*
X002943Y005487D02*
X007341Y005487D01*
X007500Y005646D02*
X002943Y005646D01*
X002943Y005804D02*
X006009Y005804D01*
X006020Y005793D02*
X006318Y005669D01*
X006640Y005669D01*
X006938Y005793D01*
X007166Y006020D01*
X007289Y006318D01*
X007289Y006640D01*
X007166Y006938D01*
X006938Y007166D01*
X006640Y007289D01*
X006318Y007289D01*
X006020Y007166D01*
X005793Y006938D01*
X005669Y006640D01*
X005669Y006318D01*
X005793Y006020D01*
X006020Y005793D01*
X005850Y005963D02*
X002943Y005963D01*
X002943Y006121D02*
X005751Y006121D01*
X005685Y006280D02*
X002943Y006280D01*
X002943Y006438D02*
X005669Y006438D01*
X005669Y006597D02*
X002943Y006597D01*
X002943Y006755D02*
X005717Y006755D01*
X005783Y006914D02*
X002943Y006914D01*
X002943Y007072D02*
X005927Y007072D01*
X006177Y007231D02*
X002943Y007231D01*
X002943Y007389D02*
X008465Y007389D01*
X008465Y007231D02*
X006781Y007231D01*
X007032Y007072D02*
X008503Y007072D01*
X008621Y006914D02*
X007176Y006914D01*
X007242Y006755D02*
X008609Y006755D01*
X008451Y006597D02*
X007289Y006597D01*
X007289Y006438D02*
X008292Y006438D01*
X008134Y006280D02*
X007273Y006280D01*
X007208Y006121D02*
X007975Y006121D01*
X007817Y005963D02*
X007108Y005963D01*
X006950Y005804D02*
X007658Y005804D01*
X007964Y005487D02*
X010507Y005487D01*
X010665Y005329D02*
X010186Y005329D01*
X010115Y005400D02*
X009936Y005400D01*
X009936Y004940D01*
X009896Y004940D01*
X009896Y004900D01*
X009436Y004900D01*
X009436Y004721D01*
X009717Y004440D01*
X009896Y004440D01*
X009896Y004900D01*
X009936Y004900D01*
X009936Y004440D01*
X010115Y004440D01*
X010396Y004721D01*
X010396Y004900D01*
X009936Y004900D01*
X009936Y004940D01*
X010396Y004940D01*
X010396Y005119D01*
X010115Y005400D01*
X009936Y005329D02*
X009896Y005329D01*
X009896Y005400D02*
X009717Y005400D01*
X009436Y005119D01*
X009436Y004940D01*
X009896Y004940D01*
X009896Y005400D01*
X009896Y005170D02*
X009936Y005170D01*
X009936Y005012D02*
X009896Y005012D01*
X009896Y004853D02*
X009936Y004853D01*
X009936Y004695D02*
X009896Y004695D01*
X009896Y004536D02*
X009936Y004536D01*
X010098Y004360D02*
X009734Y004360D01*
X009476Y004102D01*
X009476Y003738D01*
X009734Y003480D01*
X010098Y003480D01*
X010356Y003738D01*
X010356Y004102D01*
X010098Y004360D01*
X010239Y004219D02*
X010593Y004219D01*
X010476Y004061D02*
X010356Y004061D01*
X010356Y003902D02*
X010476Y003902D01*
X010429Y003744D02*
X010356Y003744D01*
X010270Y003585D02*
X010204Y003585D01*
X010196Y003427D02*
X005943Y003427D01*
X005943Y003268D02*
X009642Y003268D01*
X009484Y003110D02*
X005943Y003110D01*
X005943Y002951D02*
X009476Y002951D01*
X009476Y002793D02*
X006001Y002793D01*
X006123Y002634D02*
X009580Y002634D01*
X010190Y003268D02*
X010196Y003268D01*
X009629Y003585D02*
X006062Y003585D01*
X006220Y003744D02*
X009476Y003744D01*
X009476Y003902D02*
X006379Y003902D01*
X006537Y004061D02*
X009476Y004061D01*
X009593Y004219D02*
X006696Y004219D01*
X006854Y004378D02*
X012558Y004378D01*
X012558Y004536D02*
X011155Y004536D01*
X011313Y004695D02*
X012558Y004695D01*
X012558Y004853D02*
X011356Y004853D01*
X011356Y005012D02*
X012558Y005012D01*
X012558Y005170D02*
X011288Y005170D01*
X011136Y005329D02*
X012558Y005329D01*
X012558Y005487D02*
X011129Y005487D01*
X010970Y005646D02*
X012558Y005646D01*
X012558Y005804D02*
X010812Y005804D01*
X010653Y005963D02*
X012558Y005963D01*
X012558Y006121D02*
X010495Y006121D01*
X010336Y006280D02*
X012558Y006280D01*
X012558Y006438D02*
X010178Y006438D01*
X010019Y006597D02*
X012558Y006597D01*
X012558Y006755D02*
X009861Y006755D01*
X009609Y006696D02*
X009609Y007463D01*
X009609Y007680D01*
X009235Y008054D01*
X007463Y008054D01*
X007070Y008448D01*
X007070Y009826D01*
X007503Y010259D01*
X008726Y010259D01*
X008726Y010574D02*
X007227Y010574D01*
X006873Y010219D01*
X004511Y010219D01*
X002723Y008432D01*
X002723Y002149D01*
X003163Y002159D02*
X003283Y002159D01*
X003283Y002317D02*
X003163Y002317D01*
X003163Y002476D02*
X003283Y002476D01*
X003324Y002634D02*
X003123Y002634D01*
X002503Y002951D02*
X001943Y002951D01*
X001943Y003110D02*
X002503Y003110D01*
X002503Y003268D02*
X001943Y003268D01*
X001943Y003427D02*
X002503Y003427D01*
X002503Y003585D02*
X001943Y003585D01*
X001943Y003744D02*
X002503Y003744D01*
X002503Y003902D02*
X001943Y003902D01*
X001943Y004061D02*
X002503Y004061D01*
X002503Y004219D02*
X001943Y004219D01*
X001943Y004378D02*
X002503Y004378D01*
X002503Y004536D02*
X001943Y004536D01*
X001943Y004695D02*
X002503Y004695D01*
X002503Y004853D02*
X001943Y004853D01*
X001943Y005012D02*
X002503Y005012D01*
X002503Y005170D02*
X001943Y005170D01*
X001943Y005329D02*
X002503Y005329D01*
X002503Y005487D02*
X001943Y005487D01*
X001943Y005646D02*
X002503Y005646D01*
X002503Y005804D02*
X001943Y005804D01*
X001943Y005963D02*
X002503Y005963D01*
X002503Y006121D02*
X001943Y006121D01*
X001943Y006280D02*
X002503Y006280D01*
X002503Y006438D02*
X001943Y006438D01*
X001943Y006597D02*
X002503Y006597D01*
X002503Y006755D02*
X001943Y006755D01*
X001943Y006914D02*
X002503Y006914D01*
X002503Y007072D02*
X001943Y007072D01*
X001943Y007231D02*
X002503Y007231D01*
X002503Y007389D02*
X001943Y007389D01*
X001943Y007548D02*
X002503Y007548D01*
X002503Y007706D02*
X001943Y007706D01*
X001943Y007865D02*
X002503Y007865D01*
X002503Y008023D02*
X001943Y008023D01*
X001943Y008182D02*
X002503Y008182D01*
X002503Y008340D02*
X001958Y008340D01*
X002117Y008499D02*
X002503Y008499D01*
X002632Y008652D02*
X002632Y008652D01*
X002637Y008657D02*
X002275Y008657D01*
X002434Y008816D02*
X002796Y008816D01*
X002954Y008974D02*
X002592Y008974D01*
X002751Y009133D02*
X003113Y009133D01*
X003271Y009291D02*
X002909Y009291D01*
X003068Y009450D02*
X003430Y009450D01*
X003588Y009608D02*
X003226Y009608D01*
X003385Y009767D02*
X003747Y009767D01*
X003905Y009925D02*
X003543Y009925D01*
X003702Y010084D02*
X004064Y010084D01*
X004222Y010242D02*
X003860Y010242D01*
X004019Y010401D02*
X004381Y010401D01*
X004177Y010559D02*
X006902Y010559D01*
X006858Y009925D02*
X004528Y009925D01*
X004369Y009767D02*
X006850Y009767D01*
X006850Y009608D02*
X004211Y009608D01*
X004052Y009450D02*
X006850Y009450D01*
X006850Y009291D02*
X003894Y009291D01*
X003735Y009133D02*
X006850Y009133D01*
X006850Y008974D02*
X003577Y008974D01*
X003418Y008816D02*
X004617Y008816D01*
X004656Y008855D02*
X004551Y008750D01*
X004551Y008694D01*
X004551Y008695D01*
X004551Y008696D01*
X004445Y008802D01*
X004296Y008802D01*
X004191Y008696D01*
X004191Y008463D01*
X004180Y008446D01*
X004187Y008408D01*
X004180Y008370D01*
X004191Y008354D01*
X004191Y008227D01*
X004296Y008121D01*
X004445Y008121D01*
X004458Y008134D01*
X004493Y008110D01*
X004594Y008130D01*
X004603Y008121D01*
X004859Y008121D01*
X004880Y008143D01*
X004902Y008121D01*
X005211Y008121D01*
X005317Y008227D01*
X005317Y008589D01*
X005211Y008695D01*
X005062Y008695D01*
X005030Y008663D01*
X004998Y008695D01*
X004911Y008695D01*
X004911Y008750D01*
X004806Y008855D01*
X004656Y008855D01*
X004845Y008816D02*
X006850Y008816D01*
X006850Y008657D02*
X005249Y008657D01*
X005317Y008499D02*
X006850Y008499D01*
X006866Y008340D02*
X005317Y008340D01*
X005272Y008182D02*
X007025Y008182D01*
X007183Y008023D02*
X002943Y008023D01*
X002943Y007865D02*
X007342Y007865D01*
X007488Y008340D02*
X007908Y008340D01*
X007922Y008326D02*
X007736Y008513D01*
X007736Y008776D01*
X007922Y008963D01*
X008186Y008963D01*
X008202Y008946D01*
X009064Y008946D01*
X009064Y009034D01*
X009146Y009116D01*
X009719Y009116D01*
X009723Y009120D01*
X009764Y009144D01*
X009810Y009156D01*
X009944Y009156D01*
X009944Y008726D01*
X009944Y008726D01*
X009944Y008296D01*
X009810Y008296D01*
X009764Y008308D01*
X009723Y008332D01*
X009719Y008336D01*
X009146Y008336D01*
X009064Y008418D01*
X009064Y008506D01*
X008366Y008506D01*
X008186Y008326D01*
X007922Y008326D01*
X007750Y008499D02*
X007330Y008499D01*
X007290Y008657D02*
X007736Y008657D01*
X007775Y008816D02*
X007290Y008816D01*
X007290Y008974D02*
X007471Y008974D01*
X007342Y009133D02*
X007290Y009133D01*
X007290Y009291D02*
X007342Y009291D01*
X007290Y009450D02*
X007425Y009450D01*
X007290Y009608D02*
X008336Y009608D01*
X008336Y009767D02*
X007322Y009767D01*
X007480Y009925D02*
X008336Y009925D01*
X008726Y009944D02*
X009353Y009944D01*
X009826Y010416D01*
X010144Y010401D02*
X010393Y010401D01*
X010393Y010559D02*
X010133Y010559D01*
X009974Y010718D02*
X010393Y010718D01*
X010393Y010876D02*
X009809Y010876D01*
X009677Y010718D02*
X009651Y010718D01*
X009519Y010559D02*
X009492Y010559D01*
X009499Y010401D02*
X009334Y010401D01*
X009341Y010242D02*
X009116Y010242D01*
X009196Y010574D02*
X009826Y011204D01*
X010144Y011193D02*
X010488Y011193D01*
X010522Y011227D02*
X010522Y011227D01*
X010647Y011352D02*
X010127Y011352D01*
X009969Y011510D02*
X010805Y011510D01*
X010964Y011669D02*
X009116Y011669D01*
X009146Y011716D02*
X010034Y011716D01*
X010038Y011712D01*
X010079Y011688D01*
X010125Y011676D01*
X010259Y011676D01*
X010259Y012106D01*
X010259Y012106D01*
X010259Y012106D01*
X010259Y012536D01*
X010125Y012536D01*
X010079Y012524D01*
X010038Y012500D01*
X010034Y012496D01*
X009146Y012496D01*
X009064Y012414D01*
X009064Y011798D01*
X009146Y011716D01*
X009064Y011827D02*
X008077Y011827D01*
X008077Y011669D02*
X008336Y011669D01*
X008336Y011510D02*
X008077Y011510D01*
X008077Y011352D02*
X008336Y011352D01*
X008336Y011193D02*
X008077Y011193D01*
X007857Y010889D02*
X007857Y012188D01*
X010219Y014550D01*
X010219Y016519D01*
X010060Y016678D01*
X009393Y016678D01*
X007678Y016678D01*
X007641Y016715D01*
X008037Y016899D02*
X008865Y016899D01*
X008481Y016178D02*
X007641Y015337D01*
X007660Y015318D01*
X007660Y014156D01*
X007417Y014363D02*
X000754Y014363D01*
X000754Y014205D02*
X002515Y014205D01*
X002548Y014218D02*
X002387Y014151D01*
X002263Y014028D01*
X002196Y013866D01*
X002196Y013691D01*
X002263Y013529D01*
X002387Y013405D01*
X002548Y013338D01*
X003323Y013338D01*
X003485Y013405D01*
X003609Y013529D01*
X003676Y013691D01*
X003676Y013866D01*
X003609Y014028D01*
X003485Y014151D01*
X003323Y014218D01*
X002548Y014218D01*
X002281Y014046D02*
X000754Y014046D01*
X000754Y013888D02*
X002205Y013888D01*
X002196Y013729D02*
X000754Y013729D01*
X000754Y013571D02*
X002246Y013571D01*
X002380Y013412D02*
X000754Y013412D01*
X000754Y013254D02*
X008612Y013254D01*
X008770Y013412D02*
X003492Y013412D01*
X003626Y013571D02*
X008929Y013571D01*
X009087Y013729D02*
X003676Y013729D01*
X003667Y013888D02*
X007479Y013888D01*
X007342Y014046D02*
X003590Y014046D01*
X003357Y014205D02*
X007342Y014205D01*
X007440Y014522D02*
X000754Y014522D01*
X000754Y014680D02*
X007440Y014680D01*
X007440Y014839D02*
X000754Y014839D01*
X000754Y014997D02*
X006497Y014997D01*
X006497Y015156D02*
X000754Y015156D01*
X000754Y015314D02*
X006497Y015314D01*
X006497Y015473D02*
X000754Y015473D01*
X000754Y015631D02*
X006497Y015631D01*
X006673Y015790D02*
X000754Y015790D01*
X000754Y015948D02*
X006673Y015948D01*
X006673Y016107D02*
X000754Y016107D01*
X000754Y016265D02*
X006673Y016265D01*
X006497Y016424D02*
X000754Y016424D01*
X000754Y016582D02*
X006497Y016582D01*
X006497Y016741D02*
X000754Y016741D01*
X000754Y016899D02*
X006497Y016899D01*
X006497Y017058D02*
X000754Y017058D01*
X000754Y017216D02*
X006669Y017216D01*
X006827Y017375D02*
X000754Y017375D01*
X000754Y017533D02*
X006986Y017533D01*
X007144Y017692D02*
X000754Y017692D01*
X000754Y017850D02*
X009818Y017850D01*
X009794Y018009D02*
X008282Y018009D01*
X008288Y018011D02*
X008411Y018135D01*
X008478Y018296D01*
X008478Y019071D01*
X008411Y019233D01*
X008288Y019357D01*
X008126Y019424D01*
X007951Y019424D01*
X007789Y019357D01*
X007665Y019233D01*
X007598Y019071D01*
X007598Y018296D01*
X007665Y018135D01*
X007789Y018011D01*
X007951Y017944D01*
X008126Y017944D01*
X008288Y018011D01*
X008425Y018167D02*
X009652Y018167D01*
X009598Y018326D02*
X008478Y018326D01*
X008478Y018484D02*
X009598Y018484D01*
X009598Y018643D02*
X008478Y018643D01*
X008478Y018801D02*
X009598Y018801D01*
X009598Y018960D02*
X008478Y018960D01*
X008459Y019118D02*
X009618Y019118D01*
X009709Y019277D02*
X008368Y019277D01*
X007709Y019277D02*
X006368Y019277D01*
X006411Y019233D02*
X006288Y019357D01*
X006126Y019424D01*
X005951Y019424D01*
X005789Y019357D01*
X005665Y019233D01*
X005598Y019071D01*
X005598Y018296D01*
X005665Y018135D01*
X005789Y018011D01*
X005951Y017944D01*
X006126Y017944D01*
X006288Y018011D01*
X006411Y018135D01*
X006478Y018296D01*
X006478Y019071D01*
X006411Y019233D01*
X006459Y019118D02*
X007618Y019118D01*
X007598Y018960D02*
X006478Y018960D01*
X006478Y018801D02*
X007598Y018801D01*
X007598Y018643D02*
X006478Y018643D01*
X006478Y018484D02*
X007598Y018484D01*
X007598Y018326D02*
X006478Y018326D01*
X006425Y018167D02*
X007652Y018167D01*
X007794Y018009D02*
X006282Y018009D01*
X005794Y018009D02*
X003800Y018009D01*
X003788Y017997D02*
X004016Y018225D01*
X004140Y018523D01*
X004140Y018845D01*
X004016Y019143D01*
X003788Y019371D01*
X003491Y019494D01*
X003169Y019494D01*
X002871Y019371D01*
X002643Y019143D01*
X002520Y018845D01*
X002520Y018523D01*
X002643Y018225D01*
X002871Y017997D01*
X003169Y017874D01*
X003491Y017874D01*
X003788Y017997D01*
X003958Y018167D02*
X005652Y018167D01*
X005598Y018326D02*
X004058Y018326D01*
X004124Y018484D02*
X005598Y018484D01*
X005598Y018643D02*
X004140Y018643D01*
X004140Y018801D02*
X005598Y018801D01*
X005598Y018960D02*
X004092Y018960D01*
X004026Y019118D02*
X005618Y019118D01*
X005709Y019277D02*
X003882Y019277D01*
X003632Y019435D02*
X011874Y019435D01*
X011854Y019429D02*
X011787Y019394D01*
X011726Y019350D01*
X011672Y019297D01*
X011628Y019236D01*
X011593Y019168D01*
X011570Y019096D01*
X011558Y019022D01*
X011558Y018704D01*
X012018Y018704D01*
X012018Y018664D01*
X011558Y018664D01*
X011558Y018346D01*
X011570Y018272D01*
X011593Y018200D01*
X011628Y018132D01*
X011672Y018071D01*
X011726Y018018D01*
X011787Y017973D01*
X011854Y017939D01*
X011926Y017916D01*
X012000Y017904D01*
X012018Y017904D01*
X012018Y018664D01*
X012058Y018664D01*
X012058Y017904D01*
X012076Y017904D01*
X012151Y017916D01*
X012223Y017939D01*
X012290Y017973D01*
X012351Y018018D01*
X012404Y018071D01*
X012449Y018132D01*
X012483Y018200D01*
X012506Y018272D01*
X012518Y018346D01*
X012518Y018664D01*
X012058Y018664D01*
X012058Y018704D01*
X012018Y018704D01*
X012018Y019464D01*
X012000Y019464D01*
X011926Y019452D01*
X011854Y019429D01*
X012018Y019435D02*
X012058Y019435D01*
X012058Y019464D02*
X012058Y018704D01*
X012518Y018704D01*
X012518Y019022D01*
X012506Y019096D01*
X012483Y019168D01*
X012449Y019236D01*
X012404Y019297D01*
X012351Y019350D01*
X012290Y019394D01*
X012223Y019429D01*
X012151Y019452D01*
X012076Y019464D01*
X012058Y019464D01*
X012203Y019435D02*
X017200Y019435D01*
X017342Y019494D02*
X017044Y019371D01*
X016816Y019143D01*
X016693Y018845D01*
X016693Y018523D01*
X016816Y018225D01*
X017044Y017997D01*
X017342Y017874D01*
X017664Y017874D01*
X017962Y017997D01*
X018189Y018225D01*
X018313Y018523D01*
X018313Y018845D01*
X018189Y019143D01*
X017962Y019371D01*
X017664Y019494D01*
X017342Y019494D01*
X016950Y019277D02*
X012419Y019277D01*
X012499Y019118D02*
X016806Y019118D01*
X016740Y018960D02*
X012518Y018960D01*
X012518Y018801D02*
X016693Y018801D01*
X016693Y018643D02*
X012518Y018643D01*
X012518Y018484D02*
X016709Y018484D01*
X016775Y018326D02*
X012515Y018326D01*
X012467Y018167D02*
X016874Y018167D01*
X017033Y018009D02*
X012338Y018009D01*
X012058Y018009D02*
X012018Y018009D01*
X012018Y018167D02*
X012058Y018167D01*
X012058Y018326D02*
X012018Y018326D01*
X012018Y018484D02*
X012058Y018484D01*
X012058Y018643D02*
X012018Y018643D01*
X012018Y018801D02*
X012058Y018801D01*
X012058Y018960D02*
X012018Y018960D01*
X012018Y019118D02*
X012058Y019118D01*
X012058Y019277D02*
X012018Y019277D01*
X011658Y019277D02*
X010368Y019277D01*
X010459Y019118D02*
X011577Y019118D01*
X011558Y018960D02*
X010478Y018960D01*
X010478Y018801D02*
X011558Y018801D01*
X011558Y018643D02*
X010478Y018643D01*
X010478Y018484D02*
X011558Y018484D01*
X011562Y018326D02*
X010478Y018326D01*
X010425Y018167D02*
X011610Y018167D01*
X011738Y018009D02*
X010282Y018009D01*
X010380Y017850D02*
X020079Y017850D01*
X020079Y017692D02*
X011342Y017692D01*
X011439Y017594D02*
X011439Y017594D01*
X011500Y017533D02*
X020079Y017533D01*
X020079Y017375D02*
X011659Y017375D01*
X011660Y017216D02*
X020079Y017216D01*
X020079Y017058D02*
X013559Y017058D01*
X013607Y016899D02*
X020079Y016899D01*
X020079Y016741D02*
X015623Y016741D01*
X015782Y016582D02*
X020079Y016582D01*
X020079Y016424D02*
X015940Y016424D01*
X016099Y016265D02*
X020079Y016265D01*
X020079Y016107D02*
X016257Y016107D01*
X016416Y015948D02*
X020079Y015948D01*
X020079Y015790D02*
X016574Y015790D01*
X016733Y015631D02*
X020079Y015631D01*
X020079Y015473D02*
X016891Y015473D01*
X017050Y015314D02*
X020079Y015314D01*
X020079Y015156D02*
X017208Y015156D01*
X017367Y014997D02*
X020079Y014997D01*
X020079Y014839D02*
X017525Y014839D01*
X017684Y014680D02*
X020079Y014680D01*
X020079Y014522D02*
X017842Y014522D01*
X018001Y014363D02*
X020079Y014363D01*
X020079Y014205D02*
X018159Y014205D01*
X018318Y014046D02*
X020079Y014046D01*
X020079Y013888D02*
X018476Y013888D01*
X018635Y013729D02*
X020079Y013729D01*
X020079Y013571D02*
X018793Y013571D01*
X018952Y013412D02*
X020079Y013412D01*
X020079Y013254D02*
X018983Y013254D01*
X018983Y013095D02*
X020079Y013095D01*
X020079Y012937D02*
X018983Y012937D01*
X018983Y012778D02*
X020079Y012778D01*
X020079Y012620D02*
X018983Y012620D01*
X018983Y012461D02*
X020079Y012461D01*
X020079Y012303D02*
X018983Y012303D01*
X018983Y012144D02*
X020079Y012144D01*
X020079Y011986D02*
X018983Y011986D01*
X018983Y011827D02*
X020079Y011827D01*
X020079Y011669D02*
X018983Y011669D01*
X019493Y011510D02*
X020079Y011510D01*
X020079Y011352D02*
X019493Y011352D01*
X019493Y011193D02*
X020079Y011193D01*
X020079Y011035D02*
X019493Y011035D01*
X019493Y010876D02*
X020079Y010876D01*
X020079Y010718D02*
X018617Y010718D01*
X018617Y010559D02*
X020079Y010559D01*
X020079Y010401D02*
X018617Y010401D01*
X018617Y010242D02*
X020079Y010242D01*
X020079Y010084D02*
X018617Y010084D01*
X018617Y009925D02*
X020079Y009925D01*
X020079Y009767D02*
X018617Y009767D01*
X018617Y009608D02*
X020079Y009608D01*
X020079Y009450D02*
X018617Y009450D01*
X018617Y009291D02*
X020079Y009291D01*
X020079Y009133D02*
X018617Y009133D01*
X018617Y008974D02*
X020079Y008974D01*
X020079Y008816D02*
X018682Y008816D01*
X018837Y008657D02*
X020079Y008657D01*
X020079Y008499D02*
X018837Y008499D01*
X018837Y008340D02*
X020079Y008340D01*
X020079Y008182D02*
X018721Y008182D01*
X018595Y007959D02*
X018417Y007959D01*
X018417Y007499D01*
X018877Y007499D01*
X018877Y007678D01*
X018595Y007959D01*
X018690Y007865D02*
X020079Y007865D01*
X020079Y008023D02*
X014309Y008023D01*
X014309Y008182D02*
X014385Y008182D01*
X014653Y008182D02*
X014829Y008182D01*
X015003Y008182D02*
X017072Y008182D01*
X016957Y008340D02*
X015175Y008340D01*
X015353Y008499D02*
X016957Y008499D01*
X016957Y008657D02*
X015531Y008657D01*
X015708Y008816D02*
X017111Y008816D01*
X017397Y008479D02*
X018397Y008479D01*
X018397Y010837D01*
X018763Y011204D01*
X018177Y010718D02*
X017678Y010718D01*
X017801Y010876D02*
X018032Y010876D01*
X018177Y010242D02*
X016259Y010242D01*
X016259Y010084D02*
X018177Y010084D01*
X018177Y009925D02*
X016259Y009925D01*
X016487Y009767D02*
X018177Y009767D01*
X018177Y009608D02*
X016532Y009608D01*
X016415Y009450D02*
X018177Y009450D01*
X018177Y009291D02*
X016242Y009291D01*
X016064Y009133D02*
X018177Y009133D01*
X018177Y008974D02*
X015886Y008974D01*
X014729Y008499D02*
X014709Y008499D01*
X014709Y008340D02*
X014727Y008340D01*
X014236Y007865D02*
X017103Y007865D01*
X017198Y007959D02*
X016917Y007678D01*
X016917Y007499D01*
X017377Y007499D01*
X017377Y007959D01*
X017198Y007959D01*
X017377Y007865D02*
X017417Y007865D01*
X017417Y007959D02*
X017417Y007499D01*
X017877Y007499D01*
X017877Y007678D01*
X017595Y007959D01*
X017417Y007959D01*
X017690Y007865D02*
X018103Y007865D01*
X018198Y007959D02*
X017917Y007678D01*
X017917Y007499D01*
X018377Y007499D01*
X018377Y007959D01*
X018198Y007959D01*
X018377Y007865D02*
X018417Y007865D01*
X018417Y007706D02*
X018377Y007706D01*
X018377Y007548D02*
X018417Y007548D01*
X018417Y007499D02*
X018377Y007499D01*
X018377Y007459D01*
X018417Y007459D01*
X018417Y007499D01*
X018417Y007459D02*
X018877Y007459D01*
X018877Y007280D01*
X018595Y006999D01*
X018417Y006999D01*
X018417Y007459D01*
X018377Y007459D02*
X018377Y006999D01*
X018198Y006999D01*
X017917Y007280D01*
X017917Y007459D01*
X018377Y007459D01*
X018377Y007389D02*
X018417Y007389D01*
X018417Y007231D02*
X018377Y007231D01*
X018377Y007072D02*
X018417Y007072D01*
X018579Y006919D02*
X018214Y006919D01*
X017957Y006661D01*
X017957Y006297D01*
X018214Y006039D01*
X018579Y006039D01*
X018837Y006297D01*
X018837Y006661D01*
X018579Y006919D01*
X018584Y006914D02*
X020079Y006914D01*
X020079Y007072D02*
X018668Y007072D01*
X018827Y007231D02*
X020079Y007231D01*
X020079Y007389D02*
X018877Y007389D01*
X018877Y007548D02*
X020079Y007548D01*
X020079Y007706D02*
X018848Y007706D01*
X018125Y007072D02*
X017668Y007072D01*
X017595Y006999D02*
X017877Y007280D01*
X017877Y007459D01*
X017417Y007459D01*
X017417Y007499D01*
X017377Y007499D01*
X017377Y007459D01*
X017417Y007459D01*
X017417Y006999D01*
X017595Y006999D01*
X017579Y006919D02*
X017214Y006919D01*
X016957Y006661D01*
X016957Y006297D01*
X017214Y006039D01*
X017579Y006039D01*
X017837Y006297D01*
X017837Y006661D01*
X017579Y006919D01*
X017584Y006914D02*
X018209Y006914D01*
X018050Y006755D02*
X017743Y006755D01*
X017837Y006597D02*
X017957Y006597D01*
X017957Y006438D02*
X017837Y006438D01*
X017819Y006280D02*
X017974Y006280D01*
X018132Y006121D02*
X017661Y006121D01*
X017694Y005804D02*
X018099Y005804D01*
X018397Y005479D02*
X017397Y005479D01*
X013082Y001164D01*
X002149Y001164D01*
X001723Y001589D01*
X001723Y002149D01*
X001723Y008416D01*
X004196Y010889D01*
X007857Y010889D01*
X008726Y010889D01*
X008726Y010574D02*
X009196Y010574D01*
X009187Y010876D02*
X009116Y010876D01*
X009116Y011035D02*
X009346Y011035D01*
X009504Y011193D02*
X009116Y011193D01*
X009116Y011352D02*
X009524Y011352D01*
X009682Y011510D02*
X009116Y011510D01*
X009064Y011986D02*
X008077Y011986D01*
X008125Y012144D02*
X009064Y012144D01*
X009064Y012303D02*
X008283Y012303D01*
X008442Y012461D02*
X009111Y012461D01*
X008759Y012778D02*
X011003Y012778D01*
X011003Y012620D02*
X008600Y012620D01*
X008295Y012937D02*
X003647Y012937D01*
X003676Y012866D02*
X003609Y013028D01*
X003485Y013151D01*
X003323Y013218D01*
X002548Y013218D01*
X002387Y013151D01*
X002263Y013028D01*
X002196Y012866D01*
X002196Y012691D01*
X002263Y012529D01*
X002387Y012405D01*
X002548Y012338D01*
X003323Y012338D01*
X003485Y012405D01*
X003609Y012529D01*
X003676Y012691D01*
X003676Y012866D01*
X003676Y012778D02*
X008136Y012778D01*
X007978Y012620D02*
X003646Y012620D01*
X003541Y012461D02*
X007819Y012461D01*
X007766Y012408D02*
X007766Y012408D01*
X007661Y012303D02*
X000754Y012303D01*
X000754Y012461D02*
X002331Y012461D01*
X002225Y012620D02*
X000754Y012620D01*
X000754Y012778D02*
X002196Y012778D01*
X002225Y012937D02*
X000754Y012937D01*
X000754Y013095D02*
X002330Y013095D01*
X002524Y012247D02*
X002452Y012223D01*
X002384Y012189D01*
X002323Y012145D01*
X002270Y012091D01*
X002225Y012030D01*
X002191Y011963D01*
X002168Y011891D01*
X002156Y011816D01*
X002156Y011798D01*
X002916Y011798D01*
X002916Y011758D01*
X002956Y011758D01*
X002956Y011298D01*
X003274Y011298D01*
X003348Y011310D01*
X003420Y011334D01*
X003487Y011368D01*
X003549Y011412D01*
X003602Y011466D01*
X003646Y011527D01*
X003681Y011594D01*
X003704Y011666D01*
X003716Y011741D01*
X003716Y011758D01*
X002956Y011758D01*
X002956Y011798D01*
X003716Y011798D01*
X003716Y011816D01*
X003704Y011891D01*
X003681Y011963D01*
X003646Y012030D01*
X003602Y012091D01*
X003549Y012145D01*
X003487Y012189D01*
X003420Y012223D01*
X003348Y012247D01*
X003274Y012258D01*
X002956Y012258D01*
X002956Y011798D01*
X002916Y011798D01*
X002916Y012258D01*
X002598Y012258D01*
X002524Y012247D01*
X002323Y012144D02*
X000754Y012144D01*
X000754Y011986D02*
X002203Y011986D01*
X002158Y011827D02*
X000754Y011827D01*
X000754Y011669D02*
X002167Y011669D01*
X002168Y011666D02*
X002156Y011741D01*
X002156Y011758D01*
X002916Y011758D01*
X002916Y011298D01*
X002598Y011298D01*
X002524Y011310D01*
X002452Y011334D01*
X002384Y011368D01*
X002323Y011412D01*
X002270Y011466D01*
X002225Y011527D01*
X002191Y011594D01*
X002168Y011666D01*
X002237Y011510D02*
X000754Y011510D01*
X000754Y011352D02*
X002416Y011352D01*
X002916Y011352D02*
X002956Y011352D01*
X002956Y011510D02*
X002916Y011510D01*
X002916Y011669D02*
X002956Y011669D01*
X002956Y011827D02*
X002916Y011827D01*
X002916Y011986D02*
X002956Y011986D01*
X002956Y012144D02*
X002916Y012144D01*
X003549Y012144D02*
X007637Y012144D01*
X007637Y011986D02*
X003669Y011986D01*
X003714Y011827D02*
X007637Y011827D01*
X007637Y011669D02*
X003705Y011669D01*
X003634Y011510D02*
X007637Y011510D01*
X007637Y011352D02*
X003456Y011352D01*
X003872Y010876D02*
X000754Y010876D01*
X000754Y010718D02*
X003714Y010718D01*
X003555Y010559D02*
X000754Y010559D01*
X000754Y010401D02*
X003397Y010401D01*
X003238Y010242D02*
X000754Y010242D01*
X000754Y010084D02*
X003080Y010084D01*
X002921Y009925D02*
X000754Y009925D01*
X000754Y009767D02*
X002763Y009767D01*
X002604Y009608D02*
X000754Y009608D01*
X000754Y009450D02*
X002446Y009450D01*
X002287Y009291D02*
X000754Y009291D01*
X000754Y009133D02*
X002129Y009133D01*
X001970Y008974D02*
X000754Y008974D01*
X000754Y008816D02*
X001812Y008816D01*
X001653Y008657D02*
X000754Y008657D01*
X000754Y008499D02*
X001503Y008499D01*
X001503Y008340D02*
X000754Y008340D01*
X000754Y008182D02*
X001503Y008182D01*
X001503Y008023D02*
X000754Y008023D01*
X000754Y007865D02*
X001503Y007865D01*
X001503Y007706D02*
X000754Y007706D01*
X000754Y007548D02*
X001503Y007548D01*
X001503Y007389D02*
X000754Y007389D01*
X000754Y007231D02*
X001503Y007231D01*
X001503Y007072D02*
X000754Y007072D01*
X000754Y006914D02*
X001503Y006914D01*
X001503Y006755D02*
X000754Y006755D01*
X000754Y006597D02*
X001503Y006597D01*
X001503Y006438D02*
X000754Y006438D01*
X000754Y006280D02*
X001503Y006280D01*
X001503Y006121D02*
X000754Y006121D01*
X000754Y005963D02*
X001503Y005963D01*
X001503Y005804D02*
X000754Y005804D01*
X000754Y005646D02*
X001503Y005646D01*
X001503Y005487D02*
X000754Y005487D01*
X000754Y005329D02*
X001503Y005329D01*
X001503Y005170D02*
X000754Y005170D01*
X000754Y005012D02*
X001503Y005012D01*
X001503Y004853D02*
X000754Y004853D01*
X000754Y004695D02*
X001503Y004695D01*
X001503Y004536D02*
X000754Y004536D01*
X000754Y004378D02*
X001503Y004378D01*
X001503Y004219D02*
X000754Y004219D01*
X000754Y004061D02*
X001503Y004061D01*
X001503Y003902D02*
X000754Y003902D01*
X000754Y003744D02*
X001503Y003744D01*
X001503Y003585D02*
X000754Y003585D01*
X000754Y003427D02*
X001503Y003427D01*
X001503Y003268D02*
X000754Y003268D01*
X000754Y003110D02*
X001503Y003110D01*
X001503Y002951D02*
X000754Y002951D01*
X000754Y002793D02*
X001445Y002793D01*
X001324Y002634D02*
X000754Y002634D01*
X000754Y002476D02*
X001283Y002476D01*
X001283Y002317D02*
X000754Y002317D01*
X000754Y002159D02*
X001283Y002159D01*
X001283Y002000D02*
X000754Y002000D01*
X000754Y001842D02*
X001283Y001842D01*
X001316Y001683D02*
X000754Y001683D01*
X000754Y001525D02*
X001425Y001525D01*
X001635Y001366D02*
X000754Y001366D01*
X000754Y001208D02*
X001794Y001208D01*
X001929Y001073D02*
X001929Y001073D01*
X001952Y001049D02*
X000754Y001049D01*
X000754Y000891D02*
X020079Y000891D01*
X020079Y000754D02*
X000754Y000754D01*
X000754Y020079D01*
X020079Y020079D01*
X020079Y000754D01*
X020079Y001049D02*
X013278Y001049D01*
X013436Y001208D02*
X020079Y001208D01*
X020079Y001366D02*
X013595Y001366D01*
X013753Y001525D02*
X020079Y001525D01*
X020079Y001683D02*
X013912Y001683D01*
X014070Y001842D02*
X020079Y001842D01*
X020079Y002000D02*
X014229Y002000D01*
X014387Y002159D02*
X020079Y002159D01*
X020079Y002317D02*
X014546Y002317D01*
X014704Y002476D02*
X020079Y002476D01*
X020079Y002634D02*
X014863Y002634D01*
X015021Y002793D02*
X020079Y002793D01*
X020079Y002951D02*
X015180Y002951D01*
X015338Y003110D02*
X020079Y003110D01*
X020079Y003268D02*
X015497Y003268D01*
X015655Y003427D02*
X020079Y003427D01*
X020079Y003585D02*
X015814Y003585D01*
X015972Y003744D02*
X020079Y003744D01*
X020079Y003902D02*
X016131Y003902D01*
X016289Y004061D02*
X017193Y004061D01*
X017214Y004039D02*
X017579Y004039D01*
X017799Y004259D01*
X017994Y004259D01*
X018214Y004039D01*
X018579Y004039D01*
X018837Y004297D01*
X018837Y004661D01*
X018579Y004919D01*
X018214Y004919D01*
X017994Y004699D01*
X017799Y004699D01*
X017579Y004919D01*
X017214Y004919D01*
X016957Y004661D01*
X016957Y004297D01*
X017214Y004039D01*
X017034Y004219D02*
X016448Y004219D01*
X016606Y004378D02*
X016957Y004378D01*
X016957Y004536D02*
X016765Y004536D01*
X016923Y004695D02*
X016990Y004695D01*
X017082Y004853D02*
X017148Y004853D01*
X017240Y005012D02*
X020079Y005012D01*
X020079Y005170D02*
X018710Y005170D01*
X018837Y005329D02*
X020079Y005329D01*
X020079Y005487D02*
X018837Y005487D01*
X018837Y005646D02*
X020079Y005646D01*
X020079Y005804D02*
X018694Y005804D01*
X018661Y006121D02*
X020079Y006121D01*
X020079Y005963D02*
X014982Y005963D01*
X015082Y006121D02*
X017132Y006121D01*
X016974Y006280D02*
X015147Y006280D01*
X015163Y006438D02*
X016957Y006438D01*
X016957Y006597D02*
X015163Y006597D01*
X015116Y006755D02*
X017050Y006755D01*
X017209Y006914D02*
X015050Y006914D01*
X014906Y007072D02*
X017125Y007072D01*
X017198Y006999D02*
X016917Y007280D01*
X016917Y007459D01*
X017377Y007459D01*
X017377Y006999D01*
X017198Y006999D01*
X017377Y007072D02*
X017417Y007072D01*
X017417Y007231D02*
X017377Y007231D01*
X017377Y007389D02*
X017417Y007389D01*
X017417Y007548D02*
X017377Y007548D01*
X017377Y007706D02*
X017417Y007706D01*
X017848Y007706D02*
X017945Y007706D01*
X017917Y007548D02*
X017877Y007548D01*
X017877Y007389D02*
X017917Y007389D01*
X017966Y007231D02*
X017827Y007231D01*
X016966Y007231D02*
X014655Y007231D01*
X014051Y007231D02*
X013589Y007231D01*
X013589Y007389D02*
X016917Y007389D01*
X016917Y007548D02*
X013589Y007548D01*
X013589Y007706D02*
X016945Y007706D01*
X017721Y008182D02*
X018072Y008182D01*
X018111Y008816D02*
X017682Y008816D01*
X017108Y010718D02*
X016953Y010718D01*
X016953Y010876D02*
X017108Y010876D01*
X017108Y011035D02*
X016953Y011035D01*
X016953Y011352D02*
X017108Y011352D01*
X017108Y011510D02*
X016953Y011510D01*
X016953Y011669D02*
X017108Y011669D01*
X016340Y011669D02*
X013412Y011669D01*
X013570Y011510D02*
X016260Y011510D01*
X018330Y013412D02*
X012407Y013412D01*
X012407Y013254D02*
X018488Y013254D01*
X018543Y013095D02*
X012268Y013095D01*
X012019Y013095D02*
X011923Y013095D01*
X011923Y013254D02*
X012019Y013254D01*
X012019Y013412D02*
X011923Y013412D01*
X012019Y013571D02*
X018171Y013571D01*
X018013Y013729D02*
X012407Y013729D01*
X012407Y013614D02*
X012407Y013885D01*
X012395Y013931D01*
X012371Y013972D01*
X012338Y014005D01*
X012297Y014029D01*
X012251Y014041D01*
X012019Y014041D01*
X012019Y013614D01*
X012407Y013614D01*
X012406Y013888D02*
X017854Y013888D01*
X017696Y014046D02*
X011443Y014046D01*
X011407Y014205D02*
X017537Y014205D01*
X017379Y014363D02*
X011249Y014363D01*
X011090Y014522D02*
X017220Y014522D01*
X017062Y014680D02*
X010932Y014680D01*
X010931Y014839D02*
X016903Y014839D01*
X016745Y014997D02*
X012042Y014997D01*
X012053Y015156D02*
X016586Y015156D01*
X016428Y015314D02*
X012053Y015314D01*
X012030Y015473D02*
X016269Y015473D01*
X016111Y015631D02*
X013638Y015631D01*
X013635Y015622D02*
X013647Y015668D01*
X013647Y015900D01*
X013220Y015900D01*
X013220Y015512D01*
X013491Y015512D01*
X013537Y015524D01*
X013578Y015548D01*
X013611Y015581D01*
X013635Y015622D01*
X013647Y015790D02*
X015952Y015790D01*
X015794Y015948D02*
X013220Y015948D01*
X013124Y015948D02*
X012016Y015948D01*
X012053Y015790D02*
X012697Y015790D01*
X012707Y015631D02*
X012053Y015631D01*
X012053Y016107D02*
X012697Y016107D01*
X012707Y016265D02*
X012053Y016265D01*
X012000Y016424D02*
X012737Y016424D01*
X013154Y016678D02*
X013172Y016696D01*
X012737Y016899D02*
X011968Y016899D01*
X011660Y017058D02*
X012785Y017058D01*
X013607Y016424D02*
X015318Y016424D01*
X015477Y016265D02*
X013637Y016265D01*
X013647Y016107D02*
X015635Y016107D01*
X017973Y018009D02*
X020079Y018009D01*
X020079Y018167D02*
X018132Y018167D01*
X018231Y018326D02*
X020079Y018326D01*
X020079Y018484D02*
X018297Y018484D01*
X018313Y018643D02*
X020079Y018643D01*
X020079Y018801D02*
X018313Y018801D01*
X018265Y018960D02*
X020079Y018960D01*
X020079Y019118D02*
X018200Y019118D01*
X018055Y019277D02*
X020079Y019277D01*
X020079Y019435D02*
X017805Y019435D01*
X020079Y019594D02*
X000754Y019594D01*
X000754Y019752D02*
X020079Y019752D01*
X020079Y019911D02*
X000754Y019911D01*
X000754Y020069D02*
X020079Y020069D01*
X013220Y015790D02*
X013124Y015790D01*
X013124Y015631D02*
X013220Y015631D01*
X011440Y015178D02*
X011440Y014880D01*
X011440Y015178D01*
X011440Y015178D01*
X011440Y015156D02*
X011440Y015156D01*
X011440Y014997D02*
X011440Y014997D01*
X010785Y014205D02*
X010185Y014205D01*
X010344Y014363D02*
X010627Y014363D01*
X010491Y014522D02*
X010439Y014522D01*
X010439Y014680D02*
X010491Y014680D01*
X010491Y014839D02*
X010439Y014839D01*
X010439Y014997D02*
X010491Y014997D01*
X010491Y015156D02*
X010439Y015156D01*
X010439Y015314D02*
X010491Y015314D01*
X010491Y015473D02*
X010439Y015473D01*
X010439Y015631D02*
X010491Y015631D01*
X010491Y015790D02*
X010439Y015790D01*
X010439Y015948D02*
X010491Y015948D01*
X010491Y016107D02*
X010439Y016107D01*
X010439Y016265D02*
X010491Y016265D01*
X010491Y016424D02*
X010439Y016424D01*
X010439Y016582D02*
X010491Y016582D01*
X010524Y016741D02*
X010308Y016741D01*
X009921Y016899D02*
X010912Y016899D01*
X011220Y017058D02*
X008037Y017058D01*
X007291Y017216D02*
X011195Y017216D01*
X011440Y017282D02*
X011219Y017503D01*
X010416Y017503D01*
X010038Y017881D01*
X010038Y018684D01*
X010416Y017503D02*
X007267Y017503D01*
X006873Y017109D01*
X006873Y016735D01*
X006893Y016715D01*
X006893Y015337D01*
X007880Y014839D02*
X009999Y014839D01*
X009995Y014997D02*
X009999Y014997D01*
X009999Y014680D02*
X007880Y014680D01*
X007880Y014522D02*
X009880Y014522D01*
X009721Y014363D02*
X007903Y014363D01*
X007978Y014205D02*
X009563Y014205D01*
X009404Y014046D02*
X007978Y014046D01*
X007842Y013888D02*
X009246Y013888D01*
X009551Y013571D02*
X010827Y013571D01*
X010827Y013729D02*
X009710Y013729D01*
X009868Y013888D02*
X010827Y013888D01*
X010944Y014046D02*
X010027Y014046D01*
X009393Y013412D02*
X010827Y013412D01*
X010827Y013254D02*
X009234Y013254D01*
X009076Y013095D02*
X011003Y013095D01*
X011003Y012937D02*
X008917Y012937D01*
X008453Y013095D02*
X003541Y013095D01*
X004031Y011035D02*
X000754Y011035D01*
X000754Y011193D02*
X007637Y011193D01*
X008726Y009629D02*
X009826Y009629D01*
X010144Y009608D02*
X010393Y009608D01*
X010393Y009767D02*
X010138Y009767D01*
X009979Y009925D02*
X010393Y009925D01*
X010393Y010084D02*
X009804Y010084D01*
X009672Y009925D02*
X009646Y009925D01*
X010102Y010242D02*
X010393Y010242D01*
X010393Y011035D02*
X010107Y011035D01*
X010259Y011827D02*
X010259Y011827D01*
X010259Y011986D02*
X010259Y011986D01*
X010259Y012144D02*
X010259Y012144D01*
X010259Y012303D02*
X010259Y012303D01*
X010259Y012461D02*
X010259Y012461D01*
X011443Y012620D02*
X018543Y012620D01*
X018543Y012778D02*
X011443Y012778D01*
X011443Y012937D02*
X018543Y012937D01*
X014208Y008974D02*
X013589Y008974D01*
X013589Y008816D02*
X014049Y008816D01*
X013929Y008657D02*
X013589Y008657D01*
X013589Y008499D02*
X013929Y008499D01*
X013929Y008340D02*
X013589Y008340D01*
X013589Y008182D02*
X013929Y008182D01*
X013929Y008023D02*
X013589Y008023D01*
X013589Y007865D02*
X014002Y007865D01*
X013801Y007072D02*
X013589Y007072D01*
X013589Y006914D02*
X013657Y006914D01*
X013589Y006755D02*
X013591Y006755D01*
X013589Y006121D02*
X013625Y006121D01*
X013589Y005963D02*
X013724Y005963D01*
X013589Y005804D02*
X013883Y005804D01*
X013589Y005646D02*
X016957Y005646D01*
X016957Y005487D02*
X013589Y005487D01*
X013589Y005329D02*
X016935Y005329D01*
X016776Y005170D02*
X013589Y005170D01*
X013589Y005012D02*
X016618Y005012D01*
X016459Y004853D02*
X013589Y004853D01*
X013589Y004695D02*
X016301Y004695D01*
X016142Y004536D02*
X013589Y004536D01*
X013589Y004378D02*
X015984Y004378D01*
X015825Y004219D02*
X013589Y004219D01*
X013589Y004061D02*
X015667Y004061D01*
X015508Y003902D02*
X013589Y003902D01*
X013589Y003744D02*
X015350Y003744D01*
X015191Y003585D02*
X013589Y003585D01*
X013580Y003427D02*
X015033Y003427D01*
X014874Y003268D02*
X013422Y003268D01*
X013263Y003110D02*
X014716Y003110D01*
X014557Y002951D02*
X013105Y002951D01*
X012946Y002793D02*
X014399Y002793D01*
X014240Y002634D02*
X012788Y002634D01*
X012629Y002476D02*
X014082Y002476D01*
X013923Y002317D02*
X012471Y002317D01*
X012312Y002159D02*
X013765Y002159D01*
X013606Y002000D02*
X012154Y002000D01*
X011995Y001842D02*
X013448Y001842D01*
X011815Y003268D02*
X011190Y003268D01*
X011356Y003744D02*
X012291Y003744D01*
X012449Y003902D02*
X011356Y003902D01*
X011356Y004061D02*
X012558Y004061D01*
X012558Y004219D02*
X011239Y004219D01*
X010678Y004536D02*
X010211Y004536D01*
X010370Y004695D02*
X010519Y004695D01*
X010476Y004853D02*
X010396Y004853D01*
X010396Y005012D02*
X010476Y005012D01*
X010544Y005170D02*
X010345Y005170D01*
X010348Y005646D02*
X008122Y005646D01*
X008281Y005804D02*
X010190Y005804D01*
X010031Y005963D02*
X008439Y005963D01*
X008598Y006121D02*
X009873Y006121D01*
X009714Y006280D02*
X008756Y006280D01*
X008915Y006438D02*
X009556Y006438D01*
X009397Y006597D02*
X009061Y006597D01*
X009061Y006755D02*
X009389Y006755D01*
X009389Y006914D02*
X009061Y006914D01*
X009219Y007072D02*
X009251Y007072D01*
X009609Y006696D02*
X010916Y005389D01*
X010916Y004920D01*
X009646Y005329D02*
X007805Y005329D01*
X007647Y005170D02*
X009487Y005170D01*
X009436Y005012D02*
X007488Y005012D01*
X007330Y004853D02*
X009436Y004853D01*
X009463Y004695D02*
X007171Y004695D01*
X007013Y004536D02*
X009621Y004536D01*
X008841Y006676D02*
X008841Y007444D01*
X008861Y007463D01*
X008465Y007548D02*
X002943Y007548D01*
X002943Y007706D02*
X008465Y007706D01*
X008200Y008340D02*
X009142Y008340D01*
X009064Y008499D02*
X008358Y008499D01*
X008169Y008726D02*
X008054Y008645D01*
X008169Y008726D02*
X009314Y008726D01*
X009064Y008974D02*
X007849Y008974D01*
X007660Y009235D02*
X008647Y009235D01*
X008726Y009314D01*
X009116Y009291D02*
X010161Y009291D01*
X010096Y009450D02*
X010320Y009450D01*
X010613Y009432D02*
X010259Y009078D01*
X010259Y008726D01*
X010574Y008726D02*
X010574Y008726D01*
X010574Y008296D01*
X010574Y008726D01*
X010574Y008657D02*
X010574Y008657D01*
X010574Y008499D02*
X010574Y008499D01*
X010574Y008340D02*
X010574Y008340D01*
X010669Y008182D02*
X009419Y008182D01*
X009577Y008023D02*
X010669Y008023D01*
X010669Y007865D02*
X009957Y007865D01*
X010005Y007706D02*
X010669Y007706D01*
X010827Y007548D02*
X010005Y007548D01*
X009944Y008340D02*
X009944Y008340D01*
X009944Y008499D02*
X009944Y008499D01*
X009944Y008657D02*
X009944Y008657D01*
X009944Y008726D02*
X009944Y008726D01*
X009944Y008816D02*
X009944Y008816D01*
X009944Y008974D02*
X009944Y008974D01*
X009944Y009133D02*
X009944Y009133D01*
X009745Y009133D02*
X009103Y009133D01*
X008841Y006676D02*
X005723Y003558D01*
X005723Y002149D01*
X005283Y002317D02*
X005203Y002317D01*
X005203Y002476D02*
X005283Y002476D01*
X005324Y002634D02*
X005167Y002634D01*
X005058Y002793D02*
X005445Y002793D01*
X004743Y002793D02*
X004703Y002793D01*
X004703Y002634D02*
X004743Y002634D01*
X004743Y002476D02*
X004703Y002476D01*
X004703Y002317D02*
X004743Y002317D01*
X004243Y002000D02*
X004163Y002000D01*
X004163Y001842D02*
X004243Y001842D01*
X004272Y001683D02*
X004131Y001683D01*
X004022Y001525D02*
X004368Y001525D01*
X003425Y001525D02*
X003022Y001525D01*
X003131Y001683D02*
X003316Y001683D01*
X003283Y001842D02*
X003163Y001842D01*
X003163Y002000D02*
X003283Y002000D01*
X002425Y001525D02*
X002099Y001525D01*
X002131Y001683D02*
X002316Y001683D01*
X002283Y001842D02*
X002163Y001842D01*
X002163Y002000D02*
X002283Y002000D01*
X002283Y002159D02*
X002163Y002159D01*
X002163Y002317D02*
X002283Y002317D01*
X002283Y002476D02*
X002163Y002476D01*
X002123Y002634D02*
X002324Y002634D01*
X002445Y002793D02*
X002001Y002793D01*
X002943Y008182D02*
X004236Y008182D01*
X004191Y008340D02*
X002943Y008340D01*
X003101Y008499D02*
X004191Y008499D01*
X004191Y008657D02*
X003260Y008657D01*
X001632Y008636D02*
X001632Y008636D01*
X008037Y014997D02*
X008790Y014997D01*
X008780Y015156D02*
X008037Y015156D01*
X008037Y015314D02*
X008780Y015314D01*
X008780Y015178D02*
X009393Y015178D01*
X009393Y014880D01*
X009393Y015178D01*
X009393Y015178D01*
X008780Y015178D01*
X008849Y015473D02*
X008087Y015473D01*
X008245Y015631D02*
X008820Y015631D01*
X008820Y015790D02*
X008404Y015790D01*
X008563Y015948D02*
X008873Y015948D01*
X008481Y016178D02*
X009393Y016178D01*
X009393Y015178D02*
X009393Y015178D01*
X009393Y015156D02*
X009393Y015156D01*
X009393Y014997D02*
X009393Y014997D01*
X011440Y016678D02*
X011440Y017282D01*
X011531Y017502D02*
X011531Y017502D01*
X011923Y013888D02*
X012019Y013888D01*
X012019Y013729D02*
X011923Y013729D01*
X011674Y013095D02*
X011443Y013095D01*
X012496Y011035D02*
X012558Y011035D01*
X012558Y010876D02*
X012496Y010876D01*
X012496Y010718D02*
X012558Y010718D01*
X012558Y010559D02*
X012496Y010559D01*
X012496Y010401D02*
X012558Y010401D01*
X012019Y007865D02*
X011923Y007865D01*
X011923Y007706D02*
X012019Y007706D01*
X012019Y007548D02*
X011923Y007548D01*
X011923Y007389D02*
X012019Y007389D01*
X012019Y007231D02*
X011923Y007231D01*
X011923Y007072D02*
X012019Y007072D01*
X014824Y005804D02*
X017099Y005804D01*
X017710Y005170D02*
X018083Y005170D01*
X018148Y004853D02*
X017645Y004853D01*
X017397Y004479D02*
X018397Y004479D01*
X018837Y004536D02*
X020079Y004536D01*
X020079Y004378D02*
X018837Y004378D01*
X018759Y004219D02*
X020079Y004219D01*
X020079Y004061D02*
X018600Y004061D01*
X018193Y004061D02*
X017600Y004061D01*
X017759Y004219D02*
X018034Y004219D01*
X018645Y004853D02*
X020079Y004853D01*
X020079Y004695D02*
X018803Y004695D01*
X018819Y006280D02*
X020079Y006280D01*
X020079Y006438D02*
X018837Y006438D01*
X018837Y006597D02*
X020079Y006597D01*
X020079Y006755D02*
X018743Y006755D01*
X003027Y019435D02*
X000754Y019435D01*
X000754Y019277D02*
X002777Y019277D01*
X002633Y019118D02*
X000754Y019118D01*
X000754Y018960D02*
X002567Y018960D01*
X002520Y018801D02*
X000754Y018801D01*
X000754Y018643D02*
X002520Y018643D01*
X002536Y018484D02*
X000754Y018484D01*
X000754Y018326D02*
X002601Y018326D01*
X002701Y018167D02*
X000754Y018167D01*
X000754Y018009D02*
X002859Y018009D01*
D21*
X007660Y014156D03*
X009826Y011204D03*
X009826Y010416D03*
X009826Y009629D03*
X011204Y010416D03*
X008054Y008645D03*
X007660Y009235D03*
D22*
X014119Y008616D02*
X014119Y008316D01*
X014319Y008516D01*
X014119Y008616D02*
X014319Y008816D01*
X014519Y008966D02*
X014519Y008641D01*
X014719Y008816D01*
X014719Y009141D01*
X014519Y008966D01*
X014519Y008641D02*
X014519Y008316D01*
X014119Y008316D02*
X014119Y008016D01*
X014919Y008366D02*
X016069Y009391D01*
X016344Y009641D01*
X016069Y009391D02*
X016069Y010291D01*
X015844Y010091D01*
X015694Y009966D02*
X015594Y009891D01*
X015594Y009241D01*
X015319Y009316D02*
X015119Y009141D01*
X015119Y009466D01*
X015319Y009641D01*
X015319Y009316D01*
X015119Y009141D02*
X015119Y008816D01*
X015369Y009041D01*
X014919Y009316D02*
X014919Y008366D01*
X015469Y009766D02*
X015594Y009891D01*
M02*
