G75*
G70*
%OFA0B0*%
%FSLAX24Y24*%
%IPPOS*%
%LPD*%
%AMOC8*
5,1,8,0,0,1.08239X$1,22.5*
%
%ADD10C,0.0000*%
%ADD11C,0.0600*%
%ADD12OC8,0.0600*%
%ADD13C,0.0160*%
%ADD14OC8,0.0356*%
D10*
X000574Y000574D02*
X020259Y000574D01*
X020259Y020259D01*
X000574Y020259D01*
X000574Y000574D01*
X005849Y006479D02*
X005851Y006529D01*
X005857Y006579D01*
X005867Y006628D01*
X005881Y006676D01*
X005898Y006723D01*
X005919Y006768D01*
X005944Y006812D01*
X005972Y006853D01*
X006004Y006892D01*
X006038Y006929D01*
X006075Y006963D01*
X006115Y006993D01*
X006157Y007020D01*
X006201Y007044D01*
X006247Y007065D01*
X006294Y007081D01*
X006342Y007094D01*
X006392Y007103D01*
X006441Y007108D01*
X006492Y007109D01*
X006542Y007106D01*
X006591Y007099D01*
X006640Y007088D01*
X006688Y007073D01*
X006734Y007055D01*
X006779Y007033D01*
X006822Y007007D01*
X006863Y006978D01*
X006902Y006946D01*
X006938Y006911D01*
X006970Y006873D01*
X007000Y006833D01*
X007027Y006790D01*
X007050Y006746D01*
X007069Y006700D01*
X007085Y006652D01*
X007097Y006603D01*
X007105Y006554D01*
X007109Y006504D01*
X007109Y006454D01*
X007105Y006404D01*
X007097Y006355D01*
X007085Y006306D01*
X007069Y006258D01*
X007050Y006212D01*
X007027Y006168D01*
X007000Y006125D01*
X006970Y006085D01*
X006938Y006047D01*
X006902Y006012D01*
X006863Y005980D01*
X006822Y005951D01*
X006779Y005925D01*
X006734Y005903D01*
X006688Y005885D01*
X006640Y005870D01*
X006591Y005859D01*
X006542Y005852D01*
X006492Y005849D01*
X006441Y005850D01*
X006392Y005855D01*
X006342Y005864D01*
X006294Y005877D01*
X006247Y005893D01*
X006201Y005914D01*
X006157Y005938D01*
X006115Y005965D01*
X006075Y005995D01*
X006038Y006029D01*
X006004Y006066D01*
X005972Y006105D01*
X005944Y006146D01*
X005919Y006190D01*
X005898Y006235D01*
X005881Y006282D01*
X005867Y006330D01*
X005857Y006379D01*
X005851Y006429D01*
X005849Y006479D01*
X013723Y006479D02*
X013725Y006529D01*
X013731Y006579D01*
X013741Y006628D01*
X013755Y006676D01*
X013772Y006723D01*
X013793Y006768D01*
X013818Y006812D01*
X013846Y006853D01*
X013878Y006892D01*
X013912Y006929D01*
X013949Y006963D01*
X013989Y006993D01*
X014031Y007020D01*
X014075Y007044D01*
X014121Y007065D01*
X014168Y007081D01*
X014216Y007094D01*
X014266Y007103D01*
X014315Y007108D01*
X014366Y007109D01*
X014416Y007106D01*
X014465Y007099D01*
X014514Y007088D01*
X014562Y007073D01*
X014608Y007055D01*
X014653Y007033D01*
X014696Y007007D01*
X014737Y006978D01*
X014776Y006946D01*
X014812Y006911D01*
X014844Y006873D01*
X014874Y006833D01*
X014901Y006790D01*
X014924Y006746D01*
X014943Y006700D01*
X014959Y006652D01*
X014971Y006603D01*
X014979Y006554D01*
X014983Y006504D01*
X014983Y006454D01*
X014979Y006404D01*
X014971Y006355D01*
X014959Y006306D01*
X014943Y006258D01*
X014924Y006212D01*
X014901Y006168D01*
X014874Y006125D01*
X014844Y006085D01*
X014812Y006047D01*
X014776Y006012D01*
X014737Y005980D01*
X014696Y005951D01*
X014653Y005925D01*
X014608Y005903D01*
X014562Y005885D01*
X014514Y005870D01*
X014465Y005859D01*
X014416Y005852D01*
X014366Y005849D01*
X014315Y005850D01*
X014266Y005855D01*
X014216Y005864D01*
X014168Y005877D01*
X014121Y005893D01*
X014075Y005914D01*
X014031Y005938D01*
X013989Y005965D01*
X013949Y005995D01*
X013912Y006029D01*
X013878Y006066D01*
X013846Y006105D01*
X013818Y006146D01*
X013793Y006190D01*
X013772Y006235D01*
X013755Y006282D01*
X013741Y006330D01*
X013731Y006379D01*
X013725Y006429D01*
X013723Y006479D01*
X016873Y018684D02*
X016875Y018734D01*
X016881Y018784D01*
X016891Y018833D01*
X016905Y018881D01*
X016922Y018928D01*
X016943Y018973D01*
X016968Y019017D01*
X016996Y019058D01*
X017028Y019097D01*
X017062Y019134D01*
X017099Y019168D01*
X017139Y019198D01*
X017181Y019225D01*
X017225Y019249D01*
X017271Y019270D01*
X017318Y019286D01*
X017366Y019299D01*
X017416Y019308D01*
X017465Y019313D01*
X017516Y019314D01*
X017566Y019311D01*
X017615Y019304D01*
X017664Y019293D01*
X017712Y019278D01*
X017758Y019260D01*
X017803Y019238D01*
X017846Y019212D01*
X017887Y019183D01*
X017926Y019151D01*
X017962Y019116D01*
X017994Y019078D01*
X018024Y019038D01*
X018051Y018995D01*
X018074Y018951D01*
X018093Y018905D01*
X018109Y018857D01*
X018121Y018808D01*
X018129Y018759D01*
X018133Y018709D01*
X018133Y018659D01*
X018129Y018609D01*
X018121Y018560D01*
X018109Y018511D01*
X018093Y018463D01*
X018074Y018417D01*
X018051Y018373D01*
X018024Y018330D01*
X017994Y018290D01*
X017962Y018252D01*
X017926Y018217D01*
X017887Y018185D01*
X017846Y018156D01*
X017803Y018130D01*
X017758Y018108D01*
X017712Y018090D01*
X017664Y018075D01*
X017615Y018064D01*
X017566Y018057D01*
X017516Y018054D01*
X017465Y018055D01*
X017416Y018060D01*
X017366Y018069D01*
X017318Y018082D01*
X017271Y018098D01*
X017225Y018119D01*
X017181Y018143D01*
X017139Y018170D01*
X017099Y018200D01*
X017062Y018234D01*
X017028Y018271D01*
X016996Y018310D01*
X016968Y018351D01*
X016943Y018395D01*
X016922Y018440D01*
X016905Y018487D01*
X016891Y018535D01*
X016881Y018584D01*
X016875Y018634D01*
X016873Y018684D01*
X002700Y018684D02*
X002702Y018734D01*
X002708Y018784D01*
X002718Y018833D01*
X002732Y018881D01*
X002749Y018928D01*
X002770Y018973D01*
X002795Y019017D01*
X002823Y019058D01*
X002855Y019097D01*
X002889Y019134D01*
X002926Y019168D01*
X002966Y019198D01*
X003008Y019225D01*
X003052Y019249D01*
X003098Y019270D01*
X003145Y019286D01*
X003193Y019299D01*
X003243Y019308D01*
X003292Y019313D01*
X003343Y019314D01*
X003393Y019311D01*
X003442Y019304D01*
X003491Y019293D01*
X003539Y019278D01*
X003585Y019260D01*
X003630Y019238D01*
X003673Y019212D01*
X003714Y019183D01*
X003753Y019151D01*
X003789Y019116D01*
X003821Y019078D01*
X003851Y019038D01*
X003878Y018995D01*
X003901Y018951D01*
X003920Y018905D01*
X003936Y018857D01*
X003948Y018808D01*
X003956Y018759D01*
X003960Y018709D01*
X003960Y018659D01*
X003956Y018609D01*
X003948Y018560D01*
X003936Y018511D01*
X003920Y018463D01*
X003901Y018417D01*
X003878Y018373D01*
X003851Y018330D01*
X003821Y018290D01*
X003789Y018252D01*
X003753Y018217D01*
X003714Y018185D01*
X003673Y018156D01*
X003630Y018130D01*
X003585Y018108D01*
X003539Y018090D01*
X003491Y018075D01*
X003442Y018064D01*
X003393Y018057D01*
X003343Y018054D01*
X003292Y018055D01*
X003243Y018060D01*
X003193Y018069D01*
X003145Y018082D01*
X003098Y018098D01*
X003052Y018119D01*
X003008Y018143D01*
X002966Y018170D01*
X002926Y018200D01*
X002889Y018234D01*
X002855Y018271D01*
X002823Y018310D01*
X002795Y018351D01*
X002770Y018395D01*
X002749Y018440D01*
X002732Y018487D01*
X002718Y018535D01*
X002708Y018584D01*
X002702Y018634D01*
X002700Y018684D01*
D11*
X006038Y018984D02*
X006038Y018384D01*
X008038Y018384D02*
X008038Y018984D01*
X010038Y018984D02*
X010038Y018384D01*
X012038Y018384D02*
X012038Y018984D01*
X003236Y013778D02*
X002636Y013778D01*
X002636Y012778D02*
X003236Y012778D01*
X003236Y011778D02*
X002636Y011778D01*
X002723Y002449D02*
X002723Y001849D01*
X003723Y001849D02*
X003723Y002449D01*
X004723Y002449D02*
X004723Y001849D01*
X005723Y001849D02*
X005723Y002449D01*
X001723Y002449D02*
X001723Y001849D01*
D12*
X009916Y002920D03*
X009916Y003920D03*
X009916Y004920D03*
X010916Y004920D03*
X010916Y003920D03*
X010916Y002920D03*
X017397Y004479D03*
X018397Y004479D03*
X018397Y005479D03*
X018397Y006479D03*
X018397Y007479D03*
X018397Y008479D03*
X017397Y008479D03*
X017397Y007479D03*
X017397Y006479D03*
X017397Y005479D03*
D13*
X017694Y005804D02*
X018099Y005804D01*
X018214Y005919D02*
X017957Y005661D01*
X017957Y005297D01*
X018214Y005039D01*
X018579Y005039D01*
X018837Y005297D01*
X018837Y005661D01*
X018579Y005919D01*
X018214Y005919D01*
X018214Y006039D02*
X018579Y006039D01*
X018837Y006297D01*
X018837Y006661D01*
X018579Y006919D01*
X018214Y006919D01*
X017957Y006661D01*
X017957Y006297D01*
X018214Y006039D01*
X018132Y006121D02*
X017661Y006121D01*
X017579Y006039D02*
X017837Y006297D01*
X017837Y006661D01*
X017579Y006919D01*
X017214Y006919D01*
X016957Y006661D01*
X016957Y006297D01*
X017214Y006039D01*
X017579Y006039D01*
X017579Y005919D02*
X017214Y005919D01*
X016957Y005661D01*
X016957Y005297D01*
X017214Y005039D01*
X017579Y005039D01*
X017837Y005297D01*
X017837Y005661D01*
X017579Y005919D01*
X017837Y005646D02*
X017957Y005646D01*
X017957Y005487D02*
X017837Y005487D01*
X017837Y005329D02*
X017957Y005329D01*
X018083Y005170D02*
X017710Y005170D01*
X017579Y004919D02*
X017214Y004919D01*
X016957Y004661D01*
X016957Y004350D01*
X013990Y001384D01*
X004848Y001384D01*
X004908Y001404D01*
X004975Y001438D01*
X005036Y001482D01*
X005089Y001536D01*
X005134Y001597D01*
X005168Y001664D01*
X005191Y001736D01*
X005203Y001811D01*
X005203Y002129D01*
X004743Y002129D01*
X004743Y002169D01*
X004703Y002169D01*
X004703Y002929D01*
X004686Y002929D01*
X004611Y002917D01*
X004539Y002893D01*
X004472Y002859D01*
X004411Y002815D01*
X004357Y002761D01*
X004313Y002700D01*
X004278Y002633D01*
X004255Y002561D01*
X004243Y002486D01*
X004243Y002169D01*
X004703Y002169D01*
X004703Y002129D01*
X004243Y002129D01*
X004243Y001811D01*
X004255Y001736D01*
X004278Y001664D01*
X004313Y001597D01*
X004357Y001536D01*
X004411Y001482D01*
X004472Y001438D01*
X004539Y001404D01*
X004599Y001384D01*
X003421Y001384D01*
X003128Y001677D01*
X003163Y001761D01*
X003163Y002536D01*
X003096Y002698D01*
X002973Y002822D01*
X002811Y002889D01*
X002636Y002889D01*
X002474Y002822D01*
X002350Y002698D01*
X002283Y002536D01*
X002283Y001761D01*
X002350Y001599D01*
X002474Y001475D01*
X002636Y001409D01*
X002774Y001409D01*
X003110Y001073D01*
X003238Y000944D01*
X014173Y000944D01*
X014302Y001073D01*
X017268Y004039D01*
X017579Y004039D01*
X017837Y004297D01*
X017837Y004661D01*
X017579Y004919D01*
X017645Y004853D02*
X018148Y004853D01*
X018214Y004919D02*
X017957Y004661D01*
X017957Y004297D01*
X018214Y004039D01*
X018579Y004039D01*
X018837Y004297D01*
X018837Y004661D01*
X018579Y004919D01*
X018214Y004919D01*
X017990Y004695D02*
X017803Y004695D01*
X017837Y004536D02*
X017957Y004536D01*
X017957Y004378D02*
X017837Y004378D01*
X017759Y004219D02*
X018034Y004219D01*
X018193Y004061D02*
X017600Y004061D01*
X017397Y004479D02*
X014082Y001164D01*
X003330Y001164D01*
X002723Y001771D01*
X002723Y002149D01*
X003163Y002159D02*
X003283Y002159D01*
X003283Y002317D02*
X003163Y002317D01*
X003163Y002476D02*
X003283Y002476D01*
X003283Y002536D02*
X003350Y002698D01*
X003474Y002822D01*
X003636Y002889D01*
X003811Y002889D01*
X003973Y002822D01*
X004096Y002698D01*
X004163Y002536D01*
X004163Y001761D01*
X004096Y001599D01*
X003973Y001475D01*
X003811Y001409D01*
X003636Y001409D01*
X003474Y001475D01*
X003350Y001599D01*
X003283Y001761D01*
X003283Y002536D01*
X003324Y002634D02*
X003123Y002634D01*
X003001Y002793D02*
X003445Y002793D01*
X004001Y002793D02*
X004389Y002793D01*
X004279Y002634D02*
X004123Y002634D01*
X004163Y002476D02*
X004243Y002476D01*
X004243Y002317D02*
X004163Y002317D01*
X004163Y002159D02*
X004703Y002159D01*
X004743Y002159D02*
X005283Y002159D01*
X005203Y002169D02*
X005203Y002486D01*
X005191Y002561D01*
X005168Y002633D01*
X005134Y002700D01*
X005089Y002761D01*
X005036Y002815D01*
X004975Y002859D01*
X004908Y002893D01*
X004836Y002917D01*
X004761Y002929D01*
X004743Y002929D01*
X004743Y002169D01*
X005203Y002169D01*
X005203Y002317D02*
X005283Y002317D01*
X005283Y002476D02*
X005203Y002476D01*
X005283Y002536D02*
X005283Y001761D01*
X005350Y001599D01*
X005474Y001475D01*
X005636Y001409D01*
X005811Y001409D01*
X005973Y001475D01*
X006096Y001599D01*
X006151Y001732D01*
X010507Y001732D01*
X011703Y001732D01*
X011885Y001732D01*
X016610Y006456D01*
X016739Y006585D01*
X016739Y007510D01*
X017268Y008039D01*
X017579Y008039D01*
X017837Y008297D01*
X017837Y008661D01*
X017579Y008919D01*
X017214Y008919D01*
X016957Y008661D01*
X016957Y008350D01*
X016299Y007692D01*
X016299Y006767D01*
X011703Y002172D01*
X010507Y002172D01*
X010149Y002530D01*
X010356Y002738D01*
X010356Y003102D01*
X010098Y003360D01*
X009734Y003360D01*
X009476Y003102D01*
X009476Y002738D01*
X009696Y002518D01*
X009696Y002361D01*
X009885Y002172D01*
X006163Y002172D01*
X006163Y002536D01*
X006096Y002698D01*
X005973Y002822D01*
X005811Y002889D01*
X005636Y002889D01*
X005474Y002822D01*
X005350Y002698D01*
X005283Y002536D01*
X005324Y002634D02*
X005167Y002634D01*
X005058Y002793D02*
X005445Y002793D01*
X006001Y002793D02*
X009476Y002793D01*
X009476Y002951D02*
X000754Y002951D01*
X000754Y002793D02*
X001445Y002793D01*
X001474Y002822D02*
X001350Y002698D01*
X001283Y002536D01*
X001283Y001761D01*
X001350Y001599D01*
X001474Y001475D01*
X001636Y001409D01*
X001811Y001409D01*
X001973Y001475D01*
X002096Y001599D01*
X002163Y001761D01*
X002163Y002536D01*
X002096Y002698D01*
X001973Y002822D01*
X001811Y002889D01*
X001636Y002889D01*
X001474Y002822D01*
X001324Y002634D02*
X000754Y002634D01*
X000754Y002476D02*
X001283Y002476D01*
X001283Y002317D02*
X000754Y002317D01*
X000754Y002159D02*
X001283Y002159D01*
X001283Y002000D02*
X000754Y002000D01*
X000754Y001842D02*
X001283Y001842D01*
X001316Y001683D02*
X000754Y001683D01*
X000754Y001525D02*
X001425Y001525D01*
X002022Y001525D02*
X002425Y001525D01*
X002316Y001683D02*
X002131Y001683D01*
X002163Y001842D02*
X002283Y001842D01*
X002283Y002000D02*
X002163Y002000D01*
X002163Y002159D02*
X002283Y002159D01*
X002283Y002317D02*
X002163Y002317D01*
X002163Y002476D02*
X002283Y002476D01*
X002324Y002634D02*
X002123Y002634D01*
X002001Y002793D02*
X002445Y002793D01*
X003163Y002000D02*
X003283Y002000D01*
X003283Y001842D02*
X003163Y001842D01*
X003131Y001683D02*
X003316Y001683D01*
X003280Y001525D02*
X003425Y001525D01*
X002975Y001208D02*
X000754Y001208D01*
X000754Y001366D02*
X002817Y001366D01*
X003110Y001073D02*
X003110Y001073D01*
X003134Y001049D02*
X000754Y001049D01*
X000754Y000891D02*
X020079Y000891D01*
X020079Y000754D02*
X000754Y000754D01*
X000754Y020079D01*
X020079Y020079D01*
X020079Y000754D01*
X020079Y001049D02*
X014278Y001049D01*
X014436Y001208D02*
X020079Y001208D01*
X020079Y001366D02*
X014595Y001366D01*
X014753Y001525D02*
X020079Y001525D01*
X020079Y001683D02*
X014912Y001683D01*
X015070Y001842D02*
X020079Y001842D01*
X020079Y002000D02*
X015229Y002000D01*
X015387Y002159D02*
X020079Y002159D01*
X020079Y002317D02*
X015546Y002317D01*
X015704Y002476D02*
X020079Y002476D01*
X020079Y002634D02*
X015863Y002634D01*
X016021Y002793D02*
X020079Y002793D01*
X020079Y002951D02*
X016180Y002951D01*
X016338Y003110D02*
X020079Y003110D01*
X020079Y003268D02*
X016497Y003268D01*
X016655Y003427D02*
X020079Y003427D01*
X020079Y003585D02*
X016814Y003585D01*
X016972Y003744D02*
X020079Y003744D01*
X020079Y003902D02*
X017131Y003902D01*
X016825Y004219D02*
X014373Y004219D01*
X014214Y004061D02*
X016667Y004061D01*
X016508Y003902D02*
X014056Y003902D01*
X013897Y003744D02*
X016350Y003744D01*
X016191Y003585D02*
X013739Y003585D01*
X013580Y003427D02*
X016033Y003427D01*
X015874Y003268D02*
X013422Y003268D01*
X013263Y003110D02*
X015716Y003110D01*
X015557Y002951D02*
X013105Y002951D01*
X012946Y002793D02*
X015399Y002793D01*
X015240Y002634D02*
X012788Y002634D01*
X012629Y002476D02*
X015082Y002476D01*
X014923Y002317D02*
X012471Y002317D01*
X012312Y002159D02*
X014765Y002159D01*
X014606Y002000D02*
X012154Y002000D01*
X011995Y001842D02*
X014448Y001842D01*
X014289Y001683D02*
X006131Y001683D01*
X006022Y001525D02*
X014131Y001525D01*
X012641Y003110D02*
X011349Y003110D01*
X011356Y003102D02*
X011098Y003360D01*
X010734Y003360D01*
X010476Y003102D01*
X010476Y002738D01*
X010734Y002480D01*
X011098Y002480D01*
X011356Y002738D01*
X011356Y003102D01*
X011356Y002951D02*
X012483Y002951D01*
X012324Y002793D02*
X011356Y002793D01*
X011253Y002634D02*
X012166Y002634D01*
X012007Y002476D02*
X010203Y002476D01*
X010253Y002634D02*
X010580Y002634D01*
X010476Y002793D02*
X010356Y002793D01*
X010356Y002951D02*
X010476Y002951D01*
X010484Y003110D02*
X010349Y003110D01*
X010190Y003268D02*
X010642Y003268D01*
X010734Y003480D02*
X011098Y003480D01*
X011356Y003738D01*
X011356Y004102D01*
X011098Y004360D01*
X010734Y004360D01*
X010476Y004102D01*
X010476Y003738D01*
X010734Y003480D01*
X010629Y003585D02*
X010204Y003585D01*
X010098Y003480D02*
X010356Y003738D01*
X010356Y004102D01*
X010098Y004360D01*
X009734Y004360D01*
X009514Y004140D01*
X009326Y004140D01*
X009258Y004208D01*
X009258Y005404D01*
X011424Y007569D01*
X011424Y010186D01*
X011522Y010284D01*
X011522Y010548D01*
X011335Y010734D01*
X011072Y010734D01*
X010886Y010548D01*
X010886Y010284D01*
X010984Y010186D01*
X010984Y007751D01*
X008947Y005715D01*
X008818Y005586D01*
X008818Y004026D01*
X009015Y003829D01*
X009144Y003700D01*
X009514Y003700D01*
X009734Y003480D01*
X010098Y003480D01*
X010356Y003744D02*
X010476Y003744D01*
X010476Y003902D02*
X010356Y003902D01*
X010356Y004061D02*
X010476Y004061D01*
X010593Y004219D02*
X010239Y004219D01*
X010115Y004440D02*
X010396Y004721D01*
X010396Y004900D01*
X009936Y004900D01*
X009936Y004440D01*
X010115Y004440D01*
X010211Y004536D02*
X010678Y004536D01*
X010734Y004480D02*
X011098Y004480D01*
X011356Y004738D01*
X011356Y005102D01*
X011098Y005360D01*
X010734Y005360D01*
X010476Y005102D01*
X010476Y004738D01*
X010734Y004480D01*
X010519Y004695D02*
X010370Y004695D01*
X010396Y004853D02*
X010476Y004853D01*
X010396Y004940D02*
X010396Y005119D01*
X010115Y005400D01*
X009936Y005400D01*
X009936Y004940D01*
X009896Y004940D01*
X009896Y004900D01*
X009436Y004900D01*
X009436Y004721D01*
X009717Y004440D01*
X009896Y004440D01*
X009896Y004900D01*
X009936Y004900D01*
X009936Y004940D01*
X010396Y004940D01*
X010396Y005012D02*
X010476Y005012D01*
X010544Y005170D02*
X010345Y005170D01*
X010186Y005329D02*
X010703Y005329D01*
X011130Y005329D02*
X014860Y005329D01*
X015019Y005487D02*
X009342Y005487D01*
X009258Y005329D02*
X009646Y005329D01*
X009717Y005400D02*
X009436Y005119D01*
X009436Y004940D01*
X009896Y004940D01*
X009896Y005400D01*
X009717Y005400D01*
X009896Y005329D02*
X009936Y005329D01*
X009936Y005170D02*
X009896Y005170D01*
X009896Y005012D02*
X009936Y005012D01*
X009936Y004853D02*
X009896Y004853D01*
X009896Y004695D02*
X009936Y004695D01*
X009936Y004536D02*
X009896Y004536D01*
X009621Y004536D02*
X009258Y004536D01*
X009258Y004378D02*
X013909Y004378D01*
X014068Y004536D02*
X011155Y004536D01*
X011313Y004695D02*
X014226Y004695D01*
X014385Y004853D02*
X011356Y004853D01*
X011356Y005012D02*
X014543Y005012D01*
X014702Y005170D02*
X011288Y005170D01*
X011239Y004219D02*
X013751Y004219D01*
X013592Y004061D02*
X011356Y004061D01*
X011356Y003902D02*
X013434Y003902D01*
X013275Y003744D02*
X011356Y003744D01*
X011204Y003585D02*
X013117Y003585D01*
X012958Y003427D02*
X000754Y003427D01*
X000754Y003585D02*
X009629Y003585D01*
X009916Y003920D02*
X009235Y003920D01*
X009038Y004117D01*
X009038Y005495D01*
X011204Y007660D01*
X011204Y010416D01*
X010886Y010401D02*
X010144Y010401D01*
X010144Y010284D02*
X010144Y010548D01*
X009957Y010734D01*
X009819Y010734D01*
X006683Y013870D01*
X006555Y013998D01*
X003621Y013998D01*
X003609Y014028D01*
X003485Y014151D01*
X003323Y014218D01*
X002548Y014218D01*
X002387Y014151D01*
X002263Y014028D01*
X002196Y013866D01*
X002196Y013691D01*
X002263Y013529D01*
X002387Y013405D01*
X002548Y013338D01*
X003323Y013338D01*
X003485Y013405D01*
X003609Y013529D01*
X003621Y013558D01*
X006372Y013558D01*
X009508Y010423D01*
X009508Y010284D01*
X009694Y010098D01*
X009957Y010098D01*
X010144Y010284D01*
X010102Y010242D02*
X010928Y010242D01*
X010984Y010084D02*
X009682Y010084D01*
X009819Y009947D02*
X006896Y012870D01*
X006767Y012998D01*
X003621Y012998D01*
X003609Y013028D01*
X003485Y013151D01*
X003323Y013218D01*
X002548Y013218D01*
X002387Y013151D01*
X002263Y013028D01*
X002196Y012866D01*
X002196Y012691D01*
X002263Y012529D01*
X002387Y012405D01*
X002548Y012338D01*
X003323Y012338D01*
X003485Y012405D01*
X003609Y012529D01*
X003621Y012558D01*
X006585Y012558D01*
X009508Y009636D01*
X009508Y009497D01*
X009694Y009311D01*
X009957Y009311D01*
X010144Y009497D01*
X010144Y009761D01*
X009957Y009947D01*
X009819Y009947D01*
X009979Y009925D02*
X010984Y009925D01*
X010984Y009767D02*
X010138Y009767D01*
X010144Y009608D02*
X010984Y009608D01*
X010984Y009450D02*
X010096Y009450D01*
X009826Y009629D02*
X006676Y012778D01*
X002936Y012778D01*
X003541Y012461D02*
X006682Y012461D01*
X006841Y012303D02*
X002172Y012303D01*
X002172Y012461D02*
X002331Y012461D01*
X002225Y012620D02*
X002172Y012620D01*
X002172Y012778D02*
X002196Y012778D01*
X002172Y012937D02*
X002225Y012937D01*
X002172Y013095D02*
X002330Y013095D01*
X002172Y013254D02*
X006677Y013254D01*
X006519Y013412D02*
X003492Y013412D01*
X003541Y013095D02*
X006836Y013095D01*
X006829Y012937D02*
X006994Y012937D01*
X006987Y012778D02*
X007153Y012778D01*
X007146Y012620D02*
X007311Y012620D01*
X007304Y012461D02*
X007470Y012461D01*
X007463Y012303D02*
X007628Y012303D01*
X007621Y012144D02*
X007787Y012144D01*
X007780Y011986D02*
X007945Y011986D01*
X007938Y011827D02*
X008104Y011827D01*
X008097Y011669D02*
X008262Y011669D01*
X008255Y011510D02*
X008421Y011510D01*
X008414Y011352D02*
X008579Y011352D01*
X008572Y011193D02*
X008738Y011193D01*
X008731Y011035D02*
X008896Y011035D01*
X008889Y010876D02*
X009055Y010876D01*
X009048Y010718D02*
X009213Y010718D01*
X009206Y010559D02*
X009372Y010559D01*
X009365Y010401D02*
X009508Y010401D01*
X009523Y010242D02*
X009550Y010242D01*
X009826Y010416D02*
X006463Y013778D01*
X002936Y013778D01*
X003357Y014205D02*
X007342Y014205D01*
X007342Y014288D02*
X007342Y014025D01*
X007529Y013838D01*
X007667Y013838D01*
X009606Y011900D01*
X009606Y011433D01*
X009508Y011335D01*
X009508Y011072D01*
X009694Y010886D01*
X009957Y010886D01*
X010144Y011072D01*
X010144Y011335D01*
X010046Y011433D01*
X010046Y012082D01*
X007978Y014149D01*
X007978Y014288D01*
X007792Y014474D01*
X007529Y014474D01*
X007342Y014288D01*
X007417Y014363D02*
X002172Y014363D01*
X002172Y014205D02*
X002515Y014205D01*
X002281Y014046D02*
X002172Y014046D01*
X002172Y013888D02*
X002205Y013888D01*
X002196Y013729D02*
X002172Y013729D01*
X002172Y013571D02*
X002246Y013571D01*
X002172Y013412D02*
X002380Y013412D01*
X001732Y013412D02*
X001581Y013412D01*
X001581Y013254D02*
X001732Y013254D01*
X001732Y013095D02*
X001581Y013095D01*
X001581Y012937D02*
X001732Y012937D01*
X001732Y012778D02*
X001581Y012778D01*
X001581Y012620D02*
X001732Y012620D01*
X001732Y012461D02*
X001581Y012461D01*
X001581Y012303D02*
X001732Y012303D01*
X001732Y012144D02*
X001581Y012144D01*
X001581Y011986D02*
X001732Y011986D01*
X001732Y011827D02*
X001581Y011827D01*
X001581Y011669D02*
X001732Y011669D01*
X001732Y011510D02*
X001581Y011510D01*
X001581Y011352D02*
X001732Y011352D01*
X001732Y011193D02*
X001581Y011193D01*
X001581Y011035D02*
X001732Y011035D01*
X001732Y010876D02*
X001581Y010876D01*
X001581Y010718D02*
X001732Y010718D01*
X001732Y010559D02*
X001581Y010559D01*
X001732Y010522D02*
X003238Y009015D01*
X007430Y009015D01*
X007529Y008917D01*
X007792Y008917D01*
X007978Y009103D01*
X007978Y009367D01*
X007792Y009553D01*
X007529Y009553D01*
X007430Y009455D01*
X003421Y009455D01*
X002172Y010704D01*
X002172Y011654D01*
X002191Y011594D01*
X002225Y011527D01*
X002270Y011466D01*
X002323Y011412D01*
X002384Y011368D01*
X002452Y011334D01*
X002524Y011310D01*
X002598Y011298D01*
X002916Y011298D01*
X002916Y011758D01*
X002956Y011758D01*
X002956Y011298D01*
X003274Y011298D01*
X003348Y011310D01*
X003420Y011334D01*
X003487Y011368D01*
X003549Y011412D01*
X003602Y011466D01*
X003646Y011527D01*
X003681Y011594D01*
X003704Y011666D01*
X003716Y011741D01*
X003716Y011758D01*
X002956Y011758D01*
X002956Y011798D01*
X003716Y011798D01*
X003716Y011816D01*
X003704Y011891D01*
X003681Y011963D01*
X003646Y012030D01*
X003602Y012091D01*
X003549Y012145D01*
X003487Y012189D01*
X003420Y012223D01*
X003348Y012247D01*
X003274Y012258D01*
X002956Y012258D01*
X002956Y011798D01*
X002916Y011798D01*
X002916Y012258D01*
X002598Y012258D01*
X002524Y012247D01*
X002452Y012223D01*
X002384Y012189D01*
X002323Y012145D01*
X002270Y012091D01*
X002225Y012030D01*
X002191Y011963D01*
X002172Y011903D01*
X002172Y014853D01*
X004799Y017480D01*
X006373Y017480D01*
X006502Y017609D01*
X007358Y018464D01*
X007598Y018464D01*
X007598Y018296D01*
X007665Y018135D01*
X007789Y018011D01*
X007951Y017944D01*
X008126Y017944D01*
X008288Y018011D01*
X008411Y018135D01*
X008478Y018296D01*
X008478Y019071D01*
X008411Y019233D01*
X008288Y019357D01*
X008126Y019424D01*
X007951Y019424D01*
X007789Y019357D01*
X007665Y019233D01*
X007598Y019071D01*
X007598Y018904D01*
X007175Y018904D01*
X006415Y018143D01*
X006478Y018296D01*
X006478Y019071D01*
X006411Y019233D01*
X006288Y019357D01*
X006126Y019424D01*
X005951Y019424D01*
X005789Y019357D01*
X005665Y019233D01*
X005598Y019071D01*
X005598Y018904D01*
X004813Y018904D01*
X001141Y015232D01*
X001141Y015050D01*
X001141Y010114D01*
X001141Y009931D01*
X002648Y008425D01*
X007824Y008425D01*
X007922Y008326D01*
X008186Y008326D01*
X008372Y008513D01*
X008372Y008776D01*
X008186Y008963D01*
X007922Y008963D01*
X007824Y008865D01*
X002830Y008865D01*
X001581Y010114D01*
X001581Y015050D01*
X004996Y018464D01*
X005598Y018464D01*
X005598Y018296D01*
X005665Y018135D01*
X005789Y018011D01*
X005951Y017944D01*
X006126Y017944D01*
X006279Y018007D01*
X006191Y017920D01*
X004616Y017920D01*
X001732Y015035D01*
X001732Y010522D01*
X001853Y010401D02*
X001581Y010401D01*
X001581Y010242D02*
X002011Y010242D01*
X002170Y010084D02*
X001611Y010084D01*
X001770Y009925D02*
X002328Y009925D01*
X002487Y009767D02*
X001928Y009767D01*
X002087Y009608D02*
X002645Y009608D01*
X002804Y009450D02*
X002245Y009450D01*
X002404Y009291D02*
X002962Y009291D01*
X003121Y009133D02*
X002562Y009133D01*
X002721Y008974D02*
X007471Y008974D01*
X007660Y009235D02*
X003330Y009235D01*
X001952Y010613D01*
X001952Y014944D01*
X004708Y017700D01*
X006282Y017700D01*
X007267Y018684D01*
X008038Y018684D01*
X008478Y018643D02*
X009598Y018643D01*
X009598Y018801D02*
X008478Y018801D01*
X008478Y018960D02*
X009598Y018960D01*
X009598Y019071D02*
X009598Y018296D01*
X009665Y018135D01*
X009789Y018011D01*
X009951Y017944D01*
X010126Y017944D01*
X010288Y018011D01*
X010411Y018135D01*
X010478Y018296D01*
X010478Y019071D01*
X010411Y019233D01*
X010288Y019357D01*
X010126Y019424D01*
X009951Y019424D01*
X009789Y019357D01*
X009665Y019233D01*
X009598Y019071D01*
X009618Y019118D02*
X008459Y019118D01*
X008368Y019277D02*
X009709Y019277D01*
X010368Y019277D02*
X011658Y019277D01*
X011672Y019297D02*
X011628Y019236D01*
X011593Y019168D01*
X011570Y019096D01*
X011558Y019022D01*
X011558Y018704D01*
X012018Y018704D01*
X012018Y018664D01*
X011558Y018664D01*
X011558Y018346D01*
X011570Y018272D01*
X011593Y018200D01*
X011628Y018132D01*
X011672Y018071D01*
X011726Y018018D01*
X011787Y017973D01*
X011854Y017939D01*
X011926Y017916D01*
X012000Y017904D01*
X012018Y017904D01*
X012018Y018664D01*
X012058Y018664D01*
X012058Y017904D01*
X012076Y017904D01*
X012151Y017916D01*
X012223Y017939D01*
X012290Y017973D01*
X012351Y018018D01*
X012404Y018071D01*
X012449Y018132D01*
X012483Y018200D01*
X012506Y018272D01*
X012518Y018346D01*
X012518Y018664D01*
X012058Y018664D01*
X012058Y018704D01*
X012018Y018704D01*
X012018Y019464D01*
X012000Y019464D01*
X011926Y019452D01*
X011854Y019429D01*
X011787Y019394D01*
X011726Y019350D01*
X011672Y019297D01*
X011577Y019118D02*
X010459Y019118D01*
X010478Y018960D02*
X011558Y018960D01*
X011558Y018801D02*
X010478Y018801D01*
X010478Y018643D02*
X011558Y018643D01*
X011558Y018484D02*
X010478Y018484D01*
X010478Y018326D02*
X011562Y018326D01*
X011610Y018167D02*
X010425Y018167D01*
X010282Y018009D02*
X011738Y018009D01*
X012018Y018009D02*
X012058Y018009D01*
X012058Y018167D02*
X012018Y018167D01*
X012018Y018326D02*
X012058Y018326D01*
X012058Y018484D02*
X012018Y018484D01*
X012018Y018643D02*
X012058Y018643D01*
X012058Y018704D02*
X012518Y018704D01*
X012518Y019022D01*
X012506Y019096D01*
X012483Y019168D01*
X012449Y019236D01*
X012404Y019297D01*
X012351Y019350D01*
X012290Y019394D01*
X012223Y019429D01*
X012151Y019452D01*
X012076Y019464D01*
X012058Y019464D01*
X012058Y018704D01*
X012058Y018801D02*
X012018Y018801D01*
X012018Y018960D02*
X012058Y018960D01*
X012058Y019118D02*
X012018Y019118D01*
X012018Y019277D02*
X012058Y019277D01*
X012058Y019435D02*
X012018Y019435D01*
X011874Y019435D02*
X003632Y019435D01*
X003491Y019494D02*
X003788Y019371D01*
X004016Y019143D01*
X004140Y018845D01*
X004140Y018523D01*
X004016Y018225D01*
X003788Y017997D01*
X003491Y017874D01*
X003169Y017874D01*
X002871Y017997D01*
X002643Y018225D01*
X002520Y018523D01*
X002520Y018845D01*
X002643Y019143D01*
X002871Y019371D01*
X003169Y019494D01*
X003491Y019494D01*
X003882Y019277D02*
X005709Y019277D01*
X005618Y019118D02*
X004026Y019118D01*
X004092Y018960D02*
X005598Y018960D01*
X006038Y018684D02*
X004904Y018684D01*
X001361Y015141D01*
X001361Y010023D01*
X002739Y008645D01*
X008054Y008645D01*
X008333Y008816D02*
X010984Y008816D01*
X010984Y008974D02*
X007849Y008974D01*
X007978Y009133D02*
X010984Y009133D01*
X010984Y009291D02*
X007978Y009291D01*
X007896Y009450D02*
X009555Y009450D01*
X009508Y009608D02*
X003268Y009608D01*
X003109Y009767D02*
X009377Y009767D01*
X009218Y009925D02*
X002951Y009925D01*
X002792Y010084D02*
X009060Y010084D01*
X008901Y010242D02*
X002634Y010242D01*
X002475Y010401D02*
X008743Y010401D01*
X008584Y010559D02*
X002317Y010559D01*
X002172Y010718D02*
X008426Y010718D01*
X008267Y010876D02*
X002172Y010876D01*
X002172Y011035D02*
X008109Y011035D01*
X007950Y011193D02*
X002172Y011193D01*
X002172Y011352D02*
X002416Y011352D01*
X002237Y011510D02*
X002172Y011510D01*
X002172Y011986D02*
X002203Y011986D01*
X002172Y012144D02*
X002323Y012144D01*
X002916Y012144D02*
X002956Y012144D01*
X002956Y011986D02*
X002916Y011986D01*
X002916Y011827D02*
X002956Y011827D01*
X002956Y011669D02*
X002916Y011669D01*
X002916Y011510D02*
X002956Y011510D01*
X002956Y011352D02*
X002916Y011352D01*
X003456Y011352D02*
X007792Y011352D01*
X007633Y011510D02*
X003634Y011510D01*
X003705Y011669D02*
X007475Y011669D01*
X007316Y011827D02*
X003714Y011827D01*
X003669Y011986D02*
X007158Y011986D01*
X006999Y012144D02*
X003549Y012144D01*
X003590Y014046D02*
X007342Y014046D01*
X007479Y013888D02*
X006665Y013888D01*
X006824Y013729D02*
X007776Y013729D01*
X007935Y013571D02*
X006982Y013571D01*
X007141Y013412D02*
X008093Y013412D01*
X008252Y013254D02*
X007299Y013254D01*
X007458Y013095D02*
X008410Y013095D01*
X008569Y012937D02*
X007616Y012937D01*
X007775Y012778D02*
X008727Y012778D01*
X008886Y012620D02*
X007933Y012620D01*
X008092Y012461D02*
X009044Y012461D01*
X009203Y012303D02*
X008250Y012303D01*
X008409Y012144D02*
X009361Y012144D01*
X009520Y011986D02*
X008567Y011986D01*
X008726Y011827D02*
X009606Y011827D01*
X009606Y011669D02*
X008884Y011669D01*
X009043Y011510D02*
X009606Y011510D01*
X009524Y011352D02*
X009201Y011352D01*
X009360Y011193D02*
X009508Y011193D01*
X009518Y011035D02*
X009545Y011035D01*
X009677Y010876D02*
X020079Y010876D01*
X020079Y010718D02*
X011352Y010718D01*
X011510Y010559D02*
X020079Y010559D01*
X020079Y010401D02*
X011522Y010401D01*
X011479Y010242D02*
X020079Y010242D01*
X020079Y010084D02*
X011424Y010084D01*
X011424Y009925D02*
X020079Y009925D01*
X020079Y009767D02*
X011424Y009767D01*
X011424Y009608D02*
X020079Y009608D01*
X020079Y009450D02*
X011424Y009450D01*
X011424Y009291D02*
X020079Y009291D01*
X020079Y009133D02*
X011424Y009133D01*
X011424Y008974D02*
X020079Y008974D01*
X020079Y008816D02*
X018682Y008816D01*
X018579Y008919D02*
X018214Y008919D01*
X017957Y008661D01*
X017957Y008297D01*
X018214Y008039D01*
X018579Y008039D01*
X018837Y008297D01*
X018837Y008661D01*
X018579Y008919D01*
X018837Y008657D02*
X020079Y008657D01*
X020079Y008499D02*
X018837Y008499D01*
X018837Y008340D02*
X020079Y008340D01*
X020079Y008182D02*
X018721Y008182D01*
X018595Y007959D02*
X018417Y007959D01*
X018417Y007499D01*
X018877Y007499D01*
X018877Y007678D01*
X018595Y007959D01*
X018690Y007865D02*
X020079Y007865D01*
X020079Y008023D02*
X017252Y008023D01*
X017198Y007959D02*
X016917Y007678D01*
X016917Y007499D01*
X017377Y007499D01*
X017377Y007959D01*
X017198Y007959D01*
X017103Y007865D02*
X017093Y007865D01*
X016945Y007706D02*
X016935Y007706D01*
X016917Y007548D02*
X016776Y007548D01*
X016739Y007389D02*
X016917Y007389D01*
X016917Y007459D02*
X016917Y007280D01*
X017198Y006999D01*
X017377Y006999D01*
X017377Y007459D01*
X017417Y007459D01*
X017417Y007499D01*
X017877Y007499D01*
X017877Y007678D01*
X017595Y007959D01*
X017417Y007959D01*
X017417Y007499D01*
X017377Y007499D01*
X017377Y007459D01*
X016917Y007459D01*
X016966Y007231D02*
X016739Y007231D01*
X016739Y007072D02*
X017125Y007072D01*
X017209Y006914D02*
X016739Y006914D01*
X016739Y006755D02*
X017050Y006755D01*
X016957Y006597D02*
X016739Y006597D01*
X016592Y006438D02*
X016957Y006438D01*
X016974Y006280D02*
X016433Y006280D01*
X016275Y006121D02*
X017132Y006121D01*
X017099Y005804D02*
X015958Y005804D01*
X015799Y005646D02*
X016957Y005646D01*
X016957Y005487D02*
X015641Y005487D01*
X015482Y005329D02*
X016957Y005329D01*
X017083Y005170D02*
X015324Y005170D01*
X015165Y005012D02*
X020079Y005012D01*
X020079Y005170D02*
X018710Y005170D01*
X018837Y005329D02*
X020079Y005329D01*
X020079Y005487D02*
X018837Y005487D01*
X018837Y005646D02*
X020079Y005646D01*
X020079Y005804D02*
X018694Y005804D01*
X018661Y006121D02*
X020079Y006121D01*
X020079Y005963D02*
X016116Y005963D01*
X015811Y006280D02*
X015147Y006280D01*
X015163Y006318D02*
X015040Y006020D01*
X014812Y005793D01*
X014514Y005669D01*
X014192Y005669D01*
X013894Y005793D01*
X013667Y006020D01*
X013543Y006318D01*
X013543Y006640D01*
X013667Y006938D01*
X013894Y007166D01*
X014192Y007289D01*
X014514Y007289D01*
X014812Y007166D01*
X015040Y006938D01*
X015163Y006640D01*
X015163Y006318D01*
X015163Y006438D02*
X015970Y006438D01*
X016128Y006597D02*
X015163Y006597D01*
X015116Y006755D02*
X016287Y006755D01*
X016299Y006914D02*
X015050Y006914D01*
X014906Y007072D02*
X016299Y007072D01*
X016299Y007231D02*
X014655Y007231D01*
X014051Y007231D02*
X011085Y007231D01*
X011244Y007389D02*
X016299Y007389D01*
X016299Y007548D02*
X011402Y007548D01*
X011424Y007706D02*
X016312Y007706D01*
X016471Y007865D02*
X011424Y007865D01*
X011424Y008023D02*
X016629Y008023D01*
X016788Y008182D02*
X011424Y008182D01*
X011424Y008340D02*
X016946Y008340D01*
X016957Y008499D02*
X011424Y008499D01*
X011424Y008657D02*
X016957Y008657D01*
X017111Y008816D02*
X011424Y008816D01*
X010984Y008657D02*
X008372Y008657D01*
X008358Y008499D02*
X010984Y008499D01*
X010984Y008340D02*
X008200Y008340D01*
X007908Y008340D02*
X000754Y008340D01*
X000754Y008182D02*
X010984Y008182D01*
X010984Y008023D02*
X000754Y008023D01*
X000754Y007865D02*
X010984Y007865D01*
X010938Y007706D02*
X000754Y007706D01*
X000754Y007548D02*
X010780Y007548D01*
X010621Y007389D02*
X000754Y007389D01*
X000754Y007231D02*
X006177Y007231D01*
X006318Y007289D02*
X006020Y007166D01*
X005793Y006938D01*
X005669Y006640D01*
X005669Y006318D01*
X005793Y006020D01*
X006020Y005793D01*
X006318Y005669D01*
X006640Y005669D01*
X006938Y005793D01*
X007166Y006020D01*
X007289Y006318D01*
X007289Y006640D01*
X007166Y006938D01*
X006938Y007166D01*
X006640Y007289D01*
X006318Y007289D01*
X005927Y007072D02*
X000754Y007072D01*
X000754Y006914D02*
X005783Y006914D01*
X005717Y006755D02*
X000754Y006755D01*
X000754Y006597D02*
X005669Y006597D01*
X005669Y006438D02*
X000754Y006438D01*
X000754Y006280D02*
X005685Y006280D01*
X005751Y006121D02*
X000754Y006121D01*
X000754Y005963D02*
X005850Y005963D01*
X006009Y005804D02*
X000754Y005804D01*
X000754Y005646D02*
X008878Y005646D01*
X008818Y005487D02*
X000754Y005487D01*
X000754Y005329D02*
X008818Y005329D01*
X008818Y005170D02*
X000754Y005170D01*
X000754Y005012D02*
X008818Y005012D01*
X008818Y004853D02*
X000754Y004853D01*
X000754Y004695D02*
X008818Y004695D01*
X008818Y004536D02*
X000754Y004536D01*
X000754Y004378D02*
X008818Y004378D01*
X008818Y004219D02*
X000754Y004219D01*
X000754Y004061D02*
X008818Y004061D01*
X008942Y003902D02*
X000754Y003902D01*
X000754Y003744D02*
X009100Y003744D01*
X009258Y004219D02*
X009593Y004219D01*
X009463Y004695D02*
X009258Y004695D01*
X009258Y004853D02*
X009436Y004853D01*
X009436Y005012D02*
X009258Y005012D01*
X009258Y005170D02*
X009487Y005170D01*
X009500Y005646D02*
X015177Y005646D01*
X015336Y005804D02*
X014824Y005804D01*
X014982Y005963D02*
X015494Y005963D01*
X015653Y006121D02*
X015082Y006121D01*
X013883Y005804D02*
X009659Y005804D01*
X009817Y005963D02*
X013724Y005963D01*
X013625Y006121D02*
X009976Y006121D01*
X010134Y006280D02*
X013559Y006280D01*
X013543Y006438D02*
X010293Y006438D01*
X010451Y006597D02*
X013543Y006597D01*
X013591Y006755D02*
X010610Y006755D01*
X010768Y006914D02*
X013657Y006914D01*
X013801Y007072D02*
X010927Y007072D01*
X010463Y007231D02*
X006781Y007231D01*
X007032Y007072D02*
X010304Y007072D01*
X010146Y006914D02*
X007176Y006914D01*
X007242Y006755D02*
X009987Y006755D01*
X009829Y006597D02*
X007289Y006597D01*
X007289Y006438D02*
X009670Y006438D01*
X009512Y006280D02*
X007273Y006280D01*
X007208Y006121D02*
X009353Y006121D01*
X009195Y005963D02*
X007108Y005963D01*
X006950Y005804D02*
X009036Y005804D01*
X009642Y003268D02*
X000754Y003268D01*
X000754Y003110D02*
X009484Y003110D01*
X009916Y002920D02*
X009916Y002452D01*
X010416Y001952D01*
X005920Y001952D01*
X005723Y002149D01*
X005283Y002000D02*
X005203Y002000D01*
X005203Y001842D02*
X005283Y001842D01*
X005316Y001683D02*
X005174Y001683D01*
X005078Y001525D02*
X005425Y001525D01*
X004743Y002317D02*
X004703Y002317D01*
X004703Y002476D02*
X004743Y002476D01*
X004743Y002634D02*
X004703Y002634D01*
X004703Y002793D02*
X004743Y002793D01*
X004243Y002000D02*
X004163Y002000D01*
X004163Y001842D02*
X004243Y001842D01*
X004272Y001683D02*
X004131Y001683D01*
X004022Y001525D02*
X004368Y001525D01*
X006163Y002317D02*
X009740Y002317D01*
X009696Y002476D02*
X006163Y002476D01*
X006123Y002634D02*
X009580Y002634D01*
X010362Y002317D02*
X011849Y002317D01*
X011794Y001952D02*
X016519Y006676D01*
X016519Y007601D01*
X017397Y008479D01*
X017721Y008182D02*
X018072Y008182D01*
X017957Y008340D02*
X017837Y008340D01*
X017837Y008499D02*
X017957Y008499D01*
X017957Y008657D02*
X017837Y008657D01*
X017682Y008816D02*
X018111Y008816D01*
X018198Y007959D02*
X017917Y007678D01*
X017917Y007499D01*
X018377Y007499D01*
X018377Y007959D01*
X018198Y007959D01*
X018103Y007865D02*
X017690Y007865D01*
X017848Y007706D02*
X017945Y007706D01*
X017917Y007548D02*
X017877Y007548D01*
X017877Y007459D02*
X017417Y007459D01*
X017417Y006999D01*
X017595Y006999D01*
X017877Y007280D01*
X017877Y007459D01*
X017917Y007459D02*
X017917Y007280D01*
X018198Y006999D01*
X018377Y006999D01*
X018377Y007459D01*
X018417Y007459D01*
X018417Y007499D01*
X018377Y007499D01*
X018377Y007459D01*
X017917Y007459D01*
X017917Y007389D02*
X017877Y007389D01*
X017827Y007231D02*
X017966Y007231D01*
X018125Y007072D02*
X017668Y007072D01*
X017584Y006914D02*
X018209Y006914D01*
X018417Y006999D02*
X018595Y006999D01*
X018877Y007280D01*
X018877Y007459D01*
X018417Y007459D01*
X018417Y006999D01*
X018417Y007072D02*
X018377Y007072D01*
X018377Y007231D02*
X018417Y007231D01*
X018417Y007389D02*
X018377Y007389D01*
X018377Y007548D02*
X018417Y007548D01*
X018417Y007706D02*
X018377Y007706D01*
X018377Y007865D02*
X018417Y007865D01*
X018848Y007706D02*
X020079Y007706D01*
X020079Y007548D02*
X018877Y007548D01*
X018877Y007389D02*
X020079Y007389D01*
X020079Y007231D02*
X018827Y007231D01*
X018668Y007072D02*
X020079Y007072D01*
X020079Y006914D02*
X018584Y006914D01*
X018743Y006755D02*
X020079Y006755D01*
X020079Y006597D02*
X018837Y006597D01*
X018837Y006438D02*
X020079Y006438D01*
X020079Y006280D02*
X018819Y006280D01*
X017974Y006280D02*
X017819Y006280D01*
X017837Y006438D02*
X017957Y006438D01*
X017957Y006597D02*
X017837Y006597D01*
X017743Y006755D02*
X018050Y006755D01*
X017417Y007072D02*
X017377Y007072D01*
X017377Y007231D02*
X017417Y007231D01*
X017417Y007389D02*
X017377Y007389D01*
X017377Y007548D02*
X017417Y007548D01*
X017417Y007706D02*
X017377Y007706D01*
X017377Y007865D02*
X017417Y007865D01*
X017148Y004853D02*
X015007Y004853D01*
X014848Y004695D02*
X016990Y004695D01*
X016957Y004536D02*
X014690Y004536D01*
X014531Y004378D02*
X016957Y004378D01*
X018600Y004061D02*
X020079Y004061D01*
X020079Y004219D02*
X018759Y004219D01*
X018837Y004378D02*
X020079Y004378D01*
X020079Y004536D02*
X018837Y004536D01*
X018803Y004695D02*
X020079Y004695D01*
X020079Y004853D02*
X018645Y004853D01*
X012800Y003268D02*
X011190Y003268D01*
X011794Y001952D02*
X010416Y001952D01*
X002574Y008499D02*
X000754Y008499D01*
X000754Y008657D02*
X002415Y008657D01*
X002257Y008816D02*
X000754Y008816D01*
X000754Y008974D02*
X002098Y008974D01*
X001940Y009133D02*
X000754Y009133D01*
X000754Y009291D02*
X001781Y009291D01*
X001623Y009450D02*
X000754Y009450D01*
X000754Y009608D02*
X001464Y009608D01*
X001306Y009767D02*
X000754Y009767D01*
X000754Y009925D02*
X001147Y009925D01*
X001141Y010084D02*
X000754Y010084D01*
X000754Y010242D02*
X001141Y010242D01*
X001141Y010401D02*
X000754Y010401D01*
X000754Y010559D02*
X001141Y010559D01*
X001141Y010718D02*
X000754Y010718D01*
X000754Y010876D02*
X001141Y010876D01*
X001141Y011035D02*
X000754Y011035D01*
X000754Y011193D02*
X001141Y011193D01*
X001141Y011352D02*
X000754Y011352D01*
X000754Y011510D02*
X001141Y011510D01*
X001141Y011669D02*
X000754Y011669D01*
X000754Y011827D02*
X001141Y011827D01*
X001141Y011986D02*
X000754Y011986D01*
X000754Y012144D02*
X001141Y012144D01*
X001141Y012303D02*
X000754Y012303D01*
X000754Y012461D02*
X001141Y012461D01*
X001141Y012620D02*
X000754Y012620D01*
X000754Y012778D02*
X001141Y012778D01*
X001141Y012937D02*
X000754Y012937D01*
X000754Y013095D02*
X001141Y013095D01*
X001141Y013254D02*
X000754Y013254D01*
X000754Y013412D02*
X001141Y013412D01*
X001141Y013571D02*
X000754Y013571D01*
X000754Y013729D02*
X001141Y013729D01*
X001141Y013888D02*
X000754Y013888D01*
X000754Y014046D02*
X001141Y014046D01*
X001141Y014205D02*
X000754Y014205D01*
X000754Y014363D02*
X001141Y014363D01*
X001141Y014522D02*
X000754Y014522D01*
X000754Y014680D02*
X001141Y014680D01*
X001141Y014839D02*
X000754Y014839D01*
X000754Y014997D02*
X001141Y014997D01*
X001141Y015156D02*
X000754Y015156D01*
X000754Y015314D02*
X001224Y015314D01*
X001382Y015473D02*
X000754Y015473D01*
X000754Y015631D02*
X001541Y015631D01*
X001699Y015790D02*
X000754Y015790D01*
X000754Y015948D02*
X001858Y015948D01*
X002016Y016107D02*
X000754Y016107D01*
X000754Y016265D02*
X002175Y016265D01*
X002333Y016424D02*
X000754Y016424D01*
X000754Y016582D02*
X002492Y016582D01*
X002650Y016741D02*
X000754Y016741D01*
X000754Y016899D02*
X002809Y016899D01*
X002967Y017058D02*
X000754Y017058D01*
X000754Y017216D02*
X003126Y017216D01*
X003284Y017375D02*
X000754Y017375D01*
X000754Y017533D02*
X003443Y017533D01*
X003601Y017692D02*
X000754Y017692D01*
X000754Y017850D02*
X003760Y017850D01*
X003800Y018009D02*
X003918Y018009D01*
X003958Y018167D02*
X004077Y018167D01*
X004058Y018326D02*
X004235Y018326D01*
X004124Y018484D02*
X004394Y018484D01*
X004552Y018643D02*
X004140Y018643D01*
X004140Y018801D02*
X004711Y018801D01*
X004857Y018326D02*
X005598Y018326D01*
X005652Y018167D02*
X004699Y018167D01*
X004540Y018009D02*
X005794Y018009D01*
X006425Y018167D02*
X006439Y018167D01*
X006478Y018326D02*
X006597Y018326D01*
X006478Y018484D02*
X006756Y018484D01*
X006914Y018643D02*
X006478Y018643D01*
X006478Y018801D02*
X007073Y018801D01*
X007598Y018960D02*
X006478Y018960D01*
X006459Y019118D02*
X007618Y019118D01*
X007709Y019277D02*
X006368Y019277D01*
X007220Y018326D02*
X007598Y018326D01*
X007652Y018167D02*
X007061Y018167D01*
X006903Y018009D02*
X007794Y018009D01*
X008282Y018009D02*
X009794Y018009D01*
X009652Y018167D02*
X008425Y018167D01*
X008478Y018326D02*
X009598Y018326D01*
X009598Y018484D02*
X008478Y018484D01*
X006744Y017850D02*
X020079Y017850D01*
X020079Y017692D02*
X006586Y017692D01*
X006427Y017533D02*
X020079Y017533D01*
X020079Y017375D02*
X004694Y017375D01*
X004535Y017216D02*
X020079Y017216D01*
X020079Y017058D02*
X004377Y017058D01*
X004218Y016899D02*
X020079Y016899D01*
X020079Y016741D02*
X004060Y016741D01*
X003901Y016582D02*
X020079Y016582D01*
X020079Y016424D02*
X003743Y016424D01*
X003584Y016265D02*
X020079Y016265D01*
X020079Y016107D02*
X003426Y016107D01*
X003267Y015948D02*
X020079Y015948D01*
X020079Y015790D02*
X003109Y015790D01*
X002950Y015631D02*
X020079Y015631D01*
X020079Y015473D02*
X002792Y015473D01*
X002633Y015314D02*
X020079Y015314D01*
X020079Y015156D02*
X002475Y015156D01*
X002316Y014997D02*
X020079Y014997D01*
X020079Y014839D02*
X002172Y014839D01*
X002172Y014680D02*
X020079Y014680D01*
X020079Y014522D02*
X002172Y014522D01*
X001732Y014522D02*
X001581Y014522D01*
X001581Y014680D02*
X001732Y014680D01*
X001732Y014839D02*
X001581Y014839D01*
X001581Y014997D02*
X001732Y014997D01*
X001687Y015156D02*
X001852Y015156D01*
X001846Y015314D02*
X002011Y015314D01*
X002004Y015473D02*
X002169Y015473D01*
X002163Y015631D02*
X002328Y015631D01*
X002321Y015790D02*
X002486Y015790D01*
X002480Y015948D02*
X002645Y015948D01*
X002638Y016107D02*
X002803Y016107D01*
X002797Y016265D02*
X002962Y016265D01*
X002955Y016424D02*
X003120Y016424D01*
X003114Y016582D02*
X003279Y016582D01*
X003272Y016741D02*
X003437Y016741D01*
X003431Y016899D02*
X003596Y016899D01*
X003589Y017058D02*
X003754Y017058D01*
X003748Y017216D02*
X003913Y017216D01*
X003906Y017375D02*
X004071Y017375D01*
X004065Y017533D02*
X004230Y017533D01*
X004223Y017692D02*
X004388Y017692D01*
X004382Y017850D02*
X004547Y017850D01*
X002859Y018009D02*
X000754Y018009D01*
X000754Y018167D02*
X002701Y018167D01*
X002601Y018326D02*
X000754Y018326D01*
X000754Y018484D02*
X002536Y018484D01*
X002520Y018643D02*
X000754Y018643D01*
X000754Y018801D02*
X002520Y018801D01*
X002567Y018960D02*
X000754Y018960D01*
X000754Y019118D02*
X002633Y019118D01*
X002777Y019277D02*
X000754Y019277D01*
X000754Y019435D02*
X003027Y019435D01*
X000754Y019594D02*
X020079Y019594D01*
X020079Y019752D02*
X000754Y019752D01*
X000754Y019911D02*
X020079Y019911D01*
X020079Y020069D02*
X000754Y020069D01*
X001581Y014363D02*
X001732Y014363D01*
X001732Y014205D02*
X001581Y014205D01*
X001581Y014046D02*
X001732Y014046D01*
X001732Y013888D02*
X001581Y013888D01*
X001581Y013729D02*
X001732Y013729D01*
X001732Y013571D02*
X001581Y013571D01*
X007660Y014156D02*
X009826Y011991D01*
X009826Y011204D01*
X010144Y011193D02*
X020079Y011193D01*
X020079Y011035D02*
X010107Y011035D01*
X009974Y010718D02*
X011055Y010718D01*
X010897Y010559D02*
X010133Y010559D01*
X010127Y011352D02*
X020079Y011352D01*
X020079Y011510D02*
X010046Y011510D01*
X010046Y011669D02*
X020079Y011669D01*
X020079Y011827D02*
X010046Y011827D01*
X010046Y011986D02*
X020079Y011986D01*
X020079Y012144D02*
X009984Y012144D01*
X009825Y012303D02*
X020079Y012303D01*
X020079Y012461D02*
X009667Y012461D01*
X009508Y012620D02*
X020079Y012620D01*
X020079Y012778D02*
X009350Y012778D01*
X009191Y012937D02*
X020079Y012937D01*
X020079Y013095D02*
X009033Y013095D01*
X008874Y013254D02*
X020079Y013254D01*
X020079Y013412D02*
X008716Y013412D01*
X008557Y013571D02*
X020079Y013571D01*
X020079Y013729D02*
X008399Y013729D01*
X008240Y013888D02*
X020079Y013888D01*
X020079Y014046D02*
X008082Y014046D01*
X007978Y014205D02*
X020079Y014205D01*
X020079Y014363D02*
X007903Y014363D01*
X012338Y018009D02*
X017033Y018009D01*
X017044Y017997D02*
X017342Y017874D01*
X017664Y017874D01*
X017962Y017997D01*
X018189Y018225D01*
X018313Y018523D01*
X018313Y018845D01*
X018189Y019143D01*
X017962Y019371D01*
X017664Y019494D01*
X017342Y019494D01*
X017044Y019371D01*
X016816Y019143D01*
X016693Y018845D01*
X016693Y018523D01*
X016816Y018225D01*
X017044Y017997D01*
X016874Y018167D02*
X012467Y018167D01*
X012515Y018326D02*
X016775Y018326D01*
X016709Y018484D02*
X012518Y018484D01*
X012518Y018643D02*
X016693Y018643D01*
X016693Y018801D02*
X012518Y018801D01*
X012518Y018960D02*
X016740Y018960D01*
X016806Y019118D02*
X012499Y019118D01*
X012419Y019277D02*
X016950Y019277D01*
X017200Y019435D02*
X012203Y019435D01*
X017805Y019435D02*
X020079Y019435D01*
X020079Y019277D02*
X018055Y019277D01*
X018200Y019118D02*
X020079Y019118D01*
X020079Y018960D02*
X018265Y018960D01*
X018313Y018801D02*
X020079Y018801D01*
X020079Y018643D02*
X018313Y018643D01*
X018297Y018484D02*
X020079Y018484D01*
X020079Y018326D02*
X018231Y018326D01*
X018132Y018167D02*
X020079Y018167D01*
X020079Y018009D02*
X017973Y018009D01*
D14*
X011204Y010416D03*
X009826Y010416D03*
X009826Y009629D03*
X009826Y011204D03*
X007660Y009235D03*
X008054Y008645D03*
X007660Y014156D03*
M02*
