G75*
G70*
%OFA0B0*%
%FSLAX24Y24*%
%IPPOS*%
%LPD*%
%AMOC8*
5,1,8,0,0,1.08239X$1,22.5*
%
%ADD10C,0.0000*%
%ADD11C,0.1300*%
%ADD12OC8,0.0640*%
%ADD13C,0.0640*%
%ADD14C,0.0745*%
D10*
X000574Y000574D02*
X020259Y000574D01*
X020259Y020259D01*
X000574Y020259D01*
X000574Y000574D01*
X005849Y006479D02*
X005851Y006529D01*
X005857Y006579D01*
X005867Y006628D01*
X005881Y006676D01*
X005898Y006723D01*
X005919Y006768D01*
X005944Y006812D01*
X005972Y006853D01*
X006004Y006892D01*
X006038Y006929D01*
X006075Y006963D01*
X006115Y006993D01*
X006157Y007020D01*
X006201Y007044D01*
X006247Y007065D01*
X006294Y007081D01*
X006342Y007094D01*
X006392Y007103D01*
X006441Y007108D01*
X006492Y007109D01*
X006542Y007106D01*
X006591Y007099D01*
X006640Y007088D01*
X006688Y007073D01*
X006734Y007055D01*
X006779Y007033D01*
X006822Y007007D01*
X006863Y006978D01*
X006902Y006946D01*
X006938Y006911D01*
X006970Y006873D01*
X007000Y006833D01*
X007027Y006790D01*
X007050Y006746D01*
X007069Y006700D01*
X007085Y006652D01*
X007097Y006603D01*
X007105Y006554D01*
X007109Y006504D01*
X007109Y006454D01*
X007105Y006404D01*
X007097Y006355D01*
X007085Y006306D01*
X007069Y006258D01*
X007050Y006212D01*
X007027Y006168D01*
X007000Y006125D01*
X006970Y006085D01*
X006938Y006047D01*
X006902Y006012D01*
X006863Y005980D01*
X006822Y005951D01*
X006779Y005925D01*
X006734Y005903D01*
X006688Y005885D01*
X006640Y005870D01*
X006591Y005859D01*
X006542Y005852D01*
X006492Y005849D01*
X006441Y005850D01*
X006392Y005855D01*
X006342Y005864D01*
X006294Y005877D01*
X006247Y005893D01*
X006201Y005914D01*
X006157Y005938D01*
X006115Y005965D01*
X006075Y005995D01*
X006038Y006029D01*
X006004Y006066D01*
X005972Y006105D01*
X005944Y006146D01*
X005919Y006190D01*
X005898Y006235D01*
X005881Y006282D01*
X005867Y006330D01*
X005857Y006379D01*
X005851Y006429D01*
X005849Y006479D01*
X013723Y006479D02*
X013725Y006529D01*
X013731Y006579D01*
X013741Y006628D01*
X013755Y006676D01*
X013772Y006723D01*
X013793Y006768D01*
X013818Y006812D01*
X013846Y006853D01*
X013878Y006892D01*
X013912Y006929D01*
X013949Y006963D01*
X013989Y006993D01*
X014031Y007020D01*
X014075Y007044D01*
X014121Y007065D01*
X014168Y007081D01*
X014216Y007094D01*
X014266Y007103D01*
X014315Y007108D01*
X014366Y007109D01*
X014416Y007106D01*
X014465Y007099D01*
X014514Y007088D01*
X014562Y007073D01*
X014608Y007055D01*
X014653Y007033D01*
X014696Y007007D01*
X014737Y006978D01*
X014776Y006946D01*
X014812Y006911D01*
X014844Y006873D01*
X014874Y006833D01*
X014901Y006790D01*
X014924Y006746D01*
X014943Y006700D01*
X014959Y006652D01*
X014971Y006603D01*
X014979Y006554D01*
X014983Y006504D01*
X014983Y006454D01*
X014979Y006404D01*
X014971Y006355D01*
X014959Y006306D01*
X014943Y006258D01*
X014924Y006212D01*
X014901Y006168D01*
X014874Y006125D01*
X014844Y006085D01*
X014812Y006047D01*
X014776Y006012D01*
X014737Y005980D01*
X014696Y005951D01*
X014653Y005925D01*
X014608Y005903D01*
X014562Y005885D01*
X014514Y005870D01*
X014465Y005859D01*
X014416Y005852D01*
X014366Y005849D01*
X014315Y005850D01*
X014266Y005855D01*
X014216Y005864D01*
X014168Y005877D01*
X014121Y005893D01*
X014075Y005914D01*
X014031Y005938D01*
X013989Y005965D01*
X013949Y005995D01*
X013912Y006029D01*
X013878Y006066D01*
X013846Y006105D01*
X013818Y006146D01*
X013793Y006190D01*
X013772Y006235D01*
X013755Y006282D01*
X013741Y006330D01*
X013731Y006379D01*
X013725Y006429D01*
X013723Y006479D01*
X016873Y018684D02*
X016875Y018734D01*
X016881Y018784D01*
X016891Y018833D01*
X016905Y018881D01*
X016922Y018928D01*
X016943Y018973D01*
X016968Y019017D01*
X016996Y019058D01*
X017028Y019097D01*
X017062Y019134D01*
X017099Y019168D01*
X017139Y019198D01*
X017181Y019225D01*
X017225Y019249D01*
X017271Y019270D01*
X017318Y019286D01*
X017366Y019299D01*
X017416Y019308D01*
X017465Y019313D01*
X017516Y019314D01*
X017566Y019311D01*
X017615Y019304D01*
X017664Y019293D01*
X017712Y019278D01*
X017758Y019260D01*
X017803Y019238D01*
X017846Y019212D01*
X017887Y019183D01*
X017926Y019151D01*
X017962Y019116D01*
X017994Y019078D01*
X018024Y019038D01*
X018051Y018995D01*
X018074Y018951D01*
X018093Y018905D01*
X018109Y018857D01*
X018121Y018808D01*
X018129Y018759D01*
X018133Y018709D01*
X018133Y018659D01*
X018129Y018609D01*
X018121Y018560D01*
X018109Y018511D01*
X018093Y018463D01*
X018074Y018417D01*
X018051Y018373D01*
X018024Y018330D01*
X017994Y018290D01*
X017962Y018252D01*
X017926Y018217D01*
X017887Y018185D01*
X017846Y018156D01*
X017803Y018130D01*
X017758Y018108D01*
X017712Y018090D01*
X017664Y018075D01*
X017615Y018064D01*
X017566Y018057D01*
X017516Y018054D01*
X017465Y018055D01*
X017416Y018060D01*
X017366Y018069D01*
X017318Y018082D01*
X017271Y018098D01*
X017225Y018119D01*
X017181Y018143D01*
X017139Y018170D01*
X017099Y018200D01*
X017062Y018234D01*
X017028Y018271D01*
X016996Y018310D01*
X016968Y018351D01*
X016943Y018395D01*
X016922Y018440D01*
X016905Y018487D01*
X016891Y018535D01*
X016881Y018584D01*
X016875Y018634D01*
X016873Y018684D01*
X002700Y018684D02*
X002702Y018734D01*
X002708Y018784D01*
X002718Y018833D01*
X002732Y018881D01*
X002749Y018928D01*
X002770Y018973D01*
X002795Y019017D01*
X002823Y019058D01*
X002855Y019097D01*
X002889Y019134D01*
X002926Y019168D01*
X002966Y019198D01*
X003008Y019225D01*
X003052Y019249D01*
X003098Y019270D01*
X003145Y019286D01*
X003193Y019299D01*
X003243Y019308D01*
X003292Y019313D01*
X003343Y019314D01*
X003393Y019311D01*
X003442Y019304D01*
X003491Y019293D01*
X003539Y019278D01*
X003585Y019260D01*
X003630Y019238D01*
X003673Y019212D01*
X003714Y019183D01*
X003753Y019151D01*
X003789Y019116D01*
X003821Y019078D01*
X003851Y019038D01*
X003878Y018995D01*
X003901Y018951D01*
X003920Y018905D01*
X003936Y018857D01*
X003948Y018808D01*
X003956Y018759D01*
X003960Y018709D01*
X003960Y018659D01*
X003956Y018609D01*
X003948Y018560D01*
X003936Y018511D01*
X003920Y018463D01*
X003901Y018417D01*
X003878Y018373D01*
X003851Y018330D01*
X003821Y018290D01*
X003789Y018252D01*
X003753Y018217D01*
X003714Y018185D01*
X003673Y018156D01*
X003630Y018130D01*
X003585Y018108D01*
X003539Y018090D01*
X003491Y018075D01*
X003442Y018064D01*
X003393Y018057D01*
X003343Y018054D01*
X003292Y018055D01*
X003243Y018060D01*
X003193Y018069D01*
X003145Y018082D01*
X003098Y018098D01*
X003052Y018119D01*
X003008Y018143D01*
X002966Y018170D01*
X002926Y018200D01*
X002889Y018234D01*
X002855Y018271D01*
X002823Y018310D01*
X002795Y018351D01*
X002770Y018395D01*
X002749Y018440D01*
X002732Y018487D01*
X002718Y018535D01*
X002708Y018584D01*
X002702Y018634D01*
X002700Y018684D01*
D11*
X003330Y018684D03*
X006479Y006479D03*
X014353Y006479D03*
X017503Y018684D03*
D12*
X017397Y009979D03*
X017397Y008979D03*
X018397Y008979D03*
X018397Y009979D03*
X018397Y007979D03*
X018397Y006979D03*
X018397Y005979D03*
X018397Y004979D03*
X018397Y003979D03*
X018397Y002979D03*
X017397Y002979D03*
X017397Y003979D03*
X017397Y004979D03*
X017397Y005979D03*
X017397Y006979D03*
X017397Y007979D03*
X010916Y004920D03*
X009916Y004920D03*
X009916Y003920D03*
X009916Y002920D03*
X010916Y002920D03*
X010916Y003920D03*
X003436Y004479D03*
X002436Y004479D03*
X002436Y005479D03*
X003436Y005479D03*
X003436Y006479D03*
X003436Y007479D03*
X002436Y007479D03*
X002436Y006479D03*
X002436Y008479D03*
X003436Y008479D03*
D13*
X003236Y011778D02*
X002636Y011778D01*
X002636Y012778D02*
X003236Y012778D01*
X003236Y013778D02*
X002636Y013778D01*
X008416Y018384D02*
X008416Y018984D01*
X009416Y018984D02*
X009416Y018384D01*
X010416Y018384D02*
X010416Y018984D01*
X011416Y018984D02*
X011416Y018384D01*
X012416Y018384D02*
X012416Y018984D01*
D14*
X016507Y015353D02*
X017212Y015353D01*
X017212Y013353D02*
X016507Y013353D01*
M02*
